<?xml version="1.0" encoding="UTF-8"?>
<svg width="121px" height="26px" viewBox="0 0 121 26" version="1.1" xmlns="http://www.w3.org/2000/svg" xmlns:xlink="http://www.w3.org/1999/xlink">
    <!-- Generator: Sketch 55.2 (78181) - https://sketchapp.com -->
    <title>arrow 1</title>
    <desc>Created with Sketch.</desc>
    <g id="24.-Trade-in" stroke="none" stroke-width="1" fill="none" fill-rule="evenodd">
        <g id="24.A.4.3-Trade-in-1440" transform="translate(-659.000000, -159.000000)" fill="#404040" fill-rule="nonzero">
            <g id="Group-9" transform="translate(340.000000, 64.000000)">
                <g id="Group-2" transform="translate(64.000000, 96.000000)">
                    <path id="arrow-1" d="M364.048069,16.6332357 C363.878731,16.5240577 363.709402,16.4154522 363.54008,16.3074192 L364.615837,14.6213743 C364.818711,14.750815 365.021588,14.8810593 365.224467,15.012107 L368.780289,10.1120279 L376,24 L360.557796,21.4429858 L364.048069,16.6332357 Z M256.628369,24.7779154 L255.371631,23.2220846 C256.426089,22.3703357 257.480947,21.5410269 258.536209,20.7341608 L259.751015,22.3229482 C258.709949,23.11896 257.669066,23.9372815 256.628369,24.7779154 Z M263.748195,19.3769131 L262.590938,17.7457309 C263.698384,16.9600425 264.806284,16.1990227 265.914637,15.4626758 L267.021377,17.1285471 C265.930127,17.8535313 264.839065,18.6029852 263.748195,19.3769131 Z M271.214227,14.4639486 L270.176855,12.7540188 C271.338265,12.0494207 272.500179,11.3718608 273.662601,10.7213452 L274.639304,12.4666391 C273.497413,13.1056653 272.35572,13.771433 271.214227,14.4639486 Z M279.017114,10.1482121 L278.123306,8.3590484 C279.33923,7.75161194 280.555708,7.17371019 281.77274,6.62535173 L282.594334,8.44880527 C281.401713,8.98616536 280.209306,9.55263143 279.017114,10.1482121 Z M287.174889,6.52845282 L286.451553,4.66383896 C287.718359,4.17240923 288.985752,3.71293051 290.253726,3.2854131 L290.892715,5.18058948 C289.653193,5.59851378 288.41392,6.04779813 287.174889,6.52845282 Z M295.605428,3.74304083 L295.078834,1.81361116 C296.388821,1.45607987 297.699398,1.13260481 299.010552,0.843195894 L299.441633,2.79618587 C298.162597,3.07850532 296.883865,3.39412034 295.605428,3.74304083 Z M304.310952,1.88245536 L304.005388,-0.0940645619 C305.344662,-0.301111782 306.684486,-0.472675378 308.024845,-0.6087491 L308.226847,1.3810235 C306.92117,1.51357631 305.615877,1.68071819 304.310952,1.88245536 Z M313.176268,1.04428246 L313.107149,-0.954522824 C313.980712,-0.984730794 314.854475,-0.999889697 315.728559,-0.999999408 C316.213581,-1.00000001 316.690423,-0.995543301 317.168482,-0.986562815 L317.130918,1.01308439 C316.66541,1.00433968 316.20109,1.00000001 315.728686,1.00000058 C314.877689,1.00010741 314.026884,1.01486799 313.176268,1.04428246 Z M322.061476,1.26949112 L322.231263,-0.723288992 C323.573377,-0.608939777 324.915728,-0.459153319 326.258299,-0.273935752 L325.984973,1.70729945 C324.676755,1.52682117 323.368929,1.3808871 322.061476,1.26949112 Z M330.870476,2.54151389 L331.269349,0.581692351 C332.584999,0.849460135 333.900813,1.15121252 335.216778,1.48693976 L334.722376,3.42486828 C333.437978,3.09719447 332.154015,2.80274626 330.870476,2.54151389 Z M339.47106,4.7871171 L340.078181,2.88149297 C341.353227,3.28771572 342.628388,3.72579969 343.903658,4.19573474 L343.21212,6.07237393 C341.96466,5.61268704 340.717642,5.18427148 339.47106,4.7871171 Z M347.834315,7.91790053 L348.624414,6.0805807 C349.850607,6.60787799 351.076892,7.16459635 352.303267,7.75072731 L351.44083,9.55522261 C350.238239,8.9804588 349.036068,8.4346876 347.834315,7.91790053 Z M355.829876,11.7806552 L356.774882,10.0179973 C357.948853,10.6473933 359.122907,11.303724 360.297046,11.9869831 L359.291123,13.7156007 C358.136991,13.0439841 356.983241,12.3990043 355.829876,11.7806552 Z"></path>
                </g>
            </g>
        </g>
    </g>
</svg>