<?xml version="1.0" encoding="UTF-8"?>
<svg width="149px" height="34px" viewBox="0 0 149 34" version="1.1" xmlns="http://www.w3.org/2000/svg" xmlns:xlink="http://www.w3.org/1999/xlink">
    <!-- Generator: Sketch 55.2 (78181) - https://sketchapp.com -->
    <title>arrow 2</title>
    <desc>Created with Sketch.</desc>
    <g id="24.-Trade-in" stroke="none" stroke-width="1" fill="none" fill-rule="evenodd">
        <g id="24.A.4.3-Trade-in-1440" transform="translate(-610.000000, -307.000000)" fill="#404040" fill-rule="nonzero">
            <g id="Group-9" transform="translate(340.000000, 64.000000)">
                <g id="Group-2" transform="translate(64.000000, 96.000000)">
                    <path id="arrow-2" d="M213.341362,167.042357 C213.978834,166.253566 214.616475,165.488063 215.254294,164.745846 L216.771156,166.049353 C216.172658,166.745813 215.573995,167.463601 214.975178,168.202718 L219.813641,171.639067 L206,179 L208.399438,163.532528 L213.341362,167.042357 Z M220.098638,162.395189 L218.661911,161.003853 C219.628948,160.005268 220.596529,159.060006 221.564701,158.168083 L222.919804,159.639033 C221.979991,160.504831 221.039587,161.423544 220.098638,162.395189 Z M226.673148,156.460065 L225.450379,154.877397 C226.560091,154.020034 227.670804,153.232424 228.78258,152.514655 L229.86736,154.194908 C228.803665,154.881636 227.738907,155.636659 226.673148,156.460065 Z M234.152747,151.794719 L233.295513,149.987746 C234.56964,149.383296 235.845242,148.870269 237.12224,148.448905 L237.748935,150.348182 C236.551628,150.743251 235.352925,151.22535 234.152747,151.794719 Z M242.427692,149.245783 L242.148211,147.265406 C243.423154,147.08548 244.698624,146.996913 245.97525,146.999783 C246.106574,147.000208 246.214544,147.001381 246.325969,147.003544 L246.287156,149.003167 C246.18683,149.00122 246.089611,149.000163 245.969771,148.999776 C244.789369,148.997122 243.608794,149.0791 242.427692,149.245783 Z M251.038798,149.633375 L251.490112,147.684961 C252.757006,147.978414 254.069834,148.364691 255.433613,148.841963 L254.772974,150.729702 C253.475479,150.275626 252.232066,149.909774 251.038798,149.633375 Z M259.334777,152.582418 L260.165206,150.76297 C261.337975,151.298243 262.54861,151.890181 263.805062,152.540804 L262.885398,154.316816 C261.657357,153.680905 260.476298,153.103428 259.334777,152.582418 Z M267.229206,156.693373 L268.223683,154.958145 C269.33194,155.593298 270.480701,156.270754 271.689574,157.000712 L270.65576,158.712796 C269.459391,157.990388 268.323632,157.320599 267.229206,156.693373 Z M274.907525,161.33714 L275.971458,159.64361 C276.995818,160.287147 278.0662,160.965782 279.35655,161.788616 L278.281216,163.474931 C276.994355,162.654322 275.927569,161.977966 274.907525,161.33714 Z M282.501228,166.170652 L283.576642,164.484389 C284.865635,165.306444 285.930911,165.981973 286.949964,166.622361 L285.885811,168.315754 C284.862489,167.672683 283.793666,166.994904 282.501228,166.170652 Z M290.137223,170.941354 L291.17175,169.229702 C292.36821,169.952846 293.50379,170.623318 294.598001,171.25133 L293.602441,172.985936 C292.494527,172.35006 291.346068,171.671984 290.137223,170.941354 Z M298.032845,175.413918 L298.953998,173.638678 C300.181096,174.275406 301.361332,174.853984 302.502178,175.376414 L301.669472,177.19482 C300.497657,176.658209 299.288106,176.065259 298.032845,175.413918 Z M306.390293,179.120803 L307.055169,177.234553 C308.351448,177.691474 309.593994,178.060861 310.786755,178.341518 L310.328666,180.28835 C309.06318,179.990581 307.75206,179.600808 306.390293,179.120803 Z M315.514571,180.994118 L315.562737,178.994698 C315.709273,178.998228 315.854898,178.999997 315.999593,179 C317.132387,179 318.264976,178.923762 319.39806,178.771205 L319.664928,180.753321 C318.443581,180.917761 317.221841,181 315.999572,181 C315.838749,180.999997 315.677083,180.998033 315.514571,180.994118 Z M324.737422,179.5969 L324.125371,177.692853 C325.327043,177.306579 326.530049,176.834488 327.734472,176.27635 L328.575382,178.090977 C327.297452,178.683178 326.018104,179.185229 324.737422,179.5969 Z M333.090168,175.620326 L332.022625,173.929068 C333.09376,173.252954 334.165942,172.509018 335.239113,171.697172 L336.44573,173.292188 C335.328218,174.137577 334.209716,174.913652 333.090168,175.620326 Z M340.3431,170.059437 L339.003091,168.574723 C339.951795,167.718483 340.901093,166.809421 341.850939,165.847516 L343.274044,167.252782 C342.297626,168.241595 341.32066,169.177153 340.3431,170.059437 Z M346.734322,163.523127 L345.229057,162.206245 C346.077031,161.236967 346.925332,160.225741 347.773934,159.172568 L349.331289,160.427418 C348.465943,161.501371 347.600296,162.533274 346.734322,163.523127 Z M352.426586,156.404919 L350.81609,155.219042 C351.584222,154.17587 352.352543,153.098429 353.121038,151.986724 L354.766216,153.123996 C353.986519,154.251907 353.206646,155.345547 352.426586,156.404919 Z"></path>
                </g>
            </g>
        </g>
    </g>
</svg>