<?xml version="1.0" encoding="UTF-8"?>
<svg width="49px" height="103px" viewBox="0 0 49 103" version="1.1" xmlns="http://www.w3.org/2000/svg" xmlns:xlink="http://www.w3.org/1999/xlink">
    <!-- Generator: Sketch 55.2 (78181) - https://sketchapp.com -->
    <title>arrow 1 mob</title>
    <desc>Created with Sketch.</desc>
    <g id="24.-Trade-in" stroke="none" stroke-width="1" fill="none" fill-rule="evenodd">
        <g id="24.A.6.2-Trade-in-320" transform="translate(-260.000000, -195.000000)" fill="#404040" fill-rule="nonzero">
            <path id="arrow-1-mob" d="M273.718072,288.966766 C274.566176,288.708369 275.406129,288.426015 276.237092,288.120103 L276.928042,289.996959 C275.959374,290.353567 274.978982,290.679479 273.988099,290.974116 L274.808253,297.071059 L260,292 L272.941799,283.196032 L273.718072,288.966766 Z M281.62948,287.979751 L280.745515,286.185703 C281.917485,285.608249 283.064598,284.982062 284.184006,284.308979 L285.214616,286.022994 C284.047513,286.724753 282.851479,287.377646 281.62948,287.979751 Z M289.451981,283.164419 L288.248735,281.566858 C289.292291,280.780876 290.302924,279.951766 291.277888,279.081895 L292.609381,280.574251 C291.593159,281.480933 290.539742,282.345142 289.451981,283.164419 Z M296.253851,276.964999 L294.774496,275.619075 C295.653543,274.652883 296.492211,273.650646 297.288113,272.615096 L298.873861,273.833867 C298.044254,274.913272 297.170089,275.957927 296.253851,276.964999 Z M301.765825,269.637463 L300.062308,268.589594 C300.746411,267.477452 301.383943,266.337187 301.973039,265.171646 L303.758002,266.073814 C303.14377,267.289087 302.479061,268.477958 301.765825,269.637463 Z M305.837531,261.354924 L303.96723,260.646424 C304.42944,259.426278 304.840666,258.186214 305.199609,256.928932 L307.12277,257.477978 C306.748429,258.789194 306.319563,260.082454 305.837531,261.354924 Z M308.264843,252.502199 L306.294772,252.157497 C306.519234,250.874628 306.69067,249.579592 306.808281,248.27473 L308.800206,248.454268 C308.677604,249.814504 308.498874,251.164643 308.264843,252.502199 Z M308.996389,243.399043 L306.996533,243.423088 C306.980755,242.110789 306.911146,240.805538 306.788333,239.509494 L308.779414,239.32082 C308.907411,240.671577 308.97995,242.031751 308.996389,243.399043 Z M308.031582,234.259098 L306.071074,234.654581 C305.812267,233.371612 305.500216,232.102664 305.135996,230.850311 L307.056429,230.291796 C307.436266,231.59785 307.761692,232.921187 308.031582,234.259098 Z M305.373743,225.467241 L303.5225,226.224143 C303.027862,225.014349 302.482866,223.826419 301.889141,222.663172 L303.670521,221.75395 C304.289621,222.966912 304.85793,224.205657 305.373743,225.467241 Z M301.10096,217.311765 L299.424561,218.402493 C298.712073,217.307431 297.954201,216.242371 297.153132,215.210127 L298.733161,213.983951 C299.568192,215.059957 300.358218,216.170204 301.10096,217.311765 Z M295.404435,210.124742 L293.959545,211.507598 C293.056604,210.564152 292.114892,209.658415 291.137027,208.792931 L292.462562,207.29528 C293.481783,208.197368 294.463315,209.141403 295.404435,210.124742 Z M288.43176,204.087547 L287.270016,205.715537 C286.206687,204.95674 285.112265,204.242455 283.989585,203.574756 L285.011918,201.855792 C286.182351,202.551893 287.323282,203.296531 288.43176,204.087547 Z M280.493682,199.478706 L279.656283,201.294956 C278.47103,200.748483 277.262853,200.251616 276.034532,199.805857 L276.716796,197.925827 C277.997763,198.39069 279.257695,198.908842 280.493682,199.478706 Z M271.875267,196.449093 L271.392124,198.38986 C270.127438,198.075023 268.847772,197.812731 267.55562,197.603955 L267.874628,195.62956 C269.221992,195.847257 270.556417,196.120773 271.875267,196.449093 Z M262.767606,195.076873 L262.656386,197.073778 C261.778759,197.024898 260.897517,197.000247 260.013305,197.000002 L260.013859,195.000002 C260.934987,195.000257 261.853132,195.02594 262.767606,195.076873 Z"></path>
        </g>
    </g>
</svg>