<?xml version="1.0" encoding="UTF-8"?>
<svg width="121px" height="26px" viewBox="0 0 121 26" version="1.1" xmlns="http://www.w3.org/2000/svg" xmlns:xlink="http://www.w3.org/1999/xlink">
    <!-- Generator: Sketch 55.2 (78181) - https://sketchapp.com -->
    <title>arrow 3</title>
    <desc>Created with Sketch.</desc>
    <g id="24.-Trade-in" stroke="none" stroke-width="1" fill="none" fill-rule="evenodd">
        <g id="24.A.4.3-Trade-in-1440" transform="translate(-659.000000, -463.000000)" fill="#404040" fill-rule="nonzero">
            <g id="Group-9" transform="translate(340.000000, 64.000000)">
                <g id="Group-2" transform="translate(64.000000, 96.000000)">
                    <path id="arrow-3" d="M364.048069,320.633236 C363.878731,320.524058 363.709402,320.415452 363.54008,320.307419 L364.615837,318.621374 C364.818711,318.750815 365.021588,318.881059 365.224467,319.012107 L368.780289,314.112028 L376,328 L360.557796,325.442986 L364.048069,320.633236 Z M256.628369,328.777915 L255.371631,327.222085 C256.426089,326.370336 257.480947,325.541027 258.536209,324.734161 L259.751015,326.322948 C258.709949,327.11896 257.669066,327.937282 256.628369,328.777915 Z M263.748195,323.376913 L262.590938,321.745731 C263.698384,320.960042 264.806284,320.199023 265.914637,319.462676 L267.021377,321.128547 C265.930127,321.853531 264.839065,322.602985 263.748195,323.376913 Z M271.214227,318.463949 L270.176855,316.754019 C271.338265,316.049421 272.500179,315.371861 273.662601,314.721345 L274.639304,316.466639 C273.497413,317.105665 272.35572,317.771433 271.214227,318.463949 Z M279.017114,314.148212 L278.123306,312.359048 C279.33923,311.751612 280.555708,311.17371 281.77274,310.625352 L282.594334,312.448805 C281.401713,312.986165 280.209306,313.552631 279.017114,314.148212 Z M287.174889,310.528453 L286.451553,308.663839 C287.718359,308.172409 288.985752,307.712931 290.253726,307.285413 L290.892715,309.180589 C289.653193,309.598514 288.41392,310.047798 287.174889,310.528453 Z M295.605428,307.743041 L295.078834,305.813611 C296.388821,305.45608 297.699398,305.132605 299.010552,304.843196 L299.441633,306.796186 C298.162597,307.078505 296.883865,307.39412 295.605428,307.743041 Z M304.310952,305.882455 L304.005388,303.905935 C305.344662,303.698888 306.684486,303.527325 308.024845,303.391251 L308.226847,305.381023 C306.92117,305.513576 305.615877,305.680718 304.310952,305.882455 Z M313.176268,305.044282 L313.107149,303.045477 C313.980712,303.015269 314.854475,303.00011 315.728559,303.000001 C316.213581,303 316.690423,303.004457 317.168482,303.013437 L317.130918,305.013084 C316.66541,305.00434 316.20109,305 315.728686,305.000001 C314.877689,305.000107 314.026884,305.014868 313.176268,305.044282 Z M322.061476,305.269491 L322.231263,303.276711 C323.573377,303.39106 324.915728,303.540847 326.258299,303.726064 L325.984973,305.707299 C324.676755,305.526821 323.368929,305.380887 322.061476,305.269491 Z M330.870476,306.541514 L331.269349,304.581692 C332.584999,304.84946 333.900813,305.151213 335.216778,305.48694 L334.722376,307.424868 C333.437978,307.097194 332.154015,306.802746 330.870476,306.541514 Z M339.47106,308.787117 L340.078181,306.881493 C341.353227,307.287716 342.628388,307.7258 343.903658,308.195735 L343.21212,310.072374 C341.96466,309.612687 340.717642,309.184271 339.47106,308.787117 Z M347.834315,311.917901 L348.624414,310.080581 C349.850607,310.607878 351.076892,311.164596 352.303267,311.750727 L351.44083,313.555223 C350.238239,312.980459 349.036068,312.434688 347.834315,311.917901 Z M355.829876,315.780655 L356.774882,314.017997 C357.948853,314.647393 359.122907,315.303724 360.297046,315.986983 L359.291123,317.715601 C358.136991,317.043984 356.983241,316.399004 355.829876,315.780655 Z"></path>
                </g>
            </g>
        </g>
    </g>
</svg>