<?xml version="1.0" encoding="utf-8"?>
<!-- Generator: Adobe Illustrator 22.1.0, SVG Export Plug-In . SVG Version: 6.00 Build 0)  -->
<svg version="1.2" baseProfile="tiny" id="Слой_1"
	 xmlns="http://www.w3.org/2000/svg" xmlns:xlink="http://www.w3.org/1999/xlink" x="0px" y="0px" viewBox="0 0 49 103"
	 xml:space="preserve">
<title>arrow 1 mob</title>
<desc>Created with Sketch.</desc>
<g id="_x32_4.-Trade-in">
	<g id="_x32_4.A.6.2-Trade-in-320" transform="translate(-260.000000, -195.000000)">
		<path id="arrow-1-mob" fill="#404040" d="M295.7,203.5c-0.8,0.3-1.7,0.5-2.5,0.8l-0.7-1.9c1-0.4,2-0.7,2.9-1l-0.8-6.1l14.8,5.1
			l-13,8.7L295.7,203.5z M287.8,204.5l0.9,1.8c-1.2,0.6-2.3,1.2-3.4,1.9l-1-1.7C285.3,205.7,286.5,205.1,287.8,204.5z M279.9,209.3
			l1.2,1.6c-1,0.8-2.1,1.6-3,2.5l-1.3-1.5C277.8,210.9,278.8,210.1,279.9,209.3z M273.1,215.4l1.5,1.4c-0.9,1-1.7,2-2.5,3l-1.6-1.2
			C271.3,217.5,272.2,216.4,273.1,215.4z M267.5,222.7l1.7,1.1c-0.7,1.1-1.3,2.2-1.9,3.4l-1.8-0.9
			C266.1,225.1,266.8,223.9,267.5,222.7z M263.4,231l1.9,0.7c-0.5,1.2-0.9,2.5-1.3,3.7l-1.9-0.6C262.5,233.6,262.9,232.3,263.4,231z
			 M261,239.8l2,0.4c-0.2,1.3-0.4,2.6-0.5,3.9l-2-0.2C260.5,242.5,260.7,241.2,261,239.8z M260.2,248.9l2,0c0,1.3,0.1,2.6,0.2,3.9
			l-2,0.2C260.3,251.7,260.2,250.3,260.2,248.9z M261.1,258.1l2-0.4c0.3,1.3,0.6,2.6,0.9,3.8l-1.9,0.5
			C261.7,260.7,261.4,259.4,261.1,258.1z M263.7,266.9l1.9-0.7c0.5,1.2,1,2.4,1.6,3.6l-1.8,0.9C264.8,269.4,264.2,268.1,263.7,266.9
			z M267.9,275.1l1.7-1.1c0.7,1.1,1.5,2.2,2.3,3.2l-1.6,1.2C269.5,277.3,268.7,276.2,267.9,275.1z M273.6,282.3l1.5-1.4
			c0.9,0.9,1.8,1.9,2.8,2.7l-1.3,1.5C275.5,284.2,274.5,283.3,273.6,282.3z M280.5,288.3l1.2-1.6c1.1,0.8,2.2,1.5,3.3,2.2l-1,1.7
			C282.8,289.9,281.7,289.1,280.5,288.3z M288.5,293l0.8-1.8c1.2,0.6,2.4,1.1,3.6,1.5l-0.7,1.9C291,294.1,289.7,293.6,288.5,293z
			 M297.1,296.1l0.5-1.9c1.3,0.3,2.5,0.6,3.8,0.8l-0.3,2C299.7,296.7,298.4,296.4,297.1,296.1z M306.2,297.5l0.1-2
			c0.9,0.1,1.8,0.1,2.6,0.1l0,2C308,297.6,307.1,297.5,306.2,297.5z"/>
	</g>
</g>
</svg>
