<?xml version="1.0" encoding="UTF-8"?>
<svg width="96px" height="96px" viewBox="0 0 96 96" version="1.1" xmlns="http://www.w3.org/2000/svg" xmlns:xlink="http://www.w3.org/1999/xlink">
    <!-- Generator: Sketch 55.2 (78181) - https://sketchapp.com -->
    <title>Group 2</title>
    <desc>Created with Sketch.</desc>
    <defs>
        <linearGradient x1="50%" y1="0%" x2="50%" y2="100%" id="linearGradient-1">
            <stop stop-color="#FF9898" offset="0%"></stop>
            <stop stop-color="#FF5F5F" offset="100%"></stop>
        </linearGradient>
    </defs>
    <g id="24.-Trade-in" stroke="none" stroke-width="1" fill="none" fill-rule="evenodd">
        <g id="24.A.3-Trade-in-1440" transform="translate(-404.000000, -200.000000)">
            <g id="Group-2" transform="translate(404.000000, 200.000000)">
                <g id="Group-5" fill="#FFBB03">
                    <circle id="Oval" cx="48" cy="48" r="48"></circle>
                </g>
                <g id="Group-67" transform="translate(15.000000, 35.000000)">
                    <g id="Page-1">
                        <path d="M69.61955,16.3662 C69.55005,14.9787 68.53755,13.8207 67.17205,13.5667 L51.38355,10.6292 C49.16155,10.2157 47.07255,9.2707 45.29505,7.8742 L39.62305,3.4182 C36.80455,1.2037 33.32355,0.0002 29.73905,0.0002 L21.66205,0.0002 C18.14955,0.0002 14.89455,1.8427 13.08705,4.8547 L11.01955,8.3007 C10.38705,9.3547 9.24805,10.0002 8.01855,10.0002 L4.50005,10.0002 C2.01455,10.0002 5e-05,12.0147 5e-05,14.5002 L5e-05,22.0002 C5e-05,23.1047 0.89555,24.0002 2.00005,24.0002 L5.22655,24.0002 C6.15205,24.0002 6.96705,23.3677 7.16905,22.4647 C7.86855,19.3372 10.66155,17.0002 14.00005,17.0002 C16.96055,17.0002 19.49155,18.8377 20.51505,21.4347 C21.12155,22.9747 22.59005,23.9997 24.24505,24.0002 L47.75505,24.0002 C49.40955,24.0002 50.87805,22.9747 51.48505,21.4347 C52.50805,18.8377 55.03955,17.0002 58.00005,17.0002 C61.06005,17.0002 63.66155,18.9632 64.61305,21.6992 C65.10105,23.1022 66.47855,24.0002 67.96355,24.0002 L68.95005,24.0002 C68.96655,24.0002 68.98305,23.9997 69.00005,23.9987 C69.55155,23.9712 69.97655,23.5017 69.94855,22.9502 L69.61955,16.3662 Z" id="Fill-1" fill="url(#linearGradient-1)"></path>
                        <path d="M19.5,24.5 C19.5,27.5375 17.0375,30 14,30 C10.9625,30 8.5,27.5375 8.5,24.5 C8.5,21.4625 10.9625,19 14,19 C17.0375,19 19.5,21.4625 19.5,24.5" id="Fill-3" fill="#1A1A1A"></path>
                        <path d="M16.25,14 L14.75,14 C14.336,14 14,13.664 14,13.25 L14,13.25 C14,12.836 14.336,12.5 14.75,12.5 L16.25,12.5 C16.664,12.5 17,12.836 17,13.25 L17,13.25 C17,13.664 16.664,14 16.25,14" id="Fill-5" fill="#000000"></path>
                        <path d="M29.75,14 L28.25,14 C27.836,14 27.5,13.664 27.5,13.25 L27.5,13.25 C27.5,12.836 27.836,12.5 28.25,12.5 L29.75,12.5 C30.164,12.5 30.5,12.836 30.5,13.25 L30.5,13.25 C30.5,13.664 30.164,14 29.75,14" id="Fill-7" fill="#000000"></path>
                        <path d="M16.5,24.5 C16.5,25.8805 15.3805,27 14,27 C12.6195,27 11.5,25.8805 11.5,24.5 C11.5,23.1195 12.6195,22 14,22 C15.3805,22 16.5,23.1195 16.5,24.5" id="Fill-9" fill="#FFFFFF"></path>
                        <path d="M2,19 L0,19 L0,15 L1,15 C2.1045,15 3,15.8955 3,17 L3,18 C3,18.5525 2.5525,19 2,19" id="Fill-11" fill="#FF5F5F"></path>
                        <path d="M69,19 L69,19 C67.6195,19 66.5,17.8805 66.5,16.5 L66.5,16 C66.5,15.4475 66.9475,15 67.5,15 L68,15 C69.1045,15 70,15.8955 70,17 L70,18 C70,18.5525 69.5525,19 69,19" id="Fill-13" fill="#FFDC5F"></path>
                        <path d="M42.2799,10 L29.4999,10 C28.1194,10 26.9999,8.8805 26.9999,7.5 L26.9999,4.5 C26.9999,3.3955 27.8954,2.5 28.9999,2.5 L29.0684,2.5 C32.2659,2.5 35.3744,3.557 37.9089,5.507 L42.5849,9.1035 C42.9634,9.395 42.7574,10 42.2799,10" id="Fill-15" fill="#FFFFFF"></path>
                        <path d="M15.64925,10 C14.48325,10 13.76325,8.728 14.36325,7.7285 L15.31525,6.1415 C16.67075,3.8825 19.11175,2.5 21.74625,2.5 L22.49975,2.5 C23.60475,2.5 24.49975,3.3955 24.49975,4.5 L24.49975,8 C24.49975,9.1045 23.60475,10 22.49975,10 L15.64925,10 Z" id="Fill-17" fill="#FFFFFF"></path>
                        <path d="M63.5,24.5 C63.5,27.5375 61.0375,30 58,30 C54.9625,30 52.5,27.5375 52.5,24.5 C52.5,21.4625 54.9625,19 58,19 C61.0375,19 63.5,21.4625 63.5,24.5" id="Fill-19" fill="#1A1A1A"></path>
                        <path d="M60.5,24.5 C60.5,25.8805 59.3805,27 58,27 C56.6195,27 55.5,25.8805 55.5,24.5 C55.5,23.1195 56.6195,22 58,22 C59.3805,22 60.5,23.1195 60.5,24.5" id="Fill-21" fill="#FFFFFF"></path>
                    </g>
                </g>
            </g>
        </g>
    </g>
</svg>