<?xml version="1.0" encoding="UTF-8"?>
<svg width="96px" height="96px" viewBox="0 0 96 96" version="1.1" xmlns="http://www.w3.org/2000/svg" xmlns:xlink="http://www.w3.org/1999/xlink">
    <!-- Generator: Sketch 55.2 (78181) - https://sketchapp.com -->
    <title>Group 7</title>
    <desc>Created with Sketch.</desc>
    <g id="24.-Trade-in" stroke="none" stroke-width="1" fill="none" fill-rule="evenodd">
        <g id="24.A.3-Trade-in-1440" transform="translate(-404.000000, -352.000000)">
            <g id="Group-7" transform="translate(404.000000, 352.000000)">
                <circle id="Oval-4" fill="#02C5AB" cx="48" cy="48" r="48"></circle>
                <g id="Illustration/-Credit/-Docs" transform="translate(22.243902, 20.487805)">
                    <g>
                        <g id="Group-28">
                            <rect id="Rectangle-8" fill="#BCF2EB" x="0" y="0" width="35.1219512" height="46.8292683" rx="5.85365854"></rect>
                            <g id="Group-7" transform="translate(10.536585, 16.390244)" fill="#404040">
                                <rect id="Rectangle-10" x="0" y="0" width="14.0487805" height="1"></rect>
                                <rect id="Rectangle-10" x="0" y="3.51219512" width="14.0487805" height="1"></rect>
                                <rect id="Rectangle-10" x="0" y="7.02439024" width="14.0487805" height="1"></rect>
                                <rect id="Rectangle-10" x="0" y="10.5365854" width="14.0487805" height="1"></rect>
                                <rect id="Rectangle-10" x="0" y="14.0487805" width="7.02439024" height="1"></rect>
                            </g>
                        </g>
                        <g id="Group-17" transform="translate(16.390244, 8.195122)">
                            <path d="M5.85365854,0 L25.7560976,0 L35.1219512,9.36585366 L35.1219512,40.9756098 C35.1219512,44.2084961 32.501179,46.8292683 29.2682927,46.8292683 L5.85365854,46.8292683 C2.6207722,46.8292683 8.5127084e-13,44.2084961 8.52651283e-13,40.9756098 L8.52651283e-13,5.85365854 C8.5136719e-13,2.6207722 2.6207722,1.48205001e-15 5.85365854,0 Z" id="Rectangle-8" fill="#FFFFFF"></path>
                            <path d="M25.7560976,0 L35.1219512,9.36585366 L31.6097561,9.36585366 C28.3768698,9.36585366 25.7560976,6.74508146 25.7560976,3.51219512 L25.7560976,0 Z" id="Rectangle" fill="#BCF2EB"></path>
                            <g id="Group-41" transform="translate(10.536585, 16.390244)" fill="#404040">
                                <rect id="Rectangle-10" x="0" y="0" width="14.0487805" height="1"></rect>
                                <rect id="Rectangle-10" x="0" y="3.51219512" width="14.0487805" height="1"></rect>
                                <rect id="Rectangle-10" x="0" y="7.02439024" width="14.0487805" height="1"></rect>
                                <rect id="Rectangle-10" x="0" y="10.5365854" width="14.0487805" height="1"></rect>
                                <rect id="Rectangle-10" x="0" y="14.0487805" width="7.02439024" height="1"></rect>
                            </g>
                        </g>
                    </g>
                </g>
            </g>
        </g>
    </g>
</svg>