<?xml version="1.0" encoding="UTF-8"?>
<svg width="96px" height="96px" viewBox="0 0 96 96" version="1.1" xmlns="http://www.w3.org/2000/svg" xmlns:xlink="http://www.w3.org/1999/xlink">
    <!-- Generator: Sketch 55.2 (78181) - https://sketchapp.com -->
    <title>Group 20</title>
    <desc>Created with Sketch.</desc>
    <defs>
        <circle id="path-1" cx="48" cy="48" r="48"></circle>
    </defs>
    <g id="24.-Trade-in" stroke="none" stroke-width="1" fill="none" fill-rule="evenodd">
        <g id="24.A.3-Trade-in-1440" transform="translate(-744.000000, -200.000000)">
            <g id="Group-20" transform="translate(744.000000, 200.000000)">
                <g id="Group-48">
                    <mask id="mask-2" fill="white">
                        <use xlink:href="#path-1"></use>
                    </mask>
                    <use id="Oval-4" fill="#136A5E" xlink:href="#path-1"></use>
                </g>
                <g id="Illustration/-Credit/-Phone" transform="translate(29.268293, 29.268293)" fill="#02C5AB">
                    <path d="M16.6033171,32.6329756 C15.3365854,31.902439 13.3322927,30.2329756 10.2930732,27.1960976 C7.22809756,24.131122 5.55863415,22.1244878 4.83043902,20.8600976 C-3.47707317,9.31668293 1.17541463,2.67863415 2.45619512,1.39785366 C3.95707317,-0.100682927 8.48546341,-0.351219512 8.52058537,0.442536585 C8.55570732,1.23395122 12.6017561,10.0261463 12.6392195,10.8199024 C12.672,11.6136585 9.96995122,14.3157073 9.17853659,15.107122 C8.39414634,15.8915122 14.465561,22.752 14.5802927,22.8807805 C14.7114146,22.9955122 21.5742439,29.0692683 22.3562927,28.284878 C23.1477073,27.4934634 25.8497561,24.7914146 26.6435122,24.8265366 C27.4349268,24.8616585 36.2294634,28.9077073 37.0232195,28.9404878 C37.8146341,28.9779512 37.566439,33.5063415 36.065561,35.0072195 C34.7847805,36.288 28.1467317,40.9404878 16.6033171,32.6329756 Z" id="10-Phone-s"></path>
                </g>
            </g>
        </g>
    </g>
</svg>