<?xml version="1.0" encoding="UTF-8"?>
<svg width="96px" height="96px" viewBox="0 0 96 96" version="1.1" xmlns="http://www.w3.org/2000/svg" xmlns:xlink="http://www.w3.org/1999/xlink">
    <!-- Generator: Sketch 55.2 (78181) - https://sketchapp.com -->
    <title>Group 45</title>
    <desc>Created with Sketch.</desc>
    <g id="24.-Trade-in" stroke="none" stroke-width="1" fill="none" fill-rule="evenodd">
        <g id="24.A.3-Trade-in-1440" transform="translate(-756.000000, -352.000000)">
            <g id="Group-45" transform="translate(756.000000, 352.000000)">
                <circle id="Oval-4" fill="#2898BC" cx="48" cy="48" r="48"></circle>
                <g id="Illustration/-Credit/-Wallet" transform="translate(29.000000, 21.000000)">
                    <rect id="Rectangle-11" fill="#136A5E" x="0" y="15.2195122" width="37.4634146" height="28.097561" rx="9.36585366"></rect>
                    <circle id="Oval-6" fill="#FFBB03" cx="16.6829268" cy="16.097561" r="5.56097561"></circle>
                    <rect id="Rectangle-11" fill="#02C5AB" x="0" y="18.7317073" width="37.4634146" height="28.097561" rx="9.36585366"></rect>
                    <path d="M29.2682927,28.097561 L37.4634146,28.097561 C38.7565692,28.097561 39.804878,29.1458699 39.804878,30.4390244 L39.804878,35.1219512 C39.804878,36.4151058 38.7565692,37.4634146 37.4634146,37.4634146 L29.2682927,37.4634146 C26.6819836,37.4634146 24.5853659,35.3667969 24.5853659,32.7804878 C24.5853659,30.1941787 26.6819836,28.097561 29.2682927,28.097561 Z" id="Rectangle-12" fill="#2898BC"></path>
                    <circle id="Oval-5" fill="#FFFFFF" cx="29.8536585" cy="32.7804878" r="2.34146341"></circle>
                    <circle id="Oval-6" fill="#FFBB03" cx="26.0487805" cy="5.56097561" r="5.56097561"></circle>
                </g>
            </g>
        </g>
    </g>
</svg>