<?xml version="1.0" encoding="UTF-8"?>
<svg width="200px" height="80px" viewBox="0 0 200 80" version="1.1" xmlns="http://www.w3.org/2000/svg" xmlns:xlink="http://www.w3.org/1999/xlink">
    <!-- Generator: Sketch 53.2 (72643) - https://sketchapp.com -->
    <title>Group 4</title>
    <desc>Created with Sketch.</desc>
    <defs>
        <linearGradient x1="91.3766044%" y1="0%" x2="19.496024%" y2="102.655901%" id="linearGradient-1">
            <stop stop-color="#EBEBEB" offset="0%"></stop>
            <stop stop-color="#D4D4D4" offset="100%"></stop>
        </linearGradient>
        <linearGradient x1="50%" y1="0%" x2="50%" y2="98.4813457%" id="linearGradient-2">
            <stop stop-color="#F2F2F2" offset="0%"></stop>
            <stop stop-color="#C4C4C4" offset="100%"></stop>
        </linearGradient>
        <path d="M68,67.0069875 C58.5,67.0069875 58,47.0069875 40,47.0069875 C28.9998772,47.0069875 21,55.008899 21,65.0069875 C9.13476562,65.0069875 1.8179902e-12,57.0250388 0,48.0069875 L0,38.0069875 C0,31.4583005 5,26.0069875 12,26.0069875 C32.0751953,26.0069875 35,-0.49301249 58,0.00698750983 L83,0.00698750983 C107,0.00698750983 122.5,24.0069875 145,28.0069875 C176.746986,33.6508961 200,28.9928877 200,60.0069875 C200,64.4228913 198,67.0069875 195,67.0069875 L183,67.0069875 C183,56.0069875 175,47.0069875 164,47.0069875 C145,47.0069875 145,67.0069875 138,67.0069875 L68,67.0069875 Z" id="path-3"></path>
        <linearGradient x1="84.0282645%" y1="45.1403911%" x2="1.72505803%" y2="55.5578085%" id="linearGradient-5">
            <stop stop-color="#5E5E5E" offset="0%"></stop>
            <stop stop-color="#1A1A1A" offset="100%"></stop>
        </linearGradient>
        <linearGradient x1="50%" y1="0%" x2="50%" y2="98.4813457%" id="linearGradient-6">
            <stop stop-color="#F2F2F2" offset="0%"></stop>
            <stop stop-color="#C4C4C4" offset="100%"></stop>
        </linearGradient>
        <linearGradient x1="84.0282645%" y1="25.9267431%" x2="1.72505803%" y2="77.5319586%" id="linearGradient-7">
            <stop stop-color="#5E5E5E" offset="0%"></stop>
            <stop stop-color="#1A1A1A" offset="100%"></stop>
        </linearGradient>
    </defs>
    <g id="UI-Set" stroke="none" stroke-width="1" fill="none" fill-rule="evenodd">
        <g id="00.-cars" transform="translate(-133.000000, -1960.000000)">
            <g id="Group-4" transform="translate(133.000000, 1960.000000)">
                <g id="Group" transform="translate(25.000000, 50.000000)">
                    <path d="M30,15 C30,23.2840909 23.2840909,30 15,30 C6.71590909,30 0,23.2840909 0,15 C0,6.71590909 6.71590909,0 15,0 C23.2840909,0 30,6.71590909 30,15" id="Fill-3" fill="#1A1A1A"></path>
                    <path d="M25,15 C25,20.5227273 20.5227273,25 15,25 C9.47727273,25 5,20.5227273 5,15 C5,9.47727273 9.47727273,5 15,5 C20.5227273,5 25,9.47727273 25,15" id="Fill-3" fill="url(#linearGradient-1)"></path>
                </g>
                <g id="Group" transform="translate(149.000000, 50.000000)">
                    <path d="M30,15 C30,23.2840909 23.2840909,30 15,30 C6.71590909,30 0,23.2840909 0,15 C0,6.71590909 6.71590909,0 15,0 C23.2840909,0 30,6.71590909 30,15" id="Fill-3" fill="#1A1A1A"></path>
                    <path d="M25,15 C25,20.5227273 20.5227273,25 15,25 C9.47727273,25 5,20.5227273 5,15 C5,9.47727273 9.47727273,5 15,5 C20.5227273,5 25,9.47727273 25,15" id="Fill-3" fill="url(#linearGradient-1)"></path>
                </g>
                <g id="Group-21">
                    <mask id="mask-4" fill="white">
                        <use xlink:href="#path-3"></use>
                    </mask>
                    <use id="Fill-1" fill="url(#linearGradient-2)" xlink:href="#path-3"></use>
                    <path d="M70.5,35 L65.5,35 C64.12,35 63,34.104 63,33 L63,33 C63,31.896 64.12,31 65.5,31 L70.5,31 C71.88,31 73,31.896 73,33 L73,33 C73,34.104 71.88,35 70.5,35" id="Fill-7" fill="#404040" mask="url(#mask-4)"></path>
                    <path d="M180,40.5 C180,39.3379602 181.561858,39 183.123716,39 L184.685575,39 C189.349493,39 195.53401,41.6213974 197.077438,44.5279083 C197.896569,46.0704575 198.677892,48 197.038474,48 C190.933007,48 180,45 180,40.5 Z" id="Fill-13" fill="#FFEC7D" mask="url(#mask-4)"></path>
                    <path d="M0,41 L0,35 L7,35 C8.65685425,35 10,36.3431458 10,38 L10,40 C10,40.5522847 9.55228475,41 9,41 L0,41 Z" id="Fill-11" fill="#FF5F5F" mask="url(#mask-4)"></path>
                    <path d="M65,3 L81.637207,3 C89.5185547,3 94.6376953,4.45248689 102.803955,8.73251619 C106.535593,10.6883098 114.256866,15.7753088 125.967773,23.9935132 L65,23.9935132 C63.8954305,23.9935132 63,23.0980827 63,21.9935132 L63,5 C63,3.8954305 63.8954305,3 65,3 Z" id="Combined-Shape" fill="url(#linearGradient-5)" mask="url(#mask-4)"></path>
                    <path d="M117.84247,21 L124,21 C125.104569,21 126,21.8954305 126,23 L126,26 C126,27.1045695 125.104569,28 124,28 L120.044785,28 C118.020139,28 116.306127,26.5057379 116.030068,24.5 L115.861149,23.2726988 C115.710541,22.1784451 116.475518,21.1692858 117.569772,21.0186784 C117.660139,21.0062407 117.751251,21 117.84247,21 Z" id="Rectangle-23" fill="url(#linearGradient-6)" mask="url(#mask-4)"></path>
                    <path d="M32.4290115,19.0504493 C35.5372676,15.416642 38.0750499,12.6594284 40.0423584,10.7788086 C45.0842285,5.95910645 50.2712402,3.00698577 57.0460205,3.00698577 L58.0000005,3.00698577 C59.10457,3.00698577 60.0000005,3.90241627 60.0000005,5.00698577 L60.0000011,22.0005095 C60.0000011,23.105079 59.1045706,24.0005095 58.0000011,24.0005095 C58.0000009,24.0005095 58.0000007,24.0005095 58.0000005,24.0005095 L34.7087815,24.0005108 C33.0519219,24.0005102 31.7087723,22.6573597 31.7087728,21.0005001 C31.7087731,20.2854189 31.9641978,19.5938547 32.4290115,19.0504493 Z" id="Combined-Shape" fill="url(#linearGradient-7)" mask="url(#mask-4)"></path>
                </g>
            </g>
        </g>
    </g>
</svg>