<svg xmlns="http://www.w3.org/2000/svg" xmlns:xlink="http://www.w3.org/1999/xlink" width="44" height="44" viewBox="0 0 44 44">
    <defs>
        <circle id="a" cx="22" cy="22" r="22"/>
    </defs>
    <g fill="none" fill-rule="evenodd">
        <mask id="b" fill="#fff">
            <use xlink:href="#a"/>
        </mask>
        <use fill="#FFF" xlink:href="#a"/>
        <path fill="#009C32" fill-rule="nonzero" d="M37.814 21.436c-.454-1.19-1.587-1.845-2.81-1.614l-2.508.463a.797.797 0 0 0-.62.92c.076.43.473.714.889.64l2.508-.462c.596-.112.967.258 1.114.641.147.384.121.913-.39 1.25l-3.687 2.467c-.339.231-.761.245-1.113.046a1.11 1.11 0 0 1-.57-.992v-8.001A.78.78 0 0 0 29.86 16a.783.783 0 0 0-.768.794v7.988c0 1.012.512 1.898 1.37 2.38.397.226.825.338 1.254.338.493 0 .986-.145 1.427-.443l3.686-2.467c1.044-.694 1.44-1.964.986-3.154m-12.96-1.62l-2.508.463a.797.797 0 0 0-.62.919c.076.43.473.714.889.641l2.509-.463c.595-.112.966.258 1.113.642.147.383.122.912-.39 1.25l-3.686 2.466c-.34.232-.762.245-1.114.047a1.11 1.11 0 0 1-.57-.992v-6.071c0-1.012-.511-1.898-1.369-2.38a2.519 2.519 0 0 0-2.681.105l-9.26 6.203c-1.044.701-1.434 1.97-.98 3.161.455 1.19 1.587 1.845 2.81 1.614l8.089-1.502a.797.797 0 0 0 .62-.919.775.775 0 0 0-.89-.641L8.729 25.86c-.595.112-.966-.258-1.114-.641-.147-.384-.121-.913.39-1.25l9.26-6.203c.34-.232.762-.245 1.114-.047.359.199.57.57.57.992v6.071c0 1.012.512 1.898 1.37 2.38.396.226.825.338 1.254.338.493 0 .985-.145 1.42-.443l3.687-2.467c1.043-.7 1.433-1.97.979-3.16-.448-1.191-1.58-1.84-2.803-1.614" mask="url(#b)"/>
    </g>
</svg>
