<?xml version="1.0" encoding="UTF-8"?>
<svg width="96px" height="96px" viewBox="0 0 96 96" version="1.1" xmlns="http://www.w3.org/2000/svg" xmlns:xlink="http://www.w3.org/1999/xlink">
    <!-- Generator: Sketch 52.6 (67491) - http://www.bohemiancoding.com/sketch -->
    <title>Group</title>
    <desc>Created with Sketch.</desc>
    <g id="11.-Credit-" stroke="none" stroke-width="1" fill="none" fill-rule="evenodd">
        <g id="11.91" transform="translate(-776.000000, -408.000000)">
            <g id="Group" transform="translate(776.000000, 408.000000)">
                <circle id="Oval" fill="#F2F2F2" fill-rule="nonzero" cx="48" cy="48" r="48"></circle>
                <path d="M45.8869193,31.6447539 C46.7882533,30.1015819 47.6224667,28.5196227 48.5621553,27 C50.8853505,31.130825 53.2605984,35.2325597 55.5961219,39.3564584 C55.781046,39.5628611 55.5837936,39.7941984 55.4892768,39.9909043 C53.2893644,43.8142031 51.1058897,47.6471987 48.9224149,51.4815795 C48.8278981,51.6852117 48.636125,51.8611389 48.6279061,52.0966319 C48.8278981,52.2102227 49.0635052,52.1645093 49.2840444,52.1769766 C53.8222199,52.1645093 58.3617652,52.1811324 62.8999407,52.1714356 C65.286147,56.3715232 67.7065986,60.5522173 70.0749975,64.7620018 C65.2929961,64.7620018 60.5109947,64.7661575 55.7289933,64.7606165 C53.4605904,60.7212182 51.1264368,56.720607 48.8580339,52.6812088 C48.7552983,52.5232899 48.6813286,52.3238134 48.5032535,52.2379277 C47.6019196,53.7215339 46.7827741,55.2550092 45.9102061,56.7552384 C44.3938281,59.4273918 42.8473143,62.0801516 41.347374,64.7606165 C36.5653726,64.7606165 31.7833712,64.7606165 27,64.7606165 C29.3807271,60.5563731 31.7820014,56.364597 34.1777964,52.1700503 C38.9666469,52.1797471 43.7541275,52.1617388 48.542978,52.1783618 C46.2334809,48.0960207 43.9089159,44.0219911 41.5706528,39.9576583 C41.498053,39.7886574 41.3021704,39.5877957 41.4569587,39.403557 C42.9185444,36.8089778 44.4225941,34.2379479 45.8869193,31.6447539 Z" id="path5" fill="#EA0033"></path>
            </g>
        </g>
    </g>
</svg>