<svg xmlns="http://www.w3.org/2000/svg" xmlns:xlink="http://www.w3.org/1999/xlink" width="44" height="44" viewBox="0 0 44 44">
    <defs>
        <circle id="a" cx="22" cy="22" r="22"/>
    </defs>
    <g fill="none" fill-rule="evenodd">
        <mask id="b" fill="#fff">
            <use xlink:href="#a"/>
        </mask>
        <use fill="#FFF" xlink:href="#a"/>
        <g fill="#EA0033" fill-rule="nonzero" mask="url(#b)">
            <path d="M20.53 11.62c.502-.854.966-1.73 1.488-2.57 1.292 2.285 2.614 4.555 3.913 6.836.103.115-.007.243-.06.351a1631.718 1631.718 0 0 0-3.652 6.358c-.053.112-.16.21-.164.34.111.063.242.038.365.045 2.524-.007 5.049.002 7.573-.004 1.327 2.324 2.674 4.637 3.991 6.967-2.66 0-5.32.002-7.98-.001-1.261-2.235-2.56-4.449-3.821-6.683-.057-.088-.098-.198-.197-.246-.502.821-.957 1.67-1.443 2.5-.843 1.478-1.703 2.946-2.538 4.429h-7.98c1.324-2.326 2.66-4.646 3.993-6.966 2.663.005 5.326-.005 7.99.004a1075.158 1075.158 0 0 0-3.878-6.761c-.04-.094-.15-.205-.064-.307.813-1.435 1.65-2.858 2.464-4.292z"/>
        </g>
    </g>
</svg>
