<svg xmlns="http://www.w3.org/2000/svg" xmlns:xlink="http://www.w3.org/1999/xlink" width="44" height="44" viewBox="0 0 44 44">
    <defs>
        <circle id="a" cx="22" cy="22" r="22"/>
        <path id="c" d="M8.17.724L.388 8.456 8.18 8.45 8.17.724"/>
        <linearGradient id="d" x1="134.287%" x2="-6.986%" y1="14.756%" y2="156.247%">
            <stop offset="0%" stop-color="#FFFFFE"/>
            <stop offset="100%" stop-color="#B09365"/>
        </linearGradient>
        <path id="f" d="M10.753.282L.01 11.058l2.154-.893 7.699-7.732.89-2.151"/>
        <linearGradient id="g" x1="112.62%" x2="-28.638%" y1="-7.603%" y2="135.436%">
            <stop offset="0%" stop-color="#FFFFFE"/>
            <stop offset="100%" stop-color="#B09365"/>
        </linearGradient>
        <path id="i" d="M9.06.54l2.944 2.955-5.636 5.68-5.93-.007L9.061.539"/>
        <linearGradient id="j" x1="94.817%" x2="-11.118%" y1="25.738%" y2="105.588%">
            <stop offset="0%" stop-color="#FFFFFE"/>
            <stop offset="100%" stop-color="#B09365"/>
        </linearGradient>
        <path id="l" d="M10.75.268l.003 1.271-8.57 8.626-2.18.896L10.75.268"/>
        <linearGradient id="m" x1="112.562%" x2="-28.468%" y1="-7.517%" y2="135.427%">
            <stop offset="0%" stop-color="#FFFFFE"/>
            <stop offset="100%" stop-color="#B09365"/>
        </linearGradient>
    </defs>
    <g fill="none" fill-rule="evenodd">
        <mask id="b" fill="#fff">
            <use xlink:href="#a"/>
        </mask>
        <use fill="#FFF" xlink:href="#a"/>
        <g mask="url(#b)">
            <path fill="#D9292A" d="M20.707 15.743v3.51l-7.458 7.463V15.743L16.98 12l3.728 3.743zm10.152 0l.026 3.51-4.055 4.068-4.045-4.059v-3.519L19.06 12h8.071l3.728 3.743zM21.746 19.968l.002 1.26 2.955 2.966-5.653 5.675h-5.904l-2.143.89h8.42l6.532-6.565-4.209-4.226M31.017 22.12v7.75l-7.71-.004-2.143.893h10.741V19.968l-.888 2.152"/>
            <g transform="translate(22.846 21.413)">
                <mask id="e" fill="#fff">
                    <use xlink:href="#c"/>
                </mask>
                <path fill="url(#d)" d="M8.17.724L.388 8.456 8.18 8.45 8.17.724" mask="url(#e)"/>
            </g>
            <g transform="translate(21.154 19.705)">
                <mask id="h" fill="#fff">
                    <use xlink:href="#f"/>
                </mask>
                <path fill="url(#g)" d="M10.753.282L.01 11.058l2.154-.893 7.699-7.732.89-2.151" mask="url(#h)"/>
            </g>
            <g transform="translate(12.692 20.705)">
                <mask id="k" fill="#fff">
                    <use xlink:href="#i"/>
                </mask>
                <path fill="url(#j)" d="M9.06.54l2.944 2.955-5.636 5.68-5.93-.007L9.061.539" mask="url(#k)"/>
            </g>
            <g transform="translate(11 19.705)">
                <mask id="n" fill="#fff">
                    <use xlink:href="#l"/>
                </mask>
                <path fill="url(#m)" d="M10.75.268l.003 1.271-8.57 8.626-2.18.896L10.75.268" mask="url(#n)"/>
            </g>
        </g>
    </g>
</svg>
