<?xml version="1.0" encoding="UTF-8"?>
<svg width="44px" height="44px" viewBox="0 0 44 44" version="1.1" xmlns="http://www.w3.org/2000/svg" xmlns:xlink="http://www.w3.org/1999/xlink">
    <!-- Generator: Sketch 55 (78076) - https://sketchapp.com -->
    <title>Банк «ФК Открытие»</title>
    <desc>Created with Sketch.</desc>
    <defs>
        <circle id="path-1" cx="22" cy="22" r="22"></circle>
    </defs>
    <g id="14.-Credit-comparing" stroke="none" stroke-width="1" fill="none" fill-rule="evenodd">
        <g id="logos" transform="translate(-40.000000, -2092.000000)">
            <g id="Банк-«ФК-Открытие»" transform="translate(40.000000, 2092.000000)">
                <mask id="mask-2" fill="white">
                    <use xlink:href="#path-1"></use>
                </mask>
                <use id="Oval" fill="#FFFFFF" xlink:href="#path-1"></use>
                <g id="logo_small-ef36281aa2ab5949c6fa2271d3f57330" mask="url(#mask-2)" fill="#09CCFF" fill-rule="nonzero">
                    <g transform="translate(11.000000, 11.000000)" id="Shape">
                        <path d="M18.436,11.572 C18.436,14.256 17.028,16.632 14.784,17.82 L14.3,18.04 C14.124,18.128 13.948,18.172 13.772,18.172 C13.42,18.172 13.156,18.04 12.98,17.732 C12.848,17.512 12.804,17.248 12.848,16.984 C12.936,16.588 13.244,16.412 13.332,16.368 C14.652,15.752 15.488,14.432 15.488,12.936 L15.488,9.02 C15.488,7.524 14.652,6.16 13.332,5.588 C13.332,5.588 12.936,5.412 12.848,4.972 C12.804,4.708 12.848,4.444 12.98,4.224 C13.156,3.96 13.42,3.784 13.772,3.784 C13.948,3.784 14.124,3.828 14.3,3.916 C14.3,3.916 14.784,4.136 14.784,4.136 C17.028,5.324 18.436,7.744 18.436,10.428 L18.436,11.572 L18.436,11.572 Z M8.668,16.412 C8.756,16.456 9.064,16.632 9.152,17.028 C9.196,17.292 9.152,17.556 9.02,17.776 C8.844,18.04 8.58,18.216 8.228,18.216 C8.052,18.216 7.876,18.172 7.7,18.084 L7.172,17.864 C4.928,16.676 3.52,14.256 3.52,11.616 L3.52,10.516 C3.52,7.832 4.928,5.456 7.172,4.224 C7.172,4.224 7.656,4.004 7.656,4.004 C7.832,3.916 8.008,3.872 8.184,3.872 C8.536,3.872 8.8,4.004 8.976,4.312 C9.108,4.532 9.152,4.796 9.108,5.06 C9.02,5.5 8.624,5.676 8.624,5.676 C7.304,6.248 6.468,7.612 6.468,9.108 L6.468,13.024 C6.512,14.432 7.348,15.796 8.668,16.412 L8.668,16.412 Z M11,0 C4.928,0 0,4.928 0,11 C0,17.072 4.928,22 11,22 C17.072,22 22,17.072 22,11 C22,4.928 17.072,0 11,0 L11,0 Z"></path>
                    </g>
                </g>
            </g>
        </g>
    </g>
</svg>