<svg xmlns="http://www.w3.org/2000/svg" xmlns:xlink="http://www.w3.org/1999/xlink" width="44" height="44" viewBox="0 0 44 44">
    <defs>
        <circle id="a" cx="22" cy="22" r="22"/>
    </defs>
    <g fill="none" fill-rule="evenodd">
        <mask id="b" fill="#fff">
            <use xlink:href="#a"/>
        </mask>
        <use fill="#FFF" xlink:href="#a"/>
        <g mask="url(#b)">
            <path fill="#1B4288" d="M32.844 16.315A5.315 5.315 0 0 0 27.529 11H20.02a5.315 5.315 0 0 0-5.115 3.89h9.075c3.492 0 4.974 1.624 4.974 5.435v8.614c2.252-.627 3.89-2.7 3.89-5.114v-7.51"/>
            <path fill="#E15D29" d="M11 27.514a5.314 5.314 0 0 0 5.315 5.314h7.508a5.315 5.315 0 0 0 5.116-3.889h-9.075c-3.492 0-4.974-1.624-4.974-5.436V14.89C12.64 15.517 11 17.59 11 20.005v7.509"/>
            <path fill="#1B4288" d="M26.208 19.394v-.023c.42-.133.982-.484.982-1.405 0-1.037-.842-1.513-2.028-1.513H23.15v2.481h-1.185c-1.591 0-1.92 1.117-1.92 1.724 0 .865.5 1.25 1.421 1.708.561.28 1.231.452 1.231 1.093 0 .336-.311.742-.982.742h-1.247c.187-.32.264-.672.264-.976 0-.397-.14-1.99-2.356-1.99h-1.81v6.14h1.233v-2.676l.499.5h3.371c1.574 0 2.324-.81 2.324-1.778 0-.343-.063-.619-.172-.843h1.264c1.95 0 2.403-.968 2.403-1.725 0-.771-.5-1.342-1.28-1.459zm-7.833 4.807h-.577v-2.007h.577c.717 0 1.045.436 1.045.967 0 .493-.296 1.04-1.045 1.04zm4.774-3.807v1.488c-.297-.178-.639-.319-.997-.475-.39-.172-.812-.39-.812-.883 0-.25.156-.622.905-.622h1.388l-.484.492zm1.233-2.98h.562c.951 0 .998.584.998.763 0 .265-.14.757-.952.757h-.608v-1.52zm.702 4.196h-.702v-1.708h.702c.858 0 1.092.414 1.092.85 0 .437-.312.858-1.092.858z"/>
        </g>
    </g>
</svg>
