<svg xmlns="http://www.w3.org/2000/svg" xmlns:xlink="http://www.w3.org/1999/xlink" width="44" height="44" viewBox="0 0 44 44">
    <defs>
        <circle id="a" cx="22" cy="22" r="22"/>
    </defs>
    <g fill="none" fill-rule="evenodd">
        <mask id="b" fill="#fff">
            <use xlink:href="#a"/>
        </mask>
        <use fill="#FFF" xlink:href="#a"/>
        <g mask="url(#b)">
            <path fill="#F68C28" fill-rule="nonzero" d="M6.024 26.033h31.82v1.688H6.024z"/>
            <g fill="#A9ACAE" fill-rule="nonzero">
                <path d="M35.036 18.186v2.325h.198l1.684-2.325h.989l-1.946 2.43c.72.09 1.155.67 1.503 1.632.119.35.277.873.483 1.305h-.863a8.546 8.546 0 0 1-.419-1.101c-.308-.865-.72-1.264-1.479-1.264h-.158v2.357h-.807v-5.359h.815zM27.213 23.553l-.063-.677h-.032c-.253.424-.727.8-1.368.8-.902 0-1.368-.767-1.368-1.542 0-1.297.957-2.007 2.689-1.999v-.114c0-.44-.103-1.24-1.012-1.24-.42 0-.847.155-1.163.4l-.182-.644c.372-.286.902-.473 1.471-.473 1.368 0 1.7 1.117 1.7 2.194v2.006c0 .465.016.922.072 1.29h-.744zm-.126-2.74c-.886-.025-1.89.163-1.89 1.207 0 .628.347.93.767.93.585 0 .949-.441 1.083-.898.024-.098.048-.212.048-.31v-.93h-.008zM23.211 16.082v.807h-2.69v2.007c.199-.033.562-.057.768-.057.593 0 1.17.155 1.606.497.474.367.79.954.79 1.827 0 .702-.197 1.232-.513 1.615-.507.596-1.345.832-2.2.832-.56 0-.988-.04-1.257-.09v-7.438h3.496zm-2.69 6.729c.183.04.396.057.673.057.498 0 1.005-.188 1.313-.58.214-.268.34-.627.34-1.1 0-.58-.205-.963-.506-1.224-.324-.269-.736-.375-1.178-.375-.182 0-.435.024-.641.04v3.182zM29.974 18.186v2.162h2.12v-2.162h.806v5.367h-.807v-2.43h-2.12v2.43h-.806v-5.367z"/>
            </g>
            <g fill="#555D63" fill-rule="nonzero">
                <path d="M6.032 16.18c.435-.09 1.044-.156 1.906-.156.87 0 1.487.196 1.906.596.395.375.664.995.664 1.73 0 .733-.205 1.353-.57 1.77-.482.546-1.193.782-2.024.782-.182 0-.348-.008-.482-.032v2.675h-1.4v-7.366zm1.392 3.393c.118.032.269.04.474.04.752 0 1.21-.456 1.21-1.215 0-.685-.395-1.101-1.099-1.101-.285 0-.482.033-.585.065v2.21zM12.81 16.082v2.87h2.318v-2.87h1.407v7.471h-1.407V20.43H12.81v3.124h-1.416v-7.471z"/>
            </g>
        </g>
    </g>
</svg>
