<svg xmlns="http://www.w3.org/2000/svg" width="39" height="44" viewBox="0 0 39 44">
    <g fill="none" fill-rule="evenodd">
        <path fill="#FFCB05" d="M21.592 16.8c-.636 0-1.154.515-1.154 1.15 0 .233.07.45.19.632l.325.542a.95.95 0 0 0-.001 1.435l-.323.54a1.153 1.153 0 1 0 2.117.633c0-.47-.544-1.587-.544-1.587v-.606s.544-1.119.544-1.588c0-.636-.516-1.151-1.154-1.151zm0-1.083c1.235 0 2.237 1.001 2.237 2.234 0 .434-.126.836-.342 1.178H33.867c.294 0 .537.247.537.546v.332c0 .299-.243.546-.537.546h-1.531v.468h.763v.657h-.763v.682h.763v1.254h-.763v-.567h-1.129v.567h-.762V22.36h.762v-.682h-.762v-.657h.762v-.468H23.487c.216.342.342.745.342 1.18a2.235 2.235 0 0 1-2.237 2.231c-1.237 0-2.237-.999-2.237-2.232 0-.484.158-.928.42-1.295a.707.707 0 0 1 0-1.192 2.21 2.21 0 0 1-.42-1.294c0-1.233 1-2.234 2.237-2.234zM8.436 16.92l4.27 4.187v-2.702l-4.27-4.165v2.68zm0-3.506l4.27 4.185v-2.701l-4.27-4.165v2.681zm0-3.509l4.27 4.188V11.39l-4.27-4.164v2.68zM16.91.074v4.272l-.565.552V.075h-.644v5.45l-.565.551V.075h-.643v6.628l-.565.553V.075h-.643v10.51l4.268-4.186V.075h-.643zM8.436 20.506l4.27 4.187v-2.864l-4.27-4.162v2.84zm4.849.6l4.268-4.186v-2.68l-4.268 4.165v2.702zM12.063.076v7.182l-.567-.553V.074h-.643v6.002l-.565-.551V.075h-.642v4.823l-.568-.553V.075h-.642v6.324l4.27 4.186V.075h-.643zm1.222 17.523l4.268-4.185v-2.68l-4.268 4.164v2.7zm0-3.506l4.268-4.188v-2.68l-4.268 4.165v2.703zm0 7.736l4.268-4.162v2.84l-4.268 4.186v-2.864z"/>
        <path fill="#FFF" d="M26.725 39.731c.264-.13.523-.263.778-.405V33.24h-.778v6.49zM15.96 36.017h.753v-7.628h-.753v7.628zm16.815-1.211c.298-.384.58-.78.843-1.19v-3.082h-.843v4.272zm2.492-5.178c.08.096.149.126.21.112.137-.413.258-.834.364-1.26h-3.066v.686h.423c.759-.023 1.608-.034 2.07.462zm-5.325-2.313l-.817 4.215.817.777v-4.992zM14.221 40.72c-.253-.078-.502-.16-.75-.248V26.181h3.24c1.323 0 2.117.516 2.386 1.558.288-.995 1.05-1.493 2.307-1.493h.736c1.044 0 1.755.346 2.13 1.03l-.167-.846h12.114c-.028.23-.06.457-.097.684h-5.336v9.853c-.46.422-.944.818-1.449 1.188v-4.702c0-.815-.159-1.316-.976-1.604l.976-4.697h-1.82l-.289 5.13h-.21l-.29-5.13h-1.727l.857 4.697c-.777.263-.962.84-.962 1.604v7.043c-.341.12-.688.229-1.04.328v-7.661H22.14v8.046a15.1 15.1 0 0 1-.736.112v-12.8h.736v3.906h1.713V28.77c0-.657-.119-1.117-.37-1.382-.487-.486-1.435-.392-2.08-.392-.632 0-1.082.132-1.332.392-.248.265-.383.725-.383 1.382v12.681c-.157.006-.315.008-.474.008l-.25-.002v-4.405c-.352.784-1.103 1.175-2.252 1.175v3.05c-.253-.036-.504-.08-.753-.128v-3.657c.119 0 .25 0 .383.012.607 0 1.331 0 1.726-.396.264-.25.382-.695.382-1.34v-7.13c0-.643-.118-1.091-.382-1.339-.261-.252-.711-.383-1.356-.383h-2.49v13.805zm4.993-35.494c-.307 0-.613.008-.916.023v1.3c.303-.014.609-.022.916-.022 9.868 0 17.867 7.985 17.867 17.834 0 9.85-8 17.835-17.867 17.835-9.868 0-17.866-7.985-17.866-17.835 0-5.466 2.464-10.356 6.343-13.627V9.07C3.047 12.56.044 18.112.044 24.362c0 10.568 8.583 19.136 19.17 19.136 10.587 0 19.17-8.568 19.17-19.136S29.801 5.227 19.214 5.227zm-8.798 26.28c-1.675-1.634-2.797-2.703-3.696-3.6-1.714-1.711-2.165-2.87-2.165-2.87v2.403c0 2.66 1.209 4.357 1.826 5.052.39.38 4.368 4.264 4.42 4.317 1.231 1.204 1.449 1.777 1.723 2.462v-3.258c0-2.745-1.394-3.81-2.108-4.506zM6.72 21.022c.9.898 2.02 1.967 3.696 3.6.714.697 2.108 1.761 2.108 4.506v3.085c-.274-.685-.492-1.086-1.723-2.288-.058-.057-4.028-3.954-4.418-4.335-.668-.667-1.828-2.376-1.828-5.035v-2.783s.451 1.54 2.165 3.25z"/>
    </g>
</svg>
