<svg xmlns="http://www.w3.org/2000/svg" xmlns:xlink="http://www.w3.org/1999/xlink" width="44" height="44" viewBox="0 0 44 44">
    <defs>
        <circle id="a" cx="22" cy="22" r="22"/>
    </defs>
    <g fill="none" fill-rule="evenodd">
        <mask id="b" fill="#fff">
            <use xlink:href="#a"/>
        </mask>
        <use fill="#FFF" xlink:href="#a"/>
        <g mask="url(#b)">
            <path fill="#005395" d="M24.178 27.081H22a5.081 5.081 0 0 1 0-10.162h2.178v-5.703C29.21 12.226 33 16.67 33 22c0 5.33-3.79 9.774-8.822 10.784v-5.703z"/>
            <path fill="#EC1E23" d="M22.39 11.007v4.136a6.868 6.868 0 1 0 0 13.714v4.136c-.129.005-.26.007-.39.007-6.075 0-11-4.925-11-11s4.925-11 11-11c.13 0 .261.002.39.007z"/>
        </g>
    </g>
</svg>
