<?xml version="1.0" encoding="UTF-8"?>
<svg width="44px" height="44px" viewBox="0 0 44 44" version="1.1" xmlns="http://www.w3.org/2000/svg" xmlns:xlink="http://www.w3.org/1999/xlink">
    <!-- Generator: Sketch 55 (78076) - https://sketchapp.com -->
    <title>Тинькофф Банк</title>
    <desc>Created with Sketch.</desc>
    <defs>
        <circle id="path-1" cx="22" cy="22" r="22"></circle>
    </defs>
    <g id="14.-Credit-comparing" stroke="none" stroke-width="1" fill="none" fill-rule="evenodd">
        <g id="14.-Credit-comparing-logos" transform="translate(-40.000000, -796.000000)">
            <g id="Тинькофф-Банк" transform="translate(40.000000, 796.000000)">
                <mask id="mask-2" fill="white">
                    <use xlink:href="#path-1"></use>
                </mask>
                <use id="Oval" fill="#FFFFFF" xlink:href="#path-1"></use>
                <g id="tinkoff-bank-simple-logo-9.eps" mask="url(#mask-2)">
                    <g transform="translate(6.000000, 8.000000)">
                        <path d="M31.3845854,13.1964384 L31.7939512,11.9080548 L30.4390244,11.9502466 C30.3246829,11.9502466 29.4926829,11.9268493 28.6852683,11.3515068 C28.7457561,11.3564932 28.8054634,11.3653151 28.8675122,11.3653151 C29.6983415,11.3653151 30.5030244,10.873589 30.8245854,10.170137 L31.4072195,8.8990137 C30.6762927,8.90860274 30.0081951,8.81769863 30.0081951,8.81769863 C30.0027317,8.81731507 29.4759024,8.74980822 28.867122,8.13841096 C28.430439,7.70038356 27.889561,7.46832877 27.3045854,7.46832877 C27.0481951,7.46832877 26.819122,7.5139726 26.6216585,7.57534247 C26.652878,7.47254795 26.6813659,7.36783562 26.6989268,7.26005479 C26.8846829,6.07063014 26.1065366,5.16427397 26.1061463,5.16465753 L25.0868293,3.92421918 L24.4550244,5.38136986 C24.4530732,5.3859726 24.2930732,5.72772603 24.0081951,5.89419178 C23.9223415,5.46575342 23.710439,4.98438356 23.2585366,4.52410959 C22.4054634,3.65687671 21.3681951,3.52723288 20.8253659,3.52723288 C20.5736585,3.52723288 20.3937561,3.55408219 20.350439,3.5609863 L19.1203902,3.79879452 C19.1914146,3.52876712 19.3428293,3.05813699 19.619122,2.63468493 L20.2977561,1.59561644 L18.5896585,1.78663014 L18.0456585,0.65090411 L16.9923902,1.18482192 L16.0179512,0.238958904 L15.0466341,1.18482192 L13.9906341,0.65090411 L13.4478049,1.78663014 L11.7404878,1.59484932 L12.4199024,2.63468493 C12.6969756,3.05813699 12.8476098,3.52761644 12.9178537,3.79687671 L11.744,3.56942466 L11.7038049,3.56328767 C11.644878,3.55408219 11.4665366,3.52723288 11.2136585,3.52723288 C10.6708293,3.52723288 9.63356098,3.65687671 8.78282927,4.52372603 C8.3297561,4.98361644 8.11785366,5.46575342 8.03121951,5.89419178 C7.74790244,5.72926027 7.58946341,5.39287671 7.58907317,5.39287671 L6.9564878,3.92728767 L5.92156098,5.17539726 C5.79473171,5.33610959 5.17112195,6.18876712 5.3404878,7.26158904 C5.35804878,7.36860274 5.38653659,7.47254795 5.41697561,7.57534247 C5.22068293,7.51358904 4.99160976,7.46832877 4.73560976,7.46832877 C4.14985366,7.46832877 3.60936585,7.70038356 3.17190244,8.13841096 C2.56468293,8.74750685 2.04097561,8.81654795 2.04565854,8.81654795 C2.04565854,8.81654795 1.4915122,8.91473973 0.634536585,8.8990137 L1.21404878,10.170137 C1.53678049,10.873589 2.34185366,11.3653151 3.17073171,11.3653151 C3.23356098,11.3653151 3.29326829,11.3564932 3.35453659,11.3515068 C2.54868293,11.9268493 1.71707317,11.9502466 1.61639024,11.9506301 L0.236878049,11.9080548 L0.654829268,13.1960548 C0.865560976,13.86 1.568,14.9596712 2.91356098,15.0781918 C2.76721951,15.6811507 2.44292683,16.3573699 1.72995122,16.6484932 L0.70204878,17.064274 L1.26282927,18.0239452 C1.57892683,18.5413699 2.32195122,19.1466301 3.37912195,19.1466301 C3.60780488,19.1462466 3.82868293,19.1232329 4.0417561,19.0787397 C4.096,19.3150137 4.16390244,19.5520548 4.24429268,19.7871781 C4.55882927,20.7084932 4.28760976,21.3509589 4.28487805,21.357863 L3.77717073,22.4026849 L4.91004878,22.6961096 C4.92409756,22.7003288 5.26634146,22.7931507 5.69443902,22.7931507 C5.88878049,22.7931507 6.07531707,22.7732055 6.24897561,22.7321644 C6.3804878,22.701863 6.50731707,22.6619726 6.62868293,22.6132603 C6.77580488,22.8717808 6.9537561,23.1076712 7.16136585,23.3190137 C7.88721951,24.0512329 8.91629268,24.422137 10.2189268,24.422137 L10.2232195,24.422137 L11.1531707,24.4102466 L9.23160976,25.1957808 L10.6907317,25.8888767 C11.2210732,26.1427945 11.8493659,26.4431233 12.4897561,26.6728767 L12.307122,27.1626849 L12.8101463,27.3882192 C12.8550244,27.4081644 13.822439,27.8331507 15.4298537,27.9236712 C15.4298537,27.9236712 15.8177561,27.9413151 16.0316098,27.9413151 C16.2450732,27.9413151 16.6282927,27.9225205 16.6282927,27.9225205 C18.225561,27.8296986 19.1851707,27.4081644 19.2300488,27.3882192 L19.7342439,27.1623014 L19.550439,26.671726 C20.2083902,26.4350685 20.8604878,26.1228493 21.3685854,25.8789041 L22.8003902,25.1950137 L20.8850732,24.4102466 L21.8189268,24.422137 C23.1239024,24.422137 24.1529756,24.0508493 24.8776585,23.317863 C25.0844878,23.1084384 25.2620488,22.8729315 25.409561,22.6132603 C25.5317073,22.6619726 25.6593171,22.701863 25.7912195,22.7329315 C25.9644878,22.7732055 26.1506341,22.7931507 26.3445854,22.7931507 C26.7656585,22.7931507 27.1114146,22.7014795 27.1207805,22.698411 L28.2587317,22.4026849 L27.7627317,21.3770411 C27.7514146,21.3509589 27.4798049,20.7084932 27.7947317,19.786411 C27.8747317,19.5512877 27.9422439,19.3142466 27.9972683,19.0787397 C28.2107317,19.1232329 28.433561,19.1462466 28.6641951,19.1466301 C30.0109268,19.1466301 30.6571707,18.2153425 30.7820488,18.0132055 L31.3369756,17.0635068 L30.3094634,16.6488767 C29.5949268,16.3573699 29.2710244,15.6815342 29.1262439,15.0789589 C30.4538537,14.9654247 31.166439,13.8646027 31.3845854,13.1964384 L31.3845854,13.1964384 Z" id="Fill-1" fill="#FFFFFE"></path>
                        <path d="M16.0183415,4.18465753 C14.9299512,4.18580822 14.113561,4.536 13.9363902,4.94871233 L16.0183415,5.75649315 L18.1006829,4.94871233 C17.9246829,4.536 17.1082927,4.18580822 16.0183415,4.18465753" id="Fill-2" fill="#FFFFFE"></path>
                        <path d="M16.0401951,25.5636164 L15.998439,25.5636164 C15.3389268,25.5678356 14.4300488,25.4351233 13.9929756,25.3096986 L13.4665366,26.7096986 C13.8134634,26.8309041 14.9896585,27.063726 16.0202927,27.063726 C17.0489756,27.063726 18.2251707,26.8309041 18.5717073,26.7096986 L18.046439,25.3096986 C17.6070244,25.4351233 16.6993171,25.5678356 16.0401951,25.5636164" id="Fill-3" fill="#FFFFFE"></path>
                        <path d="M20.0241951,24.1705205 C19.6323902,24.3883836 18.7574634,24.7159452 18.2489756,24.8678356 L18.6759024,26.0246575 C19.4630244,25.8129315 20.1131707,25.5663014 20.6493659,25.3016438 L19.7627317,25.0120548 L20.0241951,24.1705205" id="Fill-4" fill="#FFFFFE"></path>
                        <path d="M12.014439,24.1705205 L12.2766829,25.0120548 L11.3892683,25.3016438 C11.9246829,25.5663014 12.577561,25.8129315 13.3619512,26.0246575 L13.7896585,24.8678356 C13.2819512,24.7159452 12.4058537,24.3883836 12.014439,24.1705205" id="Fill-5" fill="#FFFFFE"></path>
                        <path d="M16.0183415,2.8460274 C16.8390244,2.8460274 17.6433171,3.0389589 18.2622439,3.37764384 C18.3188293,3.19161644 18.3980488,2.96531507 18.5053659,2.72789041 L18.2708293,2.75550685 L18.0257561,2.78082192 L17.921561,2.5610411 L17.6085854,1.91167123 L17.0380488,2.20356164 L16.816,2.31479452 L16.638439,2.14257534 L16.0183415,1.53961644 L15.3994146,2.14257534 L15.2226341,2.31479452 L15.0005854,2.20356164 L14.4269268,1.91167123 L14.1182439,2.5610411 L14.0120976,2.78082192 L13.7670244,2.75550685 L13.5336585,2.72789041 C13.6409756,2.96531507 13.7194146,3.19161644 13.7767805,3.37764384 C14.3976585,3.0389589 15.2011707,2.8460274 16.0183415,2.8460274" id="Fill-6" fill="#FFFFFE"></path>
                        <path d="M28.5451707,10.3557808 C28.6520976,10.3918356 28.7598049,10.4079452 28.8675122,10.4079452 C29.3319024,10.4079452 29.7802927,10.1126027 29.934439,9.77545205 C29.934439,9.77545205 29.0837073,9.72482192 28.1681951,8.81156164 C27.8770732,8.51583562 27.5687805,8.42723288 27.3041951,8.42723288 C26.8932683,8.42723288 26.5849756,8.64010959 26.5849756,8.64010959 C27.6905366,9.21890411 27.9157073,10.1467397 28.5451707,10.3557808" id="Fill-7" fill="#FFFFFE"></path>
                        <path d="M3.17073171,10.4079452 C3.27804878,10.4079452 3.38653659,10.3918356 3.49034146,10.3553973 C4.12136585,10.1467397 4.34926829,9.21890411 5.45326829,8.64049315 C5.45326829,8.64049315 5.14419512,8.42723288 4.73560976,8.42723288 C4.46946341,8.42723288 4.16156098,8.51583562 3.86887805,8.81194521 C2.95492683,9.72482192 2.10419512,9.77583562 2.10419512,9.77583562 C2.25717073,10.1126027 2.70673171,10.4079452 3.17073171,10.4079452" id="Fill-8" fill="#FFFFFE"></path>
                        <path d="M28.2119024,17.0190137 C27.356878,16.6043836 26.8163902,15.5043288 26.6860488,15.1081096 C26.544,17.2898082 25.4606829,18.8033425 24.1943415,20.2608767 C23.5371707,21.0164932 23.3077073,21.7510137 23.3077073,21.7510137 C23.3077073,21.7510137 23.4345366,20.9186849 24.0027317,20.2413151 C25.1843902,18.8463014 26.3075122,17.1087671 26.3906341,15.1004384 C26.448,13.698137 26.0819512,12.5616438 25.5094634,11.6246027 C25.8298537,12.6003836 25.7841951,13.7951781 24.6973659,14.9105753 C24.6973659,14.9105753 26.8616585,12.3618082 23.8357073,9.74860274 C22.6251707,8.7540274 21.2995122,8.13994521 20.6177561,7.7049863 C23.0821463,8.49512329 24.2856585,7.62520548 24.2856585,7.62520548 C23.4989268,8.29567123 22.4796098,8.28416438 21.8478049,8.18750685 C22.0195122,8.26958904 22.1978537,8.35550685 22.3894634,8.45676712 C24.4675122,9.5660274 26.3348293,11.3913973 26.6532683,13.9190685 L26.6532683,13.8998904 C27.1363902,16.3819178 28.2119024,17.0190137 28.2119024,17.0190137 M28.844878,14.1269589 C28.864,14.1281096 28.8803902,14.1281096 28.8999024,14.1281096 C30.0581463,14.1281096 30.4507317,12.9087671 30.4507317,12.9087671 L30.4277073,12.9087671 C30.2154146,12.9087671 28.4932683,12.8596712 27.2757073,11.3388493 C26.4745366,10.3389041 25.8177561,9.45978082 24.5209756,9.11380822 L24.3933659,9.09156164 L24.3656585,8.96383562 C24.3297561,8.76936986 24.4659512,8.58641096 24.7734634,8.38964384 C26.5635122,7.23780822 25.3479024,5.76838356 25.3479024,5.76838356 C25.3479024,5.76838356 24.8370732,6.94323288 23.6932683,6.94323288 C23.6659512,6.94323288 23.6370732,6.94169863 23.6085854,6.94169863 C23.4786341,6.93517808 23.3529756,6.93057534 23.2273171,6.90410959 L23.0165854,6.86383562 C23.0165854,6.86383562 23.3428293,5.992 22.5557073,5.19189041 C21.9629268,4.58778082 21.2417561,4.4849863 20.8253659,4.4849863 C20.6154146,4.4849863 20.4823415,4.51145205 20.4823415,4.51145205 C20.8776585,5.01928767 21.1633171,5.86235616 20.707122,6.38246575 C20.3125854,6.82969863 19.3490732,6.85079452 19.3490732,7.5170411 C19.3490732,7.79934247 19.6171707,8.12843836 20.0987317,8.42416438 C21.5469268,9.32054795 22.9845854,10.5103562 23.5828293,12.1044384 C24.3297561,14.0928219 23.488,15.4126575 22.2868293,16.1694247 C22.2868293,16.1694247 22.6638049,16.5107945 23.2097561,16.554137 C23.3213659,16.5644932 23.4298537,16.5694795 23.5309268,16.5694795 C24.6844878,16.5694795 25.2811707,16.037863 25.2811707,16.037863 C25.2811707,16.037863 25.182439,16.7727671 24.5826341,17.4543562 C24.0284878,18.0837808 23.3022439,18.4550685 22.1927805,18.470411 C22.1927805,18.470411 22.1580488,18.9759452 22.6489756,19.4139726 C22.963122,19.690137 23.6885854,19.7798904 23.6885854,19.7798904 C23.6885854,19.7798904 22.3301463,20.0506849 22.1799024,22.0229589 C22.0987317,23.0915616 21.820878,23.4628493 21.820878,23.4628493 L21.8450732,23.4628493 C24.9978537,23.4628493 24.9170732,20.8051507 24.9170732,20.8051507 C24.9170732,20.8051507 25.1363902,21.5922192 26.016,21.7974247 C26.1221463,21.8246575 26.2357073,21.8353973 26.3438049,21.8353973 C26.6267317,21.8353973 26.8729756,21.7698082 26.8729756,21.7698082 C26.8729756,21.7698082 26.4120976,20.8151233 26.8690732,19.4795616 C27.248,18.3710685 27.1867317,17.549863 27.1867317,17.549863 C27.1867317,17.549863 27.6113171,18.1812055 28.6645854,18.1869589 L28.6755122,18.1869589 C29.5523902,18.1869589 29.934439,17.5337534 29.934439,17.5337534 C27.8325854,16.675726 28.0398049,13.9079452 28.0398049,13.9079452 C28.0398049,13.9079452 28.3129756,14.1081644 28.844878,14.1269589" id="Fill-9" fill="#FFFFFE"></path>
                        <path d="M7.8435122,20.2608767 C6.57717073,18.8033425 5.4942439,17.2898082 5.35102439,15.1081096 C5.22029268,15.5043288 4.6817561,16.6043836 3.82712195,17.0190137 C3.82712195,17.0190137 4.90146341,16.3819178 5.38419512,13.8998904 L5.38419512,13.9190685 C5.70380488,11.3917808 7.57073171,9.5660274 9.64917073,8.45715068 C9.83960976,8.35512329 10.0195122,8.26958904 10.1900488,8.18789041 C9.5582439,8.28416438 8.53931707,8.29567123 7.75297561,7.62520548 C7.75297561,7.62520548 8.9564878,8.49512329 11.4197073,7.7049863 C10.7383415,8.14032877 9.41385366,8.7540274 8.20331707,9.74860274 C5.17658537,12.3618082 7.34126829,14.9109589 7.34126829,14.9109589 C6.25287805,13.7951781 6.20917073,12.6007671 6.52917073,11.6246027 C5.95590244,12.5616438 5.58946341,13.698137 5.64839024,15.1004384 C5.73112195,17.1087671 6.85385366,18.8463014 8.03317073,20.2416986 C8.60409756,20.9186849 8.7324878,21.7510137 8.7324878,21.7510137 C8.7324878,21.7510137 8.50029268,21.0164932 7.8435122,20.2608767 M8.35004878,19.7798904 C8.35004878,19.7798904 9.0755122,19.6905205 9.39043902,19.4139726 C9.88097561,18.9759452 9.84585366,18.470411 9.84585366,18.470411 C8.73639024,18.4550685 8.01053659,18.0837808 7.45326829,17.4547397 C6.85697561,16.7723836 6.75785366,16.037863 6.75785366,16.037863 C6.75785366,16.037863 7.35414634,16.5694795 8.50614634,16.5694795 C8.60956098,16.5694795 8.71726829,16.5644932 8.8284878,16.554137 C9.37521951,16.510411 9.75297561,16.1698082 9.75297561,16.1698082 C8.55102439,15.4126575 7.70887805,14.0928219 8.45502439,12.1044384 C9.05326829,10.5107397 10.4905366,9.32054795 11.939122,8.42378082 C12.4202927,8.12843836 12.6883902,7.79934247 12.6883902,7.5170411 C12.6883902,6.85079452 11.7260488,6.82931507 11.3319024,6.38246575 C10.8753171,5.86235616 11.1613659,5.01928767 11.5559024,4.51145205 C11.5559024,4.51145205 11.4243902,4.4849863 11.2132683,4.4849863 C10.7972683,4.4849863 10.0764878,4.58778082 9.48370732,5.19189041 C8.69502439,5.992 9.02204878,6.86383562 9.02204878,6.86383562 L8.81131707,6.90410959 C8.68565854,6.93019178 8.55843902,6.93517808 8.42965854,6.94208219 C8.4,6.94208219 8.37385366,6.94323288 8.34614634,6.94323288 C7.19960976,6.94323288 6.69112195,5.76876712 6.69112195,5.76876712 C6.69112195,5.76876712 5.47629268,7.23780822 7.26556098,8.38964384 C7.57346341,8.58641096 7.70887805,8.76936986 7.67297561,8.96383562 L7.64526829,9.09156164 L7.51492683,9.11380822 C6.22009756,9.45978082 5.56253659,10.3392877 4.76097561,11.3388493 C3.54419512,12.8596712 1.824,12.9087671 1.61014634,12.9087671 L1.58673171,12.9087671 C1.58673171,12.9087671 1.97931707,14.1281096 3.13795122,14.1281096 C3.15668293,14.1281096 3.17385366,14.1281096 3.19336585,14.1269589 C3.72604878,14.1081644 3.99921951,13.9079452 3.99921951,13.9079452 C3.99921951,13.9079452 4.20526829,16.675726 2.10419512,17.5333699 C2.10419512,17.5333699 2.48663415,18.1873425 3.3635122,18.1873425 L3.37404878,18.1873425 C4.42770732,18.1812055 4.85190244,17.549863 4.85190244,17.549863 C4.85190244,17.549863 4.79063415,18.3714521 5.16839024,19.4795616 C5.62536585,20.8155068 5.16682927,21.7701918 5.16682927,21.7701918 C5.16682927,21.7701918 5.41190244,21.8353973 5.69443902,21.8353973 C5.8044878,21.8353973 5.91687805,21.8246575 6.0222439,21.7974247 C6.90068293,21.5922192 7.12078049,20.8051507 7.12078049,20.8051507 C7.12078049,20.8051507 7.04039024,23.4628493 10.193561,23.4628493 L10.2161951,23.4628493 C10.2161951,23.4628493 9.94029268,23.0915616 9.85912195,22.0229589 C9.70965854,20.0506849 8.35004878,19.7798904 8.35004878,19.7798904" id="Fill-10" fill="#FFFFFE"></path>
                        <path d="M15.3069268,9.98641096 L16.7933659,9.98641096 L16.7933659,10.487726 C16.6185366,10.2775342 16.2778537,10.3201096 16.2778537,10.3201096 L16.2778537,11.0427397 C16.2778537,11.0427397 16.2907317,11.3983014 16.417561,11.5521096 L15.6823415,11.5521096 C15.8107317,11.3983014 15.822439,11.0427397 15.822439,11.0427397 L15.822439,10.3201096 C15.822439,10.3201096 15.4833171,10.2775342 15.3069268,10.487726 L15.3069268,9.98641096 Z M13.6874146,10.061589 C13.7389268,10.1160548 13.7896585,10.1751233 13.8392195,10.2349589 C13.8509268,10.2487671 13.8614634,10.2610411 13.8731707,10.2775342 C13.918439,10.3362192 13.9637073,10.3991233 14.0081951,10.4635616 C14.0179512,10.4758356 14.0273171,10.4911781 14.0378537,10.5057534 C14.0905366,10.5843836 14.1404878,10.6653151 14.1900488,10.7489315 C14.6450732,11.5206575 15.3724878,11.9816986 16.0183415,11.9828493 C16.6649756,11.9816986 17.3916098,11.5206575 17.8478049,10.7489315 C17.8981463,10.6630137 17.9492683,10.5801644 18.0019512,10.5023014 C18.0097561,10.4911781 18.0183415,10.4796712 18.0253659,10.4681644 C18.0702439,10.4018082 18.1174634,10.3373699 18.1666341,10.2748493 C18.1771707,10.2610411 18.1869268,10.2487671 18.1962927,10.2372603 C18.2470244,10.1751233 18.2993171,10.1152877 18.3527805,10.0596712 C18.3617561,10.0508493 18.369561,10.042411 18.3781463,10.0351233 C18.6099512,9.80191781 18.8858537,9.62432877 19.2472195,9.52613699 L19.086439,9.43369863 L19.0774634,9.43369863 L18.4374634,9.06854795 L17.7799024,8.69841096 L16.0230244,9.63852055 L16.0183415,9.63468493 L16.0152195,9.63852055 L14.2579512,8.69841096 L13.6007805,9.06854795 L12.9596098,9.43369863 L12.9518049,9.43369863 L12.7894634,9.52613699 C13.1516098,9.62432877 13.4267317,9.8 13.6593171,10.033589 C13.6690732,10.042411 13.6764878,10.0527671 13.6874146,10.061589 L13.6874146,10.061589 Z" id="Fill-11" fill="#FFFFFE"></path>
                        <path d="M15.4587317,6.80054795 L15.4587317,7.27232877 L15.3662439,7.23090411 C15.3623415,7.22745205 15.2265366,7.19753425 14.9912195,7.01380822 C14.6021463,6.71693151 14.5943415,6.44345205 14.5943415,6.44345205 L15.4587317,6.80054795 Z M15.8665366,9.01408219 L15.8665366,6.07945205 L13.9660488,5.44580822 L14.467122,8.28953425 L15.8665366,9.01408219 L15.8665366,9.01408219 Z" id="Fill-12" fill="#FFFFFE"></path>
                        <path d="M16.5795122,6.80054795 L17.4442927,6.44345205 C17.4442927,6.44345205 17.4364878,6.71693151 17.0462439,7.01380822 C16.8113171,7.19753425 16.6759024,7.22745205 16.6712195,7.23090411 L16.5795122,7.27232877 L16.5795122,6.80054795 Z M17.5707317,8.28953425 L18.0702439,5.44580822 L16.1709268,6.07945205 L16.1709268,9.01408219 L17.5707317,8.28953425 L17.5707317,8.28953425 Z" id="Fill-13" fill="#FFFFFE"></path>
                        <path d="M13.1789268,15.8169315 C13.3635122,15.8829041 13.5882927,15.8967123 13.7034146,15.8967123 C13.7073171,15.8829041 13.7139512,15.8656438 13.7194146,15.8445479 C13.729561,15.8111781 13.7393171,15.7778082 13.7463415,15.7413699 C13.7783415,15.5787397 13.7900488,15.3950137 13.7923902,15.2761096 C13.715122,15.2281644 13.6046829,15.1437808 13.5430244,15.0172055 C13.4723902,14.8714521 13.3717073,14.8031781 13.2249756,14.8031781 C13.0333659,14.8031781 12.828878,14.9163288 12.7402927,14.9692603 C12.670439,15.3750685 12.9748293,15.7429041 13.1789268,15.8169315" id="Fill-14" fill="#FFFFFE"></path>
                        <path d="M17.3826341,14.2604384 C17.0294634,14.637863 16.3383415,15.2945205 16.3051707,15.3275068 L16.2634146,15.3685479 L14.0803902,15.3347945 C14.0788293,15.5472877 14.0437073,15.7279452 14.0097561,15.8606575 C14.0042927,15.8829041 13.9980488,15.9055342 13.9918049,15.9289315 L16.588878,16.3876712 C16.8589268,16.2020274 17.6023415,15.6681096 17.8915122,15.4590685 C17.681561,15.1579726 17.6616585,14.8001096 17.708878,14.5484932 C17.5707317,14.4621918 17.4661463,14.364 17.3826341,14.2604384" id="Fill-15" fill="#FFFFFE"></path>
                        <path d="M17.678439,11.6794521 C17.1754146,12.1696438 16.6930732,12.3518356 16.2618537,12.3936438 C16.1834146,12.4016986 16.1045854,12.4066849 16.0245854,12.4066849 L16.0136585,12.4066849 C15.932878,12.4066849 15.8536585,12.4016986 15.7756098,12.3936438 C15.7002927,12.3871233 15.6214634,12.3752329 15.5422439,12.357589 C15.5141463,12.4680548 15.4782439,12.6981918 15.5804878,12.9172055 C15.6718049,13.1151233 15.8571707,13.2627945 16.1276098,13.3609863 L16.2185366,13.3958904 L16.2200976,13.4921644 C16.2200976,13.5205479 16.241561,14.1449863 16.9334634,14.3183562 C17.0462439,14.2040548 17.1492683,14.1004932 17.2253659,14.0138082 C17.0840976,13.6870137 17.1582439,13.3525479 17.3635122,13.1887671 C17.3545366,13.2236712 17.2643902,14.0429589 17.9324878,14.3475068 L18.0425366,14.3989041 L18.0097561,14.5139726 C17.9988293,14.5484932 17.776,15.3416986 18.5849756,15.6366575 L18.7281951,15.6899726 L18.6649756,15.8265205 C18.6509268,15.8568219 18.3336585,16.576 19.0809756,16.9848767 L20.7012683,16.9848767 L20.7012683,15.7206575 C20.124878,15.6512329 19.8809756,15.1959452 19.8181463,14.8737534 C19.5500488,14.8284932 19.3428293,14.7149589 19.2007805,14.5296986 C18.860878,14.0897534 19.1531707,13.6870137 19.1570732,13.6647671 C19.1562927,13.6682192 19.1570732,14.0974247 19.4263415,14.3620822 C19.5598049,14.4894247 19.7178537,14.5887671 19.9570732,14.6110137 L20.0749268,14.6213699 L20.0850732,14.7398904 C20.0870244,14.7648219 20.1518049,15.3459178 20.7012683,15.4368219 L20.6997073,12.8535342 C20.6997073,12.4534795 20.8187317,12.0511233 20.961561,11.6794521 L17.678439,11.6794521" id="Fill-16" fill="#FFFFFE"></path>
                        <polyline id="Fill-17" fill="#FFFFFE" points="13.3170732 12.8631233 13.2729756 14.5078356 13.4634146 14.5366027 13.9281951 12.9582466 13.6924878 12.4730411 13.3170732 12.8631233"></polyline>
                        <path d="M14.3242927,18.9525479 C14.270439,18.9510137 14.2306341,18.906137 14.2341463,18.8524384 C14.238439,18.8014247 14.2825366,18.7611507 14.336,18.7657534 C14.3902439,18.7676712 14.428878,18.8148493 14.4269268,18.8650959 C14.4218537,18.9172603 14.3765854,18.9571507 14.3242927,18.9525479 M18.4452683,20.4085479 C18.4597073,20.4085479 18.4757073,20.4104658 18.4913171,20.4143014 C18.780878,20.4956164 18.8538537,21.5208767 19.361561,21.6121644 C19.4115122,21.6225205 19.4571707,21.625589 19.4973659,21.625589 C19.6444878,21.625589 19.7319024,21.5642192 19.8259512,21.4545205 C19.8259512,21.4545205 19.5707317,21.0602192 19.3799024,20.7940274 C19.1258537,20.4453699 18.9291707,20.0246027 18.4561951,20.0246027 C18.4452683,20.0246027 18.4316098,20.0246027 18.4199024,20.026137 C18.2645854,20.0338082 18.1681951,20.1086027 18.1681951,20.1086027 C17.9769756,19.9900822 17.7986341,19.9501918 17.6374634,19.9501918 C17.3416585,19.9501918 17.1118049,20.0836712 16.9962927,20.0836712 L16.992,20.0836712 L15.9367805,19.9812603 C15.7720976,19.9655342 15.6413659,19.802137 15.5945366,19.7384658 C15.5828293,19.7208219 15.5761951,19.7108493 15.5761951,19.7108493 C15.5761951,19.6824658 15.5761951,19.6536986 15.5746341,19.628 C15.539122,18.7799452 14.8710244,18.4170959 14.6329756,18.4113425 C14.6329756,18.4113425 14.6610732,18.249863 14.5970732,18.1884932 L14.3637073,18.4661918 L13.6007805,18.0895342 L14.1451707,18.7151233 L13.6842927,19.2241096 C13.6261463,19.2820274 13.633561,19.360274 13.6577561,19.3936438 L13.8567805,19.5666301 L14.1096585,19.4158904 C14.1221463,19.4066849 14.1451707,19.404 14.1732683,19.404 C14.243122,19.404 14.3480976,19.4216438 14.4421463,19.4216438 C14.5451707,19.4216438 14.6341463,19.4001644 14.6450732,19.3050411 C14.6134634,19.6195616 14.3164878,20.1657534 14.5112195,20.5953425 L14.6556098,20.9194521 L13.7229268,20.7875068 L13.2862439,21.5120548 C13.1516098,21.7533151 13.1305366,22.014137 13.2600976,22.1564384 L13.4232195,22.3570411 C13.4232195,22.3570411 13.6526829,22.1184658 13.7038049,21.9612055 L13.6296585,21.8810411 C13.5672195,21.8135342 13.5703415,21.7533151 13.6085854,21.6808219 L13.8825366,21.2343562 L14.9834146,21.4894247 L15.041561,21.392 C15.1164878,21.2696438 15.2241951,21.233589 15.3420488,21.233589 C15.3908293,21.233589 15.4403902,21.2393425 15.4922927,21.2473973 C15.6967805,21.2869041 16.0327805,21.3402192 16.369561,21.3402192 C16.7383415,21.3402192 17.1047805,21.2753973 17.2999024,21.0602192 C17.699122,21.6413151 18.5069268,21.7337534 18.4437073,22.0290959 L18.2306341,23.0248219 C18.371122,23.0186849 18.5069268,23.009863 18.6360976,22.9922192 L18.8382439,21.9566027 C18.860878,21.8434521 18.8819512,21.6919452 18.8819512,21.6919452 C18.8042927,21.6140822 18.6150244,21.4503014 18.508878,21.2500822 C18.3660488,20.9808219 18.4437073,20.8400548 18.3110244,20.489863 C18.3110244,20.489863 18.352,20.4085479 18.4452683,20.4085479" id="Fill-18" fill="#FFFFFE"></path>
                        <path d="M12.8210732,21.3505753 C12.8210732,21.3505753 13.1863415,21.2029041 13.2183415,21.0978082 L13.1699512,20.978137 C13.1352195,20.8998904 13.1399024,20.8155068 13.2070244,20.769863 L13.6003902,20.5017534 L14.2587317,20.6260274 C14.2587317,20.6260274 14.1397073,20.4795068 14.1514146,20.2838904 L13.523122,20.1530959 L12.9307317,20.5078904 C12.6762927,20.6943014 12.6583415,20.9996164 12.7422439,21.1806575 L12.8210732,21.3505753" id="Fill-19" fill="#FFFFFE"></path>
                        <path d="M17.4770732,23.037863 C17.5945366,23.0332603 17.7252683,23.0313425 17.8677073,23.0313425 C17.8677073,23.0313425 18.206439,22.0574795 18.225561,22.0267945 C18.0355122,21.9443288 17.6413659,21.7387397 17.4891707,21.6447671 C17.5898537,21.7928219 17.8341463,21.9612055 17.7857561,22.0916164 L17.4770732,23.037863" id="Fill-20" fill="#FFFFFE"></path>
                        <path d="M20.7012683,17.263726 L11.3373659,17.263726 L11.3373659,20.7253699 C11.3373659,22.1414795 12.3797073,23.0275068 13.918439,23.0275068 C15.203122,23.0275068 15.5422439,23.0769863 16.0202927,23.5430137 C16.3496585,23.2200548 16.6220488,23.0996164 17.1816585,23.0547397 L17.1949268,23.0010411 L17.4899512,22.104274 C17.473561,22.0843288 16.9908293,21.5454247 16.9908293,21.5454247 C16.7996098,21.6079452 16.6388293,21.6183014 16.3691707,21.6183014 C16.0917073,21.6183014 15.7795122,21.5864658 15.4396098,21.5239452 C15.4056585,21.516274 15.3736585,21.5128219 15.3420488,21.5128219 C15.3002927,21.5128219 15.297561,21.516274 15.2866341,21.5366027 L15.1207805,21.805863 L14.9186341,21.7598356 L14.0199024,21.5519452 L13.8965854,21.7517808 L13.9149268,21.7732603 L14.0241951,21.8917808 L13.9754146,22.0459726 C13.9094634,22.247726 13.6948293,22.4836164 13.6296585,22.5480548 L13.4052683,22.7850959 L13.2003902,22.5311781 L13.0466341,22.3413151 C12.8850732,22.1633425 12.8476098,21.8917808 12.9385366,21.606411 C12.9365854,21.6079452 12.9330732,21.6094795 12.929561,21.609863 L12.6762927,21.7130411 L12.5623415,21.4694795 L12.4823415,21.2968767 C12.3441951,20.9930959 12.3949268,20.5493151 12.7668293,20.2808219 L13.4899512,19.8792329 L14.1783415,20.0123288 C14.1947317,19.9475068 14.2193171,19.7150685 14.2392195,19.656 C14.225561,19.6544658 14.2134634,19.6513973 14.1998049,19.6513973 L13.8033171,19.7971507 L13.4204878,19.537863 C13.4204878,19.537863 13.2710244,19.3959452 13.4068293,19.254411 L13.7767805,18.7028493 L12.8378537,17.5448767 L14.2805854,18.1271233 L14.3765854,18.0105205 L14.5713171,17.7811507 L14.7925854,17.9878904 C14.8550244,18.0469589 14.8905366,18.1198356 14.9084878,18.1927123 C15.3057561,18.3449863 16.0183415,18.794137 16.0811707,19.5236712 L15.8579512,19.6111233 L15.8579512,19.6164932 C15.9094634,19.6759452 15.9516098,19.7004932 15.9644878,19.7027945 L16.9943415,19.802137 C17.020878,19.7979178 17.052878,19.786411 17.089561,19.7756712 C17.217561,19.7330959 17.4091707,19.6709589 17.6374634,19.6709589 C17.8232195,19.6709589 18.0019512,19.7127671 18.1748293,19.7921644 C18.238439,19.7683836 18.3164878,19.7511233 18.4070244,19.7453699 L18.4565854,19.7442192 C19.0076098,19.7442192 19.2819512,20.1488767 19.5016585,20.4722192 C19.5383415,20.5282192 19.5750244,20.5807671 19.6132683,20.6329315 C19.8052683,20.8998904 20.0569756,21.2903562 20.067122,21.3072329 L20.1806829,21.4817534 L20.0417561,21.6405479 C19.9348293,21.762137 19.7736585,21.9052055 19.4973659,21.9052055 C19.4403902,21.9052055 19.3783415,21.8990685 19.3108293,21.886411 C19.2526829,21.8756712 19.1988293,21.858411 19.1473171,21.8369315 C19.1395122,21.8906301 19.1281951,21.9543014 19.1180488,22.0091507 L18.9377561,22.9350685 C20.017561,22.6742466 20.7032195,21.8729863 20.7032195,20.7253699 L20.7012683,17.263726" id="Fill-21" fill="#FFE52B"></path>
                        <path d="M11.3373659,16.9848767 L18.6204878,16.9848767 C18.2567805,16.6155068 18.2622439,16.1479452 18.3547317,15.8441644 C18.2485854,15.7943014 18.1611707,15.7344658 18.083122,15.6684932 C17.7986341,15.8748493 16.9299512,16.4966027 16.7028293,16.6527123 L16.6540488,16.6845479 L13.7959024,16.1767123 L13.7377561,16.1767123 C13.6694634,16.1767123 13.5691707,16.1740274 13.459122,16.1609863 C13.4282927,16.2883288 13.3170732,16.3746301 13.1894634,16.3746301 C13.1750244,16.3746301 13.1590244,16.3734795 13.1438049,16.3707945 C13.0696585,16.3577534 13.0044878,16.3209315 12.9611707,16.2591781 C12.9166829,16.1985753 12.8987317,16.1268493 12.9112195,16.0528219 L12.9217561,15.9922192 C12.627122,15.7881644 12.355122,15.3321096 12.4757073,14.8515068 L12.4874146,14.8008767 L12.5291707,14.7713425 C12.5350244,14.7671233 12.5841951,14.7337534 12.6583415,14.6927123 L12.4507317,14.6612603 C12.3730732,14.6478356 12.3207805,14.5764932 12.3324878,14.5013151 C12.3461463,14.4249863 12.419122,14.3705205 12.4956098,14.3850959 L12.990439,14.4618082 L13.0357073,12.749589 L13.7717073,11.984 L14.2314146,12.9348493 L13.7463415,14.5822466 L14.1834146,14.650137 C14.2606829,14.6616438 14.3129756,14.7326027 14.3016585,14.8104658 C14.2899512,14.8795068 14.2302439,14.9259178 14.161561,14.9259178 C14.1541463,14.9259178 14.1463415,14.9259178 14.1389268,14.9251507 L13.7834146,14.8687671 C13.7880976,14.8795068 13.795122,14.8856438 13.7994146,14.8963836 C13.836878,14.9734795 13.9211707,15.0279452 13.9703415,15.0521096 L16.1490732,15.0862466 C16.241561,14.9980274 16.4698537,14.777863 16.705561,14.5450411 C16.1689756,14.3448219 15.9742439,13.8910685 15.9418537,13.589589 C15.6421463,13.4637808 15.4353171,13.2758356 15.3205854,13.0318904 C15.180878,12.7288767 15.230439,12.4254795 15.2679024,12.2781918 C14.9771707,12.1742466 14.672,11.984 14.3598049,11.6794521 L11.0774634,11.6794521 C11.2183415,12.0511233 11.3373659,12.4534795 11.3373659,12.8535342 L11.3373659,16.9848767" id="Fill-22" fill="#FFE52B"></path>
                        <path d="M14.336,18.7657534 C14.2825366,18.7607671 14.238439,18.8014247 14.2341463,18.8528219 C14.2302439,18.906137 14.270439,18.9513973 14.3242927,18.9525479 C14.3765854,18.9567671 14.4218537,18.9176438 14.4269268,18.8650959 C14.428878,18.8148493 14.3902439,18.7680548 14.336,18.7657534" id="Fill-23" fill="#1A1919"></path>
                        <path d="M18.6759024,26.0246575 L18.2485854,24.8682192 C18.7574634,24.7159452 19.6323902,24.3883836 20.0241951,24.1705205 L19.7627317,25.0120548 L20.6489756,25.3016438 C20.1131707,25.5659178 19.4630244,25.8129315 18.6759024,26.0246575 M16.0202927,27.0641096 C14.9896585,27.0641096 13.8134634,26.8309041 13.4665366,26.7096986 L13.9929756,25.3093151 C14.4300488,25.4347397 15.3389268,25.5678356 15.998439,25.5636164 L16.0401951,25.5636164 C16.6997073,25.5678356 17.6070244,25.4347397 18.046439,25.3093151 L18.5720976,26.7096986 C18.225561,26.8309041 17.0489756,27.0641096 16.0202927,27.0641096 M11.3892683,25.3016438 L12.2766829,25.0120548 L12.014439,24.1705205 C12.4058537,24.3883836 13.2823415,24.7159452 13.7900488,24.8682192 L13.3619512,26.0246575 C12.577561,25.8129315 11.9250732,25.5659178 11.3892683,25.3016438 M20.6887805,25.0446575 L20.1494634,24.8413699 L20.2985366,24.2932603 L20.462439,23.6964384 C20.462439,23.6964384 19.5067317,24.2061918 18.1596098,24.5886027 C17.777561,24.696 17.4883902,24.7454795 17.4883902,24.7454795 L17.4883902,25.1520548 C17.4883902,25.1520548 16.768,25.2751781 16.0401951,25.2751781 L15.998439,25.2751781 C15.2698537,25.2751781 14.5502439,25.1520548 14.5502439,25.1520548 L14.5502439,24.7454795 C14.5502439,24.7454795 14.2606829,24.696 13.8790244,24.5886027 C12.5322927,24.2061918 11.5773659,23.6964384 11.5773659,23.6964384 L11.7389268,24.2932603 L11.8907317,24.8413699 L11.3498537,25.0446575 L10.7496585,25.2652055 C11.4372683,25.5916164 12.3906341,26.0664658 13.2628293,26.3012055 L13.0571707,26.8539178 C13.0571707,26.8539178 14.1635122,27.3490959 16.0062439,27.3536986 L16.0062439,27.3548493 L16.0316098,27.3548493 L16.0316098,27.3536986 C17.8766829,27.3490959 18.9818537,26.8539178 18.9818537,26.8539178 L18.7754146,26.3012055 C19.648,26.0664658 20.6029268,25.5916164 21.2874146,25.2652055 L20.6887805,25.0446575" id="Fill-24" fill="#1A1919"></path>
                        <path d="M13.7670244,2.75550685 L14.0120976,2.78082192 L14.1182439,2.5610411 L14.4269268,1.91167123 L15.0005854,2.20317808 L15.2226341,2.31479452 L15.3994146,2.14257534 L16.0183415,1.53923288 L16.638439,2.14257534 L16.816,2.31479452 L17.0380488,2.20317808 L17.6085854,1.91167123 L17.921561,2.5610411 L18.0257561,2.78082192 L18.2708293,2.75550685 L18.5053659,2.72789041 C18.3980488,2.96531507 18.3188293,3.19123288 18.2622439,3.3780274 C17.6433171,3.0389589 16.8390244,2.8460274 16.0183415,2.8460274 C15.2011707,2.8460274 14.3976585,3.0389589 13.7767805,3.3780274 C13.7194146,3.19123288 13.6409756,2.96531507 13.5336585,2.72789041 L13.7670244,2.75550685 Z M16.0183415,3.18471233 C17.1164878,3.18471233 17.9949268,3.54257534 18.48,3.92345205 C18.48,3.92345205 18.6243902,3.07041096 19.1164878,2.31786301 L18.2321951,2.41682192 L17.7693659,1.45063014 L16.8807805,1.90093151 L16.0183415,1.06361644 L15.1586341,1.90093151 L14.2680976,1.45063014 L13.8060488,2.41682192 L12.9217561,2.31786301 C13.4142439,3.07041096 13.5578537,3.92345205 13.5578537,3.92345205 C14.046439,3.54257534 14.9217561,3.18471233 16.0183415,3.18471233 L16.0183415,3.18471233 Z" id="Fill-25" fill="#1A1919"></path>
                        <path d="M29.9348293,17.5337534 C29.9348293,17.5337534 29.5523902,18.1873425 28.6755122,18.1873425 L28.6645854,18.1873425 C27.6117073,18.1812055 27.187122,17.549863 27.187122,17.549863 C27.187122,17.549863 27.248,18.3710685 26.8690732,19.4795616 C26.4120976,20.8155068 26.8725854,21.7698082 26.8725854,21.7698082 C26.8725854,21.7698082 26.6267317,21.8353973 26.3438049,21.8353973 C26.2353171,21.8353973 26.1225366,21.8246575 26.016,21.7974247 C25.1363902,21.5922192 24.9170732,20.8051507 24.9170732,20.8051507 C24.9170732,20.8051507 24.9978537,23.4628493 21.8450732,23.4628493 L21.8204878,23.4628493 C21.8204878,23.4628493 22.0983415,23.0915616 22.1802927,22.0229589 C22.3301463,20.0506849 23.6885854,19.7798904 23.6885854,19.7798904 C23.6885854,19.7798904 22.9635122,19.6905205 22.6493659,19.4139726 C22.1580488,18.9759452 22.1927805,18.470411 22.1927805,18.470411 C23.3018537,18.4550685 24.028878,18.0837808 24.5826341,17.4543562 C25.182439,16.7727671 25.2807805,16.037863 25.2807805,16.037863 C25.2807805,16.037863 24.6840976,16.5694795 23.5313171,16.5694795 C23.4298537,16.5694795 23.3213659,16.5644932 23.2101463,16.554137 C22.6641951,16.510411 22.2872195,16.1698082 22.2872195,16.1698082 C23.488,15.4126575 24.3301463,14.0924384 23.5832195,12.1044384 C22.9845854,10.5107397 21.5469268,9.32054795 20.0987317,8.42416438 C19.617561,8.12843836 19.3486829,7.79934247 19.3486829,7.5170411 C19.3486829,6.85079452 20.3125854,6.82931507 20.707122,6.38246575 C21.1633171,5.86235616 20.8772683,5.01928767 20.4823415,4.51145205 C20.4823415,4.51145205 20.6154146,4.4849863 20.8249756,4.4849863 C21.2417561,4.4849863 21.9629268,4.58778082 22.5553171,5.19189041 C23.342439,5.992 23.0161951,6.86383562 23.0161951,6.86383562 L23.2269268,6.90410959 C23.3529756,6.93057534 23.4786341,6.93517808 23.6089756,6.94169863 C23.6366829,6.94169863 23.6659512,6.94323288 23.6936585,6.94323288 C24.8370732,6.94323288 25.3479024,5.76838356 25.3479024,5.76838356 C25.3479024,5.76838356 26.5635122,7.23780822 24.7738537,8.38964384 C24.4659512,8.58641096 24.3301463,8.76936986 24.3656585,8.96383562 L24.3933659,9.09156164 L24.5209756,9.11380822 C25.8177561,9.45939726 26.4745366,10.3392877 27.2760976,11.3388493 C28.4936585,12.8596712 30.2150244,12.9087671 30.4277073,12.9087671 L30.4507317,12.9087671 C30.4507317,12.9087671 30.0577561,14.1281096 28.8999024,14.1281096 C28.8803902,14.1281096 28.864,14.1281096 28.844878,14.1269589 C28.3129756,14.1081644 28.0398049,13.9079452 28.0398049,13.9079452 C28.0398049,13.9079452 27.8325854,16.675726 29.9348293,17.5337534 M28.8999024,14.5013151 C30.3196098,14.5013151 30.7949268,13.0817534 30.814439,13.0207671 L30.972878,12.5206027 L30.4409756,12.5367123 L30.4386341,12.5367123 C30.2513171,12.5367123 28.6840976,12.4956712 27.5734634,11.1083288 L27.468878,10.9794521 C26.7430244,10.0727123 26.0550244,9.20969863 24.8241951,8.81616438 C24.8597073,8.78471233 24.9108293,8.7459726 24.9806829,8.70109589 C25.633561,8.27917808 26.0132683,7.76635616 26.108878,7.17145205 C26.2485854,6.27583562 25.667122,5.56164384 25.6413659,5.53249315 L25.246439,5.05189041 L24.9990244,5.62186301 C24.9826341,5.65791781 24.5674146,6.5700274 23.6936585,6.5700274 L23.6284878,6.5700274 C23.5687805,6.5669589 23.5110244,6.56465753 23.4552195,6.56005479 C23.4860488,6.15309589 23.4107317,5.52328767 22.8292683,4.93183562 C22.1299512,4.22071233 21.2729756,4.11408219 20.8249756,4.11408219 C20.5857561,4.11408219 20.4265366,4.14323288 20.4089756,4.14476712 L19.8119024,4.26136986 L20.1802927,4.73852055 C20.4694634,5.10635616 20.7313171,5.78526027 20.4206829,6.13967123 C20.3211707,6.25282192 20.1166829,6.34410959 19.921561,6.43616438 C19.5196098,6.61758904 18.9701463,6.87189041 18.9701463,7.5170411 C18.9701463,7.9339726 19.2999024,8.37084932 19.8969756,8.74213699 C21.6651707,9.83490411 22.7559024,10.9752329 23.2269268,12.2340822 C23.9559024,14.1703014 23.0044878,15.2745753 22.081561,15.8568219 L21.667122,16.1187945 L22.0296585,16.4459726 C22.0788293,16.4881644 22.5217561,16.8724932 23.1773659,16.9273425 C23.3014634,16.9353973 23.4197073,16.9423014 23.5313171,16.9423014 C23.9508293,16.9423014 24.3086829,16.8770959 24.5994146,16.7900274 C24.5198049,16.9273425 24.4206829,17.0681096 24.2973659,17.2092603 C23.7697561,17.8103014 23.1203902,18.0837808 22.1865366,18.0987397 L21.8392195,18.1041096 L21.8126829,18.4462466 C21.809561,18.5152877 21.7834146,19.1496986 22.3941463,19.6889863 C22.4878049,19.7726027 22.6005854,19.8412603 22.7192195,19.8972603 C22.3047805,20.2639452 21.8837073,20.9025753 21.8025366,21.9961096 C21.7334634,22.9089863 21.5121951,23.2469041 21.5090732,23.2503562 L21.1258537,23.8256986 L21.8189268,23.8349041 C22.9642927,23.8349041 23.8411707,23.5246027 24.4487805,22.9089863 C24.8078049,22.5449863 25.0130732,22.1338082 25.134439,21.7698082 C25.3338537,21.9366575 25.5906341,22.0831781 25.9266341,22.1610411 C26.0538537,22.1901918 26.1927805,22.2063014 26.3438049,22.2063014 C26.6669268,22.2063014 26.9381463,22.1387945 26.9681951,22.1315068 L27.4107317,22.0160548 L27.2152195,21.6102466 C27.2007805,21.5776438 26.8316098,20.7625753 27.228878,19.6007671 C27.3994146,19.0979178 27.4872195,18.648 27.5297561,18.2974247 C27.8083902,18.4401096 28.1814634,18.557863 28.6638049,18.5593973 C29.7596098,18.5593973 30.2427317,17.7550685 30.2641951,17.7213151 L30.48,17.3519452 L30.08,17.1900822 C28.7742439,16.6573151 28.4854634,15.2266301 28.4277073,14.4522192 C28.545561,14.4748493 28.6805854,14.4951781 28.8327805,14.4993973 L28.8999024,14.5013151" id="Fill-26" fill="#1A1919"></path>
                        <path d="M27.3041951,8.42723288 C27.5687805,8.42723288 27.8770732,8.51583562 28.1685854,8.81194521 C29.0837073,9.72482192 29.9348293,9.77583562 29.9348293,9.77583562 C29.7802927,10.1126027 29.3319024,10.4079452 28.8675122,10.4079452 C28.7598049,10.4079452 28.6520976,10.3918356 28.5451707,10.3553973 C27.9157073,10.1467397 27.6905366,9.21890411 26.5849756,8.64049315 C26.5849756,8.64049315 26.8932683,8.42723288 27.3041951,8.42723288 M26.4046829,8.97035616 C26.9342439,9.24767123 27.2429268,9.61934247 27.5133659,9.94882192 C27.7795122,10.2706301 28.0312195,10.5797808 28.4265366,10.7086575 C28.5666341,10.7558356 28.7153171,10.7784658 28.8675122,10.7784658 C29.4595122,10.7784658 30.0546341,10.422137 30.2805854,9.92849315 L30.5077073,9.43408219 L29.9582439,9.40224658 C29.9324878,9.40147945 29.2257561,9.33780822 28.4401951,8.54843836 C28.1166829,8.22471233 27.7252683,8.05479452 27.3041951,8.05479452 C26.7894634,8.05479452 26.4078049,8.30756164 26.3656585,8.33364384 L25.8610732,8.68306849 L26.4046829,8.97035616" id="Fill-27" fill="#1A1919"></path>
                        <path d="M26.6532683,13.8998904 L26.6532683,13.9190685 C26.3348293,11.3913973 24.4675122,9.5660274 22.3894634,8.45676712 C22.1974634,8.35550685 22.0195122,8.26958904 21.8478049,8.18750685 C22.48,8.28416438 23.4989268,8.29567123 24.2852683,7.62520548 C24.2852683,7.62520548 23.0821463,8.49550685 20.6177561,7.7049863 C21.2995122,8.13994521 22.6251707,8.7540274 23.8360976,9.74860274 C26.8612683,12.3618082 24.6969756,14.9105753 24.6969756,14.9105753 C25.7841951,13.7951781 25.8294634,12.6003836 25.5094634,11.6246027 C26.0819512,12.5616438 26.448,13.698137 26.3910244,15.1004384 C26.3075122,17.1087671 25.1843902,18.8459178 24.0027317,20.2413151 C23.4349268,20.9186849 23.3080976,21.7510137 23.3080976,21.7510137 C23.3080976,21.7510137 23.5371707,21.0164932 24.1943415,20.2608767 C25.4610732,18.8033425 26.544,17.2898082 26.6860488,15.1084932 C26.8167805,15.5043288 27.3564878,16.6043836 28.2119024,17.0190137 C28.2119024,17.0190137 27.1367805,16.3823014 26.6532683,13.8998904" id="Fill-28" fill="#1A1919"></path>
                        <path d="M10.193561,23.4628493 C7.04039024,23.4628493 7.12078049,20.8051507 7.12078049,20.8051507 C7.12078049,20.8051507 6.90068293,21.5922192 6.0222439,21.7974247 C5.91687805,21.8246575 5.8044878,21.8353973 5.69443902,21.8353973 C5.4115122,21.8353973 5.16682927,21.7698082 5.16682927,21.7698082 C5.16682927,21.7698082 5.62536585,20.8155068 5.16839024,19.4795616 C4.79063415,18.3714521 4.85190244,17.549863 4.85190244,17.549863 C4.85190244,17.549863 4.42770732,18.1812055 3.37404878,18.1873425 L3.3635122,18.1873425 C2.48663415,18.1873425 2.10419512,17.5333699 2.10419512,17.5333699 C4.20487805,16.675726 3.99921951,13.9079452 3.99921951,13.9079452 C3.99921951,13.9079452 3.72604878,14.1081644 3.19336585,14.1269589 C3.17385366,14.1281096 3.15668293,14.1281096 3.13795122,14.1281096 C1.97931707,14.1281096 1.58673171,12.9087671 1.58673171,12.9087671 L1.61014634,12.9087671 C1.824,12.9087671 3.54419512,12.8596712 4.76097561,11.3388493 C5.56253659,10.3392877 6.22009756,9.45978082 7.51492683,9.11380822 L7.64526829,9.09156164 L7.67297561,8.96383562 C7.70887805,8.76936986 7.57346341,8.58641096 7.26556098,8.38964384 C5.47629268,7.23780822 6.69112195,5.76876712 6.69112195,5.76876712 C6.69112195,5.76876712 7.19960976,6.94323288 8.34614634,6.94323288 C8.37385366,6.94323288 8.4,6.94208219 8.42965854,6.94208219 C8.55843902,6.93517808 8.68565854,6.93019178 8.81131707,6.90410959 L9.02204878,6.86383562 C9.02204878,6.86383562 8.69463415,5.992 9.48370732,5.19189041 C10.0764878,4.58778082 10.796878,4.4849863 11.2132683,4.4849863 C11.4243902,4.4849863 11.5555122,4.51145205 11.5555122,4.51145205 C11.1613659,5.01928767 10.8753171,5.86235616 11.3315122,6.38246575 C11.7260488,6.82931507 12.6883902,6.85079452 12.6883902,7.51665753 C12.6883902,7.79934247 12.4202927,8.12843836 11.939122,8.42378082 C10.4905366,9.32054795 9.05326829,10.5107397 8.45502439,12.1044384 C7.70887805,14.0928219 8.55102439,15.4126575 9.75297561,16.1698082 C9.75297561,16.1698082 9.37521951,16.510411 8.8284878,16.554137 C8.71726829,16.5644932 8.60956098,16.5694795 8.50614634,16.5694795 C7.35414634,16.5694795 6.75785366,16.037863 6.75785366,16.037863 C6.75785366,16.037863 6.85697561,16.7723836 7.45326829,17.4547397 C8.01053659,18.0837808 8.73639024,18.4550685 9.84585366,18.470411 C9.84585366,18.470411 9.88097561,18.9759452 9.39043902,19.4139726 C9.0755122,19.6905205 8.35004878,19.7798904 8.35004878,19.7798904 C8.35004878,19.7798904 9.70965854,20.0506849 9.85912195,22.0229589 C9.94029268,23.0915616 10.2161951,23.4628493 10.2161951,23.4628493 L10.193561,23.4628493 Z M10.5287805,23.2503562 C10.5276098,23.2469041 10.3075122,22.9089863 10.236878,21.9961096 C10.1545366,20.9021918 9.73385366,20.2639452 9.3182439,19.8972603 C9.43843902,19.8412603 9.54965854,19.7726027 9.64331707,19.6889863 C10.2536585,19.1496986 10.2279024,18.5152877 10.2236098,18.4462466 L10.1998049,18.1041096 L9.85053659,18.0987397 C8.91941463,18.0837808 8.26887805,17.8103014 7.74087805,17.2092603 C7.61873171,17.0681096 7.51960976,16.9273425 7.43882927,16.7900274 C7.72956098,16.8770959 8.08507317,16.9423014 8.50614634,16.9423014 C8.61892683,16.9423014 8.73639024,16.9353973 8.8604878,16.9273425 C9.51570732,16.8721096 9.95980488,16.4885479 10.0089756,16.4459726 L10.3719024,16.118411 L9.95746341,15.8568219 C9.03102439,15.2745753 8.08390244,14.1703014 8.81131707,12.2340822 C9.28273171,10.9752329 10.3719024,9.83490411 12.142439,8.74213699 C12.7399024,8.37084932 13.0669268,7.9339726 13.0669268,7.51665753 C13.0669268,6.87189041 12.5190244,6.61758904 12.1166829,6.43616438 C11.9211707,6.34410959 11.7170732,6.25282192 11.6179512,6.13967123 C11.3065366,5.78526027 11.5687805,5.10635616 11.8579512,4.73852055 L12.2286829,4.26136986 L11.6284878,4.14476712 C11.6109268,4.14323288 11.4536585,4.11408219 11.2132683,4.11408219 C10.764878,4.11408219 9.90985366,4.22071233 9.21131707,4.93183562 C8.62907317,5.52367123 8.55258537,6.15309589 8.58263415,6.56005479 C8.52643902,6.56465753 8.46985366,6.5669589 8.41014634,6.5700274 L8.34614634,6.5700274 C7.46965854,6.5700274 7.05560976,5.65753425 7.03960976,5.62186301 L6.79336585,5.05189041 L6.39414634,5.53249315 C6.37190244,5.56164384 5.78887805,6.27583562 5.93092683,7.17106849 C6.02458537,7.76635616 6.40546341,8.27917808 7.05834146,8.70109589 C7.12936585,8.7459726 7.17853659,8.78432877 7.21443902,8.81616438 C5.98204878,9.20969863 5.29482927,10.0727123 4.56897561,10.9794521 L4.46439024,11.1083288 C3.35492683,12.4956712 1.78497561,12.5367123 1.59726829,12.5367123 L1.0622439,12.5202192 L1.22497561,13.0207671 C1.24409756,13.0817534 1.71746341,14.5013151 3.13795122,14.5013151 L3.20663415,14.4993973 C3.35726829,14.4951781 3.49190244,14.4748493 3.61170732,14.4522192 C3.55317073,15.2262466 3.26321951,16.6573151 1.95746341,17.1900822 L1.55863415,17.3519452 L1.77443902,17.7213151 C1.79512195,17.7550685 2.27980488,18.5593973 3.37717073,18.5593973 C3.85678049,18.557863 4.22985366,18.4401096 4.50887805,18.2978082 C4.55102439,18.648 4.63843902,19.0979178 4.8097561,19.6007671 C5.20702439,20.7625753 4.83746341,21.5776438 4.82341463,21.6102466 L4.62712195,22.0160548 L5.07043902,22.1315068 C5.09970732,22.1387945 5.37209756,22.2063014 5.69443902,22.2063014 C5.84546341,22.2063014 5.98478049,22.1901918 6.11082927,22.1610411 C6.44682927,22.0831781 6.70634146,21.9366575 6.90419512,21.7698082 C7.02439024,22.1338082 7.23082927,22.5449863 7.58868293,22.9089863 C8.1982439,23.5246027 9.07395122,23.8349041 10.2189268,23.8349041 L10.9123902,23.8256986 L10.5287805,23.2503562 L10.5287805,23.2503562 Z" id="Fill-29" fill="#1A1919"></path>
                        <path d="M3.86887805,8.81156164 C4.16156098,8.51583562 4.46946341,8.42723288 4.73560976,8.42723288 C5.14419512,8.42723288 5.45365854,8.64049315 5.45365854,8.64049315 C4.34926829,9.21890411 4.12136585,10.1467397 3.49034146,10.3557808 C3.38614634,10.3922192 3.27843902,10.4075616 3.17034146,10.4075616 C2.70673171,10.4075616 2.25756098,10.1126027 2.10419512,9.77583562 C2.10419512,9.77583562 2.95453659,9.72482192 3.86887805,8.81156164 M3.17034146,10.7784658 C3.32292683,10.7784658 3.47121951,10.7562192 3.61209756,10.7090411 C4.00819512,10.5797808 4.2595122,10.2710137 4.52565854,9.94882192 C4.79765854,9.61972603 5.10282927,9.24767123 5.63278049,8.97035616 L6.17795122,8.68306849 L5.67180488,8.33364384 C5.62926829,8.30717808 5.24995122,8.05517808 4.73560976,8.05517808 C4.31297561,8.05517808 3.92156098,8.22471233 3.59843902,8.54882192 C2.81170732,9.33780822 2.10692683,9.40147945 2.08117073,9.40224658 L1.53287805,9.43408219 L1.75804878,9.92887671 C1.98478049,10.422137 2.57912195,10.7784658 3.17034146,10.7784658" id="Fill-30" fill="#1A1919"></path>
                        <path d="M5.64839024,15.1004384 C5.58946341,13.698137 5.9555122,12.5616438 6.52917073,11.6246027 C6.20956098,12.6003836 6.2524878,13.7951781 7.34165854,14.9109589 C7.34165854,14.9109589 5.17658537,12.3618082 8.20370732,9.74860274 C9.41346341,8.7540274 10.7383415,8.13994521 11.4200976,7.7049863 C8.9564878,8.49512329 7.75297561,7.62520548 7.75297561,7.62520548 C8.53931707,8.29567123 9.5582439,8.28416438 10.190439,8.18750685 C10.0195122,8.26958904 9.84,8.35550685 9.64917073,8.45676712 C7.57034146,9.5660274 5.70419512,11.3913973 5.38419512,13.9190685 L5.38419512,13.8998904 C4.90146341,16.3819178 3.82673171,17.0190137 3.82673171,17.0190137 C4.6817561,16.6043836 5.22029268,15.5043288 5.35141463,15.1081096 C5.4942439,17.2898082 6.57717073,18.8033425 7.8435122,20.2608767 C8.50068293,21.0164932 8.73209756,21.7510137 8.73209756,21.7510137 C8.73209756,21.7510137 8.60370732,20.9186849 8.03317073,20.2413151 C6.85346341,18.8463014 5.73073171,17.1087671 5.64839024,15.1004384" id="Fill-31" fill="#1A1919"></path>
                        <path d="M15.3069268,9.98641096 L15.3069268,10.487726 C15.4833171,10.2775342 15.822439,10.3201096 15.822439,10.3201096 L15.822439,11.0427397 C15.822439,11.0427397 15.8107317,11.3983014 15.6823415,11.5521096 L16.417561,11.5521096 C16.2907317,11.3983014 16.2778537,11.0427397 16.2778537,11.0427397 L16.2778537,10.3201096 C16.2778537,10.3201096 16.6185366,10.2775342 16.7933659,10.487726 L16.7933659,9.98641096 L15.3069268,9.98641096" id="Fill-32" fill="#1A1919"></path>
                        <path d="M14.9912195,7.01380822 C15.2265366,7.19715068 15.3619512,7.22783562 15.3666341,7.23090411 L15.4583415,7.27232877 L15.4583415,6.80054795 L14.5943415,6.44345205 C14.5943415,6.44345205 14.6017561,6.71693151 14.9912195,7.01380822" id="Fill-33" fill="#1A1919"></path>
                        <path d="M17.0462439,7.01380822 C17.436878,6.71693151 17.4442927,6.44345205 17.4442927,6.44345205 L16.5799024,6.80054795 L16.5799024,7.27232877 L16.6712195,7.23090411 C16.6759024,7.22783562 16.8113171,7.19715068 17.0462439,7.01380822" id="Fill-34" fill="#1A1919"></path>
                        <path d="M16.0183415,5.75687671 L13.9363902,4.94832877 C14.113561,4.53638356 14.9299512,4.18580822 16.0183415,4.18465753 C17.1082927,4.18580822 17.9246829,4.53638356 18.1006829,4.94832877 L16.0183415,5.75687671 Z M17.5707317,8.28991781 L16.1709268,9.01446575 L16.1709268,6.07945205 L18.0702439,5.44580822 L17.5707317,8.28991781 Z M18.4374634,9.06854795 L19.0774634,9.43369863 L19.086439,9.43369863 L19.2472195,9.52613699 C18.8858537,9.62432877 18.6099512,9.80191781 18.3781463,10.0351233 C18.369561,10.042411 18.3621463,10.0508493 18.3527805,10.0596712 C18.2997073,10.1152877 18.2470244,10.1751233 18.1962927,10.2372603 C18.1869268,10.2487671 18.1767805,10.2610411 18.1666341,10.2748493 C18.1170732,10.3373699 18.0702439,10.4018082 18.0257561,10.4681644 C18.0179512,10.4796712 18.0097561,10.4911781 18.0019512,10.5023014 C17.9492683,10.5801644 17.8981463,10.6630137 17.8478049,10.7489315 C17.392,11.5206575 16.6649756,11.9816986 16.0183415,11.9828493 C15.3724878,11.9816986 14.6450732,11.5206575 14.1900488,10.7489315 C14.1404878,10.6653151 14.0905366,10.5843836 14.0378537,10.5057534 C14.0273171,10.4911781 14.0179512,10.4758356 14.0081951,10.4635616 C13.9637073,10.3991233 13.918439,10.3362192 13.8731707,10.2775342 C13.8614634,10.2610411 13.8505366,10.2487671 13.8392195,10.2349589 C13.7896585,10.1751233 13.7389268,10.1160548 13.6874146,10.061589 C13.6764878,10.0527671 13.6690732,10.042411 13.6597073,10.033589 C13.4263415,9.8 13.1516098,9.62432877 12.7898537,9.52613699 L12.9521951,9.43369863 L12.9592195,9.43369863 L13.6003902,9.06854795 L14.2579512,8.69841096 L16.0148293,9.63852055 L16.0183415,9.63468493 L16.0234146,9.63852055 L17.7799024,8.69841096 L18.4374634,9.06854795 Z M20.9619512,11.6794521 C20.8187317,12.0511233 20.7000976,12.4534795 20.7000976,12.8535342 L20.7012683,15.4364384 C20.1521951,15.3459178 20.0874146,14.7648219 20.0850732,14.7395068 L20.0749268,14.6213699 L19.9566829,14.6110137 C19.7178537,14.5883836 19.5598049,14.4894247 19.4263415,14.3620822 C19.1570732,14.0974247 19.1566829,13.6686027 19.1570732,13.6647671 C19.1531707,13.6866301 18.860878,14.0893699 19.2003902,14.5296986 C19.3432195,14.7145753 19.550439,14.8288767 19.8181463,14.8737534 C19.8809756,15.1959452 20.1252683,15.6516164 20.7012683,15.7206575 L20.7012683,16.9848767 L19.0809756,16.9848767 C18.3340488,16.576 18.6505366,15.8572055 18.6649756,15.826137 L18.7281951,15.6899726 L18.5853659,15.6366575 C17.776,15.3420822 17.9992195,14.5484932 18.0097561,14.5143562 L18.0421463,14.3985205 L17.9320976,14.3475068 C17.2643902,14.0429589 17.3545366,13.2232877 17.3635122,13.1887671 C17.1578537,13.3529315 17.0837073,13.6866301 17.2253659,14.0141918 C17.148878,14.1004932 17.0462439,14.2040548 16.9334634,14.3187397 C16.241561,14.1453699 16.2200976,13.5205479 16.2200976,13.4917808 L16.2185366,13.3955068 L16.1276098,13.3609863 C15.857561,13.2627945 15.6721951,13.1151233 15.5804878,12.9172055 C15.4778537,12.6978082 15.5141463,12.4680548 15.5422439,12.3572055 C15.6214634,12.3752329 15.7002927,12.3875068 15.7756098,12.3936438 C15.8536585,12.4013151 15.9332683,12.4063014 16.0136585,12.4063014 L16.0245854,12.4063014 C16.1045854,12.4063014 16.1838049,12.4013151 16.2618537,12.3936438 C16.6930732,12.3514521 17.1754146,12.1696438 17.678439,11.6794521 L20.9619512,11.6794521 Z M18.9373659,22.9354521 L19.118439,22.0087671 C19.1278049,21.9543014 19.1395122,21.8906301 19.1473171,21.8373151 C19.1988293,21.858411 19.2522927,21.8752877 19.3108293,21.8860274 C19.3787317,21.8986849 19.4407805,21.9052055 19.4973659,21.9052055 C19.7736585,21.9052055 19.9348293,21.7625205 20.0417561,21.6405479 L20.1802927,21.4817534 L20.067122,21.3072329 C20.0569756,21.2899726 19.8056585,20.8998904 19.612878,20.6329315 C19.5746341,20.5803836 19.5387317,20.5282192 19.5020488,20.4718356 C19.2823415,20.1488767 19.0076098,19.7442192 18.4561951,19.7442192 L18.4070244,19.7453699 C18.3164878,19.7511233 18.238439,19.7687671 18.1752195,19.7921644 C18.0019512,19.7127671 17.8232195,19.6713425 17.6374634,19.6713425 C17.4091707,19.6713425 17.2179512,19.7330959 17.0899512,19.7756712 C17.0532683,19.786411 17.0204878,19.7975342 16.9947317,19.8025205 L15.9644878,19.7027945 C15.9516098,19.7001096 15.9094634,19.6759452 15.8583415,19.6164932 L15.8583415,19.6115068 L16.0811707,19.5236712 C16.0183415,18.7937534 15.3053659,18.3449863 14.9080976,18.1930959 C14.8909268,18.1198356 14.8550244,18.0469589 14.7925854,17.9875068 L14.5713171,17.7811507 L14.3765854,18.0105205 L14.2809756,18.1271233 L12.8382439,17.5448767 L13.7767805,18.7028493 L13.406439,19.254411 C13.2710244,19.3955616 13.4204878,19.537863 13.4204878,19.537863 L13.8033171,19.7967671 L14.1998049,19.6513973 C14.2134634,19.6513973 14.225561,19.6544658 14.2388293,19.656 C14.2197073,19.7150685 14.1947317,19.9475068 14.1783415,20.0123288 L13.4899512,19.8796164 L12.766439,20.2808219 C12.3949268,20.5493151 12.3441951,20.9930959 12.4819512,21.2972603 L12.5623415,21.4694795 L12.6762927,21.7130411 L12.929561,21.6102466 C12.9330732,21.6090959 12.9365854,21.6079452 12.9389268,21.6060274 C12.8476098,21.8917808 12.8850732,22.1633425 13.0470244,22.3413151 L13.2003902,22.5311781 L13.404878,22.7850959 L13.6296585,22.5480548 C13.6952195,22.4836164 13.9098537,22.247726 13.9754146,22.0459726 L14.0241951,21.8917808 L13.9149268,21.7732603 L13.8965854,21.7517808 L14.0199024,21.5519452 L14.9182439,21.7602192 L15.1207805,21.805863 L15.2280976,21.6313425 L15.2866341,21.5366027 C15.297561,21.516274 15.3002927,21.5132055 15.3420488,21.5132055 C15.3740488,21.5132055 15.4056585,21.516274 15.44,21.5239452 C15.779122,21.5868493 16.0917073,21.6179178 16.3691707,21.6179178 C16.638439,21.6179178 16.7996098,21.6079452 16.9912195,21.5454247 C16.9912195,21.5454247 17.473561,22.0839452 17.4899512,22.1046575 L17.1945366,23.0006575 L17.1816585,23.0547397 C16.6216585,23.0992329 16.3496585,23.2200548 16.0202927,23.5430137 C15.5422439,23.0769863 15.2035122,23.0278904 13.918439,23.0278904 C12.3800976,23.0278904 11.3373659,22.1414795 11.3373659,20.7253699 L11.3373659,17.263726 L20.7012683,17.263726 L20.7032195,20.7253699 C20.7032195,21.8729863 20.017561,22.6742466 18.9373659,22.9354521 L18.9373659,22.9354521 Z M13.1699512,20.978137 L13.2183415,21.0978082 C13.1863415,21.2025205 12.8210732,21.3505753 12.8210732,21.3505753 L12.7422439,21.1806575 C12.6583415,20.9996164 12.6762927,20.6943014 12.9307317,20.5075068 L13.523122,20.1530959 L14.1514146,20.284274 C14.1397073,20.4798904 14.2587317,20.626411 14.2587317,20.626411 L13.6003902,20.502137 L13.2070244,20.7694795 C13.1399024,20.8155068 13.1352195,20.8998904 13.1699512,20.978137 L13.1699512,20.978137 Z M18.8382439,21.9566027 L18.6364878,22.9918356 C18.5069268,23.009863 18.371122,23.0190685 18.2306341,23.0244384 L18.4433171,22.0294795 C18.5069268,21.7337534 17.699122,21.6416986 17.2999024,21.0602192 C17.1051707,21.2753973 16.7383415,21.3398356 16.3691707,21.3398356 C16.0327805,21.3398356 15.6967805,21.2872877 15.4919024,21.2473973 C15.4403902,21.2393425 15.3908293,21.233589 15.3420488,21.233589 C15.2241951,21.233589 15.1164878,21.2696438 15.0419512,21.392 L14.9834146,21.4894247 L13.8821463,21.2347397 L13.6085854,21.6804384 C13.5699512,21.7529315 13.5672195,21.8135342 13.6296585,21.8810411 L13.7038049,21.9608219 C13.6522927,22.1184658 13.4236098,22.3570411 13.4236098,22.3570411 L13.2600976,22.1560548 C13.1305366,22.0137534 13.1516098,21.7529315 13.2866341,21.5116712 L13.7233171,20.7871233 L14.656,20.9194521 L14.5112195,20.5949589 C14.3164878,20.1657534 14.6134634,19.6195616 14.6450732,19.3050411 C14.6341463,19.4001644 14.5451707,19.4216438 14.4421463,19.4216438 C14.3480976,19.4216438 14.2427317,19.404 14.172878,19.404 C14.145561,19.404 14.1221463,19.4066849 14.1096585,19.4158904 L13.8567805,19.5666301 L13.6573659,19.3932603 C13.633561,19.360274 13.6257561,19.2820274 13.6842927,19.223726 L14.145561,18.7151233 L13.6003902,18.0891507 L14.3637073,18.4661918 L14.5970732,18.1884932 C14.6610732,18.2502466 14.6329756,18.4113425 14.6329756,18.4113425 C14.8710244,18.4170959 15.539122,18.7799452 15.5746341,19.6276164 C15.5765854,19.6536986 15.5765854,19.6828493 15.5765854,19.7104658 C15.5765854,19.7104658 15.5828293,19.7212055 15.5945366,19.7384658 C15.6413659,19.8025205 15.7720976,19.9659178 15.9371707,19.9808767 L16.992,20.0836712 L16.9962927,20.0836712 C17.1118049,20.0836712 17.3420488,19.9501918 17.6374634,19.9501918 C17.7986341,19.9501918 17.9773659,19.9904658 18.1681951,20.1086027 C18.1681951,20.1086027 18.2645854,20.0338082 18.4199024,20.026137 C18.4316098,20.0246027 18.4452683,20.0246027 18.4561951,20.0246027 C18.9291707,20.0246027 19.1258537,20.4449863 19.3799024,20.7940274 C19.5707317,21.0602192 19.8259512,21.4545205 19.8259512,21.4545205 C19.7319024,21.5642192 19.6444878,21.625589 19.4973659,21.625589 C19.4571707,21.625589 19.4115122,21.6225205 19.3611707,21.6125479 C18.8538537,21.5204932 18.780878,20.4952329 18.4913171,20.4143014 C18.4757073,20.4100822 18.4597073,20.4085479 18.4452683,20.4085479 C18.352,20.4085479 18.3114146,20.489863 18.3114146,20.489863 C18.4433171,20.8396712 18.3660488,20.9808219 18.508878,21.2500822 C18.6150244,21.4499178 18.8039024,21.6140822 18.8819512,21.6919452 C18.8819512,21.6919452 18.860878,21.8434521 18.8382439,21.9566027 L18.8382439,21.9566027 Z M17.8673171,23.0313425 C17.7252683,23.0313425 17.5941463,23.0332603 17.4770732,23.037863 L17.7857561,22.092 C17.8341463,21.9608219 17.5902439,21.7928219 17.4891707,21.6447671 C17.6413659,21.7391233 18.0359024,21.9447123 18.225561,22.0267945 C18.206439,22.0574795 17.8673171,23.0313425 17.8673171,23.0313425 L17.8673171,23.0313425 Z M13.2729756,14.5078356 L13.3170732,12.8635068 L13.6924878,12.4730411 L13.9281951,12.9582466 L13.4634146,14.5366027 L13.2729756,14.5078356 Z M13.5430244,15.0172055 C13.6042927,15.1437808 13.7147317,15.2281644 13.7923902,15.2761096 C13.7896585,15.3950137 13.7783415,15.5787397 13.7463415,15.7413699 C13.7389268,15.7778082 13.729561,15.8111781 13.7194146,15.8445479 C13.7139512,15.8656438 13.7077073,15.8829041 13.7034146,15.8967123 C13.5882927,15.8967123 13.3635122,15.8829041 13.1789268,15.8169315 C12.9748293,15.7429041 12.670439,15.3750685 12.7406829,14.9692603 C12.8284878,14.9163288 13.0333659,14.8031781 13.2249756,14.8031781 C13.3720976,14.8031781 13.4727805,14.8714521 13.5430244,15.0172055 L13.5430244,15.0172055 Z M17.891122,15.4590685 C17.6027317,15.6681096 16.8589268,16.2020274 16.588878,16.3876712 L13.9918049,15.9285479 C13.9976585,15.9059178 14.0039024,15.8829041 14.0097561,15.8606575 C14.0437073,15.7279452 14.0788293,15.5472877 14.0803902,15.334411 L16.2634146,15.3689315 L16.3051707,15.3271233 C16.3383415,15.2945205 17.0298537,14.637863 17.3822439,14.2600548 C17.4661463,14.3636164 17.5707317,14.4621918 17.7084878,14.5484932 C17.6612683,14.8001096 17.681561,15.157589 17.891122,15.4590685 L17.891122,15.4590685 Z M14.3594146,11.6794521 C14.672,11.984 14.977561,12.173863 15.2679024,12.2781918 C15.230439,12.4254795 15.180878,12.7292603 15.3205854,13.0318904 C15.4349268,13.2758356 15.6421463,13.4641644 15.9418537,13.5892055 C15.9742439,13.8910685 16.1689756,14.3448219 16.705561,14.5446575 C16.4702439,14.777863 16.241561,14.9976438 16.1490732,15.0862466 L13.9707317,15.0524932 C13.921561,15.0283288 13.836878,14.9734795 13.7994146,14.8963836 C13.795122,14.8852603 13.7880976,14.8795068 13.7834146,14.8687671 L14.1385366,14.9251507 C14.1463415,14.9263014 14.1537561,14.9263014 14.161561,14.9263014 C14.2302439,14.9263014 14.2899512,14.8795068 14.3012683,14.8104658 C14.3129756,14.7329863 14.2606829,14.6616438 14.1838049,14.6497534 L13.7463415,14.581863 L14.2314146,12.9348493 L13.7717073,11.984 L13.0357073,12.749589 L12.990439,14.4621918 L12.4956098,14.3850959 C12.419122,14.370137 12.3461463,14.4249863 12.3324878,14.5013151 C12.3207805,14.5764932 12.3726829,14.6482192 12.4507317,14.6616438 L12.6583415,14.6927123 C12.5841951,14.734137 12.5350244,14.7671233 12.5291707,14.771726 L12.4870244,14.8004932 L12.4757073,14.8515068 C12.355122,15.3321096 12.6275122,15.7881644 12.9217561,15.9922192 L12.9112195,16.0532055 C12.899122,16.1268493 12.9162927,16.1989589 12.961561,16.2591781 C13.0044878,16.3209315 13.0696585,16.3577534 13.1438049,16.3707945 C13.1586341,16.3734795 13.1750244,16.3746301 13.1894634,16.3746301 C13.3170732,16.3746301 13.4282927,16.2879452 13.4595122,16.1613699 C13.5687805,16.1740274 13.6690732,16.1767123 13.7377561,16.1767123 L13.7959024,16.1767123 L16.6540488,16.6845479 L16.7028293,16.6527123 C16.9303415,16.4962192 17.7986341,15.8744658 18.083122,15.6684932 C18.161561,15.7348493 18.2489756,15.7946849 18.3547317,15.8445479 C18.2622439,16.1479452 18.2567805,16.6158904 18.620878,16.9848767 L11.3373659,16.9848767 L11.3373659,12.8535342 C11.3373659,12.4534795 11.2183415,12.0511233 11.0774634,11.6794521 L14.3594146,11.6794521 Z M13.9660488,5.44580822 L15.8665366,6.07945205 L15.8665366,9.01446575 L14.467122,8.28991781 L13.9660488,5.44580822 Z M18.6029268,5.09178082 C18.6029268,4.37567123 17.3763902,3.73128767 16.0226341,3.73128767 L16.0148293,3.73128767 C14.6614634,3.73128767 13.4349268,4.37567123 13.4349268,5.09178082 L13.4618537,5.26783562 L14.0023415,8.31753425 L13.4595122,8.62745205 L12.0546341,9.43369863 L12.0597073,9.43369863 C12.0597073,9.43369863 11.7436098,9.59326027 11.5972683,9.69145205 C11.0622439,10.0566027 10.9486829,10.5893699 11.2593171,10.8095342 C11.3358049,10.3749589 11.6850732,9.92120548 12.3395122,9.92120548 C12.8105366,9.92120548 13.1699512,10.1601644 13.4595122,10.518411 C13.534439,10.6089315 13.6050732,10.705589 13.6710244,10.8095342 C13.7521951,10.9407123 13.8341463,11.0557808 13.9149268,11.1666301 L10.2961951,11.1666301 C10.5623415,11.6921096 10.8152195,12.2486575 10.8152195,12.8535342 L10.8152195,20.7253699 C10.8152195,22.6309041 12.305561,23.5403288 13.918439,23.5403288 C15.164878,23.5403288 15.3326829,23.4843288 16.0202927,24.157863 C16.7047805,23.4843288 16.8729756,23.5403288 18.1201951,23.5403288 C19.7338537,23.5403288 21.2226341,22.6309041 21.2226341,20.7253699 L21.2226341,12.8535342 C21.2226341,12.2486575 21.475122,11.6921096 21.742439,11.1666301 L18.1225366,11.1666301 C18.2033171,11.0557808 18.284878,10.9407123 18.3660488,10.8095342 C18.4331707,10.705589 18.5034146,10.6089315 18.5767805,10.518411 C18.8686829,10.1586301 19.2273171,9.92120548 19.6987317,9.92120548 C20.3523902,9.92120548 20.7012683,10.3749589 20.7789268,10.8095342 C21.089561,10.5893699 20.9771707,10.0566027 20.4390244,9.69145205 C20.2950244,9.59326027 19.9785366,9.43369863 19.9785366,9.43369863 L19.9832195,9.43369863 L18.5767805,8.62745205 L18.0359024,8.31753425 L18.5767805,5.26783562 L18.6029268,5.09178082 L18.6029268,5.09178082 Z" id="Fill-35" fill="#1A1919"></path>
                    </g>
                </g>
            </g>
        </g>
    </g>
</svg>