<svg xmlns="http://www.w3.org/2000/svg" xmlns:xlink="http://www.w3.org/1999/xlink" width="44" height="44" viewBox="0 0 44 44">
    <defs>
        <circle id="a" cx="22" cy="22" r="22"/>
    </defs>
    <g fill="none" fill-rule="evenodd">
        <mask id="b" fill="#fff">
            <use xlink:href="#a"/>
        </mask>
        <use fill="#FFF" xlink:href="#a"/>
        <g mask="url(#b)">
            <path fill="#E2001A" d="M22.45 16.681l.02-.03c.17-.247.1-.43-.015-.529-.071-.063-1.777-1.096-1.777-1.096a.462.462 0 0 1-.205-.384c0-.253.152-.444.495-.54 1.097-.3 4.952-.459 6.263-.459.454 0 1.237-.001 1.94.019l-.031-.03A10.957 10.957 0 0 0 22 11c-6.076 0-11 4.924-11 11 0 2.671.951 5.119 2.534 7.025 1.382-1.988 4.794-6.886 5.541-7.887.861-1.154 2.826-3.718 3.158-4.153l.017-.02.2-.284zM15.293 30.72A10.95 10.95 0 0 0 22 33c6.076 0 11-4.925 11-11 0-1.84-.451-3.572-1.248-5.095v.001c.38-.365.816-.942.53-1.666-.09-.215-.518-.704-.628-.823l.015.043c.268.807-.262 1.314-.642 1.658-.209.19-3.002 2.823-6.278 5.687-2.887 2.525-6.116 5.094-7.987 6.495-2.632 1.968-3.144 2.255-3.144 2.255a.654.654 0 0 1-.27.07c-.16 0-.3-.072-.389-.188l-.002-.002c-.014.034-.019.063-.007.083.282.458.75.987 1.023.987a.672.672 0 0 0 .271-.07s.207-.114 1.049-.715z"/>
            <path fill="#FEFEFE" d="M22.466 16.652c.169-.247.098-.43-.015-.53-.072-.062-1.778-1.096-1.778-1.096a.46.46 0 0 1-.205-.384c0-.253.152-.443.496-.54 1.095-.3 4.952-.458 6.261-.458.619 0 1.844-.004 2.65.049.905.059 1.591.246 1.761.684.336.857-.219 1.387-.612 1.743-.208.19-3 2.823-6.276 5.687-2.888 2.525-6.118 5.093-7.988 6.494-2.631 1.97-3.143 2.256-3.143 2.256a.654.654 0 0 1-.272.07.478.478 0 0 1-.486-.483c0-.103.032-.2.087-.278 0 0 5.18-7.465 6.124-8.728a693.492 693.492 0 0 1 3.206-4.215s.027-.033.19-.271z"/>
        </g>
    </g>
</svg>
