<svg xmlns="http://www.w3.org/2000/svg" xmlns:xlink="http://www.w3.org/1999/xlink" width="24" height="24"><defs><circle id="A" cx="12" cy="12" r="12"/></defs><mask id="B" fill="#fff"><use xlink:href="#A"/></mask><use xlink:href="#A" fill="#02C5AB"/><g fill-rule="nonzero" transform="translate(4 2)" fill="#fff" mask="url(#B)"><path d="M0 6h7.5v3H0zm2 4h5.5v7H2zm6.5 0H14v7H8.5zm0-4H16v3H8.5z"/><g stroke="#fff"><path d="M8.545 4.455c1.26-.132 2.168-.454 2.724-.946.82-.725.88-1.3.4-1.726-.522-.46-1.286-.398-2.136.354-.53.47-.867 1.237-.988 2.32z" fill-opacity="0"/><path d="M3.833 5.13c.798-.985 1.212-1.854 1.257-2.596.067-1.09-.298-1.542-.938-1.503-.695.043-1.19.627-1.26 1.76-.043.708.262 1.488.94 2.338z" transform="matrix(-.707107 .707107 .707107 .707107 6.544594 -1.882433)" fill-opacity="0"/></g></g></svg>