<svg xmlns="http://www.w3.org/2000/svg" xmlns:xlink="http://www.w3.org/1999/xlink" width="24" height="24"><defs><circle id="A" cx="12" cy="12" r="12"/></defs><mask id="B" fill="#fff"><use xlink:href="#A"/></mask><use xlink:href="#A" fill="#02C5AB"/><g fill-rule="nonzero" fill="#fff"><path mask="url(#B)" d="M9 13h1v13H9z"/><g mask="url(#B)"><path d="M13.83 16.886c.092-.975-.287-1.887-1.135-2.734-.976-.977-2.037-1.33-3.182-1.06l3.934 3.934c.088.088.23.088.318 0 .037-.037.06-.086.065-.138zM9.513 13.1c.27-1.145-.084-2.206-1.06-3.182-.848-.848-1.76-1.227-2.735-1.135-.124.012-.214.122-.203.245.005.052.028.1.065.138L9.513 13.1z"/><path d="M9.513 13.1c-1.145-.27-2.206.084-3.182 1.06-.848.848-1.226 1.76-1.135 2.735.012.124.12.214.245.203.052-.005.1-.028.138-.065L9.513 13.1z"/><path d="M9.513 13.1c-.62-1-1.62-1.5-3-1.5-1.2 0-2.1.377-2.736 1.132-.08.096-.066.237.03.316.04.034.1.052.143.052h5.563zM13.3 8.774c-.975-.092-1.887.287-2.735 1.135-.976.976-1.33 2.037-1.06 3.182l3.933-3.934c.088-.088.088-.23 0-.318-.037-.037-.086-.06-.138-.065z"/><path d="M15.25 12.722c-.625-.754-1.537-1.132-2.736-1.132-1.38 0-2.38.5-3 1.5h5.563c.124 0 .225-.1.225-.225 0-.052-.018-.103-.052-.143z"/></g><circle mask="url(#B)" cx="15.5" cy="5.5" r="2.5"/></g></svg>