<?xml version="1.0" encoding="UTF-8"?>
<svg width="64px" height="64px" viewBox="0 0 64 64" version="1.1" xmlns="http://www.w3.org/2000/svg" xmlns:xlink="http://www.w3.org/1999/xlink">
    <!-- Generator: Sketch 51.2 (57519) - http://www.bohemiancoding.com/sketch -->
    <title>Group 15</title>
    <desc>Created with Sketch.</desc>
    <defs></defs>
    <g id="01.-A-B-Home-page" stroke="none" stroke-width="1" fill="none" fill-rule="evenodd">
        <g id="C-01.1-Home-Page-1440" transform="translate(-1084.000000, -312.000000)">
            <g id="Group-6" transform="translate(1084.000000, 312.000000)">
                <g id="Group-15">
                    <circle id="Oval-3" fill="#FFFFFF" cx="32" cy="32" r="32"></circle>
                    <g id="Icon/-20px/-Like" transform="translate(15.000000, 12.000000)">
                        <g id="Icon/-Like" transform="translate(1.800000, 1.800000)">
                            <rect id="Rectangle-2" fill="#2898BC" fill-rule="nonzero" x="0" y="9" width="12.6" height="23.4" rx="1"></rect>
                            <path d="M26.26848,12.1976471 C25.40808,12.1976471 24.26148,12.2357647 22.82508,12.3139059 C23.74668,9.09296471 24.23808,6.58672941 24.28488,4.76470588 C24.28488,1.79724706 23.03208,0 20.49588,0 C17.59068,0 17.97228,3.56209412 14.39928,8.07331765 L14.39928,31.4070353 C16.67808,32.0512235 18.72108,32.4 20.49588,32.4 C25.14888,32.4 28.49328,31.0392 29.32848,28.3099765 C30.02868,26.0191059 31.54788,17.7876 31.49928,16.5030353 C31.50108,13.7185412 29.43108,12.1976471 26.26848,12.1976471" id="Fill-1" fill="#FFBB03" fill-rule="nonzero"></path>
                            <path d="M26.26848,12.1976471 C25.40808,12.1976471 24.26148,12.2357647 22.82508,12.3139059 C23.74668,9.09296471 24.23808,6.58672941 24.28488,4.76470588 C24.28488,1.79724706 23.03208,0 20.49588,0 C17.59068,0 17.97228,3.56209412 14.39928,8.07331765 L14.39928,10.8787765 C16.93908,8.2296 18.08208,5.79769412 18.93168,3.98901176 C19.87488,1.98211765 20.02248,1.90588235 20.49588,1.90588235 C21.19068,1.90588235 22.48488,1.90588235 22.48488,4.71324706 C22.44528,6.32181176 21.97908,8.69272941 21.10248,11.7631059 L20.36268,14.3551059 L22.91688,14.2178824 C24.31908,14.1416471 25.44588,14.1035294 26.26848,14.1035294 C27.43668,14.1035294 28.40148,14.3608235 28.98648,14.8277647 C29.29248,15.0717176 29.69928,15.5119765 29.69928,16.5697412 C29.70648,17.6884941 28.28088,25.5483529 27.61488,27.7229647 C27.08388,29.4573176 24.42348,30.4941176 20.49588,30.4941176 C18.80028,30.4941176 16.75548,30.1396235 14.39928,29.4401647 L14.39928,31.4070353 C16.67808,32.0512235 18.72108,32.4 20.49588,32.4 C25.14888,32.4 28.49328,31.0392 29.32848,28.3099765 C30.02868,26.0191059 31.54788,17.7876 31.49928,16.5030353 C31.50108,13.7185412 29.43108,12.1976471 26.26848,12.1976471" id="Fill-4" fill="#FFBB03" fill-rule="nonzero"></path>
                        </g>
                    </g>
                </g>
            </g>
        </g>
    </g>
</svg>