<?xml version="1.0" encoding="UTF-8"?>
<svg width="210px" height="80px" viewBox="0 0 210 80" version="1.1" xmlns="http://www.w3.org/2000/svg" xmlns:xlink="http://www.w3.org/1999/xlink">
    <!-- Generator: Sketch 53.2 (72643) - https://sketchapp.com -->
    <title>Group 7</title>
    <desc>Created with Sketch.</desc>
    <defs>
        <linearGradient x1="91.3766044%" y1="0%" x2="19.496024%" y2="102.655901%" id="linearGradient-1">
            <stop stop-color="#EBEBEB" offset="0%"></stop>
            <stop stop-color="#D4D4D4" offset="100%"></stop>
        </linearGradient>
        <linearGradient x1="50%" y1="0%" x2="50%" y2="98.4813457%" id="linearGradient-2">
            <stop stop-color="#F2F2F2" offset="0%"></stop>
            <stop stop-color="#C4C4C4" offset="100%"></stop>
        </linearGradient>
        <path d="M68,67.0069875 C58.5,67.0069875 58,47.0069875 40,47.0069875 C28.9998772,47.0069875 21,55.008899 21,65.0069875 C9,65.0069875 5.45700784e-12,50.0250388 3.63802352e-12,41.0069875 L1.8189894e-12,34 C9.86598708e-13,28.0069875 0.801382741,19.2297926 9,18 C19,16.5 35,0 58,3.55254204e-15 L93,0 C117,-5.81192971e-17 132.5,24.0069875 155,28.0069875 C186.746986,33.6508961 210,28.9928877 210,60.0069875 C210,64.4228913 208,67.0069875 205,67.0069875 L193,67.0069875 C193,56.0069875 185,47.0069875 174,47.0069875 C155,47.0069875 155,67.0069875 148,67.0069875 L68,67.0069875 Z" id="path-3"></path>
        <linearGradient x1="84.0282645%" y1="44.0628298%" x2="1.72505803%" y2="56.7901874%" id="linearGradient-5">
            <stop stop-color="#5E5E5E" offset="0%"></stop>
            <stop stop-color="#1A1A1A" offset="100%"></stop>
        </linearGradient>
        <linearGradient x1="50%" y1="0%" x2="50%" y2="98.4813457%" id="linearGradient-6">
            <stop stop-color="#F2F2F2" offset="0%"></stop>
            <stop stop-color="#C4C4C4" offset="100%"></stop>
        </linearGradient>
        <linearGradient x1="84.0282645%" y1="43.0756631%" x2="1.72505803%" y2="57.9191843%" id="linearGradient-7">
            <stop stop-color="#5E5E5E" offset="0%"></stop>
            <stop stop-color="#1A1A1A" offset="100%"></stop>
        </linearGradient>
    </defs>
    <g id="UI-Set" stroke="none" stroke-width="1" fill="none" fill-rule="evenodd">
        <g id="00.-cars" transform="translate(-128.000000, -1676.000000)">
            <g id="Group-7" transform="translate(128.000000, 1676.000000)">
                <g id="Group" transform="translate(25.000000, 50.000000)">
                    <path d="M30,15 C30,23.2840909 23.2840909,30 15,30 C6.71590909,30 0,23.2840909 0,15 C0,6.71590909 6.71590909,0 15,0 C23.2840909,0 30,6.71590909 30,15" id="Fill-3" fill="#1A1A1A"></path>
                    <path d="M25,15 C25,20.5227273 20.5227273,25 15,25 C9.47727273,25 5,20.5227273 5,15 C5,9.47727273 9.47727273,5 15,5 C20.5227273,5 25,9.47727273 25,15" id="Fill-3" fill="url(#linearGradient-1)"></path>
                </g>
                <g id="Group" transform="translate(159.000000, 50.000000)">
                    <path d="M30,15 C30,23.2840909 23.2840909,30 15,30 C6.71590909,30 0,23.2840909 0,15 C0,6.71590909 6.71590909,0 15,0 C23.2840909,0 30,6.71590909 30,15" id="Fill-3" fill="#1A1A1A"></path>
                    <path d="M25,15 C25,20.5227273 20.5227273,25 15,25 C9.47727273,25 5,20.5227273 5,15 C5,9.47727273 9.47727273,5 15,5 C20.5227273,5 25,9.47727273 25,15" id="Fill-3" fill="url(#linearGradient-1)"></path>
                </g>
                <mask id="mask-4" fill="white">
                    <use xlink:href="#path-3"></use>
                </mask>
                <use id="Fill-1" fill="url(#linearGradient-2)" xlink:href="#path-3"></use>
                <path d="M39.5,35 L34.5,35 C33.12,35 32,34.104 32,33 L32,33 C32,31.896 33.12,31 34.5,31 L39.5,31 C40.88,31 42,31.896 42,33 L42,33 C42,34.104 40.88,35 39.5,35" id="Fill-5" fill="#404040" mask="url(#mask-4)"></path>
                <path d="M86.5,35 L81.5,35 C80.12,35 79,34.104 79,33 L79,33 C79,31.896 80.12,31 81.5,31 L86.5,31 C87.88,31 89,31.896 89,33 L89,33 C89,34.104 87.88,35 86.5,35" id="Fill-7" fill="#404040" mask="url(#mask-4)"></path>
                <path d="M190,40.5 C190,39.3379602 191.561858,39 193.123716,39 L194.685575,39 C199.349493,39 205.53401,41.6213974 207.077438,44.5279083 C207.896569,46.0704575 208.677892,48 207.038474,48 C200.933007,48 190,45 190,40.5 Z" id="Fill-13" fill="#FFEC7D" mask="url(#mask-4)"></path>
                <path d="M0,39 L0,33 L7,33 C8.65685425,33 10,34.3431458 10,36 L10,38 C10,38.5522847 9.55228475,39 9,39 L0,39 Z" id="Fill-11" fill="#FF5F5F" mask="url(#mask-4)"></path>
                <path d="M81,3 L91.637207,3 C99.5185547,3 104.637695,4.45248689 112.803955,8.73251619 C116.535593,10.6883098 124.256866,15.7753088 135.967773,23.9935132 L81,23.9935132 C79.8954305,23.9935132 79,23.0980827 79,21.9935132 L79,5 C79,3.8954305 79.8954305,3 81,3 Z" id="Combined-Shape" fill="url(#linearGradient-5)" mask="url(#mask-4)"></path>
                <path d="M127.84247,21 L134,21 C135.104569,21 136,21.8954305 136,23 L136,26 C136,27.1045695 135.104569,28 134,28 L130.044785,28 C128.020139,28 126.306127,26.5057379 126.030068,24.5 L125.861149,23.2726988 C125.710541,22.1784451 126.475518,21.1692858 127.569772,21.0186784 C127.660139,21.0062407 127.751251,21 127.84247,21 Z" id="Rectangle-23" fill="url(#linearGradient-6)" mask="url(#mask-4)"></path>
                <path d="M24.4903048,18.5702416 C28.9530646,15.3403451 32.4562963,12.8169312 35,11 C42,6 50.2712402,3.00698577 57.0460205,3.00698577 L74.0002834,3.00698577 C75.1048529,3.00698577 76.0002834,3.90241627 76.0002834,5.00698577 L76.0002857,22.0005655 C76.0002857,23.105135 75.1048552,24.0005655 74.0002857,24.0005655 C74.0002849,24.0005655 74.0002842,24.0005655 74.0002834,24.0005655 L26.2491936,24.0004933 C24.5923482,24.0004915 23.2492112,22.6573514 23.2492131,21.000506 C23.2492141,20.0382575 23.7107933,19.1344085 24.4903048,18.5702416 Z" id="Combined-Shape" fill="url(#linearGradient-7)" mask="url(#mask-4)"></path>
            </g>
        </g>
    </g>
</svg>