<?xml version="1.0" encoding="UTF-8"?>
<svg width="210px" height="80px" viewBox="0 0 210 80" version="1.1" xmlns="http://www.w3.org/2000/svg" xmlns:xlink="http://www.w3.org/1999/xlink">
    <!-- Generator: Sketch 53.2 (72643) - https://sketchapp.com -->
    <title>Group 26</title>
    <desc>Created with Sketch.</desc>
    <defs>
        <linearGradient x1="91.3766044%" y1="0%" x2="19.496024%" y2="102.655901%" id="linearGradient-1">
            <stop stop-color="#EBEBEB" offset="0%"></stop>
            <stop stop-color="#D4D4D4" offset="100%"></stop>
        </linearGradient>
        <linearGradient x1="50%" y1="0%" x2="50%" y2="98.4813457%" id="linearGradient-2">
            <stop stop-color="#F2F2F2" offset="0%"></stop>
            <stop stop-color="#C4C4C4" offset="100%"></stop>
        </linearGradient>
        <path d="M68,67.0069875 C58.5,67.0069875 58,47.0069875 40,47.0069875 C28.9998772,47.0069875 21,55.008899 21,65.0069875 C9.13476562,65.0069875 1.8189894e-12,57.0250388 0,48.0069875 L0,33.5069875 C0,14.9586573 8.60058594,0.00698750983 35.9667969,0.00698750983 L93,0.00698750983 C117,0.00698750983 132.5,24.0069875 155,28.0069875 C186.746986,33.6508961 210,28.9928877 210,60.0069875 C210,64.4228913 208.056885,67.0069875 205,67.0069875 L193.065308,67.0069875 C193.065308,56.0069875 185,47.0069875 174,47.0069875 C155,47.0069875 155,67.0069875 148,67.0069875 L68,67.0069875 Z" id="path-3"></path>
        <linearGradient x1="84.0282645%" y1="44.0628298%" x2="1.72505803%" y2="56.7901874%" id="linearGradient-5">
            <stop stop-color="#5E5E5E" offset="0%"></stop>
            <stop stop-color="#1A1A1A" offset="100%"></stop>
        </linearGradient>
        <linearGradient x1="84.0282645%" y1="40.85299%" x2="1.72505803%" y2="60.4611977%" id="linearGradient-6">
            <stop stop-color="#5E5E5E" offset="0%"></stop>
            <stop stop-color="#1A1A1A" offset="100%"></stop>
        </linearGradient>
        <linearGradient x1="84.0282645%" y1="11.999139%" x2="1.72505803%" y2="93.4605977%" id="linearGradient-7">
            <stop stop-color="#5E5E5E" offset="0%"></stop>
            <stop stop-color="#1A1A1A" offset="100%"></stop>
        </linearGradient>
        <linearGradient x1="50%" y1="0%" x2="50%" y2="98.4813457%" id="linearGradient-8">
            <stop stop-color="#F2F2F2" offset="0%"></stop>
            <stop stop-color="#C4C4C4" offset="100%"></stop>
        </linearGradient>
    </defs>
    <g id="UI-Set" stroke="none" stroke-width="1" fill="none" fill-rule="evenodd">
        <g id="00.-cars" transform="translate(-128.000000, -520.000000)">
            <g id="Group-26" transform="translate(128.000000, 520.000000)">
                <g id="Group" transform="translate(25.000000, 50.000000)">
                    <path d="M30,15 C30,23.2840909 23.2840909,30 15,30 C6.71590909,30 0,23.2840909 0,15 C0,6.71590909 6.71590909,0 15,0 C23.2840909,0 30,6.71590909 30,15" id="Fill-3" fill="#1A1A1A"></path>
                    <path d="M25,15 C25,20.5227273 20.5227273,25 15,25 C9.47727273,25 5,20.5227273 5,15 C5,9.47727273 9.47727273,5 15,5 C20.5227273,5 25,9.47727273 25,15" id="Fill-3" fill="url(#linearGradient-1)"></path>
                </g>
                <g id="Group" transform="translate(159.000000, 50.000000)">
                    <path d="M30,15 C30,23.2840909 23.2840909,30 15,30 C6.71590909,30 0,23.2840909 0,15 C0,6.71590909 6.71590909,0 15,0 C23.2840909,0 30,6.71590909 30,15" id="Fill-3" fill="#1A1A1A"></path>
                    <path d="M25,15 C25,20.5227273 20.5227273,25 15,25 C9.47727273,25 5,20.5227273 5,15 C5,9.47727273 9.47727273,5 15,5 C20.5227273,5 25,9.47727273 25,15" id="Fill-3" fill="url(#linearGradient-1)"></path>
                </g>
                <g id="Group-21">
                    <mask id="mask-4" fill="white">
                        <use xlink:href="#path-3"></use>
                    </mask>
                    <use id="Fill-1" fill="url(#linearGradient-2)" xlink:href="#path-3"></use>
                    <path d="M39.5,35 L34.5,35 C33.12,35 32,34.104 32,33 L32,33 C32,31.896 33.12,31 34.5,31 L39.5,31 C40.88,31 42,31.896 42,33 L42,33 C42,34.104 40.88,35 39.5,35" id="Fill-5" fill="#404040" mask="url(#mask-4)"></path>
                    <path d="M86.5,35 L81.5,35 C80.12,35 79,34.104 79,33 L79,33 C79,31.896 80.12,31 81.5,31 L86.5,31 C87.88,31 89,31.896 89,33 L89,33 C89,34.104 87.88,35 86.5,35" id="Fill-7" fill="#404040" mask="url(#mask-4)"></path>
                    <path d="M190,40.5 C190,39.3379602 191.561858,39 193.123716,39 L194.685575,39 C199.349493,39 205.53401,41.6213974 207.077438,44.5279083 C207.896569,46.0704575 208.677892,48 207.038474,48 C200.933007,48 190,45 190,40.5 Z" id="Fill-13" fill="#FFEC7D" mask="url(#mask-4)"></path>
                    <path d="M0,45 L0,39 L7,39 C8.65685425,39 10,40.3431458 10,42 L10,44 C10,44.5522847 9.55228475,45 9,45 L0,45 Z" id="Fill-11" fill="#FF5F5F" mask="url(#mask-4)"></path>
                    <path d="M81,3 L91.637207,3 C99.5185547,3 104.637695,4.45248689 112.803955,8.73251619 C116.535593,10.6883098 124.256866,15.7753088 135.967773,23.9935132 L81,23.9935132 C79.8954305,23.9935132 79,23.0980827 79,21.9935132 L79,5 C79,3.8954305 79.8954305,3 81,3 Z" id="Combined-Shape" fill="url(#linearGradient-5)" mask="url(#mask-4)"></path>
                    <path d="M33.8682796,3.00698577 L74,3.00698577 C75.1045695,3.00698577 76,3.90241627 76,5.00698577 L76,22.000499 C76,23.1050685 75.1045695,24.000499 74,24.000499 L32.2969769,24.000499 C31.1924074,24.000499 30.2969769,23.1050685 30.2969769,22.000499 C30.2969769,21.9390196 30.2998117,21.877573 30.3054722,21.8163548 L31.8767749,4.82284158 C31.9719059,3.79400706 32.8350563,3.00698577 33.8682796,3.00698577 Z" id="Combined-Shape" fill="url(#linearGradient-6)" mask="url(#mask-4)"></path>
                    <path d="M7.8979026,14.8830237 C9.55927352,12.1509845 11.6484818,9.94160419 14.1655273,8.25488281 C17.4828858,6.03185613 21.581548,4.52830016 26.4615138,3.7442149 L26.4615149,3.74422231 C27.5520927,3.56899446 28.5782309,4.31103216 28.7534587,5.4016099 C28.7807499,5.57146396 28.786012,5.74412939 28.7691147,5.91533012 L27.1621396,22.196957 C27.0611199,23.2204741 26.2002992,24.0005149 25.171809,24.0005142 L13.0244367,24.0005127 C9.71072416,24.0005103 7.02443131,21.3142135 7.02443373,18.0005009 C7.02443453,16.9009367 7.32659142,15.8225156 7.8979026,14.8830237 Z" id="Combined-Shape" fill="url(#linearGradient-7)" mask="url(#mask-4)"></path>
                    <path d="M127.84247,21 L134,21 C135.104569,21 136,21.8954305 136,23 L136,26 C136,27.1045695 135.104569,28 134,28 L130.044785,28 C128.020139,28 126.306127,26.5057379 126.030068,24.5 L125.861149,23.2726988 C125.710541,22.1784451 126.475518,21.1692858 127.569772,21.0186784 C127.660139,21.0062407 127.751251,21 127.84247,21 Z" id="Rectangle-23" fill="url(#linearGradient-8)" mask="url(#mask-4)"></path>
                </g>
            </g>
        </g>
    </g>
</svg>