<?xml version="1.0" encoding="UTF-8"?>
<svg width="210px" height="90px" viewBox="0 0 210 90" version="1.1" xmlns="http://www.w3.org/2000/svg" xmlns:xlink="http://www.w3.org/1999/xlink">
    <!-- Generator: Sketch 53.2 (72643) - https://sketchapp.com -->
    <title>Group 13</title>
    <desc>Created with Sketch.</desc>
    <defs>
        <linearGradient x1="50%" y1="0%" x2="50%" y2="98.4813457%" id="linearGradient-1">
            <stop stop-color="#F2F2F2" offset="0%"></stop>
            <stop stop-color="#C4C4C4" offset="100%"></stop>
        </linearGradient>
        <path d="M63,73 C61,59.6666667 53.6666667,53 41,53 C28.3333333,53 21,59.6689958 19,73.0069875 C7,73 6.87949627e-11,63.0250388 6.69757583e-11,54.0069875 L6.6954442e-11,41.2349862 C6.69534644e-11,33.2522569 2.33034841,25.4431524 6.70509369,18.7659096 L15.742672,4.97171117 C17.7753441,1.86921161 21.2346664,7.44090174e-10 24.9437444,7.44092787e-10 L105.633746,7.44122985e-10 C111.296105,7.44126974e-10 116.693098,2.40019789 120.485467,6.60498723 L143.389648,32 L190,32 C201.045695,32 210,40.954305 210,52 C210,56.6689958 210,61.3379917 210,66.0069875 C210,70.4228913 208.056885,73 205,73 L190,73 C188,59.6666667 180.666667,53 168,53 C155.333333,53 148,59.6666667 146,73 L63,73 Z" id="path-2"></path>
        <linearGradient x1="84.0282645%" y1="11.6405394%" x2="1.72505803%" y2="93.8707188%" id="linearGradient-4">
            <stop stop-color="#5E5E5E" offset="0%"></stop>
            <stop stop-color="#1A1A1A" offset="100%"></stop>
        </linearGradient>
        <linearGradient x1="84.0282645%" y1="37.9751652%" x2="1.72505803%" y2="63.7524912%" id="linearGradient-5">
            <stop stop-color="#5E5E5E" offset="0%"></stop>
            <stop stop-color="#1A1A1A" offset="100%"></stop>
        </linearGradient>
        <linearGradient x1="84.0282645%" y1="33.2459923%" x2="1.72505803%" y2="69.1611234%" id="linearGradient-6">
            <stop stop-color="#5E5E5E" offset="0%"></stop>
            <stop stop-color="#1A1A1A" offset="100%"></stop>
        </linearGradient>
        <linearGradient x1="50%" y1="0%" x2="50%" y2="98.4813457%" id="linearGradient-7">
            <stop stop-color="#F2F2F2" offset="0%"></stop>
            <stop stop-color="#C4C4C4" offset="100%"></stop>
        </linearGradient>
        <linearGradient x1="91.3766044%" y1="0%" x2="19.496024%" y2="102.655901%" id="linearGradient-8">
            <stop stop-color="#EBEBEB" offset="0%"></stop>
            <stop stop-color="#D4D4D4" offset="100%"></stop>
        </linearGradient>
    </defs>
    <g id="UI-Set" stroke="none" stroke-width="1" fill="none" fill-rule="evenodd">
        <g id="00.-cars" transform="translate(-128.000000, -1088.000000)">
            <g id="Group-13" transform="translate(128.000000, 1088.000000)">
                <g id="Group-21">
                    <mask id="mask-3" fill="white">
                        <use xlink:href="#path-2"></use>
                    </mask>
                    <use id="Fill-1" fill="url(#linearGradient-1)" xlink:href="#path-2"></use>
                    <path d="M9.05832957,21.2636846 L18.9277944,6.16924761 C20.2207415,4.19180407 22.4239525,3 24.7865772,3 L34.0000145,3 C35.104584,3 36.0000145,3.8954305 36.0000145,5 L36.0000151,26.999943 C36.0000151,28.1045125 35.1045846,28.999943 34.0000151,28.999943 C34.0000149,28.999943 34.0000147,28.999943 34.0000145,28.999943 L13.243173,28.9999363 C10.4817492,28.9999355 8.24317363,26.7613586 8.24317444,23.9999348 C8.24317472,23.0280102 8.52644349,22.0771554 9.05832957,21.2636846 Z" id="Combined-Shape" fill="url(#linearGradient-4)" mask="url(#mask-3)"></path>
                    <path d="M45.5,40 L40.5,40 C39.12,40 38,39.104 38,38 L38,38 C38,36.896 39.12,36 40.5,36 L45.5,36 C46.88,36 48,36.896 48,38 L48,38 C48,39.104 46.88,40 45.5,40" id="Fill-5" fill="#404040" mask="url(#mask-3)"></path>
                    <path d="M91.5,40 L86.5,40 C85.12,40 84,39.104 84,38 L84,38 C84,36.896 85.12,36 86.5,36 L91.5,36 C92.88,36 94,36.896 94,38 L94,38 C94,39.104 92.88,40 91.5,40" id="Fill-7" fill="#404040" mask="url(#mask-3)"></path>
                    <path d="M0,44 L0,38 L7,38 C8.65685425,38 10,39.3431458 10,41 L10,43 C10,43.5522847 9.55228475,44 9,44 L0,44 Z" id="Fill-11" fill="#FF5F5F" mask="url(#mask-3)"></path>
                    <path d="M193,45 L193,44 C193,42.8954305 193.895431,42 195,42 L207,42 C208.656854,42 210,43.3431458 210,45 L210,48.8754563 C210,49.4277411 209.552285,49.8754563 209,49.8754563 C208.960953,49.8754563 208.921939,49.8731693 208.883159,49.8686069 L195.979452,48.3505237 C194.280448,48.1506409 193,46.7107216 193,45 Z" id="Fill-11" fill="#FFEC7D" mask="url(#mask-3)"></path>
                    <path d="M86,3 L105.884721,3 C110.482412,3 114.857915,4.97785487 117.895489,8.42921765 L133.076853,25.6786354 C133.806613,26.507806 133.726025,27.7715691 132.896855,28.5013293 C132.531702,28.8227036 132.061941,28.9999832 131.575507,28.9999832 L86,28.9999832 C84.8954305,28.9999832 84,28.1045527 84,26.9999832 L84,5 C84,3.8954305 84.8954305,3 86,3 Z" id="Combined-Shape" fill="url(#linearGradient-5)" mask="url(#mask-3)"></path>
                    <path d="M39,26.999933 L39,5 C39,3.8954305 39.8954305,3 41,3 L78.999754,3 C80.1043235,3 80.999754,3.8954305 80.999754,5 L80.999754,26.999933 C80.999754,28.1045025 80.1043235,28.999933 78.999754,28.999933 L41,28.999933 C39.8954305,28.999933 39,28.1045025 39,26.999933 Z" id="Combined-Shape" fill="url(#linearGradient-6)" mask="url(#mask-3)"></path>
                    <path d="M127.000242,26 L133.157772,26 C134.262341,26 135.157772,26.8954305 135.157772,28 L135.157772,31 C135.157772,32.1045695 134.262341,33 133.157772,33 L129.202557,33 C127.17791,33 125.463899,31.5057379 125.18784,29.5 L125.01892,28.2726988 C124.868313,27.1784451 125.633289,26.1692858 126.727543,26.0186784 C126.81791,26.0062407 126.909023,26 127.000242,26 Z" id="Rectangle-23" fill="url(#linearGradient-7)" mask="url(#mask-3)"></path>
                </g>
                <g id="Group" transform="translate(24.000000, 56.000000)">
                    <path d="M34,17 C34,26.3886364 26.3886364,34 17,34 C7.61136364,34 0,26.3886364 0,17 C0,7.61136364 7.61136364,0 17,0 C26.3886364,0 34,7.61136364 34,17" id="Fill-3" fill="#1A1A1A"></path>
                    <path d="M28,17 C28,23.075 23.075,28 17,28 C10.925,28 6,23.075 6,17 C6,10.925 10.925,6 17,6 C23.075,6 28,10.925 28,17" id="Fill-3" fill="url(#linearGradient-8)"></path>
                </g>
                <g id="Group" transform="translate(151.000000, 56.000000)">
                    <path d="M34,17 C34,26.3886364 26.3886364,34 17,34 C7.61136364,34 0,26.3886364 0,17 C0,7.61136364 7.61136364,0 17,0 C26.3886364,0 34,7.61136364 34,17" id="Fill-3" fill="#1A1A1A"></path>
                    <path d="M28,17 C28,23.075 23.075,28 17,28 C10.925,28 6,23.075 6,17 C6,10.925 10.925,6 17,6 C23.075,6 28,10.925 28,17" id="Fill-3" fill="url(#linearGradient-8)"></path>
                </g>
            </g>
        </g>
    </g>
</svg>