<svg width="113" height="113" viewBox="0 0 113 113" fill="none" xmlns="http://www.w3.org/2000/svg">
<path d="M0 113L11.0621 82.5793C4.11071 73.973 0 63.3224 0 51.7917C0 23.1879 25.2959 0 56.5 0C87.7041 0 113 23.1879 113 51.7917C113 80.3954 87.7041 103.583 56.5 103.583C49.1851 103.583 42.1948 102.309 35.7789 99.9895L0 113Z" fill="#02C5AB"/>
<path fill-rule="evenodd" clip-rule="evenodd" d="M68.2487 66.7968L69.1806 65.8649L84.568 50.4775C84.7633 50.2822 85.0798 50.2822 85.2751 50.4775L90.5226 55.7249C90.7178 55.9202 90.7178 56.2368 90.5226 56.4321L75.1352 71.8195L74.2033 72.7513L68.2487 66.7968Z" fill="#FFBB03"/>
<path fill-rule="evenodd" clip-rule="evenodd" d="M68.2487 66.7967L74.2033 72.7513L67.7483 73.8271C67.4099 73.8835 67.1165 73.5901 67.1729 73.2517L68.2487 66.7967Z" fill="#404040"/>
<path d="M86.466 49.2865C86.2707 49.0913 86.2707 48.7747 86.466 48.5794L90.169 44.8764C90.5595 44.4859 91.1927 44.4859 91.5832 44.8764L96.1236 49.4168C96.5141 49.8073 96.5141 50.4405 96.1236 50.831L92.4206 54.534C92.2253 54.7293 91.9087 54.7293 91.7135 54.534L86.466 49.2865Z" fill="#BCF2EB"/>
<path fill-rule="evenodd" clip-rule="evenodd" d="M33 61C35.7614 61 38 58.7614 38 56C38 53.2386 35.7614 51 33 51C30.2386 51 28 53.2386 28 56C28 58.7614 30.2386 61 33 61Z" fill="white"/>
<path fill-rule="evenodd" clip-rule="evenodd" d="M47 61C49.7614 61 52 58.7614 52 56C52 53.2386 49.7614 51 47 51C44.2386 51 42 53.2386 42 56C42 58.7614 44.2386 61 47 61Z" fill="white"/>
<path fill-rule="evenodd" clip-rule="evenodd" d="M61 61C63.7614 61 66 58.7614 66 56C66 53.2386 63.7614 51 61 51C58.2386 51 56 53.2386 56 56C56 58.7614 58.2386 61 61 61Z" fill="white"/>
</svg>
