<svg width="18" height="18" xmlns="http://www.w3.org/2000/svg"><g id="UI-Set" fill="none" fill-rule="evenodd"><g id="01.-Icons" transform="translate(-1075 -533)"><g id="Icon/-20px/-Like" transform="translate(1074 532)"><g id="Icon/-Like" transform="translate(1 1)" fill-rule="nonzero"><rect id="Rectangle-2" fill="#2898BC" y="5" width="7" height="13" rx="1"/><path d="M14.594 6.776c-.478 0-1.115.022-1.913.065.512-1.79.785-3.182.81-4.194C13.492.998 12.797 0 11.388 0 9.773 0 9.985 1.979 8 4.485v12.963c1.266.358 2.4.552 3.387.552 2.585 0 4.443-.756 4.907-2.272.389-1.273 1.233-5.846 1.206-6.56 0-1.547-1.15-2.392-2.906-2.392" id="Fill-1" fill="#FFBB03"/><path d="M14.594 6.776c-.478 0-1.115.022-1.913.065.512-1.79.785-3.182.81-4.194C13.492.998 12.797 0 11.388 0 9.773 0 9.985 1.979 8 4.485v1.559c1.41-1.472 2.046-2.823 2.518-3.828.524-1.115.606-1.157.869-1.157.386 0 1.105 0 1.105 1.56-.022.893-.281 2.21-.768 3.916l-.411 1.44 1.419-.076a36.29 36.29 0 0 1 1.862-.064c.649 0 1.185.143 1.51.403.17.135.396.38.396.967.004.622-.788 4.989-1.158 6.197-.295.963-1.773 1.54-3.955 1.54-.942 0-2.078-.198-3.387-.586v1.092c1.266.358 2.4.552 3.387.552 2.585 0 4.443-.756 4.907-2.272.389-1.273 1.233-5.846 1.206-6.56 0-1.547-1.15-2.392-2.906-2.392" id="Fill-4" fill="#FFBB03"/></g></g></g></g></svg>