<?xml version="1.0" encoding="UTF-8"?>
<svg width="32px" height="37px" viewBox="0 0 32 37" version="1.1" xmlns="http://www.w3.org/2000/svg" xmlns:xlink="http://www.w3.org/1999/xlink">
    <!-- Generator: Sketch 52.1 (67048) - http://www.bohemiancoding.com/sketch -->
    <title>Group 14</title>
    <desc>Created with Sketch.</desc>
    <g id="03.3-Model-Test-drive" stroke="none" stroke-width="1" fill="none" fill-rule="evenodd">
        <g id="03.3.5-Model-Test-drive-768" transform="translate(-432.000000, -966.000000)">
            <g id="Group-17" transform="translate(408.000000, 943.000000)">
                <g id="Group-14" transform="translate(24.000000, 23.000000)">
                    <path d="M1.22494157,0.294512879 C6.14996105,1.43150429 11.0749805,2 16,2 C20.9250325,2 25.850065,1.43150129 30.7750975,0.294503859 L30.7751069,0.294544592 C31.313215,0.170316475 31.8501446,0.505832486 31.9743727,1.04394058 C31.9914025,1.11770701 32,1.19316881 32,1.26887548 L32.0000005,20.1603848 C32.0000005,24.0096596 29.7906176,27.5172322 26.3188453,29.1796744 C25.1604707,29.7343567 24.0541889,30.3411319 23,31 C20.3333333,32.6666667 18,34.6666667 16,37 C14,34.6666667 11.6666667,32.6666667 9,31 C7.9458105,30.3411316 6.83952808,29.734356 5.68115275,29.1796734 L5.68115391,29.179671 C2.20938242,27.5172295 -1.09863534e-13,24.0096579 -1.15463198e-13,20.160384 L9.65149282e-06,1.26887523 C9.65149282e-06,0.716595808 0.447720581,0.268884879 1,0.268884879 C1.07570891,0.268884879 1.15117295,0.277482632 1.22494157,0.294512879 Z" id="Rectangle-5" fill="#FFBB03" fill-rule="nonzero"></path>
                    <g id="Icon/-Small/-Check/" transform="translate(6.000000, 10.000000)" fill="#FFFFFF">
                        <path d="M1.18688672,5.96793531 L2.97977994,4.17504209 C3.17504209,3.97977994 3.49162458,3.97977994 3.68688672,4.17504209 L7.97977994,8.46793531 C8.17504209,8.66319745 8.49162458,8.66319745 8.68688672,8.46793531 L17.1464466,0.00837542195 C17.3417088,-0.186886724 17.6582912,-0.186886724 17.8535534,0.00837542195 L19.6464466,1.80126864 C19.8417088,1.99653079 19.8417088,2.31311328 19.6464466,2.50837542 L8.68688672,13.4679353 C8.49162458,13.6631975 8.17504209,13.6631975 7.97977994,13.4679353 L1.18688672,6.67504209 C0.991624578,6.47977994 0.991624578,6.16319745 1.18688672,5.96793531 Z" id="Rectangle-8"></path>
                    </g>
                </g>
            </g>
        </g>
    </g>
</svg>