<?xml version="1.0" encoding="UTF-8"?>
<svg width="40px" height="40px" viewBox="0 0 40 40" version="1.1" xmlns="http://www.w3.org/2000/svg" xmlns:xlink="http://www.w3.org/1999/xlink">
    <!-- Generator: Sketch 55.2 (78181) - https://sketchapp.com -->
    <title>Socials-color-vk</title>
    <desc>Created with Sketch.</desc>
    <g id="23.-Feedback" stroke="none" stroke-width="1" fill="none" fill-rule="evenodd">
        <g id="23.9.1-UGC-Feedback-1440" transform="translate(-386.000000, -1862.000000)">
            <g id="Group-11" transform="translate(330.000000, 1798.000000)">
                <g id="Socials-color-vk" transform="translate(56.000000, 64.000000)">
                    <rect id="Rectangle" fill="#48729E" x="0" y="0" width="40" height="40" rx="20"></rect>
                    <path d="M26.9439245,22.5962382 C28.4639269,24.0283679 28.7785698,24.7244769 28.8306246,24.8113438 C29.4599103,25.8701807 28.1330893,25.9535259 28.1330893,25.9535259 L25.5951248,25.9899161 C25.5951248,25.9899161 25.0502838,26.0990866 24.3330832,25.5990151 C23.3833709,24.9381225 22.488027,23.2183929 21.7916484,23.4437772 C21.0837021,23.6715094 21.1056808,25.2175051 21.1056808,25.2175051 C21.1056808,25.2175051 21.1114647,25.5473645 20.950673,25.7234461 C20.7748432,25.914788 20.4324377,25.9535259 20.4324377,25.9535259 L19.2964846,25.9535259 C19.2964846,25.9535259 16.7909099,26.1061299 14.5837831,23.7748105 C12.1765342,21.2321933 10.0515384,16.1856968 10.0515384,16.1856968 C10.0515384,16.1856968 9.92892025,15.8546635 10.0619494,15.6950163 C10.2123301,15.5154131 10.619515,15.5036743 10.619515,15.5036743 L13.334466,15.4860662 C13.334466,15.4860662 13.5901133,15.5283257 13.7728838,15.6656693 C13.9244213,15.7783615 14.0088659,15.9884855 14.0088659,15.9884855 C14.0088659,15.9884855 14.4472836,17.1142333 15.0279847,18.1331584 C16.162781,20.1217058 16.6902704,20.5572141 17.0754765,20.3435685 C17.6365124,20.033665 17.4687801,17.5321335 17.4687801,17.5321335 C17.4687801,17.5321335 17.479191,16.6247267 17.1865269,16.2209131 C16.959799,15.907488 16.5317923,15.8159256 16.3432379,15.7901003 C16.1905436,15.7701444 16.4415638,15.4097642 16.7654608,15.2489431 C17.2547767,15.0059506 18.1177309,14.991864 19.1368497,15.0024289 C19.9303974,15.0106461 20.1594388,15.0611228 20.4706113,15.1374248 C21.4064423,15.3663307 21.0883292,16.2526078 21.0883292,18.3761509 C21.0883292,19.0569995 20.9680246,20.0137091 21.4515566,20.3306559 C21.6597761,20.4668256 22.1676003,20.3506118 23.4400529,18.1589837 C24.0427327,17.1201027 24.4950317,15.8980969 24.4950317,15.8980969 C24.4950317,15.8980969 24.5933576,15.6809297 24.7472087,15.5881935 C24.9045301,15.4919356 25.1162199,15.5212825 25.1162199,15.5212825 L27.9734543,15.5036743 C27.9734543,15.5036743 28.8317814,15.4003732 28.9705944,15.7936219 C29.1163481,16.2056527 28.6501677,17.1694056 27.4829817,18.7482699 C25.5662054,21.34019 25.3533588,21.0971974 26.9439245,22.5962382" id="Path" fill="#FFFFFF"></path>
                </g>
            </g>
        </g>
    </g>
</svg>