<?xml version="1.0" encoding="UTF-8"?>
<svg width="40px" height="40px" viewBox="0 0 40 40" version="1.1" xmlns="http://www.w3.org/2000/svg" xmlns:xlink="http://www.w3.org/1999/xlink">
    <!-- Generator: Sketch 55.2 (78181) - https://sketchapp.com -->
    <title>Socials-color-ok</title>
    <desc>Created with Sketch.</desc>
    <g id="23.-Feedback" stroke="none" stroke-width="1" fill="none" fill-rule="evenodd">
        <g id="23.9.1-UGC-Feedback-1440" transform="translate(-442.000000, -1862.000000)">
            <g id="Group-11" transform="translate(330.000000, 1798.000000)">
                <g id="Socials-color-ok" transform="translate(112.000000, 64.000000)">
                    <circle id="Oval" fill="#EB722D" cx="20" cy="20" r="20"></circle>
                    <path d="M24.7990867,21.085 C24.4145861,20.447 23.6101074,20.255 22.9993173,20.656 C21.1746177,21.854 18.8254248,21.851 17.0007252,20.656 C16.3899351,20.255 15.5854564,20.447 15.2009558,21.085 C14.8164553,21.72 15.0005553,22.562 15.6094277,22.962 C16.4139064,23.49 17.2883815,23.865 18.1964164,24.08 L15.7091486,26.677 C15.1990381,27.209 15.1990381,28.069 15.7091486,28.601 C15.9651626,28.866 16.2978851,29 16.6296486,29 C16.9652476,29 17.29797,28.866 17.5539841,28.601 L20.0009801,26.049 L22.4479761,28.601 C22.9580866,29.133 23.78366,29.133 24.2937705,28.601 C24.8038809,28.069 24.8038809,27.207 24.2937705,26.677 L21.8036261,24.08 C22.711661,23.865 23.5851772,23.49 24.3896559,22.962 C24.9994872,22.562 25.1835872,21.723 24.7990867,21.085 M15.5471022,15.645 C15.5471022,18.207 17.5443956,20.29 20.0009801,20.29 C22.4575646,20.29 24.454858,18.207 24.454858,15.648 C24.454858,13.083 22.4575646,11 20.0009801,11 C17.5443956,11 15.5471022,13.083 15.5471022,15.645 M18.1561446,15.648 C18.1561446,14.586 18.9855535,13.723 20.0009801,13.723 C21.0192833,13.723 21.8458156,14.586 21.8458156,15.648 C21.8458156,16.707 21.0192833,17.569 20.0009801,17.569 C18.9855535,17.569 18.1561446,16.707 18.1561446,15.648" id="Fill-1" fill="#FFFFFF"></path>
                </g>
            </g>
        </g>
    </g>
</svg>