<?xml version="1.0" encoding="UTF-8"?>
<svg width="40px" height="40px" viewBox="0 0 40 40" version="1.1" xmlns="http://www.w3.org/2000/svg" xmlns:xlink="http://www.w3.org/1999/xlink">
    <!-- Generator: Sketch 55.2 (78181) - https://sketchapp.com -->
    <title>Socials-color-tw</title>
    <desc>Created with Sketch.</desc>
    <g id="23.-Feedback" stroke="none" stroke-width="1" fill="none" fill-rule="evenodd">
        <g id="23.9.1-UGC-Feedback-1440" transform="translate(-498.000000, -1862.000000)">
            <g id="Group-11" transform="translate(330.000000, 1798.000000)">
                <g id="Socials-color-tw" transform="translate(168.000000, 64.000000)">
                    <circle id="Oval" fill="#00ACED" cx="20" cy="20" r="20"></circle>
                    <path d="M16.661,28 C14.57525,28 12.63425,27.3732055 11,26.2988105 C11.28875,26.3334188 11.58275,26.3518765 11.88125,26.3518765 C13.6115,26.3518765 15.20375,25.745847 16.4675,24.7306706 C14.85125,24.6999077 13.48775,23.6055168 13.0175,22.1004409 C13.24325,22.1450472 13.47425,22.1688884 13.71275,22.1688884 C14.0495,22.1688884 14.37575,22.121975 14.6855,22.0358388 C12.99575,21.6882178 11.723,20.1577625 11.723,18.3227543 L11.723,18.2750718 C12.221,18.5588597 12.791,18.7288249 13.39625,18.7488208 C12.4055,18.0697293 11.753,16.9107363 11.753,15.5963905 C11.753,14.9026866 11.93525,14.2520509 12.25325,13.6929348 C14.07425,15.9840033 16.796,17.4913864 19.865,17.6498154 C19.802,17.3721801 19.769,17.0830086 19.769,16.7869155 C19.769,14.6950369 21.42275,13 23.462,13 C24.524,13 25.484,13.4599057 26.1575,14.1959085 C26.999,14.0259434 27.7895,13.7106235 28.50275,13.2768663 C28.22675,14.1613002 27.64175,14.9034557 26.879,15.3718212 C27.626,15.2803015 28.33775,15.0764971 29,14.7757896 C28.505,15.5348646 27.87875,16.2016509 27.15725,16.7353876 C27.16475,16.8984311 27.16775,17.0614746 27.16775,17.2252871 C27.16775,22.2296452 23.45375,28 16.661,28" id="Fill-1" fill="#FFFFFF"></path>
                </g>
            </g>
        </g>
    </g>
</svg>