<svg width="38" height="37" xmlns="http://www.w3.org/2000/svg" xmlns:xlink="http://www.w3.org/1999/xlink"><defs><path d="M21.07 33.49l-8.414 4.423a2 2 0 0 1-2.902-2.109l1.607-9.368a2 2 0 0 0-.576-1.77L3.98 18.03a2 2 0 0 1 1.108-3.411l9.407-1.367A2 2 0 0 0 16 12.158l4.207-8.524a2 2 0 0 1 3.586 0L28 12.158a2 2 0 0 0 1.506 1.094l9.407 1.367a2 2 0 0 1 1.108 3.411l-6.806 6.635a2 2 0 0 0-.576 1.77l1.607 9.37a2 2 0 0 1-2.902 2.108l-8.413-4.424a2 2 0 0 0-1.862 0z" id="path-1"/></defs><g id="UI-Set" fill="none" fill-rule="evenodd"><g id="01.-Icons" transform="translate(-910 -948)"><g id="Icon/-Misc/-Star" transform="translate(907 946)"><mask id="mask-2" fill="#fff"><use xlink:href="#path-1"/></mask><use id="Star" fill="#FFBB03" fill-rule="nonzero" xlink:href="#path-1"/></g></g></g></svg>