<?xml version="1.0" encoding="UTF-8"?>
<svg width="210px" height="90px" viewBox="0 0 210 90" version="1.1" xmlns="http://www.w3.org/2000/svg" xmlns:xlink="http://www.w3.org/1999/xlink">
    <!-- Generator: Sketch 53.2 (72643) - https://sketchapp.com -->
    <title>Group 13</title>
    <desc>Created with Sketch.</desc>
    <defs>
        <linearGradient x1="50%" y1="0%" x2="50%" y2="98.4813457%" id="linearGradient-1">
            <stop stop-color="#F2F2F2" offset="0%"></stop>
            <stop stop-color="#C4C4C4" offset="100%"></stop>
        </linearGradient>
        <path d="M63,73 C61,59.6666667 53.6666667,53 41,53 C28.3333333,53 21,59.6689958 19,73.0069875 C7,73 6.87985154e-11,63.0250388 6.6979311e-11,54.0069875 L6.69491129e-11,39 C6.69484366e-11,33.4771525 4.4771525,29 10,29 L62,29 C63.1045695,29 64,28.1045695 64,27 L64,6 C64,2.6862915 66.6862915,7.44104002e-10 70,7.44094564e-10 L115.633746,7.44101669e-10 C121.296105,7.44105658e-10 126.693098,2.40019789 130.485467,6.60498723 L153.389648,32 L190,32 C201.045695,32 210,40.954305 210,52 C210,56.6689958 210,61.3379917 210,66.0069875 C210,70.4228913 208.056885,73 205,73 L190,73 C188,59.6666667 180.666667,53 168,53 C155.333333,53 148,59.6666667 146,73 L63,73 Z" id="path-2"></path>
        <linearGradient x1="84.0282645%" y1="34.4357395%" x2="1.72505803%" y2="67.8004404%" id="linearGradient-4">
            <stop stop-color="#5E5E5E" offset="0%"></stop>
            <stop stop-color="#1A1A1A" offset="100%"></stop>
        </linearGradient>
        <linearGradient x1="84.0282645%" y1="17.1625296%" x2="1.72505803%" y2="87.555362%" id="linearGradient-5">
            <stop stop-color="#5E5E5E" offset="0%"></stop>
            <stop stop-color="#1A1A1A" offset="100%"></stop>
        </linearGradient>
        <linearGradient x1="50%" y1="0%" x2="50%" y2="98.4813457%" id="linearGradient-6">
            <stop stop-color="#F2F2F2" offset="0%"></stop>
            <stop stop-color="#C4C4C4" offset="100%"></stop>
        </linearGradient>
        <linearGradient x1="91.3766044%" y1="0%" x2="19.496024%" y2="102.655901%" id="linearGradient-7">
            <stop stop-color="#EBEBEB" offset="0%"></stop>
            <stop stop-color="#D4D4D4" offset="100%"></stop>
        </linearGradient>
    </defs>
    <g id="UI-Set" stroke="none" stroke-width="1" fill="none" fill-rule="evenodd">
        <g id="00.-cars" transform="translate(-128.000000, -2802.000000)">
            <g id="Group-13" transform="translate(128.000000, 2802.000000)">
                <g id="Group-21">
                    <mask id="mask-3" fill="white">
                        <use xlink:href="#path-2"></use>
                    </mask>
                    <use id="Fill-1" fill="url(#linearGradient-1)" xlink:href="#path-2"></use>
                    <path d="M72.5,40 L67.5,40 C66.12,40 65,39.104 65,38 L65,38 C65,36.896 66.12,36 67.5,36 L72.5,36 C73.88,36 75,36.896 75,38 L75,38 C75,39.104 73.88,40 72.5,40" id="Fill-5" fill="#404040" mask="url(#mask-3)"></path>
                    <path d="M107.5,40 L102.5,40 C101.12,40 100,39.104 100,38 L100,38 C100,36.896 101.12,36 102.5,36 L107.5,36 C108.88,36 110,36.896 110,38 L110,38 C110,39.104 108.88,40 107.5,40" id="Fill-7" fill="#404040" mask="url(#mask-3)"></path>
                    <path d="M0,44 L0,38 L7,38 C8.65685425,38 10,39.3431458 10,41 L10,43 C10,43.5522847 9.55228475,44 9,44 L0,44 Z" id="Fill-11" fill="#FF5F5F" mask="url(#mask-3)"></path>
                    <path d="M193,45 L193,44 C193,42.8954305 193.895431,42 195,42 L207,42 C208.656854,42 210,43.3431458 210,45 L210,48.8754563 C210,49.4277411 209.552285,49.8754563 209,49.8754563 C208.960953,49.8754563 208.921939,49.8731693 208.883159,49.8686069 L195.979452,48.3505237 C194.280448,48.1506409 193,46.7107216 193,45 Z" id="Fill-11" fill="#FFEC7D" mask="url(#mask-3)"></path>
                    <path d="M102,3 L115.884721,3 C120.482412,3 124.857915,4.97785487 127.895489,8.42921765 L143.076853,25.6786354 C143.806613,26.507806 143.726025,27.7715691 142.896855,28.5013293 C142.531702,28.8227036 142.061941,28.9999832 141.575507,28.9999832 L102,28.9999832 C100.895431,28.9999832 100,28.1045527 100,26.9999832 L100,5 C100,3.8954305 100.895431,3 102,3 Z" id="Combined-Shape" fill="url(#linearGradient-4)" mask="url(#mask-3)"></path>
                    <path d="M66.999754,26.999933 L66.999754,6 C66.999754,4.34314575 68.3428998,3 69.999754,3 L94.999754,3 C96.1043235,3 96.999754,3.8954305 96.999754,5 L96.999754,26.999933 C96.999754,28.1045025 96.1043235,28.999933 94.999754,28.999933 L68.999754,28.999933 C67.8951845,28.999933 66.999754,28.1045025 66.999754,26.999933 Z" id="Combined-Shape" fill="url(#linearGradient-5)" mask="url(#mask-3)"></path>
                    <path d="M137.000242,26 L143.157772,26 C144.262341,26 145.157772,26.8954305 145.157772,28 L145.157772,31 C145.157772,32.1045695 144.262341,33 143.157772,33 L139.202557,33 C137.17791,33 135.463899,31.5057379 135.18784,29.5 L135.01892,28.2726988 C134.868313,27.1784451 135.633289,26.1692858 136.727543,26.0186784 C136.81791,26.0062407 136.909023,26 137.000242,26 Z" id="Rectangle-23" fill="url(#linearGradient-6)" mask="url(#mask-3)"></path>
                </g>
                <g id="Group" transform="translate(24.000000, 56.000000)">
                    <path d="M34,17 C34,26.3886364 26.3886364,34 17,34 C7.61136364,34 0,26.3886364 0,17 C0,7.61136364 7.61136364,0 17,0 C26.3886364,0 34,7.61136364 34,17" id="Fill-3" fill="#1A1A1A"></path>
                    <path d="M28,17 C28,23.075 23.075,28 17,28 C10.925,28 6,23.075 6,17 C6,10.925 10.925,6 17,6 C23.075,6 28,10.925 28,17" id="Fill-3" fill="url(#linearGradient-7)"></path>
                </g>
                <g id="Group" transform="translate(151.000000, 56.000000)">
                    <path d="M34,17 C34,26.3886364 26.3886364,34 17,34 C7.61136364,34 0,26.3886364 0,17 C0,7.61136364 7.61136364,0 17,0 C26.3886364,0 34,7.61136364 34,17" id="Fill-3" fill="#1A1A1A"></path>
                    <path d="M28,17 C28,23.075 23.075,28 17,28 C10.925,28 6,23.075 6,17 C6,10.925 10.925,6 17,6 C23.075,6 28,10.925 28,17" id="Fill-3" fill="url(#linearGradient-7)"></path>
                </g>
            </g>
        </g>
    </g>
</svg>