<?xml version="1.0" encoding="UTF-8"?>
<svg width="64px" height="65px" viewBox="0 0 64 65" version="1.1" xmlns="http://www.w3.org/2000/svg" xmlns:xlink="http://www.w3.org/1999/xlink">
    <!-- Generator: Sketch 51.2 (57519) - http://www.bohemiancoding.com/sketch -->
    <title>Group 4</title>
    <desc>Created with Sketch.</desc>
    <defs>
        <circle id="path-1" cx="32" cy="32" r="32"></circle>
        <filter x="-0.8%" y="-0.8%" width="101.6%" height="103.1%" filterUnits="objectBoundingBox" id="filter-2">
            <feOffset dx="0" dy="1" in="SourceAlpha" result="shadowOffsetOuter1"></feOffset>
            <feColorMatrix values="0 0 0 0 0   0 0 0 0 0   0 0 0 0 0  0 0 0 0.25 0" type="matrix" in="shadowOffsetOuter1"></feColorMatrix>
        </filter>
    </defs>
    <g id="01.-A-B-Home-page" stroke="none" stroke-width="1" fill="none" fill-rule="evenodd">
        <g id="C-01.1-Home-Page-1440" transform="translate(-1084.000000, -152.000000)">
            <g id="Group-10" transform="translate(1084.000000, 152.000000)">
                <g id="Group-4">
                    <g id="Oval-3">
                        <use fill="black" fill-opacity="1" filter="url(#filter-2)" xlink:href="#path-1"></use>
                        <use fill="#FFFFFF" fill-rule="evenodd" xlink:href="#path-1"></use>
                    </g>
                    <g id="Icon/-Warranty" transform="translate(14.000000, 14.000000)" fill="#FFBB03">
                        <path d="M17.5346589,29.3557554 L8.03776711,34.3485669 C7.54892252,34.6055677 6.94429537,34.4176212 6.68729456,33.9287766 C6.58495549,33.7341161 6.54964081,33.511148 6.58681766,33.2943904 L8.40056259,22.719446 C8.45620053,22.3950519 8.34865204,22.0640517 8.11296596,21.8343146 L0.429819125,14.3450974 C0.0343355471,13.9595962 0.0262432406,13.3264829 0.411744453,12.9309993 C0.565253057,12.7735157 0.766395468,12.6710285 0.984032499,12.639404 L11.6018803,11.0965404 C11.9275904,11.049212 12.209156,10.8446426 12.354818,10.5494991 L17.1032639,0.928096862 C17.3476862,0.432843202 17.9473121,0.229504203 18.4425657,0.473926496 C18.6397783,0.571256736 18.7994058,0.730884257 18.8967361,0.928096862 L23.645182,10.5494991 C23.790844,10.8446426 24.0724096,11.049212 24.3981197,11.0965404 L35.0159675,12.639404 C35.5625124,12.7188216 35.9411938,13.2262645 35.8617762,13.7728093 C35.8301517,13.9904464 35.7276645,14.1915888 35.5701809,14.3450974 L27.887034,21.8343146 C27.651348,22.0640517 27.5437995,22.3950519 27.5994374,22.719446 L29.4131823,33.2943904 C29.5065434,33.8387269 29.1409555,34.3556828 28.5966191,34.4490438 C28.3798615,34.4862206 28.1568934,34.450906 27.9622329,34.3485669 L18.4653411,29.3557554 C18.1740171,29.2025973 17.8259829,29.2025973 17.5346589,29.3557554 Z" id="Star"></path>
                    </g>
                </g>
            </g>
        </g>
    </g>
</svg>