<svg xmlns="http://www.w3.org/2000/svg"><symbol id="burger" viewBox="0 0 24 24"><g id="Icon/-24px/-Menu/"><path d="M1.5 0h21a1.5 1.5 0 0 1 0 3h-21a1.5 1.5 0 0 1 0-3zm0 10.5h21a1.5 1.5 0 0 1 0 3h-21a1.5 1.5 0 0 1 0-3zm0 10.5h21a1.5 1.5 0 0 1 0 3h-21a1.5 1.5 0 0 1 0-3z" id="Combined-Shape"/></g></symbol><symbol id="heart" viewBox="0 0 25 24"><path d="M12.5 24l-.432-.253c-.263-.154-6.495-3.848-10.05-9.443C.127 11.333-.46 8.195.361 5.47 1.035 3.241 2.596 1.478 4.758.51A5.636 5.636 0 0 1 7.073 0c2.502 0 4.444 1.732 5.427 2.836C13.483 1.732 15.424 0 17.927 0c.781 0 1.56.17 2.314.51 2.162.968 3.724 2.73 4.397 4.961.822 2.723.233 5.86-1.655 8.833-3.556 5.595-9.788 9.289-10.051 9.443L12.5 24z" id="Icon/-Header/-Favs-24px"/></symbol><symbol id="remove" viewBox="0 0 20 20"><path d="M10 18a8 8 0 1 0 0-16 8 8 0 0 0 0 16zm3.536-11.536a1 1 0 0 1 0 1.415l-1.768 1.767a.5.5 0 0 0 0 .708l1.768 1.767a1 1 0 0 1-1.414 1.414l-1.768-1.767a.5.5 0 0 0-.708 0L7.88 13.536a1 1 0 0 1-1.414-1.414l1.767-1.768a.5.5 0 0 0 0-.708L6.464 7.88a1 1 0 0 1 1.414-1.414l1.768 1.767a.5.5 0 0 0 .708 0l1.767-1.768a1 1 0 0 1 1.415 0zM10 20C4.477 20 0 15.523 0 10S4.477 0 10 0s10 4.477 10 10-4.477 10-10 10z"/></symbol><symbol id="heart-outline" viewBox="0 0 25 24"><path d="M14.839 18.731c2.29-1.847 4.25-3.892 5.611-6.035 1.447-2.277 1.869-4.527 1.316-6.358-.42-1.394-1.38-2.476-2.755-3.092A2.621 2.621 0 0 0 17.927 3c-1.04 0-2.191.713-3.187 1.832l-2.241 2.515-2.24-2.516C9.265 3.714 8.113 3 7.073 3c-.352 0-.713.08-1.088.248-1.371.614-2.33 1.696-2.75 3.09-.554 1.832-.132 4.082 1.314 6.357 1.363 2.144 3.323 4.19 5.612 6.036a34.702 34.702 0 0 0 2.34 1.732 34.709 34.709 0 0 0 2.338-1.732zM10.683 1.218L12.5 2.836l1.822-1.622C15.3.543 16.526 0 17.927 0c.781 0 1.56.17 2.314.51 2.162.968 3.724 2.73 4.397 4.961.822 2.723.233 5.86-1.655 8.833-3.556 5.595-9.788 9.289-10.051 9.443L12.5 24l-.432-.253c-.263-.154-6.495-3.848-10.05-9.443C.127 11.333-.46 8.195.361 5.47 1.035 3.241 2.596 1.478 4.758.51A5.636 5.636 0 0 1 7.073 0c1.403 0 2.63.545 3.61 1.218z" id="Icon/-Header/-Favs-24px"/></symbol><symbol id="compare" viewBox="0 0 24 24"><path d="M1.793 22.914l-.707-.707a1 1 0 0 1 0-1.414L20.793 1.086a1 1 0 0 1 1.414 0l.707.707a1 1 0 0 1 0 1.414L3.207 22.914a1 1 0 0 1-1.414 0zM4 0h1a1 1 0 0 1 1 1v1.5a.5.5 0 0 0 .5.5H8a1 1 0 0 1 1 1v1a1 1 0 0 1-1 1H6.5a.5.5 0 0 0-.5.5V8a1 1 0 0 1-1 1H4a1 1 0 0 1-1-1V6.5a.5.5 0 0 0-.5-.5H1a1 1 0 0 1-1-1V4a1 1 0 0 1 1-1h1.5a.5.5 0 0 0 .5-.5V1a1 1 0 0 1 1-1zm20 18v1a1 1 0 0 1-1 1h-8a1 1 0 0 1-1-1v-1a1 1 0 0 1 1-1h8a1 1 0 0 1 1 1z" id="Combined-Shape"/></symbol><symbol id="icon-check" viewBox="0 0 20 20"><path d="M7.984 15L4 11l2-2 2 2 6-6 2 2z"/></symbol><symbol id="telegram" viewBox="0 0 14 14"><path d="M2.9 10.9l2.2-.7.3.1c.6.2 1.2.3 1.8.3 2.8 0 5-1.8 5-4s-2.2-4-5-4-5 1.8-5 4c0 .8.3 1.6.9 2.3l.4.5-.6 1.5zm-1.7 1.6l1.2-3c-.8-.8-1.2-1.9-1.2-3 0-2.8 2.7-5 6-5s6 2.2 6 5-2.7 5-6 5c-.7 0-1.4-.1-2.1-.3l-3.9 1.3z"/></symbol><symbol id="phone" viewBox="0 0 14 14"><path d="M6.3 11.4c-.4-.2-1-.8-2-1.7-1-1-1.5-1.6-1.8-2C-.1 4 1.4 1.9 1.8 1.4c.5-.4 1.9-.5 1.9-.3C3.7 1.4 5 4.2 5 4.5c0 .3-.9 1.1-1.1 1.4-.2.2 1.7 2.4 1.8 2.4 0 0 2.2 2 2.5 1.7.3-.3 1.1-1.1 1.4-1.1.3 0 3.1 1.3 3.3 1.3.3 0 .2 1.5-.3 1.9-.5.5-2.6 2-6.3-.7z"/></symbol><symbol id="close" viewBox="0 0 20 20"><path d="M10 8.586L18.146.439a.5.5 0 0 1 .708 0l.707.707a.5.5 0 0 1 0 .708L11.414 10l8.147 8.146a.5.5 0 0 1 0 .708l-.707.707a.5.5 0 0 1-.708 0L10 11.414l-8.146 8.147a.5.5 0 0 1-.708 0l-.707-.707a.5.5 0 0 1 0-.708L8.586 10 .439 1.854a.5.5 0 0 1 0-.708L1.146.44a.5.5 0 0 1 .708 0L10 8.586z" id="Combined-Shape"/></symbol><symbol id="right-arrow" viewBox="0 0 12 20"><path d="M10.146 19.646L.854 10.354a.5.5 0 0 1 0-.708L10.146.354a.5.5 0 0 1 .708 0l.792.792a.5.5 0 0 1 0 .708L3.854 9.646a.5.5 0 0 0 0 .708l7.792 7.792a.5.5 0 0 1 0 .708l-.792.792a.5.5 0 0 1-.708 0z" id="Path-3" transform="matrix(-1 0 0 1 12.5 0)"/></symbol><symbol id="facebook" viewBox="0 0 20 20"><path d="M20 18.917c0 .595-.487 1.083-1.083 1.083h-5.118v-7.745h2.6l.39-3.018h-2.99V7.309c0-.873.244-1.469 1.496-1.469h1.6v-2.7a21.395 21.395 0 0 0-2.33-.12c-2.305 0-3.882 1.408-3.882 3.99v2.227H8.076v3.018h2.607V20h-9.6A1.087 1.087 0 0 1 0 18.917V1.083C0 .488.488 0 1.083 0h17.834C19.513 0 20 .487 20 1.083v17.834z" id="Fill-1"/></symbol><symbol id="vkontakte" viewBox="0 0 20 20"><path d="M15.363 11.488c1.095 1.017 1.321 1.511 1.359 1.573.453.751-.503.81-.503.81l-1.828.026s-.393.078-.91-.277c-.684-.47-1.329-1.69-1.83-1.53-.51.162-.494 1.26-.494 1.26s.004.233-.112.358c-.127.136-.373.164-.373.164h-.819s-1.805.108-3.395-1.547C4.724 10.52 3.193 6.937 3.193 6.937s-.088-.235.008-.348c.108-.127.401-.136.401-.136l1.956-.012s.184.03.316.127c.11.08.17.23.17.23s.316.799.734 1.522c.818 1.412 1.198 1.72 1.475 1.57.405-.22.284-1.997.284-1.997s.007-.644-.204-.93c-.163-.223-.471-.288-.607-.306-.11-.015.07-.27.304-.385.353-.172.974-.182 1.708-.175.572.006.737.042.961.096.674.163.445.792.445 2.3 0 .483-.087 1.162.262 1.387.15.097.516.014 1.432-1.542.435-.737.76-1.605.76-1.605s.071-.154.182-.22c.113-.068.266-.047.266-.047l2.058-.013s.619-.073.719.206c.104.293-.231.977-1.072 2.098-1.381 1.84-1.534 1.667-.388 2.731M16.666 0H3.333A3.343 3.343 0 0 0 0 3.333v13.334C0 18.5 1.5 20 3.333 20h13.334C18.5 20 20 18.5 20 16.667V3.333C20 1.5 18.5 0 16.667 0" id="vk"/></symbol><symbol id="instagram" viewBox="0 0 20 20"><path d="M15.333 3.46a1.2 1.2 0 1 0 0 2.4 1.2 1.2 0 0 0 0-2.4m-5.336 9.87a3.332 3.332 0 1 1 0-6.665 3.332 3.332 0 0 1 0 6.664m0-8.466a5.133 5.133 0 1 0 0 10.267 5.133 5.133 0 0 0 0-10.267m0-4.863C7.282 0 6.94.012 5.875.06 4.811.11 4.085.278 3.45.525a4.9 4.9 0 0 0-1.771 1.153 4.9 4.9 0 0 0-1.153 1.77C.278 4.085.109 4.812.06 5.876.011 6.941 0 7.282 0 9.997s.011 3.055.06 4.122c.049 1.064.218 1.79.465 2.426a4.9 4.9 0 0 0 1.153 1.77 4.9 4.9 0 0 0 1.77 1.154c.636.247 1.363.416 2.427.465 1.066.048 1.407.06 4.122.06s3.055-.012 4.122-.06c1.064-.049 1.79-.218 2.426-.465a4.9 4.9 0 0 0 1.77-1.153 4.9 4.9 0 0 0 1.154-1.77c.247-.637.416-1.363.465-2.427.048-1.067.06-1.407.06-4.122s-.012-3.056-.06-4.122c-.049-1.064-.218-1.79-.465-2.426a4.9 4.9 0 0 0-1.153-1.771 4.9 4.9 0 0 0-1.77-1.153C15.908.278 15.182.109 14.118.06 13.052.012 12.712 0 9.997 0m0 1.801c2.67 0 2.985.01 4.04.058.974.045 1.503.208 1.856.345a3.1 3.1 0 0 1 1.15.748c.349.35.566.682.747 1.149.137.352.3.882.344 1.856.048 1.054.058 1.37.058 4.04s-.01 2.985-.058 4.04c-.044.974-.207 1.503-.344 1.856a3.1 3.1 0 0 1-.748 1.15c-.35.349-.683.566-1.15.747-.352.137-.88.3-1.856.344-1.054.048-1.37.058-4.04.058-2.669 0-2.985-.01-4.039-.058-.974-.044-1.504-.207-1.856-.344a3.097 3.097 0 0 1-1.15-.748 3.096 3.096 0 0 1-.747-1.15c-.137-.352-.3-.88-.345-1.856-.048-1.054-.058-1.37-.058-4.04 0-2.668.01-2.985.058-4.039.045-.974.208-1.504.345-1.856.181-.467.398-.8.748-1.15.35-.35.682-.566 1.149-.747.352-.137.882-.3 1.856-.345 1.054-.048 1.37-.058 4.04-.058" id="Fill-1"/></symbol><symbol id="youtube" viewBox="0 0 20 14"><path d="M7.935 12.336v-5.45l5.403 2.735-5.403 2.715zM19.8 5.942s-.195-1.336-.795-1.925c-.76-.772-1.613-.775-2.004-.82C14.202 3 10.004 3 10.004 3h-.009s-4.197 0-6.997.196c-.39.046-1.243.049-2.003.821C.395 4.607.2 5.942.2 5.942S0 7.512 0 9.082v1.471c0 1.57.2 3.139.2 3.139s.195 1.336.795 1.925c.76.772 1.76.748 2.205.829 1.6.148 6.8.194 6.8.194s4.203-.006 7-.202c.392-.045 1.244-.049 2.005-.821.6-.589.795-1.925.795-1.925s.2-1.57.2-3.139V9.082c0-1.57-.2-3.14-.2-3.14z" transform="translate(0 -3)"/></symbol><symbol id="arrow" viewBox="0 0 12 20"><g id="01.-Icons"><path d="M10.146 19.646L.854 10.354a.5.5 0 0 1 0-.708L10.146.354a.5.5 0 0 1 .708 0l.792.792a.5.5 0 0 1 0 .708L3.854 9.646a.5.5 0 0 0 0 .708l7.792 7.792a.5.5 0 0 1 0 .708l-.792.792a.5.5 0 0 1-.708 0z" id="Path-3" transform="matrix(-1 0 0 1 12.5 0)"/></g></symbol><symbol id="doc" viewBox="0 0 10 12"><path d="M4 0L0 4v8h10V0H4zM1 4.999h4.001V1H9v10H1V4.999zm3-3.585V4H1.414L4 1.414zM3 6.999h4.001v-1H3v1zM3 9h4.001V8H3v1z" id="Fill-1"/></symbol><symbol id="calender" viewBox="0 0 13 12"><path d="M1 4v7h11V4H1zm9-3h2a1 1 0 0 1 1 1v9a1 1 0 0 1-1 1H1a1 1 0 0 1-1-1V2a1 1 0 0 1 1-1h2V0h1v1h5V0h1v1zm0 1v1H9V2H4v1H3V2H1v1h11V2h-2z" id="Combined-Shape"/><path id="Rectangle-20" d="M3 6h1v1H3zm4 0h1v1H7zm2 0h1v1H9zM5 8h1v1H5zm2 0h1v1H7zM5 6h1v1H5zM3 8h1v1H3z"/></symbol><symbol id="gear" viewBox="0 0 13 12"><path d="M1 1v10h11V1H1zm0-1h11a1 1 0 0 1 1 1v10a1 1 0 0 1-1 1H1a1 1 0 0 1-1-1V1a1 1 0 0 1 1-1z" id="Rectangle-16"/><path d="M4 6h2V3h1v3h2V3h1v6H9V7H7v2H6V7H3V3h1v3z" id="Combined-Shape" fill-rule="evenodd"/></symbol><symbol id="drive" viewBox="0 0 13 12"><path d="M6.5 11c2.756 0 5-2.244 5-5s-2.244-5-5-5-5 2.244-5 5 2.244 5 5 5zm0 1c-3.308 0-6-2.692-6-6s2.692-6 6-6 6 2.692 6 6-2.692 6-6 6zm-.002-3c1.654 0 3-1.346 3-3s-1.346-3-3-3c-1.653 0-3 1.346-3 3s1.347 3 3 3zm0 .5c-1.93 0-3.5-1.57-3.5-3.5s1.57-3.5 3.5-3.5 3.5 1.57 3.5 3.5-1.57 3.5-3.5 3.5z" id="Shape"/><path d="M6.5 7c.551 0 1-.449 1-1 0-.551-.449-1-1-1-.551 0-1 .449-1 1 0 .551.449 1 1 1zm0 .5C5.673 7.5 5 6.827 5 6s.673-1.5 1.5-1.5S8 5.173 8 6s-.673 1.5-1.5 1.5zm-.27-4.208h.54v.541h-.54v-.541zm0 4.875h.54v.541h-.54v-.541zm2.437-2.438h.541v.542h-.541v-.542zm-4.875 0h.541v.542h-.541v-.542zM7.84 4.276l.383-.383.383.383-.383.383-.383-.383zM4.394 7.724l.383-.383.383.383-.383.383-.383-.383zm3.447 0l.383-.383.383.383-.383.383-.383-.383zM4.394 4.276l.383-.383.383.383-.383.383-.383-.383z" id="Combined-Shape"/></symbol><symbol id="engine" viewBox="0 0 13 12"><path d="M1 6.5v2h.52a2 2 0 0 1 1.561.75l1.1 1.375a1 1 0 0 0 .78.375H8.04a1 1 0 0 0 .78-.375l1.1-1.374a2 2 0 0 1 1.56-.751H12v-2h-.52a2 2 0 0 1-1.561-.75l-1.1-1.375A1 1 0 0 0 8.04 4H4.96a1 1 0 0 0-.78.375L3.08 5.75a2 2 0 0 1-1.56.75H1zM7 3h1.039a2 2 0 0 1 1.561.75l1.1 1.375a1 1 0 0 0 .78.375H12V5h1v5h-1v-.5h-.52a1 1 0 0 0-.78.375L9.6 11.25a2 2 0 0 1-1.56.75H4.96a2 2 0 0 1-1.561-.75L2.3 9.874a1 1 0 0 0-.78-.375H0v-4h1.52a1 1 0 0 0 .78-.375L3.4 3.75A2 2 0 0 1 4.96 3H6V1h1v2zM4 0h5v1H4V0zm0 0h5v1H4V0z" id="Combined-Shape"/></symbol><symbol id="blue-check" viewBox="0 0 12 12"><g id="UI-Set" fill="none" fill-rule="evenodd"><g id="01.-Icons" transform="translate(-484 -756)"><g id="Icon/-Small/-Check/" transform="translate(484 756)"><circle fill="#2898BC" cx="6" cy="6" r="6"/><path d="M.687 2.175l.293-.293a.5.5 0 0 1 .707 0L2.98 3.175a.5.5 0 0 0 .707 0l2.96-2.96a.5.5 0 0 1 .707 0l.292.293a.5.5 0 0 1 0 .707l-3.96 3.96a.5.5 0 0 1-.706 0L.687 2.882a.5.5 0 0 1 0-.707z" transform="translate(2 3)" fill="#FFF" id="Rectangle-8"/></g></g></g></symbol><symbol id="turquoise-check" viewBox="0 0 12 12"><g fill="none" fill-rule="evenodd"><g id="01.-Icons" transform="translate(-484 -756)"><g id="Icon/-Small/-Check/" transform="translate(484 756)"><circle fill="#02c5ab" cx="6" cy="6" r="6"/><path d="M.687 2.175l.293-.293a.5.5 0 0 1 .707 0L2.98 3.175a.5.5 0 0 0 .707 0l2.96-2.96a.5.5 0 0 1 .707 0l.292.293a.5.5 0 0 1 0 .707l-3.96 3.96a.5.5 0 0 1-.706 0L.687 2.882a.5.5 0 0 1 0-.707z" transform="translate(2 3)" fill="#FFF" id="Rectangle-8"/></g></g></g></symbol><symbol id="download" viewBox="0 0 11 12"><g id="UI-Set" fill="none" fill-rule="evenodd"><g id="01.-Icons" transform="translate(-378 -756)" fill="#404040"><g id="Icon/-Small/-Download/" transform="translate(378 756)"><path id="Rectangle-10" d="M0 11h11v1H0z"/><path d="M6 6h2L5.5 9 3 6h2V0h1v6z" id="Combined-Shape"/></g></g></g></symbol><symbol id="check-green" viewBox="0 0 12 12"><g fill="none" fill-rule="evenodd"><circle fill="#02C5AB" cx="6" cy="6" r="6"/><path d="M.687 2.175l.293-.293a.5.5 0 0 1 .707 0L2.98 3.175a.5.5 0 0 0 .707 0l2.96-2.96a.5.5 0 0 1 .707 0l.292.293a.5.5 0 0 1 0 .707l-3.96 3.96a.5.5 0 0 1-.706 0L.687 2.882a.5.5 0 0 1 0-.707z" transform="translate(2 3)" fill="#FFF" id="Rectangle-8"/></g></symbol><symbol id="compare-plus" viewBox="0 0 24 24"><path d="M12 22c5.523 0 10-4.477 10-10S17.523 2 12 2 2 6.477 2 12s4.477 10 10 10zm0 2C5.373 24 0 18.627 0 12S5.373 0 12 0s12 5.373 12 12-5.373 12-12 12z"/><path d="M12 6a1 1 0 0 1 1 1v3.5a.5.5 0 0 0 .5.5H17a1 1 0 0 1 0 2h-3.5a.5.5 0 0 0-.5.5V17a1 1 0 0 1-2 0v-3.5a.5.5 0 0 0-.5-.5H7a1 1 0 0 1 0-2h3.5a.5.5 0 0 0 .5-.5V7a1 1 0 0 1 1-1z"/></symbol><symbol id="compare-minus" viewBox="0 0 20 20"><path d="M10 20C4.477 20 0 15.523 0 10S4.477 0 10 0s10 4.477 10 10-4.477 10-10 10zm5-10a1 1 0 0 0-1-1H6a1 1 0 1 0 0 2h8a1 1 0 0 0 1-1z" id="Combined-Shape"/></symbol><symbol id="favorites-icon" viewBox="0 0 21 20"><g transform="translate(-197 -464)"><g id="Icon/-20px/-Favs/" transform="translate(197 464)"><path d="M12.616 16.001c1.938-1.57 3.6-3.312 4.763-5.15 1.274-2.015 1.652-4.04 1.148-5.716-.39-1.302-1.286-2.316-2.556-2.887A2.646 2.646 0 0 0 14.874 2c-1.03 0-2.096.664-3.007 1.69l-1.496 1.688L8.874 3.69C7.966 2.665 6.898 2 5.87 2c-.36 0-.728.081-1.1.249-1.267.57-2.162 1.584-2.553 2.886-.504 1.678-.126 3.703 1.148 5.715 1.163 1.84 2.825 3.58 4.763 5.151.856.694 1.631 1.25 2.245 1.654.613-.404 1.388-.96 2.244-1.654zM10.371 2.363l1.497-1.326C12.676.46 13.7 0 14.874 0a4.63 4.63 0 0 1 1.92.425c1.794.807 3.09 2.276 3.649 4.134.681 2.27.193 4.883-1.374 7.361-2.95 4.663-8.12 7.74-8.34 7.87l-.358.21-.358-.21c-.218-.13-5.389-3.207-8.34-7.87C.107 9.444-.38 6.83.3 4.56.86 2.7 2.154 1.231 3.948.424A4.66 4.66 0 0 1 5.868 0c1.174 0 2.198.46 3.015 1.028l1.488 1.335z" id="Shape"/></g></g></symbol><symbol id="favorites-icon-filled" viewBox="0 0 21 20"><path d="M10.371 20l-.358-.21c-.218-.13-5.389-3.207-8.34-7.87C.107 9.444-.38 6.83.3 4.56.86 2.7 2.154 1.231 3.948.424A4.66 4.66 0 0 1 5.868 0c2.077 0 3.688 1.443 4.503 2.363C11.187 1.443 12.798 0 14.874 0a4.63 4.63 0 0 1 1.92.425c1.794.807 3.09 2.276 3.649 4.134.681 2.27.193 4.883-1.374 7.361-2.95 4.663-8.12 7.74-8.34 7.87l-.358.21z" id="Shape"/></symbol><symbol id="report" viewBox="0 0 10 12"><g fill="none" fill-rule="evenodd"><path fill="#404040" d="M0 7h1v5H0z"/><path d="M.5.5v6h8.638l-1.714-3 1.714-3H.5z" id="Rectangle-3" stroke="#FF5F5F" fill="#FF5F5F"/></g></symbol><symbol id="share" viewBox="0 0 11 12"><path d="M3 5v1H1v5h9V6H8V5h2a1 1 0 0 1 1 1v5a1 1 0 0 1-1 1H1a1 1 0 0 1-1-1V6a1 1 0 0 1 1-1h2z" id="Rectangle-9"/><path d="M5 3H3l2.5-3L8 3H6v6H5V3z" id="Combined-Shape" fill-rule="evenodd"/></symbol><symbol id="mail" viewBox="0 0 12 10"><g id="UI-Set" fill="none" fill-rule="evenodd"><g id="01.-Icons" transform="translate(-237 -757)" fill="#FFBB03" fill-rule="nonzero"><g id="Icon/-Small/-Email/" transform="translate(237 757)"><path d="M1 1v8h10V1H1zm5.013 2.71L9.4 1H11L6.015 4.99 1 1h1.606l3.407 2.71zm0 0L9.4 1H11L6.015 4.99 1 1h1.606l3.407 2.71zM0 0h12v10H0V0z" id="12-Email"/></g></g></g></symbol><symbol id="brand-warranty" viewBox="0 0 32 31"><g transform="translate(-670 -1503)" fill="#BCF2EB" fill-rule="evenodd"><g id="01-banner-warranty" transform="translate(638 1471)"><g id="Illustrations/-Warranty" transform="translate(30 30)"><path d="M17.535 28.245l-8.322 4.374a1 1 0 0 1-1.45-1.054L9.351 22.3a1 1 0 0 0-.288-.885l-6.732-6.562a1 1 0 0 1 .554-1.706l9.304-1.352a1 1 0 0 0 .753-.547l4.16-8.43a1 1 0 0 1 1.794 0l4.16 8.43a1 1 0 0 0 .753.547l9.304 1.352a1 1 0 0 1 .554 1.706l-6.732 6.562a1 1 0 0 0-.288.885l1.59 9.266a1 1 0 0 1-1.451 1.054l-8.322-4.374a1 1 0 0 0-.93 0z" id="Star"/></g></g></g></symbol><symbol id="brand-credit" viewBox="0 0 36 26"><g fill="none" fill-rule="evenodd"><rect id="Rectangle-3" fill="#BCF2EB" width="36" height="26" rx="4"/><path id="Rectangle-4" fill="#404040" d="M0 4h36v4H0z"/><path id="Rectangle-4" fill="#A8A8A8" d="M4 18h18v2H4z"/><circle id="Oval-2" fill="#FF5F5F" cx="29" cy="19" r="3"/></g></symbol><symbol id="brand-service" viewBox="0 0 28 32"><g transform="translate(-34 -32)" fill="none" fill-rule="evenodd"><g id="Illustrations/-Service" transform="translate(34 32)"><path d="M12 0a7.997 7.997 0 0 1 4 6.93V8A8 8 0 1 1 0 8V6.93A7.997 7.997 0 0 1 4 0v5.93a4 4 0 1 0 8 0V0z" id="Combined-Shape" fill="#BCF2EB"/><path d="M5 12h6v17a3 3 0 0 1-6 0V12z" id="Rectangle-2" fill="#BCF2EB"/><path id="Rectangle-3" fill="#FFF" d="M23 0h2v16h-2z"/><path d="M23 0h2a1 1 0 0 1 1 1v3a2 2 0 1 1-4 0V1a1 1 0 0 1 1-1z" id="Rectangle-3" fill="#FFF"/><path d="M21 16h6a1 1 0 0 1 1 1v11a4 4 0 1 1-8 0V17a1 1 0 0 1 1-1z" id="Rectangle-3" fill="#404040"/></g></g></symbol><symbol id="icon-fire" viewBox="0 0 28 32"><defs><radialGradient cy="87.699%" fx="50%" fy="87.699%" r="79.739%" gradientTransform="matrix(-.10134 .7702 -.47506 -.03746 .967 .525)" id="radialGradient-1"><stop stop-color="#FFDD82" offset="0%"/><stop stop-color="#FFBA00" offset="58.23%"/><stop stop-color="#FF5F5F" offset="100%"/></radialGradient></defs><g fill="url(#radialGradient-1)"><path d="M8.37 23.208c-4.505 0-7.47-3.246-7.37-3.474.084-.194 1.59.892 1.59.434 0-.708-2.44-2.194-2.44-5.151 0-2.545 1.553-4.735 1.981-4.735.18 0-.418 2.857 1.654 2.857 1.034 0 .612-1.727 1.034-3.697.177-.829.491-1.405.78-2.049.309-.686.59-1.416.647-1.48.094-.104.762.382 1.46-.269 1.158-1.078.003-4.627.323-4.8.087-.047.83.565 1.825 1.353 1.868 1.48 4.492 3.89 4.407 5.901-.128 2.996-.134 3.827.747 3.827 1.18 0 .801-1.702 1.037-1.702.236 0 1.42 3.126 1.42 4.703 0 3.45-2.746 4.713-2.746 5.242 0 .45.915.08.99.274.076.195-3.182 2.766-7.338 2.766zM1.19 9.965c-.14 0-.167-.471-.163-.758a2.7 2.7 0 0 1 .14-.783c.154-.476.463-.897.683-1.114.667-.657.718-1.341.919-1.341.2 0 .136 1.564-.252 2.387-.388.824-1.186 1.61-1.326 1.61z" id="Combined-Shape"/></g></symbol><symbol id="service" viewBox="0 0 28 32"><g transform="translate(-34 -32)" fill="none" fill-rule="evenodd"><g id="Illustrations/-Service" transform="translate(34 32)"><path d="M12 0a7.997 7.997 0 0 1 4 6.93V8A8 8 0 1 1 0 8V6.93A7.997 7.997 0 0 1 4 0v5.93a4 4 0 1 0 8 0V0z" id="Combined-Shape" fill="#BCF2EB"/><path d="M5 12h6v17a3 3 0 0 1-6 0V12z" id="Rectangle-2" fill="#BCF2EB"/><path id="Rectangle-3" fill="#FFF" d="M23 0h2v16h-2z"/><path d="M23 0h2a1 1 0 0 1 1 1v3a2 2 0 1 1-4 0V1a1 1 0 0 1 1-1z" id="Rectangle-3" fill="#FFF"/><path d="M21 16h6a1 1 0 0 1 1 1v11a4 4 0 1 1-8 0V17a1 1 0 0 1 1-1z" id="Rectangle-3" fill="#404040"/></g></g></symbol><symbol id="clocks" viewBox="0 0 14 14"><g fill="none"><circle cx="6" cy="6" r="5.5" stroke="#404040"/><path fill="#404040" d="M5 3h1v3H5zm0 3h4v1H5z"/></g></symbol><symbol id="map-pin" viewBox="0 0 8 12"><g fill="#404040"><path d="M7 4a3 3 0 1 0-6 0c0 1.057 1 3.178 3 6.213C6 7.178 7 5.057 7 4zm-3 8C1.333 8.14 0 5.473 0 4a4 4 0 1 1 8 0c0 1.473-1.333 4.14-4 8z"/><circle cx="4" cy="4" r="1"/></g></symbol></svg>