<svg xmlns="http://www.w3.org/2000/svg" xmlns:xlink="http://www.w3.org/1999/xlink" width="44" height="44" viewBox="0 0 44 44">
    <defs>
        <circle id="a" cx="22" cy="22" r="22"/>
    </defs>
    <g fill="none" fill-rule="evenodd">
        <mask id="b" fill="#fff">
            <use xlink:href="#a"/>
        </mask>
        <use fill="#FFF" xlink:href="#a"/>
        <g fill="#09CCFF" fill-rule="nonzero" mask="url(#b)">
            <path d="M29.436 22.572c0 2.684-1.408 5.06-3.652 6.248l-.484.22a1.172 1.172 0 0 1-.528.132c-.352 0-.616-.132-.792-.44a1.096 1.096 0 0 1-.132-.748.921.921 0 0 1 .484-.616c1.32-.616 2.156-1.936 2.156-3.432V20.02c0-1.496-.836-2.86-2.156-3.432 0 0-.396-.176-.484-.616-.044-.264 0-.528.132-.748.176-.264.44-.44.792-.44.176 0 .352.044.528.132l.484.22c2.244 1.188 3.652 3.608 3.652 6.292v1.144zm-9.768 4.84c.088.044.396.22.484.616.044.264 0 .528-.132.748-.176.264-.44.44-.792.44-.176 0-.352-.044-.528-.132l-.528-.22c-2.244-1.188-3.652-3.608-3.652-6.248v-1.1c0-2.684 1.408-5.06 3.652-6.292l.484-.22c.176-.088.352-.132.528-.132.352 0 .616.132.792.44.132.22.176.484.132.748-.088.44-.484.616-.484.616-1.32.572-2.156 1.936-2.156 3.432v3.916c.044 1.408.88 2.772 2.2 3.388zM22 11c-6.072 0-11 4.928-11 11s4.928 11 11 11 11-4.928 11-11-4.928-11-11-11z"/>
        </g>
    </g>
</svg>
