<svg xmlns="http://www.w3.org/2000/svg" xmlns:xlink="http://www.w3.org/1999/xlink" width="44" height="44" viewBox="0 0 44 44">
    <defs>
        <circle id="a" cx="22" cy="22" r="22"/>
    </defs>
    <g fill="none" fill-rule="evenodd">
        <mask id="b" fill="#fff">
            <use xlink:href="#a"/>
        </mask>
        <use fill="#FFF" xlink:href="#a"/>
        <g fill="#2C9906" fill-rule="nonzero" mask="url(#b)">
            <path d="M11.008 21.314v-.81c.005-.1.01-.201.017-.302l6.448 3.71 13.656-7.855a10.742 10.742 0 0 1 1.172 4.856 10.778 10.778 0 0 1-.2 2.057 10.645 10.645 0 0 1-1.775 4.118 10.669 10.669 0 0 1-3.122 2.914 10.689 10.689 0 0 1-5.26 1.557h-.593a10.703 10.703 0 0 1-1.905-.224 10.707 10.707 0 0 1-3.97-1.746 10.649 10.649 0 0 1-4.468-8.275zM25.78 11.096c.428.181.844.39 1.244.624l-9.551 5.494-4.44-2.556c.23-.317.477-.622.74-.912l3.7 2.128 8.306-4.778zm-8.307 7.458L28.1 12.44c.327.248.64.516.936.8l-11.563 6.651-5.593-3.216c.154-.356.328-.704.52-1.04l5.073 2.918zm0 2.677l12.374-7.117a9.889 9.889 0 0 1 .293.369c.141.186.276.376.405.57l-13.072 7.52-6.292-3.62a10.782 10.782 0 0 1 .29-1.173l6.002 3.451z"/>
        </g>
    </g>
</svg>
