<?xml version="1.0" encoding="UTF-8"?>
<svg width="96px" height="96px" viewBox="0 0 96 96" version="1.1" xmlns="http://www.w3.org/2000/svg" xmlns:xlink="http://www.w3.org/1999/xlink">
    <!-- Generator: Sketch 52.6 (67491) - http://www.bohemiancoding.com/sketch -->
    <title>Group 2</title>
    <desc>Created with Sketch.</desc>
    <defs>
        <linearGradient x1="100%" y1="0%" x2="0%" y2="100%" id="linearGradient-1">
            <stop stop-color="#01B2E8" offset="0%"></stop>
            <stop stop-color="#00D83D" offset="100%"></stop>
        </linearGradient>
    </defs>
    <g id="11.-Credit-" stroke="none" stroke-width="1" fill="none" fill-rule="evenodd">
        <g id="11.91" transform="translate(-266.000000, -408.000000)">
            <g id="Group-2" transform="translate(266.000000, 408.000000)">
                <circle id="Oval" fill="url(#linearGradient-1)" fill-rule="nonzero" cx="48" cy="48" r="48"></circle>
                <path d="M65.6660156,54.7910156 C65.3339827,59.3808823 63.6396637,62.9941274 60.5830078,65.6308594 C57.5263519,68.2675913 53.4980719,69.5859375 48.4980469,69.5859375 C43.0292695,69.5859375 38.7275547,67.7451356 35.5927734,64.0634766 C32.4579921,60.3818175 30.890625,55.3281571 30.890625,48.9023438 L30.890625,46.2949219 C30.890625,42.1933389 31.613274,38.5800938 33.0585938,35.4550781 C34.5039135,32.3300625 36.5693225,29.9326255 39.2548828,28.2626953 C41.9404431,26.5927651 45.0605291,25.7578125 48.6152344,25.7578125 C53.537134,25.7578125 57.5019381,27.0761587 60.5097656,29.7128906 C63.5175932,32.3496226 65.255857,36.0507574 65.7246094,40.8164062 L56.9355469,40.8164062 C56.7207021,38.0624862 55.9541082,36.0654359 54.6357422,34.8251953 C53.3173762,33.5849547 51.3105604,32.9648438 48.6152344,32.9648438 C45.6855322,32.9648438 43.4931713,34.0146379 42.0380859,36.1142578 C40.5830005,38.2138777 39.8359377,41.4706811 39.796875,45.8847656 L39.796875,49.1074219 C39.796875,53.7168199 40.4951102,57.0859269 41.8916016,59.2148438 C43.2880929,61.3437606 45.4902193,62.4082031 48.4980469,62.4082031 C51.2129042,62.4082031 53.2392511,61.7880921 54.5771484,60.5478516 C55.9150458,59.307611 56.6816396,57.3886849 56.8769531,54.7910156 L65.6660156,54.7910156 Z" id="ะก" fill="#FFFFFF"></path>
            </g>
        </g>
    </g>
</svg>