<svg xmlns="http://www.w3.org/2000/svg" xmlns:xlink="http://www.w3.org/1999/xlink" width="44" height="44" viewBox="0 0 44 44">
    <defs>
        <circle id="a" cx="22" cy="22" r="22"/>
        <linearGradient id="c" x1="31.298%" x2="68.702%" y1="40.05%" y2="59.95%">
            <stop offset="0%" stop-color="#00A04A"/>
            <stop offset="58.039%" stop-color="#00A096"/>
            <stop offset="100%" stop-color="#00A0E3"/>
        </linearGradient>
    </defs>
    <g fill="none" fill-rule="evenodd">
        <mask id="b" fill="#fff">
            <use xlink:href="#a"/>
        </mask>
        <use fill="#FFF" xlink:href="#a"/>
        <g fill-rule="nonzero" mask="url(#b)">
            <path fill="url(#c)" d="M31.863 8.842H21.94V5.9h9.923z" transform="translate(6 18)"/>
            <g fill="#2B2A29">
                <path d="M15.281 23.016c-.388.34-.94.5-1.483.5-1.25 0-2.087-.84-2.087-2.107 0-1.17.777-2.107 2.053-2.107 1 0 1.837.74 1.837 1.866 0 .25-.018.402-.06.553h-2.803c.086.608.551.938 1.164.938.474 0 .87-.179 1.095-.366l.285.723zm-2.578-1.982h1.906c.008-.491-.32-.875-.888-.875-.595 0-.914.348-1.018.875zM15.954 19.4h3.535v1.027h-1.267v2.991h-.992v-2.991h-1.276zM23.404 23.016c-.388.34-.94.5-1.483.5-1.25 0-2.087-.84-2.087-2.107 0-1.17.776-2.107 2.053-2.107 1 0 1.836.74 1.836 1.866 0 .25-.017.402-.06.553H20.86c.087.608.552.938 1.165.938.474 0 .87-.179 1.095-.366l.284.723zm-2.578-1.982h1.906c.008-.491-.32-.875-.888-.875-.595 0-.915.348-1.018.875zM26.948 20.387h-1.026l-.026.428c-.19 2.188-.707 2.643-1.75 2.643l-.087-1c.337.036.794-.295.88-1.848l.06-1.25h2.94v4.018h-.99v-2.991zM32.372 23.016c-.388.34-.94.5-1.483.5-1.25 0-2.087-.84-2.087-2.107 0-1.17.776-2.107 2.052-2.107 1 0 1.837.74 1.837 1.866 0 .25-.017.402-.06.553h-2.803c.087.608.552.938 1.164.938.475 0 .871-.179 1.095-.366l.285.723zm-2.578-1.982h1.905c.009-.491-.319-.875-.888-.875-.595 0-.914.348-1.017.875zM33.493 19.4h.897l1.32 1.678 1.25-1.678h.87v4.018h-.991v-2.456l-1.147 1.5h-.026l-1.181-1.5v2.456h-.992zM10.823 22.96c-.378.401-.905.65-1.488.65-.4 0-.775-.117-1.092-.32a1.096 1.096 0 0 1-.087-.056c-.005-.004-.261-.195-.32-.26-.07-.079-.246-.346-.246-.346l-.004-.007a2.196 2.196 0 0 1-.33-1.162c0-1.189.93-2.152 2.079-2.152.573 0 1.093.24 1.47.63l.888-.92a3.268 3.268 0 0 0-2.358-1.011C7.493 18.006 6 19.552 6 21.459c0 1.907 1.493 3.453 3.335 3.453a3.27 3.27 0 0 0 2.376-1.032l-.888-.92z"/>
            </g>
            <g fill="#FEFEFE">
                <path d="M29.346 24.708c.388 0 .68.276.68.697 0 .406-.292.697-.68.697-.388 0-.68-.276-.68-.697 0-.392.279-.697.68-.697zm0 1.172c.274 0 .438-.208.438-.475 0-.28-.192-.475-.438-.475-.25 0-.437.195-.437.475 0 .27.192.475.437.475zM31.118 25.504h-.597v.577h-.23V24.73h.23v.553h.597v-.553h.227v1.352h-.227zM32.478 24.951h-.38l-.027.255c-.076.786-.246.914-.504.875l.006-.236c.1.014.233-.03.291-.845l.019-.27h.822v1.351h-.227v-1.13zM33.451 24.725h.202l.552 1.356h-.245l-.136-.346h-.557l-.136.346h-.232l.552-1.356zm-.097.788h.383l-.19-.48-.193.48zM34.4 26.081V24.73h.23v.962l.685-.962h.201v1.352h-.23v-.96l-.684.96h-.201zm.422-1.68c.015.075.066.112.159.112.084 0 .142-.03.149-.112h.215c-.006.166-.159.276-.364.276-.224 0-.36-.112-.373-.276h.214zM36.704 25.504h-.596v.577h-.23V24.73h.23v.553h.596v-.553h.228v1.352h-.228z"/>
            </g>
        </g>
    </g>
</svg>
