<svg xmlns="http://www.w3.org/2000/svg" xmlns:xlink="http://www.w3.org/1999/xlink" width="44" height="44" viewBox="0 0 44 44">
    <defs>
        <circle id="a" cx="22" cy="22" r="22"/>
    </defs>
    <g fill="none" fill-rule="evenodd">
        <mask id="b" fill="#fff">
            <use xlink:href="#a"/>
        </mask>
        <use fill="#FFF" xlink:href="#a"/>
        <g fill="#3C5186" mask="url(#b)">
            <path d="M22.07 17.14c.233 0 .466 0 .652.095l-.047-6.203h.746s-.093 1.705.233 6.346c4.007.9 7.036 4.499 7.036 8.856a9.114 9.114 0 0 1-4.147 7.672c-.047-.048-.14-.19-.233-.284-2.656-3.457-3.309-8.62-3.495-13.119a9.14 9.14 0 0 0 1.119.19c.745 4.925 2.982 8.193 4.8 10.23.838-1.137 1.35-2.416 1.35-3.837 0-1.657-.652-3.125-1.724-4.31a8.828 8.828 0 0 0-4.287-2.604 9.635 9.635 0 0 0-2.376-.284c-.792 0-1.585.094-2.377.284-3.448.9-6.01 3.646-6.01 6.914 0 1.421.512 2.7 1.304 3.836 1.863-2.036 4.054-5.304 4.799-10.23.373-.047.746-.094 1.165-.189-.186 4.5-.839 9.614-3.495 13.072v-.048a2.61 2.61 0 0 1-.28.38c-2.469-1.611-4.053-4.405-4.053-7.673 0-4.357 2.982-7.956 7.036-8.856.233-4.641.186-6.346.186-6.346h.746l-.046 6.203c.186-.094.42-.094.605-.094V8h.793v9.14zm.046 3.316c.093 4.31.373 9.709 1.771 13.355.14.38.372.806.559 1.184-.885.237-1.818.427-2.75.427-.978 0-1.91-.19-2.748-.427.233-.473.42-.9.606-1.326 1.304-3.599 1.676-8.95 1.723-13.213h.84z"/>
        </g>
    </g>
</svg>
