<?xml version="1.0" encoding="UTF-8"?>
<svg width="102px" height="90px" viewBox="0 0 102 90" version="1.1" xmlns="http://www.w3.org/2000/svg" xmlns:xlink="http://www.w3.org/1999/xlink">
    <!-- Generator: Sketch 53.2 (72643) - https://sketchapp.com -->
    <title>Group 23</title>
    <desc>Created with Sketch.</desc>
    <defs>
        <linearGradient x1="50%" y1="0%" x2="50%" y2="98.4813457%" id="linearGradient-1">
            <stop stop-color="#F2F2F2" offset="0%"></stop>
            <stop stop-color="#C4C4C4" offset="100%"></stop>
        </linearGradient>
        <path d="M7.6916556,-3.10752092e-16 L92.3083444,3.10752092e-16 C94.9829006,-1.80555915e-16 95.9527593,0.278476833 96.9305371,0.801398111 C97.9083149,1.32431939 98.6756806,2.09168511 99.1986019,3.06946289 C99.7215232,4.04724067 100,5.01709938 100,7.6916556 L100,66.3083444 C100,68.9829006 99.7215232,69.9527593 99.1986019,70.9305371 C98.6756806,71.9083149 97.9083149,72.6756806 96.9305371,73.1986019 C95.9527593,73.7215232 94.9829006,74 92.3083444,74 L7.6916556,74 C5.01709938,74 4.04724067,73.7215232 3.06946289,73.1986019 C2.09168511,72.6756806 1.32431939,71.9083149 0.801398111,70.9305371 C0.278476833,69.9527593 1.2037061e-16,68.9829006 -2.07168062e-16,66.3083444 L2.07168062e-16,7.6916556 C-1.2037061e-16,5.01709938 0.278476833,4.04724067 0.801398111,3.06946289 C1.32431939,2.09168511 2.09168511,1.32431939 3.06946289,0.801398111 C4.04724067,0.278476833 5.01709938,1.80555915e-16 7.6916556,-3.10752092e-16 Z" id="path-2"></path>
        <linearGradient x1="50%" y1="0%" x2="50%" y2="98.4813457%" id="linearGradient-4">
            <stop stop-color="#F2F2F2" offset="0%"></stop>
            <stop stop-color="#C4C4C4" offset="100%"></stop>
        </linearGradient>
        <path d="M3.89189189,23.6486486 L9.68339768,6.75675676 C11.0691925,2.71485518 14.8699898,-4.54415751e-15 19.1428571,-5.32907052e-15 L80.8571429,1.77635684e-15 C85.1300102,9.91443836e-16 88.9308075,2.71485518 90.3166023,6.75675676 L96,23.3333333 C98.648401,31.0578362 100,39.1674303 100,47.3333333 L100,66 C100,68.7614237 97.7614237,71 95,71 L5,71 C2.23857625,71 1.2263553e-15,68.7614237 8.8817842e-16,66 L4.26325641e-14,47 C4.16595574e-14,39.0547971 1.31506933,31.1643811 3.89189189,23.6486486 Z" id="path-5"></path>
        <path d="M3.79453458,4 L60.2066854,4 C62.4158244,4 64.2066854,5.790861 64.2066854,8 C64.2066854,8.39199023 64.1490659,8.78185169 64.0356746,9.15708328 L60.7914732,19.8927082 C59.5161779,24.1128814 55.6276553,27 51.2190002,27 L12.7822198,27 C8.37356467,27 4.48504204,24.1128814 3.20974677,19.8927082 L-0.0344546215,9.15708328 C-0.673494071,7.04239094 0.522758957,4.81005025 2.6374513,4.1710108 C3.01268289,4.05761947 3.40254434,4 3.79453458,4 Z" id="path-7"></path>
        <linearGradient x1="84.0282645%" y1="45.1906647%" x2="1.72505803%" y2="55.5003119%" id="linearGradient-9">
            <stop stop-color="#5E5E5E" offset="0%"></stop>
            <stop stop-color="#1A1A1A" offset="100%"></stop>
        </linearGradient>
        <path d="M15.7660738,-7.10542736e-15 L76.2339262,-1.15463195e-14 C79.6773695,-6.06208573e-15 82.7344803,2.20344076 83.8233926,5.47017787 L91.1225148,27.3675445 C91.4718104,28.4154311 90.9054904,29.5480711 89.8576038,29.8973666 C89.6536708,29.9653442 89.4401124,30 89.2251482,30 L2.77485177,30 C1.67028227,30 0.774851773,29.1045695 0.774851773,28 C0.774851773,27.7850358 0.809507531,27.5714774 0.877485177,27.3675445 L8.17660738,5.47017787 C9.26551975,2.20344076 12.3226305,-4.69652025e-15 15.7660738,-5.32907052e-15 Z" id="path-10"></path>
        <linearGradient x1="72.2222222%" y1="0%" x2="27.7777778%" y2="100%" id="linearGradient-12">
            <stop stop-color="#5E5E5E" offset="0%"></stop>
            <stop stop-color="#1A1A1A" offset="100%"></stop>
        </linearGradient>
    </defs>
    <g id="UI-Set" stroke="none" stroke-width="1" fill="none" fill-rule="evenodd">
        <g id="00.-cars" transform="translate(-369.000000, -3096.000000)">
            <g id="Group-23" transform="translate(370.000000, 3096.000000)">
                <path d="M5,73 L19,73 L19,88 C19,89.1045695 18.1045695,90 17,90 L7,90 C5.8954305,90 5,89.1045695 5,88 L5,73 Z" id="Rectangle-20" fill="#1A1A1A"></path>
                <path d="M81,73 L95,73 L95,88 C95,89.1045695 94.1045695,90 93,90 L83,90 C81.8954305,90 81,89.1045695 81,88 L81,73 Z" id="Rectangle-20" fill="#1A1A1A"></path>
                <g id="Group-19">
                    <mask id="mask-3" fill="white">
                        <use xlink:href="#path-2"></use>
                    </mask>
                    <use id="Rectangle-26" fill="url(#linearGradient-1)" xlink:href="#path-2"></use>
                </g>
                <g id="Group-2" transform="translate(0.000000, 6.000000)">
                    <mask id="mask-6" fill="white">
                        <use xlink:href="#path-5"></use>
                    </mask>
                    <use id="Rectangle-6" fill="url(#linearGradient-4)" xlink:href="#path-5"></use>
                    <g id="Group-22" mask="url(#mask-6)">
                        <g transform="translate(18.000000, 40.000000)">
                            <mask id="mask-8" fill="white">
                                <use xlink:href="#path-7"></use>
                            </mask>
                            <use id="Rectangle-21" stroke="none" fill-opacity="0" fill="#FFFFFF" fill-rule="evenodd" xlink:href="#path-7"></use>
                            <rect id="Rectangle-18" stroke="none" fill="#404040" fill-rule="evenodd" mask="url(#mask-8)" x="0" y="4" width="64" height="1"></rect>
                            <rect id="Rectangle-18" stroke="none" fill="#404040" fill-rule="evenodd" mask="url(#mask-8)" x="0" y="6" width="64" height="1"></rect>
                            <rect id="Rectangle-18" stroke="none" fill="#404040" fill-rule="evenodd" mask="url(#mask-8)" x="0" y="8" width="64" height="1"></rect>
                            <rect id="Rectangle-18" stroke="none" fill="#404040" fill-rule="evenodd" mask="url(#mask-8)" x="0" y="10" width="64" height="1"></rect>
                            <rect id="Rectangle-18" stroke="none" fill="#404040" fill-rule="evenodd" mask="url(#mask-8)" x="0" y="12" width="64" height="1"></rect>
                            <rect id="Rectangle-18" stroke="none" fill="#404040" fill-rule="evenodd" mask="url(#mask-8)" x="0" y="14" width="64" height="1"></rect>
                            <rect id="Rectangle-18" stroke="none" fill="#404040" fill-rule="evenodd" mask="url(#mask-8)" x="0" y="16" width="64" height="1"></rect>
                            <rect id="Rectangle-18" stroke="none" fill="#404040" fill-rule="evenodd" mask="url(#mask-8)" x="0" y="18" width="64" height="1"></rect>
                            <rect id="Rectangle-18" stroke="none" fill="#404040" fill-rule="evenodd" mask="url(#mask-8)" x="0" y="20" width="64" height="1"></rect>
                            <rect id="Rectangle-18" stroke="none" fill="#404040" fill-rule="evenodd" mask="url(#mask-8)" x="0" y="22" width="64" height="1"></rect>
                            <rect id="Rectangle-18" stroke="none" fill="#404040" fill-rule="evenodd" mask="url(#mask-8)" x="0" y="24" width="64" height="1"></rect>
                            <rect id="Rectangle-18" stroke="none" fill="#404040" fill-rule="evenodd" mask="url(#mask-8)" x="0" y="26" width="64" height="1"></rect>
                        </g>
                    </g>
                    <g id="Group-3" mask="url(#mask-6)">
                        <g transform="translate(4.000000, 3.000000)">
                            <mask id="mask-11" fill="white">
                                <use xlink:href="#path-10"></use>
                            </mask>
                            <use id="Rectangle-22" stroke="none" fill="url(#linearGradient-9)" fill-rule="evenodd" xlink:href="#path-10"></use>
                            <rect id="Rectangle" stroke="none" fill-opacity="0.6" fill="#404040" fill-rule="nonzero" mask="url(#mask-11)" x="41" y="2" width="10" height="4" rx="2"></rect>
                            <circle id="Oval" stroke="#404040" stroke-width="2" fill-opacity="0" fill="#FFFFFF" fill-rule="evenodd" mask="url(#mask-11)" cx="75" cy="32" r="6"></circle>
                        </g>
                    </g>
                </g>
                <path d="M1.89900412,27 L3.88427296,27 C6.15732624,27 8,28.8426738 8,31.115727 L8,37 C8,38.1045695 7.1045695,39 6,39 L4.26366467,39 C2.16306365,39 0.424104826,37.367526 0.291544465,35.2711118 L-0.0970095547,29.1262118 C-0.166714429,28.0238439 0.670424364,27.0736912 1.77279227,27.0039863 C1.81481044,27.0013294 1.85690203,27 1.89900412,27 Z" id="Rectangle-23" fill="url(#linearGradient-12)"></path>
                <path d="M93.8990041,27 L95.884273,27 C98.1573262,27 100,28.8426738 100,31.115727 L100,37 C100,38.1045695 99.1045695,39 98,39 L96.2636647,39 C94.1630636,39 92.4241048,37.367526 92.2915445,35.2711118 L91.9029904,29.1262118 C91.8332856,28.0238439 92.6704244,27.0736912 93.7727923,27.0039863 C93.8148104,27.0013294 93.856902,27 93.8990041,27 Z" id="Rectangle-23" fill="url(#linearGradient-12)" transform="translate(96.000000, 33.000000) scale(-1, 1) translate(-96.000000, -33.000000) "></path>
                <path d="M1,44.8333333 C1,43.4130625 2.30154851,43 3.60309702,43 L4.90464553,43 C8.79124386,43 13.9450085,46.2039302 15.2311984,49.7563324 C15.9138077,51.6416702 16.5649104,54 15.1987279,54 C10.1108396,54 1,50.3333333 1,44.8333333 Z" id="Fill-13" fill="#FFEC7D"></path>
                <path d="M84,44.8333333 C84,43.4130625 85.3015485,43 86.603097,43 L87.9046455,43 C91.7912439,43 96.9450085,46.2039302 98.2311984,49.7563324 C98.9138077,51.6416702 99.5649104,54 98.1987279,54 C93.1108396,54 84,50.3333333 84,44.8333333 Z" id="Fill-13" fill="#FFEC7D" transform="translate(91.500000, 48.500000) scale(-1, 1) translate(-91.500000, -48.500000) "></path>
            </g>
        </g>
    </g>
</svg>