<?xml version="1.0" encoding="UTF-8"?>
<svg width="210px" height="90px" viewBox="0 0 210 90" version="1.1" xmlns="http://www.w3.org/2000/svg" xmlns:xlink="http://www.w3.org/1999/xlink">
    <!-- Generator: Sketch 53.2 (72643) - https://sketchapp.com -->
    <title>Group 18</title>
    <desc>Created with Sketch.</desc>
    <defs>
        <linearGradient x1="91.3766044%" y1="0%" x2="19.496024%" y2="102.655901%" id="linearGradient-1">
            <stop stop-color="#EBEBEB" offset="0%"></stop>
            <stop stop-color="#D4D4D4" offset="100%"></stop>
        </linearGradient>
        <linearGradient x1="50%" y1="0%" x2="50%" y2="98.4813457%" id="linearGradient-2">
            <stop stop-color="#F2F2F2" offset="0%"></stop>
            <stop stop-color="#C4C4C4" offset="100%"></stop>
        </linearGradient>
        <path d="M3.81987775e-11,65.0000007 L3.82724963e-11,7.00000068 C3.82720228e-11,3.13400743 3.13400675,6.8000271e-07 7,6.80002668e-07 L21.5,6.80002441e-07 C33.7410936,6.80002308e-07 45.0262686,6.61610704 51.0050603,17.2977933 C55.0330302,24.4941393 59.0531113,29.3948757 63.0653076,32 C73.0653076,38.4930132 80,43.5 80,64.0000007 C80,68.4159045 78.0568848,71.0000007 75,71.0000007 L63.0653076,71.0000007 C63.0653076,60.0000007 55,51.0000007 44,51.0000007 C25,51.0000007 25,71.0000007 18,71.0000007 L6,71.0000007 C2.6862915,71.0000007 3.82045124e-11,68.3137092 3.82041065e-11,65.0000007 Z" id="path-3"></path>
        <linearGradient x1="84.0282645%" y1="35.319992%" x2="1.72505803%" y2="66.7891438%" id="linearGradient-5">
            <stop stop-color="#5E5E5E" offset="0%"></stop>
            <stop stop-color="#1A1A1A" offset="100%"></stop>
        </linearGradient>
        <linearGradient x1="72.2222222%" y1="0%" x2="27.7777778%" y2="100%" id="linearGradient-6">
            <stop stop-color="#5E5E5E" offset="0%"></stop>
            <stop stop-color="#1A1A1A" offset="100%"></stop>
        </linearGradient>
        <linearGradient x1="50%" y1="0%" x2="50%" y2="98.4813457%" id="linearGradient-7">
            <stop stop-color="#F2F2F2" offset="0%"></stop>
            <stop stop-color="#C4C4C4" offset="100%"></stop>
        </linearGradient>
    </defs>
    <g id="UI-Set" stroke="none" stroke-width="1" fill="none" fill-rule="evenodd">
        <g id="00.-cars" transform="translate(-128.000000, -3096.000000)">
            <g id="Group-18" transform="translate(128.000000, 3096.000000)">
                <g id="Group" transform="translate(159.000000, 60.000000)">
                    <path d="M30,15 C30,23.2840909 23.2840909,30 15,30 C6.71590909,30 0,23.2840909 0,15 C0,6.71590909 6.71590909,0 15,0 C23.2840909,0 30,6.71590909 30,15" id="Fill-3" fill="#1A1A1A"></path>
                    <path d="M25,15 C25,20.5227273 20.5227273,25 15,25 C9.47727273,25 5,20.5227273 5,15 C5,9.47727273 9.47727273,5 15,5 C20.5227273,5 25,9.47727273 25,15" id="Fill-3" fill="url(#linearGradient-1)"></path>
                </g>
                <g id="Group-21" transform="translate(130.000000, 6.000000)">
                    <mask id="mask-4" fill="white">
                        <use xlink:href="#path-3"></use>
                    </mask>
                    <use id="Fill-1" fill="url(#linearGradient-2)" xlink:href="#path-3"></use>
                    <path d="M62,38.8333333 C62,37.4130625 63.3015485,37 64.603097,37 L65.9046455,37 C69.7912439,37 74.9450085,40.2039302 76.2311984,43.7563324 C76.9138077,45.6416702 77.5649104,48 76.1987279,48 C71.1108396,48 62,44.3333333 62,38.8333333 Z" id="Fill-13" fill="#FFEC7D" mask="url(#mask-4)"></path>
                    <path d="M18.5,43 L13.5,43 C12.12,43 11,42.104 11,41 L11,41 C11,39.896 12.12,39 13.5,39 L18.5,39 C19.88,39 21,39.896 21,41 L21,41 C21,42.104 19.88,43 18.5,43" id="Fill-7" fill="#404040" mask="url(#mask-4)"></path>
                    <path d="M7,3.01215587 L18.5,3.01215587 C25.1306152,2.944401 33.6730898,2.944401 43.0140381,11.7947998 C46.4097676,15.0121991 50.2625843,21.126269 54.5724881,30.1370095 L54.5724982,30.1370047 C55.0491112,31.1334622 54.6276939,32.3276217 53.6312365,32.8042347 C53.3618008,32.9331078 53.0669225,33 52.7682524,33 L15,33 C8.372583,33 3,27.627417 3,21 L3,7.01215587 C3,4.80301687 4.790861,3.01215587 7,3.01215587 Z" id="Combined-Shape" fill="url(#linearGradient-5)" mask="url(#mask-4)"></path>
                    <path d="M48.8990041,21 L50.884273,21 C53.1573262,21 55,22.8426738 55,25.115727 L55,31 C55,32.1045695 54.1045695,33 53,33 L51.2636647,33 C49.1630636,33 47.4241048,31.367526 47.2915445,29.2711118 L46.9029904,23.1262118 C46.8332856,22.0238439 47.6704244,21.0736912 48.7727923,21.0039863 C48.8148104,21.0013294 48.856902,21 48.8990041,21 Z" id="Rectangle-23" fill="url(#linearGradient-6)" mask="url(#mask-4)"></path>
                </g>
                <path d="M7.6916556,-3.10752092e-16 L122.308344,3.10752092e-16 C124.982901,-1.80555915e-16 125.952759,0.278476833 126.930537,0.801398111 C127.908315,1.32431939 128.675681,2.09168511 129.198602,3.06946289 C129.721523,4.04724067 130,5.01709938 130,7.6916556 L130,65 L0,65 L2.07168062e-16,7.6916556 C-1.2037061e-16,5.01709938 0.278476833,4.04724067 0.801398111,3.06946289 C1.32431939,2.09168511 2.09168511,1.32431939 3.06946289,0.801398111 C4.04724067,0.278476833 5.01709938,1.80555915e-16 7.6916556,-3.10752092e-16 Z" id="Rectangle-26" fill="url(#linearGradient-7)"></path>
                <path d="M0,65 L130,65 L130,65 C130,69.9705627 125.970563,74 121,74 L9,74 C4.02943725,74 6.08718376e-16,69.9705627 0,65 L0,65 Z" id="Rectangle-26" fill="#404040"></path>
                <g id="Group" transform="translate(37.000000, 60.000000)">
                    <path d="M30,15 C30,23.2840909 23.2840909,30 15,30 C6.71590909,30 0,23.2840909 0,15 C0,6.71590909 6.71590909,0 15,0 C23.2840909,0 30,6.71590909 30,15" id="Fill-3" fill="#1A1A1A"></path>
                    <path d="M25,15 C25,20.5227273 20.5227273,25 15,25 C9.47727273,25 5,20.5227273 5,15 C5,9.47727273 9.47727273,5 15,5 C20.5227273,5 25,9.47727273 25,15" id="Fill-3" fill="url(#linearGradient-1)"></path>
                </g>
            </g>
        </g>
    </g>
</svg>