<?xml version="1.0" encoding="UTF-8"?>
<svg width="140px" height="60px" viewBox="0 0 140 60" version="1.1" xmlns="http://www.w3.org/2000/svg" xmlns:xlink="http://www.w3.org/1999/xlink">
    <!-- Generator: Sketch 55.2 (78181) - https://sketchapp.com -->
    <title>Preloader-car</title>
    <desc>Created with Sketch.</desc>
    <g id="02.-Brand" stroke="none" stroke-width="1" fill="none" fill-rule="evenodd" fill-opacity="0.09">
        <g id="02.1.4-Brand-1440" transform="translate(-64.000000, -142.000000)" fill="#000000" fill-rule="nonzero">
            <path d="M203.564646,179.246218 L203.997382,187.9 C204.053423,189.003 203.202813,189.942 202.099021,189.997 C202.064997,189.999 202.031973,190 201.99895,190 L200.024534,190 C197.052403,190 194.295426,188.204 193.318726,185.398 C191.41436,179.926 186.207627,176 180.083235,176 C174.157987,176 169.091354,179.675 167.043886,184.869 C165.829015,187.949 162.889907,190 159.578533,190 L112.524794,190 C109.212419,189.999 106.273311,187.949 105.059441,184.869 C103.010972,179.675 97.9453399,176 92.0200913,176 C85.3383002,176 79.748292,180.674 78.3482882,186.929 C77.9439983,188.735 76.3128287,190 74.4605005,190 L68.0028702,190 C65.7922851,190 64,188.209 64,186 L64,180 L68,180 C69.1045695,180 70,179.104569 70,178 L70,176 C70,173.790861 68.209139,172 66,172 L64,172 L64,171 C64,166.029 68.031891,162 73.0064579,162 L80.0485073,162 C82.5092717,162 84.7889063,160.709 86.054814,158.601 L90.192781,151.709 C93.810375,145.685 100.325046,142 107.355087,142 L123.520678,142 C130.694822,142 137.661818,144.407 143.302863,148.836 L154.655002,157.748 C158.212553,160.541 162.393551,162.431 166.84074,163.258 L198.440398,169.133 C200.773581,169.56669 202.591836,171.31812 203.160409,173.54791 C202.428569,172.606061 201.285008,172 200,172 L199,172 C197.895,172 197,172.895 197,174 L197,175 C197,177.761 199.239,180 202,180 C202.633666,180 203.198273,179.705681 203.564646,179.246218 Z M148.660084,161.9996 C149.615084,161.9996 150.027084,160.7896 149.270084,160.2066 L139.918084,153.0136 C134.849084,149.1136 128.632084,146.9996 122.237084,146.9996 L122.100084,146.9996 C119.891084,146.9996 118.100084,148.7906 118.100084,150.9996 L118.100084,156.9996 C118.100084,159.7606 120.339084,161.9996 123.100084,161.9996 L148.660084,161.9996 Z M95.3987844,161.9996 L109.099784,161.9996 C111.309784,161.9996 113.099784,160.2086 113.099784,157.9996 L113.099784,150.9996 C113.099784,148.7906 111.309784,146.9996 109.099784,146.9996 L107.592784,146.9996 C102.323784,146.9996 97.4417844,149.7646 94.7307844,154.2826 L92.8267844,157.4566 C91.6267844,159.4556 93.0667844,161.9996 95.3987844,161.9996 Z M120.5,170 L123.5,170 C124.328,170 125,169.328 125,168.5 C125,167.672 124.328,167 123.5,167 L120.5,167 C119.672,167 119,167.672 119,168.5 C119,169.328 119.672,170 120.5,170 Z M93.5,170 L96.5,170 C97.328,170 98,169.328 98,168.5 C98,167.672 97.328,167 96.5,167 L93.5,167 C92.672,167 92,167.672 92,168.5 C92,169.328 92.672,170 93.5,170 Z M169,191 C169,184.925 173.925,180 180,180 C186.075,180 191,184.925 191,191 C191,197.075 186.075,202 180,202 C173.925,202 169,197.075 169,191 Z M175,191 C175,193.761 177.239,196 180,196 C182.761,196 185,193.761 185,191 C185,188.239 182.761,186 180,186 C177.239,186 175,188.239 175,191 Z M81,191 C81,184.925 85.925,180 92,180 C98.075,180 103,184.925 103,191 C103,197.075 98.075,202 92,202 C85.925,202 81,197.075 81,191 Z M87,191 C87,193.761 89.239,196 92,196 C94.761,196 97,193.761 97,191 C97,188.239 94.761,186 92,186 C89.239,186 87,188.239 87,191 Z" id="Preloader-car" transform="translate(134.000000, 172.000000) scale(-1, 1) translate(-134.000000, -172.000000) "></path>
        </g>
    </g>
</svg>