<?xml version="1.0" encoding="UTF-8"?>
<svg width="181px" height="56px" viewBox="0 0 181 56" version="1.1" xmlns="http://www.w3.org/2000/svg" xmlns:xlink="http://www.w3.org/1999/xlink">
    <!-- Generator: Sketch 50 (54983) - http://www.bohemiancoding.com/sketch -->
    <title>Logo/</title>
    <desc>Created with Sketch.</desc>
    <defs>
        <linearGradient x1="100%" y1="0%" x2="0%" y2="100%" id="linearGradient-1">
            <stop stop-color="#00BDA3" offset="0%"></stop>
            <stop stop-color="#039B87" offset="100%"></stop>
        </linearGradient>
    </defs>
    <g id="Symbols" stroke="none" stroke-width="1" fill="none" fill-rule="evenodd">
        <g id="Footer-/-3" transform="translate(-64.000000, -64.000000)">
            <g id="Logo/" transform="translate(64.000000, 64.000000)">
                <path d="M107.838614,28.4481282 C105.35515,28.4481282 102.830601,30.0033038 102.830601,33.8313954 C102.830601,37.0618687 104.753435,39.1761893 107.838614,39.1761893 C110.923792,39.1761893 112.847054,37.0618687 112.847054,33.8313954 C112.847054,30.0033038 110.322934,28.4481282 107.838614,28.4481282 Z M107.838614,42.6853802 C102.750573,42.6853802 98.8240204,38.9368 98.8240204,33.7916397 C98.8240204,28.6080061 102.750573,24.9385099 107.838614,24.9385099 C112.926655,24.9385099 116.853207,28.6080061 116.853207,33.7916397 C116.853207,38.9368 112.926655,42.6853802 107.838614,42.6853802 Z M94.9697939,28.9662351 L94.9697939,42.1672733 L91.0440977,42.1672733 L91.0440977,28.9662351 L89.4007233,28.9662351 L89.4007233,25.3775328 L91.0440977,25.3775328 L91.0440977,19.2359145 L94.9697939,19.2359145 L94.9697939,25.3775328 L97.9753716,25.3775328 L97.9753716,28.9662351 L94.9697939,28.9662351 Z M85.0419294,40.6112427 C83.5196683,42.1266626 81.4363489,42.6853802 79.5537436,42.6853802 C77.8307683,42.6853802 75.7474489,42.1672733 74.2251877,40.6112427 C72.6622702,39.0569221 72.4217555,37.2615023 72.4217555,35.1078534 L72.4217555,25.3775328 L76.3483076,25.3775328 L76.3483076,34.9885863 C76.3483076,35.9850443 76.388964,37.1422351 77.0698517,38.0189985 C77.5902536,38.6974107 78.5120839,39.1761893 79.6337726,39.1761893 C80.7550332,39.1761893 81.6768636,38.6974107 82.1981214,38.0189985 C82.8790091,37.1422351 82.9188095,35.9850443 82.9188095,34.9885863 L82.9188095,25.3775328 L86.8453617,25.3775328 L86.8453617,35.1078534 C86.8453617,37.2615023 86.604847,39.0569221 85.0419294,40.6112427 Z M60.0493716,28.4481282 C57.2055636,28.4481282 55.3623309,30.8411664 55.3623309,33.8313954 C55.3623309,36.7433954 57.2055636,39.1761893 60.0493716,39.1761893 C62.5341195,39.1761893 64.8177252,37.3816244 64.8177252,33.8720061 C64.8177252,30.2029374 62.5341195,28.4481282 60.0493716,28.4481282 Z M64.5776384,42.1672733 L64.5776384,40.4116092 C62.8546631,42.4066626 60.7306873,42.6853802 59.5289697,42.6853802 C54.3206711,42.6853802 51.3557498,38.3780824 51.3557498,33.751884 C51.3557498,28.2882504 55.1222441,24.9385099 59.5687702,24.9385099 C60.8111441,24.9385099 62.9749204,25.2574107 64.5776384,27.3315481 L64.5776384,25.3775328 L68.5037626,25.3775328 L68.5037626,42.1672733 L64.5776384,42.1672733 Z" id="Fill-6" fill="#FFFFFF"></path>
                <path d="M177.594893,28.9662779 L177.594893,42.167316 L173.668769,42.167316 L173.668769,28.9662779 L172.02625,28.9662779 L172.02625,25.3771481 L173.668769,25.3771481 L173.668769,19.2359573 L177.594893,19.2359573 L177.594893,25.3771481 L180.599615,25.3771481 L180.599615,28.9662779 L177.594893,28.9662779 Z M161.496671,28.448171 C159.012351,28.448171 156.489087,30.0033466 156.489087,33.8314382 C156.489087,37.0619115 158.411493,39.1758046 161.496671,39.1758046 C164.582278,39.1758046 166.504684,37.0619115 166.504684,33.8314382 C166.504684,30.0033466 163.981419,28.448171 161.496671,28.448171 Z M161.496671,42.6854229 C156.40863,42.6854229 152.48165,38.9368427 152.48165,33.7916824 C152.48165,28.6080489 156.40863,24.9385527 161.496671,24.9385527 C166.58514,24.9385527 170.511265,28.6080489 170.511265,33.7916824 C170.511265,38.9368427 166.58514,42.6854229 161.496671,42.6854229 Z M141.57632,28.448171 C139.092,28.448171 136.808394,30.2029802 136.808394,33.8720489 C136.808394,37.3816672 139.092,39.1758046 141.57632,39.1758046 C144.421412,39.1758046 146.264645,36.7434382 146.264645,33.8314382 C146.264645,30.8412092 144.421412,28.448171 141.57632,28.448171 Z M142.096722,42.6854229 C141.176175,42.6854229 138.812113,42.3660947 137.049337,40.2133008 L137.049337,51.2991634 L133.122357,51.2991634 L133.122357,25.3771481 L137.049337,25.3771481 L137.049337,27.2123237 C138.491141,25.4972702 140.374175,24.9385527 142.057349,24.9385527 C146.504731,24.9385527 150.27037,28.3280489 150.27037,33.6724153 C150.27037,39.3356824 146.103731,42.6854229 142.096722,42.6854229 Z M124.244712,28.448171 C123.72431,28.448171 122.962537,28.7268885 122.962537,29.5249954 C122.962537,30.5620641 124.043997,30.9609038 125.20677,31.5187664 C127.089803,32.3963847 127.890948,32.8747359 128.412206,33.2338198 C130.135182,34.4696672 130.454869,35.8658198 130.454869,36.9824 C130.454869,40.1726901 127.770691,42.6854229 124.285368,42.6854229 C123.72431,42.6854229 119.957815,42.5653008 118.435554,38.5380031 L121.720591,37.0221557 C122.081791,38.0989802 123.003194,39.1758046 124.485226,39.1758046 C125.687372,39.1758046 126.448288,38.4576366 126.448288,37.3816672 C126.448288,36.1449649 125.447285,35.6666137 124.645712,35.267774 C122.962537,34.4696672 122.161392,34.1905221 121.280646,33.633087 C119.878214,32.714858 119.2765,31.5585221 119.2765,29.9635908 C119.2765,26.7737282 121.64099,24.9385527 124.565255,24.9385527 C127.050003,24.9385527 128.612065,26.4937282 129.373409,28.2485374 L126.128173,29.9635908 C125.766973,29.0068885 125.046712,28.448171 124.244712,28.448171 Z" id="Fill-8" fill="#02C5AB"></path>
                <path d="M41.0843602,0.427480916 L11.8845071,16.5383817 C4.86678483,19.7940763 0,26.88 0,35.1017405 C0,46.4060458 9.19647725,55.5746565 20.5426081,55.5746565 C31.8399512,55.5746565 41.0064711,46.4804275 41.0809365,35.2393893 L41.0843602,35.2415267 L41.0843602,0.427480916 Z" id="Fill-1" fill="url(#linearGradient-1)"></path>
                <path d="M20.5421801,14.6318168 C9.19690521,14.6318168 0,23.7970076 0,35.1034504 C0,46.4094656 9.19690521,55.5746565 20.5421801,55.5746565 C31.887455,55.5746565 41.0843602,46.4094656 41.0843602,35.1034504 C41.0843602,23.7970076 31.887455,14.6318168 20.5421801,14.6318168" id="Fill-4" fill="#02C5AB"></path>
                <path d="M32.5980432,36.2556824 C32.5081712,37.0071939 32.0031759,38.2430412 32.0031759,38.2430412 C32.0031759,38.2430412 31.9133039,39.9816061 31.6715053,40.5048427 C31.426711,41.0246595 30.9058811,41.4692397 30.2566627,41.4692397 C29.372493,41.4692397 30.4637963,39.693484 27.4209859,39.693484 L20.3292262,39.693484 L20.1884266,39.693484 L13.2378944,39.693484 C10.195084,39.693484 11.2859593,41.4692397 10.4013617,41.4692397 C9.75342711,41.4692397 9.23302521,41.0246595 8.98737498,40.5048427 C8.7455764,39.9816061 8.65570436,38.2430412 8.65570436,38.2430412 C8.65570436,38.2430412 8.14985318,37.0071939 8.06083706,36.2556824 C7.94400341,35.2558046 8.13102284,34.9151023 8.7986437,33.5805069 C9.60834796,31.9577893 10.8002224,31.8333924 12.1050788,33.1696977 C13.366283,34.4576977 13.9962432,36.3984611 13.9962432,36.3984611 C13.9962432,36.3984611 12.4367494,35.8568427 12.0507276,35.7264611 C11.9702707,35.9927817 10.9328906,36.6122015 10.3919465,35.8205069 C9.935311,35.1476519 10.4287513,34.440171 10.8712641,34.2785832 C11.3129209,34.1187053 12.3199157,34.6427969 12.3199157,34.6427969 C12.3199157,34.6427969 11.5277579,33.735255 10.8083536,33.6724153 C10.0868096,33.6065832 9.84115934,34.0768122 9.72518161,34.4696672 C9.63573754,34.7731786 9.24115649,36.1180336 10.5353138,36.522858 C11.2940906,36.7571176 11.6090707,36.7365985 12.0066475,36.8212397 C12.4003726,36.8973313 12.7080773,37.2649649 12.7080773,37.2649649 C12.7080773,37.2649649 13.4822608,37.6697893 13.9962432,37.7052702 C14.5080859,37.7416061 14.6450337,37.8702779 14.6715674,37.351316 C14.6993849,36.8332092 14.1494536,34.9048427 13.7788385,34.1729954 C13.3572958,33.3270107 12.4542958,32.233942 12.0143508,31.8462168 C11.75201,31.2721099 12.3926693,31.0498198 12.3926693,31.0498198 L20.1884266,31.0498198 L20.3292262,31.0498198 L28.2670669,31.0498198 C28.2670669,31.0498198 28.9060143,31.2721099 28.6428176,31.8462168 C28.2037285,32.233942 27.3024404,33.3270107 26.8804698,34.1729954 C26.5089987,34.9048427 25.9594954,36.8332092 25.986029,37.351316 C26.0129906,37.8702779 26.1507944,37.7416061 26.6609252,37.7052702 C27.1757636,37.6697893 27.949947,37.2649649 27.949947,37.2649649 C27.949947,37.2649649 28.2572238,36.8973313 28.6522328,36.8212397 C29.0489536,36.7365985 29.3630778,36.7571176 30.1222826,36.522858 C31.4168679,36.1180336 31.0222868,34.7731786 30.9319868,34.4696672 C30.8151532,34.0768122 30.5707868,33.6065832 29.8505266,33.6724153 C29.1302664,33.735255 28.3385366,34.6427969 28.3385366,34.6427969 C28.3385366,34.6427969 29.3459593,34.1187053 29.7884721,34.2785832 C30.2314129,34.440171 30.7235693,35.1476519 30.2669337,35.8205069 C29.7268456,36.6122015 28.6886096,35.9927817 28.6072968,35.7264611 C28.2225589,35.8568427 26.6609252,36.3984611 26.6609252,36.3984611 C26.6609252,36.3984611 27.2925973,34.4576977 28.5542295,33.1696977 C29.8590859,31.8333924 31.0488205,31.9577893 31.8593807,33.5805069 C32.5261456,34.9151023 32.7140209,35.2558046 32.5980432,36.2556824 M13.4428882,25.2228275 C14.2046608,24.9500947 19.5841442,24.9034992 20.2590404,24.8983695 C20.9420679,24.9034992 26.3831778,24.9500947 27.1449503,25.2228275 C27.9345404,25.5049649 29.4910385,29.3907664 29.7482437,30.0905527 C29.7743494,30.1598046 29.6921807,30.2132397 29.6921807,30.2132397 L27.7500887,30.2132397 C27.3876048,29.4754076 26.460211,28.9906443 25.3680518,28.9906443 C24.2788882,28.9906443 23.3502105,29.4754076 22.9872987,30.2132397 L20.3292262,30.2132397 L20.1884266,30.2132397 L10.9658437,30.2132397 C10.9658437,30.2132397 10.84901,30.1598046 10.8746878,30.0905527 C11.1327489,29.3907664 12.6541541,25.5049649 13.4428882,25.2228275 M31.7138736,32.0176366 L31.5354134,31.1883237 C31.5354134,31.1883237 32.5158745,30.8206901 33.0482593,30.6146443 C33.5806442,30.408171 33.4432683,29.4514687 33.1295721,29.2732092 C32.815448,29.0923847 31.6612342,29.1133313 31.3804911,29.2475603 C31.1027437,29.3813618 31.2281366,29.5519267 31.1476797,30.4607511 C30.6341252,29.052629 29.9754916,27.4726595 28.8974551,25.7516214 C28.2028726,24.6453008 27.8391048,24.5674992 27.1817551,24.4332702 C25.2589214,24.0340031 21.1359347,23.9536366 20.3292262,23.9416672 L20.3292262,23.9395298 C20.3292262,23.9395298 20.3035484,23.9399573 20.2590404,23.9403847 C20.2145323,23.9399573 20.1884266,23.9395298 20.1884266,23.9395298 L20.1884266,23.9416672 C19.3885655,23.9536366 15.3280612,24.0344305 13.4065115,24.4332702 C12.7487337,24.5674992 12.4542958,24.6453008 11.7614252,25.7516214 C10.6816769,27.4726595 10.0238991,29.052629 9.51034464,30.4607511 C9.42988777,29.5519267 9.55528066,29.3813618 9.27667735,29.2475603 C8.99679014,29.1133313 7.8425764,29.0923847 7.52845223,29.2732092 C7.21475602,29.4514687 7.07738019,30.408171 7.6089091,30.6146443 C8.14129393,30.8206901 9.12218303,31.1883237 9.12218303,31.1883237 L8.94243896,32.0176366 C8.94243896,32.0176366 6.41831858,34.6252702 7.51004986,38.193026 C7.55498588,41.8975756 7.61661242,44.8882321 7.61661242,44.8882321 L10.9405939,44.8754076 C10.9405939,44.8754076 10.9110645,43.410858 10.9110645,43.1150412 C10.9110645,42.8183695 11.6257612,42.8222168 11.6257612,42.8222168 L20.1884266,42.8299115 L20.2590404,42.8299115 L20.3292262,42.8299115 L28.9629333,42.8222168 C28.9629333,42.8222168 29.7127228,42.8183695 29.7127228,43.1150412 C29.7127228,43.410858 29.7007399,44.8754076 29.7007399,44.8754076 L33.0328527,44.8882321 C33.0328527,44.8882321 33.0991868,41.8975756 33.142839,38.193026 C34.2345702,34.6252702 31.7138736,32.0176366 31.7138736,32.0176366 M29.36051,39.5200122 C29.5094409,39.7769282 29.7520954,39.8115542 29.8851916,39.9957985 C30.004593,40.1608061 30.015292,40.4844092 30.0957489,40.622913 C30.2652219,40.9195847 31.0851973,40.5805924 31.1451119,40.2518595 C31.2272807,39.8089893 31.5538157,39.0668824 31.4258551,38.7924397 C31.2940427,38.5124397 29.0810508,39.0314015 29.36051,39.5200122 M9.23285403,38.792226 C9.10403744,39.0670962 9.4318564,39.8092031 9.51231327,40.2520733 C9.57393981,40.5808061 10.3939152,40.9197985 10.5629602,40.6231267 C10.6425611,40.4841954 10.6536882,40.1605924 10.7722336,39.9960122 C10.9066137,39.8117679 11.1505521,39.777142 11.2977711,39.5197985 C11.5785142,39.0316153 9.36466635,38.5126534 9.23285403,38.792226 M24.5888184,34.5693985 C23.3832492,34.5693985 20.9541364,34.5608489 20.3900824,34.5587115 L20.3900824,34.558284 C20.3900824,34.558284 20.3648326,34.5587115 20.3293118,34.5587115 C20.2937909,34.5587115 20.2689691,34.558284 20.2689691,34.558284 L20.2689691,34.5587115 C19.7049151,34.5608489 17.2745184,34.5693985 16.071089,34.5693985 C14.7020383,34.5693985 15.1248648,35.8364519 15.1248648,35.8364519 C15.1248648,35.8364519 15.3585321,36.6003603 15.4980478,36.9453374 C15.6384193,37.2894595 16.1515459,38.0097649 17.0857871,38.0097649 C17.9348639,38.0097649 19.9693956,37.9999328 20.3293118,37.9982229 C20.6892279,37.9999328 22.7237596,38.0097649 23.5732644,38.0097649 C24.5057937,38.0097649 25.0210601,37.2894595 25.1601478,36.9453374 C25.2996634,36.6003603 25.5333307,35.8364519 25.5333307,35.8364519 C25.5333307,35.8364519 25.9570132,34.5693985 24.5888184,34.5693985" id="Fill-11" fill="#FFFFFF"></path>
            </g>
        </g>
    </g>
</svg>