<?xml version="1.0" encoding="UTF-8"?>
<svg width="129px" height="40px" viewBox="0 0 129 40" version="1.1" xmlns="http://www.w3.org/2000/svg" xmlns:xlink="http://www.w3.org/1999/xlink">
    <!-- Generator: Sketch 50 (54983) - http://www.bohemiancoding.com/sketch -->
    <title>Logo/</title>
    <desc>Created with Sketch.</desc>
    <defs>
        <linearGradient x1="100%" y1="0%" x2="0%" y2="100%" id="linearGradient-1">
            <stop stop-color="#00BDA3" offset="0%"></stop>
            <stop stop-color="#039B87" offset="100%"></stop>
        </linearGradient>
    </defs>
    <g id="Symbols" stroke="none" stroke-width="1" fill="none" fill-rule="evenodd">
        <g id="Header/-3" transform="translate(-64.000000, -33.000000)">
            <g id="Logo/" transform="translate(64.000000, 33.000000)">
                <path d="M77.0275813,20.3200916 C75.2536784,20.3200916 73.4504296,21.4309313 73.4504296,24.1652824 C73.4504296,26.4727634 74.8238822,27.9829924 77.0275813,27.9829924 C79.2312803,27.9829924 80.6050386,26.4727634 80.6050386,24.1652824 C80.6050386,21.4309313 78.8020955,20.3200916 77.0275813,20.3200916 Z M77.0275813,30.4895573 C73.3932661,30.4895573 70.588586,27.812 70.588586,24.1368855 C70.588586,20.4342901 73.3932661,17.8132214 77.0275813,17.8132214 C80.6618964,17.8132214 83.4665765,20.4342901 83.4665765,24.1368855 C83.4665765,27.812 80.6618964,30.4895573 77.0275813,30.4895573 Z M67.8355671,20.6901679 L67.8355671,30.1194809 L65.0314983,30.1194809 L65.0314983,20.6901679 L63.8576595,20.6901679 L63.8576595,18.1268092 L65.0314983,18.1268092 L65.0314983,13.7399389 L67.8355671,13.7399389 L67.8355671,18.1268092 L69.9824083,18.1268092 L69.9824083,20.6901679 L67.8355671,20.6901679 Z M60.7442353,29.0080305 C59.6569059,30.0904733 58.1688206,30.4895573 56.8241026,30.4895573 C55.5934059,30.4895573 54.1053206,30.1194809 53.0179912,29.0080305 C51.9016216,27.8978015 51.7298254,26.6153588 51.7298254,25.0770382 L51.7298254,18.1268092 L54.5345055,18.1268092 L54.5345055,24.9918473 C54.5345055,25.7036031 54.5635457,26.5301679 55.0498941,27.1564275 C55.4216097,27.6410076 56.08006,27.9829924 56.8812661,27.9829924 C57.6821666,27.9829924 58.3406168,27.6410076 58.7129438,27.1564275 C59.1992922,26.5301679 59.2277211,25.7036031 59.2277211,24.9918473 L59.2277211,18.1268092 L62.0324012,18.1268092 L62.0324012,25.0770382 C62.0324012,26.6153588 61.860605,27.8978015 60.7442353,29.0080305 Z M42.8924083,20.3200916 C40.8611168,20.3200916 39.544522,22.0294046 39.544522,24.1652824 C39.544522,26.2452824 40.8611168,27.9829924 42.8924083,27.9829924 C44.6672282,27.9829924 46.2983751,26.7011603 46.2983751,24.1942901 C46.2983751,21.5735267 44.6672282,20.3200916 42.8924083,20.3200916 Z M46.1268846,30.1194809 L46.1268846,28.8654351 C44.8961879,30.2904733 43.3790623,30.4895573 42.5206927,30.4895573 C38.8004794,30.4895573 36.6826784,27.412916 36.6826784,24.1084885 C36.6826784,20.2058931 39.3730315,17.8132214 42.5491216,17.8132214 C43.4365315,17.8132214 44.982086,18.0410076 46.1268846,19.5225344 L46.1268846,18.1268092 L48.931259,18.1268092 L48.931259,30.1194809 L46.1268846,30.1194809 Z" id="Fill-6" fill="#000000"></path>
                <path d="M126.853495,20.6901985 L126.853495,30.1195115 L124.049121,30.1195115 L124.049121,20.6901985 L122.875893,20.6901985 L122.875893,18.1265344 L124.049121,18.1265344 L124.049121,13.7399695 L126.853495,13.7399695 L126.853495,18.1265344 L128.999725,18.1265344 L128.999725,20.6901985 L126.853495,20.6901985 Z M115.354765,20.3201221 C113.580251,20.3201221 111.777919,21.4309618 111.777919,24.165313 C111.777919,26.4727939 113.151066,27.9827176 115.354765,27.9827176 C117.55877,27.9827176 118.931917,26.4727939 118.931917,24.165313 C118.931917,21.4309618 117.129585,20.3201221 115.354765,20.3201221 Z M115.354765,30.4895878 C111.72045,30.4895878 108.915464,27.8120305 108.915464,24.136916 C108.915464,20.4343206 111.72045,17.8132519 115.354765,17.8132519 C118.989386,17.8132519 121.79376,20.4343206 121.79376,24.136916 C121.79376,27.8120305 118.989386,30.4895878 115.354765,30.4895878 Z M101.125943,20.3201221 C99.3514287,20.3201221 97.7202818,21.5735573 97.7202818,24.1943206 C97.7202818,26.7011908 99.3514287,27.9827176 101.125943,27.9827176 C103.158151,27.9827176 104.474746,26.245313 104.474746,24.165313 C104.474746,22.0294351 103.158151,20.3201221 101.125943,20.3201221 Z M101.497659,30.4895878 C100.840125,30.4895878 99.1515092,30.2614962 97.8923836,28.7237863 L97.8923836,36.6422595 L95.0873979,36.6422595 L95.0873979,18.1265344 L97.8923836,18.1265344 L97.8923836,19.437374 C98.9222438,18.2123359 100.267268,17.8132519 101.469535,17.8132519 C104.646237,17.8132519 107.335978,20.2343206 107.335978,24.0517252 C107.335978,28.096916 104.359808,30.4895878 101.497659,30.4895878 Z M88.7462225,20.3201221 C88.3745069,20.3201221 87.8303836,20.5192061 87.8303836,21.0892824 C87.8303836,21.8300458 88.6028552,22.1149313 89.4334073,22.5134046 C90.778431,23.1402748 91.3506775,23.4819542 91.7230045,23.7384427 C92.9537012,24.6211908 93.1820495,25.6184427 93.1820495,26.416 C93.1820495,28.6947786 91.2647794,30.4895878 88.7752628,30.4895878 C88.3745069,30.4895878 85.6841538,30.4037863 84.5968244,27.527145 L86.9432794,26.4443969 C87.2012794,27.2135573 87.8594239,27.9827176 88.9180187,27.9827176 C89.7766941,27.9827176 90.3202059,27.4697405 90.3202059,26.7011908 C90.3202059,25.8178321 89.6052036,25.4761527 89.0326514,25.1912672 C87.8303836,24.6211908 87.2581372,24.4218015 86.6290329,24.0236336 C85.627296,23.3677557 85.1974998,22.5418015 85.1974998,21.4025649 C85.1974998,19.1240916 86.8864216,17.8132519 88.9751822,17.8132519 C90.7500021,17.8132519 91.8657604,18.9240916 92.409578,20.1775267 L90.0915519,21.4025649 C89.8335519,20.7192061 89.3190803,20.3201221 88.7462225,20.3201221 Z" id="Fill-8" fill="#02C5AB"></path>
                <path d="M29.3459716,0.305343511 L8.48893365,11.8131298 C3.47627488,14.138626 0,19.2 0,25.0726718 C0,33.1471756 6.56891232,39.6961832 14.6732915,39.6961832 C22.7428223,39.6961832 29.2903365,33.2003053 29.3435261,25.1709924 L29.3459716,25.1725191 L29.3459716,0.305343511 Z" id="Fill-1" fill="url(#linearGradient-1)"></path>
                <path d="M14.6729858,10.4512977 C6.56921801,10.4512977 0,16.9978626 0,25.0738931 C0,33.1496183 6.56921801,39.6961832 14.6729858,39.6961832 C22.7767536,39.6961832 29.3459716,33.1496183 29.3459716,25.0738931 C29.3459716,16.9978626 22.7767536,10.4512977 14.6729858,10.4512977" id="Fill-4" fill="#02C5AB"></path>
                <path d="M23.2843166,25.896916 C23.2201223,26.4337099 22.8594114,27.316458 22.8594114,27.316458 C22.8594114,27.316458 22.7952171,28.5582901 22.6225038,28.9320305 C22.4476507,29.3033282 22.0756294,29.6208855 21.6119019,29.6208855 C20.9803521,29.6208855 21.7598545,28.3524885 19.5864185,28.3524885 L14.5208758,28.3524885 L14.4203047,28.3524885 L9.45563886,28.3524885 C7.28220284,28.3524885 8.06139953,29.6208855 7.42954408,29.6208855 C6.96673365,29.6208855 6.59501801,29.3033282 6.41955355,28.9320305 C6.24684028,28.5582901 6.18264597,27.316458 6.18264597,27.316458 C6.18264597,27.316458 5.8213237,26.4337099 5.75774076,25.896916 C5.67428815,25.1827176 5.80787346,24.9393588 6.2847455,23.9860763 C6.86310569,22.8269924 7.71444455,22.7381374 8.64648483,23.6926412 C9.54734502,24.6126412 9.99731659,25.9989008 9.99731659,25.9989008 C9.99731659,25.9989008 8.88339242,25.6120305 8.60766256,25.5189008 C8.55019336,25.7091298 7.80920758,26.1515725 7.42281896,25.5860763 C7.09665071,25.1054656 7.44910806,24.6001221 7.76518863,24.4847023 C8.08065782,24.3705038 8.79993981,24.744855 8.79993981,24.744855 C8.79993981,24.744855 8.2341128,24.0966107 7.72025261,24.0517252 C7.20486398,24.0047023 7.02939953,24.3405802 6.94655829,24.6211908 C6.88266967,24.8379847 6.60082607,25.7985954 7.52522417,26.0877557 C8.06720758,26.255084 8.29219336,26.2404275 8.57617678,26.3008855 C8.857409,26.3552366 9.0771981,26.6178321 9.0771981,26.6178321 C9.0771981,26.6178321 9.63018626,26.9069924 9.99731659,26.9323359 C10.3629185,26.9582901 10.4607384,27.0501985 10.479691,26.6795115 C10.4995607,26.3094351 10.1067526,24.9320305 9.84202749,24.4092824 C9.54092559,23.8050076 8.89592559,23.0242443 8.58167915,22.7472977 C8.39429289,22.3372214 8.85190664,22.1784427 8.85190664,22.1784427 L14.4203047,22.1784427 L14.5208758,22.1784427 L20.1907621,22.1784427 C20.1907621,22.1784427 20.6471531,22.3372214 20.4591555,22.7472977 C20.1455204,23.0242443 19.5017431,23.8050076 19.2003355,24.4092824 C18.9349991,24.9320305 18.5424967,26.3094351 18.5614493,26.6795115 C18.5807076,27.0501985 18.6791389,26.9582901 19.043518,26.9323359 C19.4112597,26.9069924 19.9642479,26.6178321 19.9642479,26.6178321 C19.9642479,26.6178321 20.1837313,26.3552366 20.4658806,26.3008855 C20.7492526,26.2404275 20.973627,26.255084 21.5159161,26.0877557 C22.4406199,25.7985954 22.1587763,24.8379847 22.0942763,24.6211908 C22.0108237,24.3405802 21.8362763,24.0047023 21.3218047,24.0517252 C20.8073332,24.0966107 20.2418118,24.744855 20.2418118,24.744855 C20.2418118,24.744855 20.9613995,24.3705038 21.2774801,24.4847023 C21.5938664,24.6001221 21.9454066,25.1054656 21.6192384,25.5860763 C21.2334611,26.1515725 20.491864,25.7091298 20.4337834,25.5189008 C20.1589706,25.6120305 19.043518,25.9989008 19.043518,25.9989008 C19.043518,25.9989008 19.4947123,24.6126412 20.3958782,23.6926412 C21.3279185,22.7381374 22.1777289,22.8269924 22.7567005,23.9860763 C23.2329611,24.9393588 23.3671578,25.1827176 23.2843166,25.896916 M9.60206303,18.0163053 C10.1461863,17.8214962 13.9886744,17.7882137 14.4707431,17.7845496 C14.9586199,17.7882137 18.845127,17.8214962 19.3892502,18.0163053 C19.9532431,18.2178321 21.0650275,20.9934046 21.2487455,21.4932519 C21.2673924,21.5427176 21.2087005,21.5808855 21.2087005,21.5808855 L19.8214919,21.5808855 C19.5625749,21.0538626 18.9001507,20.7076031 18.120037,20.7076031 C17.342063,20.7076031 16.6787218,21.0538626 16.4194991,21.5808855 L14.5208758,21.5808855 L14.4203047,21.5808855 L7.8327455,21.5808855 C7.8327455,21.5808855 7.74929289,21.5427176 7.76763412,21.4932519 C7.95196351,20.9934046 9.03868152,18.2178321 9.60206303,18.0163053 M22.6527668,22.8697405 L22.5252953,22.277374 C22.5252953,22.277374 23.2256246,22.0147786 23.6058995,21.8676031 C23.9861744,21.7201221 23.8880488,21.0367634 23.6639801,20.9094351 C23.4396057,20.7802748 22.6151673,20.7952366 22.4146365,20.8911145 C22.2162455,20.986687 22.3058118,21.1085191 22.2483427,21.7576794 C21.881518,20.7518779 21.4110654,19.6233282 20.6410393,18.3940153 C20.144909,17.6037863 19.8850749,17.5482137 19.4155393,17.4523359 C18.0420867,17.167145 15.0970962,17.1097405 14.5208758,17.1011908 L14.5208758,17.0996641 C14.5208758,17.0996641 14.5025346,17.0999695 14.4707431,17.1002748 C14.4389517,17.0999695 14.4203047,17.0996641 14.4203047,17.0996641 L14.4203047,17.1011908 C13.8489754,17.1097405 10.9486152,17.1674504 9.57607962,17.4523359 C9.10623839,17.5482137 8.89592559,17.6037863 8.40101801,18.3940153 C7.62976919,19.6233282 7.15992796,20.7518779 6.79310332,21.7576794 C6.73563412,21.1085191 6.82520047,20.986687 6.6261981,20.8911145 C6.42627867,20.7952366 5.60184028,20.7802748 5.37746588,20.9094351 C5.15339716,21.0367634 5.05527156,21.7201221 5.43493507,21.8676031 C5.81520995,22.0147786 6.51584502,22.277374 6.51584502,22.277374 L6.3874564,22.8697405 C6.3874564,22.8697405 4.58451327,24.7323359 5.36432133,27.2807328 C5.39641848,29.9268397 5.44043744,32.0630229 5.44043744,32.0630229 L7.81470995,32.0538626 C7.81470995,32.0538626 7.79361754,31.0077557 7.79361754,30.796458 C7.79361754,30.5845496 8.30411517,30.5872977 8.30411517,30.5872977 L14.4203047,30.5927939 L14.4707431,30.5927939 L14.5208758,30.5927939 L20.6878095,30.5872977 C20.6878095,30.5872977 21.2233735,30.5845496 21.2233735,30.796458 C21.2233735,31.0077557 21.2148142,32.0538626 21.2148142,32.0538626 L23.5948948,32.0630229 C23.5948948,32.0630229 23.6422763,29.9268397 23.6734564,27.2807328 C24.4532645,24.7323359 22.6527668,22.8697405 22.6527668,22.8697405 M20.9717929,28.2285802 C21.078172,28.4120916 21.2514967,28.4368244 21.3465654,28.5684275 C21.4318521,28.6862901 21.4394943,28.9174351 21.4969635,29.0163664 C21.6180156,29.2282748 22.2037123,28.9861374 22.2465085,28.7513282 C22.3052005,28.4349924 22.5384398,27.904916 22.4470393,27.7088855 C22.3528877,27.5088855 20.7721791,27.8795725 20.9717929,28.2285802 M6.59489573,27.7087328 C6.50288389,27.9050687 6.73704028,28.435145 6.79450948,28.7514809 C6.83852844,28.9862901 7.42422512,29.2284275 7.54497156,29.0165191 C7.60182938,28.9172824 7.60977725,28.6861374 7.69445261,28.5685802 C7.79043839,28.4369771 7.96468009,28.4122443 8.06983649,28.2284275 C8.2703673,27.8797252 6.68904739,27.5090382 6.59489573,27.7087328 M17.5634417,24.6924275 C16.7023209,24.6924275 14.9672403,24.6863206 14.5643445,24.6847939 L14.5643445,24.6844885 C14.5643445,24.6844885 14.546309,24.6847939 14.520937,24.6847939 C14.4955649,24.6847939 14.4778351,24.6844885 14.4778351,24.6844885 L14.4778351,24.6847939 C14.0749393,24.6863206 12.3389417,24.6924275 11.4793493,24.6924275 C10.5014559,24.6924275 10.8034749,25.5974656 10.8034749,25.5974656 C10.8034749,25.5974656 10.9703801,26.1431145 11.0700341,26.3895267 C11.1702995,26.6353282 11.5368185,27.1498321 12.2041336,27.1498321 C12.8106171,27.1498321 14.263854,27.1428092 14.520937,27.1415878 C14.7780199,27.1428092 16.2312569,27.1498321 16.838046,27.1498321 C17.5041384,27.1498321 17.8721858,26.6353282 17.9715341,26.3895267 C18.0711882,26.1431145 18.2380934,25.5974656 18.2380934,25.5974656 C18.2380934,25.5974656 18.5407237,24.6924275 17.5634417,24.6924275" id="Fill-11" fill="#FFFFFF"></path>
            </g>
        </g>
    </g>
</svg>