<?xml version="1.0" encoding="UTF-8"?>
<svg width="100px" height="80px" viewBox="0 0 100 80" version="1.1" xmlns="http://www.w3.org/2000/svg" xmlns:xlink="http://www.w3.org/1999/xlink">
    <!-- Generator: Sketch 53.2 (72643) - https://sketchapp.com -->
    <title>Group 27</title>
    <desc>Created with Sketch.</desc>
    <defs>
        <linearGradient x1="50%" y1="0%" x2="50%" y2="98.4813457%" id="linearGradient-1">
            <stop stop-color="#F2F2F2" offset="0%"></stop>
            <stop stop-color="#C4C4C4" offset="100%"></stop>
        </linearGradient>
        <linearGradient x1="50%" y1="0%" x2="50%" y2="98.4813457%" id="linearGradient-2">
            <stop stop-color="#F2F2F2" offset="0%"></stop>
            <stop stop-color="#C4C4C4" offset="100%"></stop>
        </linearGradient>
        <linearGradient x1="50%" y1="0%" x2="50%" y2="98.4813457%" id="linearGradient-3">
            <stop stop-color="#F2F2F2" offset="0%"></stop>
            <stop stop-color="#C4C4C4" offset="100%"></stop>
        </linearGradient>
        <path d="M4.45786502,-1.18916824e-18 L51.542135,-8.8817842e-16 C53.751274,-1.29399067e-15 55.542135,1.790861 55.542135,4 C55.542135,4.40863532 55.4795186,4.81485791 55.3564656,5.20452547 L53.2069536,12.0113137 C51.8931781,16.1716027 48.0339254,19 43.6711269,19 L12.3288731,19 C7.96607462,19 4.10682189,16.1716027 2.79304643,12.0113137 L0.643534359,5.20452547 C-0.0217066893,3.09792882 1.14674289,0.850910388 3.25333955,0.185669339 C3.64300711,0.0626164265 4.0492297,7.50650905e-17 4.45786502,0 Z" id="path-4"></path>
        <linearGradient x1="50%" y1="0%" x2="50%" y2="100%" id="linearGradient-6">
            <stop stop-color="#999999" offset="0%"></stop>
            <stop stop-color="#404040" offset="100%"></stop>
        </linearGradient>
        <path d="M13,-4.4408921e-15 L57,-1.77635684e-15 C60.5555556,-2.4295018e-15 63.6844444,2.34666667 64.68,5.76 L70,24 L0,24 L5.32,5.76 C6.31555556,2.34666667 9.44444444,-1.12321188e-15 13,-1.77635684e-15 Z" id="path-7"></path>
    </defs>
    <g id="UI-Set" stroke="none" stroke-width="1" fill="none" fill-rule="evenodd">
        <g id="00.-cars" transform="translate(-849.000000, -3832.000000)">
            <g id="Group-37" transform="translate(849.000000, 3832.000000)">
                <g id="Group-27">
                    <path d="M5.8372283,21 L15.0312089,21 C16.9642056,21 18.5312089,22.5670034 18.5312089,24.5 L18.5312089,24.5 C18.5312089,26.4329966 16.9642056,28 15.0312089,28 L8.06674284,28 C6.03806866,28 4.31810678,26.508285 4.03120893,24.5 L3.85732932,23.2828427 C3.7011196,22.1893747 4.46091758,21.1763107 5.55438559,21.020101 C5.64807217,21.0067172 5.74259057,21 5.8372283,21 Z" id="Rectangle-23" fill="url(#linearGradient-1)"></path>
                    <path d="M85.5,21 L93.6939806,21 C94.7985501,21 95.6939806,21.8954305 95.6939806,23 C95.6939806,23.0946377 95.6872634,23.1891561 95.6738796,23.2828427 L95.5,24.5 C95.2131021,26.508285 93.4931403,28 91.4644661,28 L85.5,28 C83.5670034,28 82,26.4329966 82,24.5 L82,24.5 C82,22.5670034 83.5670034,21 85.5,21 Z" id="Rectangle-23" fill="url(#linearGradient-2)"></path>
                    <path d="M6,31.5 L8.85143008,30.3119041 C10.8387844,29.4838398 12.3345343,27.7873131 12.9070707,25.7118687 L17.9749765,7.34071002 C19.1713069,3.00401238 23.1162193,-9.49962096e-16 27.6149027,-1.77635684e-15 L72.3850973,1.77635684e-15 C76.8837807,9.49962096e-16 80.8286931,3.00401238 82.0250235,7.34071002 L86.9633478,25.2421356 C87.6176751,27.6140721 89.3271036,29.5529598 91.5983656,30.499319 L94,31.5 C97.6333077,33.0138782 100,36.5639167 100,40.5 L100,63 C100,65.7614237 97.7614237,68 95,68 L5,68 C2.23857625,68 3.38176876e-16,65.7614237 0,63 L3.55271368e-15,40.5 C3.0706825e-15,36.5639167 2.36669235,33.0138782 6,31.5 Z" id="Rectangle-6" fill="url(#linearGradient-3)"></path>
                    <path d="M4,68 L16,68 L16,78 C16,79.1045695 15.1045695,80 14,80 L6,80 C4.8954305,80 4,79.1045695 4,78 L4,68 Z" id="Rectangle-20" fill="#1A1A1A"></path>
                    <path d="M84,68 L96,68 L96,78 C96,79.1045695 95.1045695,80 94,80 L86,80 C84.8954305,80 84,79.1045695 84,78 L84,68 Z" id="Rectangle-20" fill="#1A1A1A"></path>
                    <g id="Group-20" transform="translate(0.000000, 39.000000)" fill="#FFEC7D">
                        <path d="M0,1.5 C1.23937916e-16,0.337960187 1.5,0 3,0 L4.5,0 C8.97920109,0 14.9187776,2.62139741 16.4010773,5.52790833 C17.1877663,7.07045746 17.9381448,9 16.3636559,9 C10.5,9 0,6 0,1.5 Z" id="Fill-13"></path>
                    </g>
                    <g id="Group-19" transform="translate(82.000000, 39.000000)" fill="#FFEC7D">
                        <path d="M0,1.5 C1.23937916e-16,0.337960187 1.5,0 3,0 L4.5,0 C8.97920109,0 14.9187776,2.62139741 16.4010773,5.52790833 C17.1877663,7.07045746 17.9381448,9 16.3636559,9 C10.5,9 0,6 0,1.5 Z" id="Fill-13" transform="translate(8.643550, 4.500000) scale(-1, 1) translate(-8.643550, -4.500000) "></path>
                    </g>
                    <g id="Group-22" transform="translate(22.000000, 49.000000)">
                        <mask id="mask-5" fill="white">
                            <use xlink:href="#path-4"></use>
                        </mask>
                        <use id="Rectangle-21" fill-opacity="0" fill="#FFFFFF" xlink:href="#path-4"></use>
                        <rect id="Rectangle-18" fill="#404040" mask="url(#mask-5)" x="0" y="0" width="56" height="1"></rect>
                        <rect id="Rectangle-18" fill="#404040" mask="url(#mask-5)" x="0" y="2" width="56" height="1"></rect>
                        <rect id="Rectangle-18" fill="#404040" mask="url(#mask-5)" x="0" y="4" width="56" height="1"></rect>
                        <rect id="Rectangle-18" fill="#404040" mask="url(#mask-5)" x="0" y="6" width="56" height="1"></rect>
                        <rect id="Rectangle-18" fill="#404040" mask="url(#mask-5)" x="0" y="8" width="56" height="1"></rect>
                        <rect id="Rectangle-18" fill="#404040" mask="url(#mask-5)" x="0" y="10" width="56" height="1"></rect>
                        <rect id="Rectangle-18" fill="#404040" mask="url(#mask-5)" x="0" y="12" width="56" height="1"></rect>
                        <rect id="Rectangle-18" fill="#404040" mask="url(#mask-5)" x="0" y="14" width="56" height="1"></rect>
                        <rect id="Rectangle-18" fill="#404040" mask="url(#mask-5)" x="0" y="16" width="56" height="1"></rect>
                        <rect id="Rectangle-18" fill="#404040" mask="url(#mask-5)" x="0" y="18" width="56" height="1"></rect>
                    </g>
                    <g id="Group-25" transform="translate(15.000000, 2.000000)">
                        <mask id="mask-8" fill="white">
                            <use xlink:href="#path-7"></use>
                        </mask>
                        <use id="Rectangle-22" fill="url(#linearGradient-6)" xlink:href="#path-7"></use>
                        <path d="M56,30 C58.7614237,30 61,27.7614237 61,25 C61,22.2385763 58.7614237,20 56,20 C53.2385763,20 51,22.2385763 51,25 C51,27.7614237 53.2385763,30 56,30 Z M56,32 C52.1340068,32 49,28.8659932 49,25 C49,21.1340068 52.1340068,18 56,18 C59.8659932,18 63,21.1340068 63,25 C63,28.8659932 59.8659932,32 56,32 Z" id="Oval" fill="#404040" fill-rule="nonzero" mask="url(#mask-8)"></path>
                    </g>
                </g>
            </g>
        </g>
    </g>
</svg>