<?xml version="1.0" encoding="UTF-8"?>
<svg width="210px" height="80px" viewBox="0 0 210 80" version="1.1" xmlns="http://www.w3.org/2000/svg" xmlns:xlink="http://www.w3.org/1999/xlink">
    <!-- Generator: Sketch 53.2 (72643) - https://sketchapp.com -->
    <title>Group 31</title>
    <desc>Created with Sketch.</desc>
    <defs>
        <linearGradient x1="91.3766044%" y1="0%" x2="19.496024%" y2="102.655901%" id="linearGradient-1">
            <stop stop-color="#EBEBEB" offset="0%"></stop>
            <stop stop-color="#D4D4D4" offset="100%"></stop>
        </linearGradient>
        <linearGradient x1="50%" y1="0%" x2="50%" y2="98.4813457%" id="linearGradient-2">
            <stop stop-color="#F2F2F2" offset="0%"></stop>
            <stop stop-color="#C4C4C4" offset="100%"></stop>
        </linearGradient>
        <path d="M68.180222,67.5 C64.200973,67.5 60.7971101,64.8848505 59.5070339,61.1370729 C56.8542013,53.4318833 49.5180288,47.8939197 40.8826951,47.8939197 C30.3167897,47.8939197 21.6950835,56.1857835 21.2196329,66.5905795 L11.5743452,64.2619804 C4.78176115,62.6226105 0,56.5658398 0,49.6056813 L0,38.4920501 C0,31.9421111 5.38288819,26.4795555 11.9422895,26.0120259 C19.3905109,25.4796454 26.3481399,22.1073996 31.3661122,16.5920583 L36.6975184,10.7328566 C42.2696784,4.60821878 50.12067,1.02935504 58.4168287,0.833294233 L93.0217589,0.0128551792 C103.37568,-0.232974905 113.502475,3.05330579 121.724439,9.32574334 L133.321497,18.17261 C140.719751,23.8161449 149.445935,27.4764492 158.668768,28.8051382 L191.635362,33.552826 C200.911191,34.8875476 208.067177,42.3710377 208.955997,51.6643197 L209.97655,62.3405846 C210.141595,64.0629033 209.431448,65.8244342 207.971784,66.7610016 C207.205612,67.2511536 206.342533,67.5 205.474911,67.5 L193.814258,67.5 C193.814258,56.671411 185.000252,47.8939197 174.129998,47.8939197 C165.494664,47.8939197 158.158491,53.4318833 155.505659,61.1370729 C154.215583,64.8848505 150.810205,67.5 146.832471,67.5 L68.180222,67.5 Z" id="path-3"></path>
        <linearGradient x1="84.0282645%" y1="48.3515474%" x2="1.72505803%" y2="51.8852924%" id="linearGradient-5">
            <stop stop-color="#5E5E5E" offset="0%"></stop>
            <stop stop-color="#1A1A1A" offset="100%"></stop>
        </linearGradient>
        <linearGradient x1="50%" y1="0%" x2="50%" y2="98.4813457%" id="linearGradient-6">
            <stop stop-color="#F2F2F2" offset="0%"></stop>
            <stop stop-color="#C4C4C4" offset="100%"></stop>
        </linearGradient>
    </defs>
    <g id="UI-Set" stroke="none" stroke-width="1" fill="none" fill-rule="evenodd">
        <g id="00.-cars" transform="translate(-538.000000, -3832.000000)">
            <g id="Group-32" transform="translate(514.000000, 3832.000000)">
                <g id="Group-36" transform="translate(24.000000, 0.000000)">
                    <g id="Group-31">
                        <g id="Group-30">
                            <path d="M55.5,65 C55.5,73.2840909 48.7840909,80 40.5,80 C32.2159091,80 25.5,73.2840909 25.5,65 C25.5,56.7159091 32.2159091,50 40.5,50 C48.7840909,50 55.5,56.7159091 55.5,65" id="Fill-3" fill="#1A1A1A"></path>
                            <path d="M50.0454545,66 C50.0454545,71.271 45.771,75.5454545 40.5,75.5454545 C35.229,75.5454545 30.9545455,71.271 30.9545455,66 C30.9545455,60.729 35.229,56.4545455 40.5,56.4545455 C45.771,56.4545455 50.0454545,60.729 50.0454545,66" id="Fill-9" fill="url(#linearGradient-1)"></path>
                            <g id="Group-14" transform="translate(159.000000, 50.000000)">
                                <path d="M30,15 C30,23.2840909 23.2840909,30 15,30 C6.71590909,30 0,23.2840909 0,15 C0,6.71590909 6.71590909,0 15,0 C23.2840909,0 30,6.71590909 30,15" id="Fill-19" fill="#1A1A1A"></path>
                                <path d="M24.5454545,15 C24.5454545,20.271 20.271,24.5454545 15,24.5454545 C9.729,24.5454545 5.45454545,20.271 5.45454545,15 C5.45454545,9.729 9.729,5.45454545 15,5.45454545 C20.271,5.45454545 24.5454545,9.729 24.5454545,15" id="Fill-21" fill="url(#linearGradient-1)"></path>
                            </g>
                            <mask id="mask-4" fill="white">
                                <use xlink:href="#path-3"></use>
                            </mask>
                            <use id="Fill-1" fill="url(#linearGradient-2)" xlink:href="#path-3"></use>
                            <polygon id="Rectangle-7" fill="url(#linearGradient-5)" mask="url(#mask-4)" points="48.6732788 3.24938965 103.074829 1.88012695 113.741821 6.13916016 139.573242 24 25.6589355 24"></polygon>
                            <path d="M39.75,37.5 L35.25,37.5 C34.008,37.5 33,36.492 33,35.25 L33,35.25 C33,34.008 34.008,33 35.25,33 L39.75,33 C40.992,33 42,34.008 42,35.25 L42,35.25 C42,36.492 40.992,37.5 39.75,37.5" id="Fill-5" fill="#1A1A1A" mask="url(#mask-4)"></path>
                            <path d="M89.25,37.5 L84.75,37.5 C83.508,37.5 82.5,36.492 82.5,35.25 L82.5,35.25 C82.5,34.008 83.508,33 84.75,33 L89.25,33 C90.492,33 91.5,34.008 91.5,35.25 L91.5,35.25 C91.5,36.492 90.492,37.5 89.25,37.5" id="Fill-7" fill="#1A1A1A" mask="url(#mask-4)"></path>
                            <path d="M40.8826951,44.8939197 C50.6472199,44.8939197 59.2236835,51.0985572 62.3436799,60.1606304 C63.2440412,62.7762544 65.5627743,64.5 68.180222,64.5 L146.832471,64.5 C149.449017,64.5 151.768861,62.7756445 152.669072,60.1604595 C155.789009,51.0985572 164.365473,44.8939197 174.129998,44.8939197 C185.634776,44.8939197 195.143618,53.431203 196.616277,64.5 L205.474911,64.5 C205.776424,64.5 206.077478,64.4114883 206.3517,64.2360604 C206.781153,63.9605098 207.057698,63.3308074 206.990163,62.6260558 L205.969624,51.9499398 C205.212724,44.0359802 199.115381,37.6600425 191.207728,36.5221912 L158.240989,31.7744824 C148.512099,30.3728883 139.306833,26.5115445 131.501935,20.5578128 L119.904826,11.7109075 C112.224771,5.85188617 102.764818,2.78237406 93.0928651,3.01201238 L58.4877071,3.83245683 C51.0113814,4.00914274 43.9366934,7.2338531 38.9164225,12.7518824 L33.585126,18.6109634 C28.0494464,24.6953258 20.3742505,28.4169839 12.1555772,29.0044343 C7.08502596,29.3658443 3,33.5964447 3,38.4920501 L3,49.6056813 C3,55.1789704 6.83156036,60.0311874 12.2783886,61.3457632 L18.670529,62.8889761 C20.8103039,52.5861807 29.9739527,44.8939197 40.8826951,44.8939197 Z M68.180222,67.5 C64.200973,67.5 60.7971101,64.8848505 59.5070339,61.1370729 C56.8542013,53.4318833 49.5180288,47.8939197 40.8826951,47.8939197 C30.3167897,47.8939197 21.6950835,56.1857835 21.2196329,66.5905795 L11.5743452,64.2619804 C4.78176115,62.6226105 0,56.5658398 0,49.6056813 L0,38.4920501 C0,31.9421111 5.38288819,26.4795555 11.9422895,26.0120259 C19.3905109,25.4796454 26.3481399,22.1073996 31.3661122,16.5920583 L36.6975184,10.7328566 C42.2696784,4.60821878 50.12067,1.02935504 58.4168287,0.833294233 L93.0217589,0.0128551792 C103.37568,-0.232974905 113.502475,3.05330579 121.724439,9.32574334 L133.321497,18.17261 C140.719751,23.8161449 149.445935,27.4764492 158.668768,28.8051382 L191.635362,33.552826 C200.911191,34.8875476 208.067177,42.3710377 208.955997,51.6643197 L209.97655,62.3405846 C210.141595,64.0629033 209.431448,65.8244342 207.971784,66.7610016 C207.205612,67.2511536 206.342533,67.5 205.474911,67.5 L193.814258,67.5 C193.814258,56.671411 185.000252,47.8939197 174.129998,47.8939197 C165.494664,47.8939197 158.158491,53.4318833 155.505659,61.1370729 C154.215583,64.8848505 150.810205,67.5 146.832471,67.5 L68.180222,67.5 Z" id="Fill-1" fill="url(#linearGradient-2)" fill-rule="nonzero" mask="url(#mask-4)"></path>
                            <path d="M190.5,40.5 C190.5,39.3379602 192,39 193.5,39 L195,39 C199.479201,39 205.418778,41.6213974 206.901077,44.5279083 C207.687766,46.0704575 208.438145,48 206.863656,48 C201,48 190.5,45 190.5,40.5 Z" id="Fill-13" fill="#FFEC7D" mask="url(#mask-4)"></path>
                            <path d="M0,45 L0,39 L7.5,39 C9.15685425,39 10.5,40.3431458 10.5,42 L10.5,44 C10.5,44.5522847 10.0522847,45 9.5,45 L0,45 Z" id="Fill-11" fill="#FF5F5F" mask="url(#mask-4)"></path>
                            <polygon id="Rectangle-10" fill="url(#linearGradient-6)" mask="url(#mask-4)" points="76.5 3 79.5 3 79.5 24 76.5 24"></polygon>
                        </g>
                    </g>
                </g>
            </g>
        </g>
    </g>
</svg>