<?xml version="1.0" encoding="UTF-8"?>
<svg width="210px" height="90px" viewBox="0 0 210 90" version="1.1" xmlns="http://www.w3.org/2000/svg" xmlns:xlink="http://www.w3.org/1999/xlink">
    <!-- Generator: Sketch 53.2 (72643) - https://sketchapp.com -->
    <title>Group 26</title>
    <desc>Created with Sketch.</desc>
    <defs>
        <linearGradient x1="91.3766044%" y1="0%" x2="19.496024%" y2="102.655901%" id="linearGradient-1">
            <stop stop-color="#EBEBEB" offset="0%"></stop>
            <stop stop-color="#D4D4D4" offset="100%"></stop>
        </linearGradient>
        <linearGradient x1="50%" y1="0%" x2="50%" y2="98.4813457%" id="linearGradient-2">
            <stop stop-color="#F2F2F2" offset="0%"></stop>
            <stop stop-color="#C4C4C4" offset="100%"></stop>
        </linearGradient>
        <path d="M68,77.0000007 C58.5,77.0000007 58,57.0000007 40,57.0000007 C28.9998772,57.0000007 21,65.0019122 21,75.0000007 C9.13476562,75.0000007 1.81854531e-12,67.0180519 0,58.0000007 L-1.96822239e-08,15.0000005 C-1.96822249e-08,6.71572926 6.71572873,5.06470559e-07 15,5.06470558e-07 L109.836529,5.97513505e-07 C123.932423,6.1600941e-07 137.578312,4.9628521 148.380901,14.0181415 C160.247317,23.9651846 168.787016,30.1234752 174,32.4930132 C185,37.4930132 210,38.5000007 210,70.0000007 C210,74.4159045 208.056885,77.0000007 205,77.0000007 L193.065308,77.0000007 C193.065308,66.0000007 185,57.0000007 174,57.0000007 C155,57.0000007 155,77.0000007 148,77.0000007 L68,77.0000007 Z" id="path-3"></path>
        <linearGradient x1="84.0282645%" y1="41.6520371%" x2="1.72505803%" y2="59.5473484%" id="linearGradient-5">
            <stop stop-color="#5E5E5E" offset="0%"></stop>
            <stop stop-color="#1A1A1A" offset="100%"></stop>
        </linearGradient>
        <linearGradient x1="84.0282645%" y1="39.0703122%" x2="1.72505803%" y2="62.5%" id="linearGradient-6">
            <stop stop-color="#5E5E5E" offset="0%"></stop>
            <stop stop-color="#1A1A1A" offset="100%"></stop>
        </linearGradient>
        <linearGradient x1="84.0282645%" y1="33.2461022%" x2="1.72505803%" y2="69.1609977%" id="linearGradient-7">
            <stop stop-color="#5E5E5E" offset="0%"></stop>
            <stop stop-color="#1A1A1A" offset="100%"></stop>
        </linearGradient>
        <linearGradient x1="50%" y1="0%" x2="50%" y2="98.4813457%" id="linearGradient-8">
            <stop stop-color="#F2F2F2" offset="0%"></stop>
            <stop stop-color="#C4C4C4" offset="100%"></stop>
        </linearGradient>
    </defs>
    <g id="UI-Set" stroke="none" stroke-width="1" fill="none" fill-rule="evenodd">
        <g id="00.-cars" transform="translate(-128.000000, -1382.000000)">
            <g id="Group-26" transform="translate(128.000000, 1382.000000)">
                <g id="Group" transform="translate(25.000000, 60.000000)">
                    <path d="M30,15 C30,23.2840909 23.2840909,30 15,30 C6.71590909,30 0,23.2840909 0,15 C0,6.71590909 6.71590909,0 15,0 C23.2840909,0 30,6.71590909 30,15" id="Fill-3" fill="#1A1A1A"></path>
                    <path d="M25,15 C25,20.5227273 20.5227273,25 15,25 C9.47727273,25 5,20.5227273 5,15 C5,9.47727273 9.47727273,5 15,5 C20.5227273,5 25,9.47727273 25,15" id="Fill-3" fill="url(#linearGradient-1)"></path>
                </g>
                <g id="Group" transform="translate(159.000000, 60.000000)">
                    <path d="M30,15 C30,23.2840909 23.2840909,30 15,30 C6.71590909,30 0,23.2840909 0,15 C0,6.71590909 6.71590909,0 15,0 C23.2840909,0 30,6.71590909 30,15" id="Fill-3" fill="#1A1A1A"></path>
                    <path d="M25,15 C25,20.5227273 20.5227273,25 15,25 C9.47727273,25 5,20.5227273 5,15 C5,9.47727273 9.47727273,5 15,5 C20.5227273,5 25,9.47727273 25,15" id="Fill-3" fill="url(#linearGradient-1)"></path>
                </g>
                <g id="Group-21">
                    <mask id="mask-4" fill="white">
                        <use xlink:href="#path-3"></use>
                    </mask>
                    <use id="Fill-1" fill="url(#linearGradient-2)" xlink:href="#path-3"></use>
                    <path d="M55.5,40 L50.5,40 C49.12,40 48,39.104 48,38 L48,38 C48,36.896 49.12,36 50.5,36 L55.5,36 C56.88,36 58,36.896 58,38 L58,38 C58,39.104 56.88,40 55.5,40" id="Fill-5" fill="#404040" mask="url(#mask-4)"></path>
                    <path d="M110.5,40 L105.5,40 C104.12,40 103,39.104 103,38 L103,38 C103,36.896 104.12,36 105.5,36 L110.5,36 C111.88,36 113,36.896 113,38 L113,38 C113,39.104 111.88,40 110.5,40" id="Fill-7" fill="#404040" mask="url(#mask-4)"></path>
                    <path d="M190,50.5 C190,49.3379602 191.561858,49 193.123716,49 L194.685575,49 C199.349493,49 205.53401,51.6213974 207.077438,54.5279083 C207.896569,56.0704575 208.677892,58 207.038474,58 C200.933007,58 190,55 190,50.5 Z" id="Fill-13" fill="#FFEC7D" mask="url(#mask-4)"></path>
                    <path d="M0,55 L0,49 L7,49 C8.65685425,49 10,50.3431458 10,52 L10,54 C10,54.5522847 9.55228475,55 9,55 L0,55 Z" id="Fill-11" fill="#FF5F5F" mask="url(#mask-4)"></path>
                    <path d="M105,3 L112.637207,3 C118.47583,3 127.859942,4.90294356 138.18042,10.5443115 C141.799956,12.5228183 148.47331,17.4921114 158.200482,25.4521909 L158.200488,25.452183 C159.055319,26.1517198 159.181209,27.4117832 158.481672,28.2666133 C158.10181,28.7308023 157.53367,29 156.933865,29 L105,29 C103.895431,29 103,28.1045695 103,27 L103,5 C103,3.8954305 103.895431,3 105,3 Z" id="Combined-Shape" fill="url(#linearGradient-5)" mask="url(#mask-4)"></path>
                    <path d="M49.998721,3 L98,3 C99.1045695,3 100,3.8954305 100,5 L100,27 C100,28.1045695 99.1045695,29 98,29 L50.0576262,29 C48.9551474,29 48.0605853,28.1078299 48.0576334,27.005355 L47.9987282,5.005355 C47.9957707,3.90078946 48.8888005,3.00296465 49.993366,3.00000717 C49.995151,3.00000239 49.996936,3 49.998721,3 Z" id="Combined-Shape" fill="url(#linearGradient-6)" mask="url(#mask-4)"></path>
                    <path d="M16,3 L42.4361148,3 C43.3276335,3 43.6509198,3.09282561 43.9768457,3.2671327 C44.3027716,3.4414398 44.5585602,3.69722837 44.7328673,4.0231543 C44.9071744,4.34908022 45,4.67236646 45,5.5638852 L45,26.4361148 C45,27.3276335 44.9071744,27.6509198 44.7328673,27.9768457 C44.5585602,28.3027716 44.3027716,28.5585602 43.9768457,28.7328673 C43.6509198,28.9071744 43.3276335,29 42.4361148,29 L5.5638852,29 C4.67236646,29 4.34908022,28.9071744 4.0231543,28.7328673 C3.69722837,28.5585602 3.4414398,28.3027716 3.2671327,27.9768457 C3.09282561,27.6509198 3,27.3276335 3,26.4361148 L3,16 C3,13.3575277 3.56362033,11.0322591 4.60872215,9.10633319 C5.65382396,7.18040726 7.18040726,5.65382396 9.10633319,4.60872215 C11.0322591,3.56362033 13.3575277,3 16,3 Z" id="Rectangle-17" fill="url(#linearGradient-7)" mask="url(#mask-4)"></path>
                    <path d="M151.000242,24 L157.157772,24 C158.262341,24 159.157772,24.8954305 159.157772,26 L159.157772,29 C159.157772,30.1045695 158.262341,31 157.157772,31 L153.202557,31 C151.17791,31 149.463899,29.5057379 149.18784,27.5 L149.01892,26.2726988 C148.868313,25.1784451 149.633289,24.1692858 150.727543,24.0186784 C150.81791,24.0062407 150.909023,24 151.000242,24 Z" id="Rectangle-23" fill="url(#linearGradient-8)" mask="url(#mask-4)"></path>
                </g>
            </g>
        </g>
    </g>
</svg>