<?xml version="1.0" encoding="UTF-8"?>
<svg width="113px" height="113px" viewBox="0 0 113 113" version="1.1" xmlns="http://www.w3.org/2000/svg" xmlns:xlink="http://www.w3.org/1999/xlink">
    <!-- Generator: Sketch 55.2 (78181) - https://sketchapp.com -->
    <title>Group 4</title>
    <desc>Created with Sketch.</desc>
    <g id="23.-Feedback" stroke="none" stroke-width="1" fill="none" fill-rule="evenodd">
        <g id="23.3.1-UGC-Feedback-1440" transform="translate(-1174.000000, -320.000000)">
            <g id="Group-5" transform="translate(1084.000000, 256.000000)">
                <g id="Group-4" transform="translate(90.000000, 64.000000)">
                    <path d="M0,113 L11.0620738,82.579297 C4.11071449,73.973007 0,63.3223867 0,51.7916667 C0,23.187919 25.2959116,0 56.5,0 C87.7040884,0 113,23.187919 113,51.7916667 C113,80.3954143 87.7040884,103.583333 56.5,103.583333 C49.1850512,103.583333 42.1947805,102.309064 35.77895,99.9894727 L0,113 Z" id="Path" fill="#02C5AB" fill-rule="nonzero"></path>
                    <g id="Icon/-20px/-Pencil" transform="translate(65.000000, 44.000000)">
                        <path d="M2.77296271,13.2270373 L4.09083316,13.2270373 L25.8519101,13.2270373 C26.1280525,13.2270373 26.3519101,13.4508949 26.3519101,13.7270373 L26.3519101,21.1480899 C26.3519101,21.4242323 26.1280525,21.6480899 25.8519101,21.6480899 L4.09083316,21.6480899 L2.77296271,21.6480899 L2.77296271,13.2270373 Z" id="Rectangle-40" fill="#FFBB03" transform="translate(14.562436, 17.437564) rotate(-45.000000) translate(-14.562436, -17.437564) "></path>
                        <path d="M7.00042004,23.4330875 L7.00042004,31.8541401 L1.67529663,28.0504806 C1.45059033,27.8899761 1.39854449,27.577701 1.55904899,27.3529947 C1.59111882,27.308097 1.63039887,27.2688169 1.67529663,27.2367471 L7.00042004,23.4330875 Z" id="Rectangle-40" fill="#404040" transform="translate(4.356373, 27.643581) rotate(-45.000000) translate(-4.356373, -27.643581) "></path>
                        <path d="M23.6031822,1.31787045 L28.8400243,1.31787045 C29.392309,1.31787045 29.8400243,1.7655857 29.8400243,2.31787045 L29.8400243,8.73892308 C29.8400243,9.29120783 29.392309,9.73892308 28.8400243,9.73892308 L23.6031822,9.73892308 C23.3270398,9.73892308 23.1031822,9.51506545 23.1031822,9.23892308 L23.1031822,1.81787045 C23.1031822,1.54172807 23.3270398,1.31787045 23.6031822,1.31787045 Z" id="Rectangle-41" fill="#BCF2EB" transform="translate(26.471603, 5.528397) rotate(-45.000000) translate(-26.471603, -5.528397) "></path>
                    </g>
                    <g id="Group-2" transform="translate(28.000000, 51.000000)" fill="#FFFFFF">
                        <circle id="Oval" cx="5" cy="5" r="5"></circle>
                        <circle id="Oval" cx="19" cy="5" r="5"></circle>
                        <circle id="Oval" cx="33" cy="5" r="5"></circle>
                    </g>
                </g>
            </g>
        </g>
    </g>
</svg>