<?xml version="1.0" encoding="UTF-8"?>
<svg width="30px" height="38px" viewBox="0 0 30 38" version="1.1" xmlns="http://www.w3.org/2000/svg" xmlns:xlink="http://www.w3.org/1999/xlink">
    <!-- Generator: Sketch 51.2 (57519) - http://www.bohemiancoding.com/sketch -->
    <title>04 Saving</title>
    <desc>Created with Sketch.</desc>
    <defs></defs>
    <g id="01.-A-B-Home-page" stroke="none" stroke-width="1" fill="none" fill-rule="evenodd">
        <g id="D-01.1-Home-Page-1440" transform="translate(-1088.000000, -313.000000)">
            <g id="04-Saving" transform="translate(1084.000000, 313.000000)">
                <rect id="Rectangle-2" fill-opacity="0" fill="#FFFFFF" fill-rule="nonzero" x="0" y="0" width="38" height="38"></rect>
                <g id="Group" transform="translate(4.000000, 0.000000)">
                    <g id="Illustration/-Credit/-Wallet">
                        <g>
                            <rect id="Rectangle-11" fill="#136A5E" x="0" y="12.35" width="28.2352941" height="22.8" rx="8"></rect>
                            <ellipse id="Oval-6" fill="#FFBB03" cx="12.5735294" cy="13.0625" rx="4.19117647" ry="4.5125"></ellipse>
                            <rect id="Rectangle-11" fill="#02C5AB" x="0" y="15.2" width="28.2352941" height="22.8" rx="8"></rect>
                            <path d="M22.3294118,22.8 L28,22.8 C29.1045695,22.8 30,23.6954305 30,24.8 L30,28.4 C30,29.5045695 29.1045695,30.4 28,30.4 L22.3294118,30.4 C20.2307297,30.4 18.5294118,28.698682 18.5294118,26.6 L18.5294118,26.6 C18.5294118,24.501318 20.2307297,22.8 22.3294118,22.8 Z" id="Rectangle-12" fill="#2898BC"></path>
                            <ellipse id="Oval-5" fill="#FFFFFF" cx="22.5" cy="26.6" rx="1.76470588" ry="1.9"></ellipse>
                            <ellipse id="Oval-6" fill="#FFBB03" cx="19.6323529" cy="4.5125" rx="4.19117647" ry="4.5125"></ellipse>
                        </g>
                    </g>
                </g>
            </g>
        </g>
    </g>
</svg>