<?xml version="1.0" encoding="UTF-8"?>
<svg width="140px" height="60px" viewBox="0 0 140 60" version="1.1" xmlns="http://www.w3.org/2000/svg" xmlns:xlink="http://www.w3.org/1999/xlink">
    <!-- Generator: Sketch 50 (54983) - http://www.bohemiancoding.com/sketch -->
    <title>Illustration/ Car-yellow</title>
    <desc>Created with Sketch.</desc>
    <defs>
        <linearGradient x1="50%" y1="0%" x2="50%" y2="98.4813457%" id="linearGradient-1">
            <stop stop-color="#FDE473" offset="0%"></stop>
            <stop stop-color="#FFBF1A" offset="100%"></stop>
        </linearGradient>
        <path d="M139.2391,32.7324 C139.1001,29.9574 137.0751,27.6414 134.3441,27.1334 L102.7671,21.2584 C98.3231,20.4314 94.1451,18.5414 90.5901,15.7484 L79.2461,6.8364 C73.6091,2.4074 66.6471,0.0004 59.4781,0.0004 L43.3241,0.0004 C36.2991,0.0004 29.7891,3.6854 26.1741,9.7094 L22.0391,16.6014 C20.7741,18.7094 18.4961,20.0004 16.0371,20.0004 L9.0001,20.0004 C4.0291,20.0004 0.0001,24.0294 0.0001,29.0004 L0.0001,44.0004 C0.0001,46.2094 1.7911,48.0004 4.0001,48.0004 L10.4531,48.0004 C12.3041,48.0004 13.9341,46.7354 14.3381,44.9294 C15.7371,38.6744 21.3231,34.0004 28.0001,34.0004 C33.9211,34.0004 38.9831,37.6754 41.0301,42.8694 C42.2431,45.9494 45.1801,47.9994 48.4901,48.0004 L95.5101,48.0004 C98.8191,48.0004 101.7561,45.9494 102.9701,42.8694 C105.0161,37.6754 110.0791,34.0004 116.0001,34.0004 C122.1201,34.0004 127.3231,37.9264 129.2261,43.3984 C130.2021,46.2044 132.9571,48.0004 135.9271,48.0004 L137.9001,48.0004 C137.9331,48.0004 137.9661,47.9994 138.0001,47.9974 C139.1031,47.9424 139.9531,47.0034 139.8971,45.9004 L139.2391,32.7324 Z" id="path-2"></path>
    </defs>
    <g id="UI-Set" stroke="none" stroke-width="1" fill="none" fill-rule="evenodd">
        <g id="01.-Icons" transform="translate(-129.000000, -1967.000000)">
            <g id="Illustration/-Car-yellow" transform="translate(129.000000, 1967.000000)">
                <g id="Group-21">
                    <mask id="mask-3" fill="white">
                        <use xlink:href="#path-2"></use>
                    </mask>
                    <use id="Fill-1" fill="url(#linearGradient-1)" xlink:href="#path-2"></use>
                    <path d="M84.5598,20 L58.9998,20 C56.2388,20 53.9998,17.761 53.9998,15 L53.9998,9 C53.9998,6.791 55.7908,5 57.9998,5 L58.1368,5 C64.5318,5 70.7488,7.114 75.8178,11.014 L85.1698,18.207 C85.9268,18.79 85.5148,20 84.5598,20" id="Fill-15" fill="#FFFFFF" mask="url(#mask-3)"></path>
                    <path d="M31.2985,20 C28.9665,20 27.5265,17.456 28.7265,15.457 L30.6305,12.283 C33.3415,7.765 38.2235,5 43.4925,5 L44.9995,5 C47.2095,5 48.9995,6.791 48.9995,9 L48.9995,16 C48.9995,18.209 47.2095,20 44.9995,20 L31.2985,20 Z" id="Fill-17" fill="#FFFFFF" mask="url(#mask-3)"></path>
                    <path d="M32.5,28 L29.5,28 C28.672,28 28,27.328 28,26.5 C28,25.672 28.672,25 29.5,25 L32.5,25 C33.328,25 34,25.672 34,26.5 C34,27.328 33.328,28 32.5,28" id="Fill-5" fill="#000000" mask="url(#mask-3)"></path>
                    <path d="M59.5,28 L56.5,28 C55.672,28 55,27.328 55,26.5 C55,25.672 55.672,25 56.5,25 L59.5,25 C60.328,25 61,25.672 61,26.5 C61,27.328 60.328,28 59.5,28" id="Fill-7" fill="#000000" mask="url(#mask-3)"></path>
                    <path d="M4,38 L0,38 L0,30 L2,30 C4.209,30 6,31.791 6,34 L6,36 C6,37.105 5.105,38 4,38" id="Fill-11" fill="#FF5F5F" mask="url(#mask-3)"></path>
                </g>
                <path d="M138,38 C135.239,38 133,35.761 133,33 L133,32 C133,30.895 133.895,30 135,30 L136,30 C138.209,30 140,31.791 140,34 L140,36 C140,37.105 139.105,38 138,38" id="Fill-13" fill="#FFDC5F"></path>
                <g id="Group-24" transform="translate(17.000000, 38.000000)">
                    <path d="M22,11 C22,17.075 17.075,22 11,22 C4.925,22 0,17.075 0,11 C0,4.925 4.925,0 11,0 C17.075,0 22,4.925 22,11" id="Fill-3" fill="#1A1A1A"></path>
                    <path d="M16,11 C16,13.761 13.761,16 11,16 C8.239,16 6,13.761 6,11 C6,8.239 8.239,6 11,6 C13.761,6 16,8.239 16,11" id="Fill-9" fill="#FFFFFF"></path>
                </g>
                <g id="Group-23" transform="translate(105.000000, 38.000000)">
                    <path d="M22,11 C22,17.075 17.075,22 11,22 C4.925,22 0,17.075 0,11 C0,4.925 4.925,0 11,0 C17.075,0 22,4.925 22,11" id="Fill-19" fill="#1A1A1A"></path>
                    <path d="M16,11 C16,13.761 13.761,16 11,16 C8.239,16 6,13.761 6,11 C6,8.239 8.239,6 11,6 C13.761,6 16,8.239 16,11" id="Fill-21" fill="#FFFFFF"></path>
                </g>
            </g>
        </g>
    </g>
</svg>
