<?xml version="1.0" encoding="UTF-8"?>
<svg width="80px" height="74px" viewBox="0 0 80 74" version="1.1" xmlns="http://www.w3.org/2000/svg" xmlns:xlink="http://www.w3.org/1999/xlink">
    <!-- Generator: Sketch 53.2 (72643) - https://sketchapp.com -->
    <title>Group 49</title>
    <desc>Created with Sketch.</desc>
    <g id="11.-Credit-" stroke="none" stroke-width="1" fill="none" fill-rule="evenodd">
        <g id="11.1.1-Credit-Promo-1440-new-image" transform="translate(-170.000000, -437.000000)">
            <g id="Group-49" transform="translate(170.000000, 437.000000)">
                <path d="M46,63 L46.7873219,66.1492875 C47.5000211,69.0000845 50.0614658,71 53,71 L56.5,71 C57.3284271,71 58,71.6715729 58,72.5 C58,73.3284271 57.3284271,74 56.5,74 L23.5,74 C22.6715729,74 22,73.3284271 22,72.5 C22,71.6715729 22.6715729,71 23.5,71 L27,71 C29.9385342,71 32.4999789,69.0000845 33.2126781,66.1492875 L34,63 L4,63 C1.790861,63 4.19476067e-15,61.209139 0,59 L0,4 C-2.705415e-16,1.790861 1.790861,5.01438038e-14 4,4.97379915e-14 L76,4.97379915e-14 C78.209139,4.14837409e-14 80,1.790861 80,4 L80,59 C80,61.209139 78.209139,63 76,63 L46,63 Z" id="Combined-Shape" fill="#BCF2EB"></path>
                <path d="M6,4 L74,4 C75.1045695,4 76,4.8954305 76,6 L76,44 L4,44 L4,6 C4,4.8954305 4.8954305,4 6,4 Z" id="Rectangle" fill="#FFFFFF"></path>
                <g id="Group-44" transform="translate(12.000000, 12.000000)">
                    <circle id="Oval" fill="#02C5AB" cx="12" cy="12" r="12"></circle>
                    <path d="M10.9512899,14.5370764 L17.2474233,7.34149539 C17.6111054,6.92585876 18.242868,6.88374125 18.6585046,7.24742331 C19.0741412,7.61110536 19.1162587,8.24286798 18.7525767,8.65850461 L11.4006434,17.0607141 C11.2188024,17.2685324 10.902921,17.2895912 10.6951027,17.1077502 C10.6867523,17.1004436 10.6786475,17.0928611 10.6708016,17.0850152 L5.29289322,11.7071068 C4.90236893,11.3165825 4.90236893,10.6834175 5.29289322,10.2928932 C5.68341751,9.90236893 6.31658249,9.90236893 6.70710678,10.2928932 L10.9512899,14.5370764 Z" id="Path-2" fill="#FFFFFF" fill-rule="nonzero"></path>
                </g>
                <circle id="Oval" fill="#136A5E" cx="40" cy="53" r="4"></circle>
                <g id="Rectangle-14" transform="translate(42.000000, 11.000000)" fill="#404040">
                    <polygon id="Rectangle" transform="translate(13.000000, 13.000000) rotate(-45.000000) translate(-13.000000, -13.000000) " points="13 1 19 15 14 15 14 25 12 25 12 15 7 15"></polygon>
                </g>
            </g>
        </g>
    </g>
</svg>