<?xml version="1.0" encoding="UTF-8"?>
<svg width="481px" height="138px" viewBox="0 0 481 138" version="1.1" xmlns="http://www.w3.org/2000/svg" xmlns:xlink="http://www.w3.org/1999/xlink">
    <!-- Generator: Sketch 50.2 (55047) - http://www.bohemiancoding.com/sketch -->
    <title>Group 40</title>
    <desc>Created with Sketch.</desc>
    <defs>
        <linearGradient x1="50%" y1="0%" x2="50%" y2="98.4813457%" id="linearGradient-1">
            <stop stop-color="#FDE473" offset="0%"></stop>
            <stop stop-color="#FFBF1A" offset="100%"></stop>
        </linearGradient>
    </defs>
    <g id="UI-Set" stroke="none" stroke-width="1" fill="none" fill-rule="evenodd">
        <g id="01.-Icons" transform="translate(-831.000000, -1928.000000)">
            <g id="Group-40" transform="translate(831.000000, 1928.000000)">
                <g id="Group-28">
                    <g id="Group-27">
                        <path d="M339.201713,22 L405,22 C416.045695,22 425,30.954305 425,42 L425,50 C425,61.045695 433.954305,70 445,70 L461,70 C472.045695,70 481,78.954305 481,90 L481,96 L246,96 C235.50659,96 227,87.4934102 227,77 L227,77 C227,66.5065898 235.50659,58 246,58 L298.798287,58 C307.782443,58 315.664091,52.0092726 318.068645,43.3528773 L319.931355,36.6471227 C322.335909,27.9907274 330.217557,22 339.201713,22 Z" id="Rectangle-3" fill="#BCF2EB"></path>
                        <g id="Group-59" transform="translate(76.000000, 76.000000)">
                            <path d="M0,62 L34,62 L34,-1.42108547e-14 L8,-1.42108547e-14 C3.581722,-1.33992302e-14 -5.41083001e-16,3.581722 0,8 L0,62 Z" id="Fill-9" fill="#FFFFFF"></path>
                            <polygon id="Fill-29" fill="#D6D6D6" points="34 62 72 62 72 8 34 8"></polygon>
                            <path d="M0,8 L34,8 L34,0 L8,0 C3.581722,8.11624501e-16 -5.41083001e-16,3.581722 0,8 Z" id="Fill-31" fill="#BCF2EB"></path>
                            <polygon id="Fill-32" fill="#2898BC" points="34 8 72 8 72 0 34 0"></polygon>
                            <g id="Group-9" transform="translate(36.000000, 10.000000)" fill="#213C4A">
                                <rect id="Rectangle-32" x="0" y="0" width="2" height="2"></rect>
                                <rect id="Rectangle-32" x="8" y="0" width="2" height="2"></rect>
                                <rect id="Rectangle-32" x="16" y="0" width="2" height="2"></rect>
                                <rect id="Rectangle-32" x="24" y="0" width="2" height="2"></rect>
                                <rect id="Rectangle-32" x="4" y="0" width="2" height="2"></rect>
                                <rect id="Rectangle-32" x="12" y="0" width="2" height="2"></rect>
                                <rect id="Rectangle-32" x="20" y="0" width="2" height="2"></rect>
                                <rect id="Rectangle-32" x="28" y="0" width="2" height="2"></rect>
                                <rect id="Rectangle-32" x="32" y="0" width="2" height="2"></rect>
                                <rect id="Rectangle-32" x="0" y="4" width="2" height="2"></rect>
                                <rect id="Rectangle-32" x="8" y="4" width="2" height="2"></rect>
                                <rect id="Rectangle-32" x="16" y="4" width="2" height="2"></rect>
                                <rect id="Rectangle-32" x="24" y="4" width="2" height="2"></rect>
                                <rect id="Rectangle-32" x="4" y="4" width="2" height="2"></rect>
                                <rect id="Rectangle-32" x="12" y="4" width="2" height="2"></rect>
                                <rect id="Rectangle-32" x="20" y="4" width="2" height="2"></rect>
                                <rect id="Rectangle-32" x="28" y="4" width="2" height="2"></rect>
                                <rect id="Rectangle-32" x="32" y="4" width="2" height="2"></rect>
                                <rect id="Rectangle-32" x="0" y="16" width="2" height="2"></rect>
                                <rect id="Rectangle-32" x="8" y="16" width="2" height="2"></rect>
                                <rect id="Rectangle-32" x="16" y="16" width="2" height="2"></rect>
                                <rect id="Rectangle-32" x="24" y="16" width="2" height="2"></rect>
                                <rect id="Rectangle-32" x="4" y="16" width="2" height="2"></rect>
                                <rect id="Rectangle-32" x="12" y="16" width="2" height="2"></rect>
                                <rect id="Rectangle-32" x="20" y="16" width="2" height="2"></rect>
                                <rect id="Rectangle-32" x="28" y="16" width="2" height="2"></rect>
                                <rect id="Rectangle-32" x="32" y="16" width="2" height="2"></rect>
                                <rect id="Rectangle-32" x="0" y="20" width="2" height="2"></rect>
                                <rect id="Rectangle-32" x="8" y="20" width="2" height="2"></rect>
                                <rect id="Rectangle-32" x="16" y="20" width="2" height="2"></rect>
                                <rect id="Rectangle-32" x="24" y="20" width="2" height="2"></rect>
                                <rect id="Rectangle-32" x="4" y="20" width="2" height="2"></rect>
                                <rect id="Rectangle-32" x="12" y="20" width="2" height="2"></rect>
                                <rect id="Rectangle-32" x="20" y="20" width="2" height="2"></rect>
                                <rect id="Rectangle-32" x="28" y="20" width="2" height="2"></rect>
                                <rect id="Rectangle-32" x="32" y="20" width="2" height="2"></rect>
                                <rect id="Rectangle-32" x="0" y="32" width="2" height="2"></rect>
                                <rect id="Rectangle-32" x="8" y="32" width="2" height="2"></rect>
                                <rect id="Rectangle-32" x="16" y="32" width="2" height="2"></rect>
                                <rect id="Rectangle-32" x="24" y="32" width="2" height="2"></rect>
                                <rect id="Rectangle-32" x="4" y="32" width="2" height="2"></rect>
                                <rect id="Rectangle-32" x="12" y="32" width="2" height="2"></rect>
                                <rect id="Rectangle-32" x="20" y="32" width="2" height="2"></rect>
                                <rect id="Rectangle-32" x="28" y="32" width="2" height="2"></rect>
                                <rect id="Rectangle-32" x="32" y="32" width="2" height="2"></rect>
                                <rect id="Rectangle-32" x="0" y="36" width="2" height="2"></rect>
                                <rect id="Rectangle-32" x="8" y="36" width="2" height="2"></rect>
                                <rect id="Rectangle-32" x="16" y="36" width="2" height="2"></rect>
                                <rect id="Rectangle-32" x="24" y="36" width="2" height="2"></rect>
                                <rect id="Rectangle-32" x="4" y="36" width="2" height="2"></rect>
                                <rect id="Rectangle-32" x="12" y="36" width="2" height="2"></rect>
                                <rect id="Rectangle-32" x="20" y="36" width="2" height="2"></rect>
                                <rect id="Rectangle-32" x="28" y="36" width="2" height="2"></rect>
                                <rect id="Rectangle-32" x="32" y="36" width="2" height="2"></rect>
                                <rect id="Rectangle-32" x="0" y="8" width="2" height="2"></rect>
                                <rect id="Rectangle-32" x="8" y="8" width="2" height="2"></rect>
                                <rect id="Rectangle-32" x="16" y="8" width="2" height="2"></rect>
                                <rect id="Rectangle-32" x="24" y="8" width="2" height="2"></rect>
                                <rect id="Rectangle-32" x="4" y="8" width="2" height="2"></rect>
                                <rect id="Rectangle-32" x="12" y="8" width="2" height="2"></rect>
                                <rect id="Rectangle-32" x="20" y="8" width="2" height="2"></rect>
                                <rect id="Rectangle-32" x="28" y="8" width="2" height="2"></rect>
                                <rect id="Rectangle-32" x="32" y="8" width="2" height="2"></rect>
                                <rect id="Rectangle-32" x="0" y="12" width="2" height="2"></rect>
                                <rect id="Rectangle-32" x="8" y="12" width="2" height="2"></rect>
                                <rect id="Rectangle-32" x="16" y="12" width="2" height="2"></rect>
                                <rect id="Rectangle-32" x="24" y="12" width="2" height="2"></rect>
                                <rect id="Rectangle-32" x="4" y="12" width="2" height="2"></rect>
                                <rect id="Rectangle-32" x="12" y="12" width="2" height="2"></rect>
                                <rect id="Rectangle-32" x="20" y="12" width="2" height="2"></rect>
                                <rect id="Rectangle-32" x="28" y="12" width="2" height="2"></rect>
                                <rect id="Rectangle-32" x="32" y="12" width="2" height="2"></rect>
                                <rect id="Rectangle-32" x="0" y="24" width="2" height="2"></rect>
                                <rect id="Rectangle-32" x="8" y="24" width="2" height="2"></rect>
                                <rect id="Rectangle-32" x="16" y="24" width="2" height="2"></rect>
                                <rect id="Rectangle-32" x="24" y="24" width="2" height="2"></rect>
                                <rect id="Rectangle-32" x="4" y="24" width="2" height="2"></rect>
                                <rect id="Rectangle-32" x="12" y="24" width="2" height="2"></rect>
                                <rect id="Rectangle-32" x="20" y="24" width="2" height="2"></rect>
                                <rect id="Rectangle-32" x="28" y="24" width="2" height="2"></rect>
                                <rect id="Rectangle-32" x="32" y="24" width="2" height="2"></rect>
                                <rect id="Rectangle-32" x="0" y="28" width="2" height="2"></rect>
                                <rect id="Rectangle-32" x="8" y="28" width="2" height="2"></rect>
                                <rect id="Rectangle-32" x="16" y="28" width="2" height="2"></rect>
                                <rect id="Rectangle-32" x="24" y="28" width="2" height="2"></rect>
                                <rect id="Rectangle-32" x="4" y="28" width="2" height="2"></rect>
                                <rect id="Rectangle-32" x="12" y="28" width="2" height="2"></rect>
                                <rect id="Rectangle-32" x="20" y="28" width="2" height="2"></rect>
                                <rect id="Rectangle-32" x="28" y="28" width="2" height="2"></rect>
                                <rect id="Rectangle-32" x="32" y="28" width="2" height="2"></rect>
                                <rect id="Rectangle-32" x="0" y="40" width="2" height="2"></rect>
                                <rect id="Rectangle-32" x="8" y="40" width="2" height="2"></rect>
                                <rect id="Rectangle-32" x="16" y="40" width="2" height="2"></rect>
                                <rect id="Rectangle-32" x="24" y="40" width="2" height="2"></rect>
                                <rect id="Rectangle-32" x="4" y="40" width="2" height="2"></rect>
                                <rect id="Rectangle-32" x="12" y="40" width="2" height="2"></rect>
                                <rect id="Rectangle-32" x="20" y="40" width="2" height="2"></rect>
                                <rect id="Rectangle-32" x="28" y="40" width="2" height="2"></rect>
                                <rect id="Rectangle-32" x="32" y="40" width="2" height="2"></rect>
                                <rect id="Rectangle-32" x="0" y="44" width="2" height="2"></rect>
                                <rect id="Rectangle-32" x="8" y="44" width="2" height="2"></rect>
                                <rect id="Rectangle-32" x="16" y="44" width="2" height="2"></rect>
                                <rect id="Rectangle-32" x="24" y="44" width="2" height="2"></rect>
                                <rect id="Rectangle-32" x="4" y="44" width="2" height="2"></rect>
                                <rect id="Rectangle-32" x="12" y="44" width="2" height="2"></rect>
                                <rect id="Rectangle-32" x="20" y="44" width="2" height="2"></rect>
                                <rect id="Rectangle-32" x="28" y="44" width="2" height="2"></rect>
                                <rect id="Rectangle-32" x="32" y="44" width="2" height="2"></rect>
                                <rect id="Rectangle-32" x="0" y="48" width="2" height="2"></rect>
                                <rect id="Rectangle-32" x="8" y="48" width="2" height="2"></rect>
                                <rect id="Rectangle-32" x="16" y="48" width="2" height="2"></rect>
                                <rect id="Rectangle-32" x="24" y="48" width="2" height="2"></rect>
                                <rect id="Rectangle-32" x="4" y="48" width="2" height="2"></rect>
                                <rect id="Rectangle-32" x="12" y="48" width="2" height="2"></rect>
                                <rect id="Rectangle-32" x="20" y="48" width="2" height="2"></rect>
                                <rect id="Rectangle-32" x="28" y="48" width="2" height="2"></rect>
                                <rect id="Rectangle-32" x="32" y="48" width="2" height="2"></rect>
                            </g>
                        </g>
                        <g id="Group-17" transform="translate(148.000000, 0.000000)">
                            <path d="M0,136 L50,138 L50,8 L20,8 C8.954305,8 2.20000618e-15,16.954305 3.55271368e-15,28 L0,136 Z" id="Fill-25" fill="#FFFFFF"></path>
                            <polygon id="Fill-28" fill="#D6D6D6" points="28 138 50 138 50 8 28 8"></polygon>
                            <polygon id="Fill-30" fill="#D6D6D6" points="28 138 0 138 0 76 28 104"></polygon>
                            <polygon id="Fill-33" fill="#FFFFFF" points="18 8 28 8 28 0 18 0"></polygon>
                            <polygon id="Fill-34" fill="#D6D6D6" points="28 8 38 8 38 0 28 0"></polygon>
                            <g id="Group-10" transform="translate(30.000000, 10.000000)" fill="#213C4A">
                                <rect id="Rectangle-32" x="0" y="12" width="2" height="2"></rect>
                                <rect id="Rectangle-32" x="8" y="12" width="2" height="2"></rect>
                                <rect id="Rectangle-32" x="16" y="12" width="2" height="2"></rect>
                                <rect id="Rectangle-32" x="4" y="12" width="2" height="2"></rect>
                                <rect id="Rectangle-32" x="12" y="12" width="2" height="2"></rect>
                                <rect id="Rectangle-32" x="0" y="16" width="2" height="2"></rect>
                                <rect id="Rectangle-32" x="8" y="16" width="2" height="2"></rect>
                                <rect id="Rectangle-32" x="16" y="16" width="2" height="2"></rect>
                                <rect id="Rectangle-32" x="4" y="16" width="2" height="2"></rect>
                                <rect id="Rectangle-32" x="12" y="16" width="2" height="2"></rect>
                                <rect id="Rectangle-32" x="0" y="28" width="2" height="2"></rect>
                                <rect id="Rectangle-32" x="8" y="28" width="2" height="2"></rect>
                                <rect id="Rectangle-32" x="16" y="28" width="2" height="2"></rect>
                                <rect id="Rectangle-32" x="4" y="28" width="2" height="2"></rect>
                                <rect id="Rectangle-32" x="12" y="28" width="2" height="2"></rect>
                                <rect id="Rectangle-32" x="0" y="32" width="2" height="2"></rect>
                                <rect id="Rectangle-32" x="8" y="32" width="2" height="2"></rect>
                                <rect id="Rectangle-32" x="16" y="32" width="2" height="2"></rect>
                                <rect id="Rectangle-32" x="4" y="32" width="2" height="2"></rect>
                                <rect id="Rectangle-32" x="12" y="32" width="2" height="2"></rect>
                                <rect id="Rectangle-32" x="0" y="4" width="2" height="2"></rect>
                                <rect id="Rectangle-32" x="8" y="4" width="2" height="2"></rect>
                                <rect id="Rectangle-32" x="16" y="4" width="2" height="2"></rect>
                                <rect id="Rectangle-32" x="4" y="4" width="2" height="2"></rect>
                                <rect id="Rectangle-32" x="12" y="4" width="2" height="2"></rect>
                                <rect id="Rectangle-32" x="0" y="0" width="2" height="2"></rect>
                                <rect id="Rectangle-32" x="8" y="0" width="2" height="2"></rect>
                                <rect id="Rectangle-32" x="16" y="0" width="2" height="2"></rect>
                                <rect id="Rectangle-32" x="4" y="0" width="2" height="2"></rect>
                                <rect id="Rectangle-32" x="12" y="0" width="2" height="2"></rect>
                                <rect id="Rectangle-32" x="0" y="8" width="2" height="2"></rect>
                                <rect id="Rectangle-32" x="8" y="8" width="2" height="2"></rect>
                                <rect id="Rectangle-32" x="16" y="8" width="2" height="2"></rect>
                                <rect id="Rectangle-32" x="4" y="8" width="2" height="2"></rect>
                                <rect id="Rectangle-32" x="12" y="8" width="2" height="2"></rect>
                                <rect id="Rectangle-32" x="0" y="20" width="2" height="2"></rect>
                                <rect id="Rectangle-32" x="8" y="20" width="2" height="2"></rect>
                                <rect id="Rectangle-32" x="16" y="20" width="2" height="2"></rect>
                                <rect id="Rectangle-32" x="4" y="20" width="2" height="2"></rect>
                                <rect id="Rectangle-32" x="12" y="20" width="2" height="2"></rect>
                                <rect id="Rectangle-32" x="0" y="24" width="2" height="2"></rect>
                                <rect id="Rectangle-32" x="8" y="24" width="2" height="2"></rect>
                                <rect id="Rectangle-32" x="16" y="24" width="2" height="2"></rect>
                                <rect id="Rectangle-32" x="4" y="24" width="2" height="2"></rect>
                                <rect id="Rectangle-32" x="12" y="24" width="2" height="2"></rect>
                                <rect id="Rectangle-32" x="0" y="36" width="2" height="2"></rect>
                                <rect id="Rectangle-32" x="8" y="36" width="2" height="2"></rect>
                                <rect id="Rectangle-32" x="16" y="36" width="2" height="2"></rect>
                                <rect id="Rectangle-32" x="4" y="36" width="2" height="2"></rect>
                                <rect id="Rectangle-32" x="12" y="36" width="2" height="2"></rect>
                                <rect id="Rectangle-32" x="0" y="40" width="2" height="2"></rect>
                                <rect id="Rectangle-32" x="8" y="40" width="2" height="2"></rect>
                                <rect id="Rectangle-32" x="16" y="40" width="2" height="2"></rect>
                                <rect id="Rectangle-32" x="4" y="40" width="2" height="2"></rect>
                                <rect id="Rectangle-32" x="12" y="40" width="2" height="2"></rect>
                                <rect id="Rectangle-32" x="0" y="44" width="2" height="2"></rect>
                                <rect id="Rectangle-32" x="8" y="44" width="2" height="2"></rect>
                                <rect id="Rectangle-32" x="16" y="44" width="2" height="2"></rect>
                                <rect id="Rectangle-32" x="4" y="44" width="2" height="2"></rect>
                                <rect id="Rectangle-32" x="12" y="44" width="2" height="2"></rect>
                                <rect id="Rectangle-32" x="0" y="48" width="2" height="2"></rect>
                                <rect id="Rectangle-32" x="8" y="48" width="2" height="2"></rect>
                                <rect id="Rectangle-32" x="16" y="48" width="2" height="2"></rect>
                                <rect id="Rectangle-32" x="4" y="48" width="2" height="2"></rect>
                                <rect id="Rectangle-32" x="12" y="48" width="2" height="2"></rect>
                                <rect id="Rectangle-32" x="0" y="52" width="2" height="2"></rect>
                                <rect id="Rectangle-32" x="8" y="52" width="2" height="2"></rect>
                                <rect id="Rectangle-32" x="16" y="52" width="2" height="2"></rect>
                                <rect id="Rectangle-32" x="4" y="52" width="2" height="2"></rect>
                                <rect id="Rectangle-32" x="12" y="52" width="2" height="2"></rect>
                                <rect id="Rectangle-32" x="0" y="56" width="2" height="2"></rect>
                                <rect id="Rectangle-32" x="8" y="56" width="2" height="2"></rect>
                                <rect id="Rectangle-32" x="16" y="56" width="2" height="2"></rect>
                                <rect id="Rectangle-32" x="4" y="56" width="2" height="2"></rect>
                                <rect id="Rectangle-32" x="12" y="56" width="2" height="2"></rect>
                                <rect id="Rectangle-32" x="0" y="68" width="2" height="2"></rect>
                                <rect id="Rectangle-32" x="8" y="68" width="2" height="2"></rect>
                                <rect id="Rectangle-32" x="16" y="68" width="2" height="2"></rect>
                                <rect id="Rectangle-32" x="4" y="68" width="2" height="2"></rect>
                                <rect id="Rectangle-32" x="12" y="68" width="2" height="2"></rect>
                                <rect id="Rectangle-32" x="0" y="72" width="2" height="2"></rect>
                                <rect id="Rectangle-32" x="8" y="72" width="2" height="2"></rect>
                                <rect id="Rectangle-32" x="16" y="72" width="2" height="2"></rect>
                                <rect id="Rectangle-32" x="4" y="72" width="2" height="2"></rect>
                                <rect id="Rectangle-32" x="12" y="72" width="2" height="2"></rect>
                                <rect id="Rectangle-32" x="0" y="84" width="2" height="2"></rect>
                                <rect id="Rectangle-32" x="8" y="84" width="2" height="2"></rect>
                                <rect id="Rectangle-32" x="16" y="84" width="2" height="2"></rect>
                                <rect id="Rectangle-32" x="4" y="84" width="2" height="2"></rect>
                                <rect id="Rectangle-32" x="12" y="84" width="2" height="2"></rect>
                                <rect id="Rectangle-32" x="0" y="88" width="2" height="2"></rect>
                                <rect id="Rectangle-32" x="8" y="88" width="2" height="2"></rect>
                                <rect id="Rectangle-32" x="16" y="88" width="2" height="2"></rect>
                                <rect id="Rectangle-32" x="4" y="88" width="2" height="2"></rect>
                                <rect id="Rectangle-32" x="12" y="88" width="2" height="2"></rect>
                                <rect id="Rectangle-32" x="0" y="60" width="2" height="2"></rect>
                                <rect id="Rectangle-32" x="8" y="60" width="2" height="2"></rect>
                                <rect id="Rectangle-32" x="16" y="60" width="2" height="2"></rect>
                                <rect id="Rectangle-32" x="4" y="60" width="2" height="2"></rect>
                                <rect id="Rectangle-32" x="12" y="60" width="2" height="2"></rect>
                                <rect id="Rectangle-32" x="0" y="64" width="2" height="2"></rect>
                                <rect id="Rectangle-32" x="8" y="64" width="2" height="2"></rect>
                                <rect id="Rectangle-32" x="16" y="64" width="2" height="2"></rect>
                                <rect id="Rectangle-32" x="4" y="64" width="2" height="2"></rect>
                                <rect id="Rectangle-32" x="12" y="64" width="2" height="2"></rect>
                                <rect id="Rectangle-32" x="0" y="76" width="2" height="2"></rect>
                                <rect id="Rectangle-32" x="8" y="76" width="2" height="2"></rect>
                                <rect id="Rectangle-32" x="16" y="76" width="2" height="2"></rect>
                                <rect id="Rectangle-32" x="4" y="76" width="2" height="2"></rect>
                                <rect id="Rectangle-32" x="12" y="76" width="2" height="2"></rect>
                                <rect id="Rectangle-32" x="0" y="80" width="2" height="2"></rect>
                                <rect id="Rectangle-32" x="8" y="80" width="2" height="2"></rect>
                                <rect id="Rectangle-32" x="16" y="80" width="2" height="2"></rect>
                                <rect id="Rectangle-32" x="4" y="80" width="2" height="2"></rect>
                                <rect id="Rectangle-32" x="12" y="80" width="2" height="2"></rect>
                                <rect id="Rectangle-32" x="0" y="92" width="2" height="2"></rect>
                                <rect id="Rectangle-32" x="8" y="92" width="2" height="2"></rect>
                                <rect id="Rectangle-32" x="16" y="92" width="2" height="2"></rect>
                                <rect id="Rectangle-32" x="4" y="92" width="2" height="2"></rect>
                                <rect id="Rectangle-32" x="12" y="92" width="2" height="2"></rect>
                                <rect id="Rectangle-32" x="0" y="96" width="2" height="2"></rect>
                                <rect id="Rectangle-32" x="8" y="96" width="2" height="2"></rect>
                                <rect id="Rectangle-32" x="16" y="96" width="2" height="2"></rect>
                                <rect id="Rectangle-32" x="4" y="96" width="2" height="2"></rect>
                                <rect id="Rectangle-32" x="12" y="96" width="2" height="2"></rect>
                                <rect id="Rectangle-32" x="0" y="100" width="2" height="2"></rect>
                                <rect id="Rectangle-32" x="8" y="100" width="2" height="2"></rect>
                                <rect id="Rectangle-32" x="16" y="100" width="2" height="2"></rect>
                                <rect id="Rectangle-32" x="4" y="100" width="2" height="2"></rect>
                                <rect id="Rectangle-32" x="12" y="100" width="2" height="2"></rect>
                                <rect id="Rectangle-32" x="0" y="104" width="2" height="2"></rect>
                                <rect id="Rectangle-32" x="8" y="104" width="2" height="2"></rect>
                                <rect id="Rectangle-32" x="16" y="104" width="2" height="2"></rect>
                                <rect id="Rectangle-32" x="4" y="104" width="2" height="2"></rect>
                                <rect id="Rectangle-32" x="12" y="104" width="2" height="2"></rect>
                                <rect id="Rectangle-32" x="0" y="108" width="2" height="2"></rect>
                                <rect id="Rectangle-32" x="8" y="108" width="2" height="2"></rect>
                                <rect id="Rectangle-32" x="16" y="108" width="2" height="2"></rect>
                                <rect id="Rectangle-32" x="4" y="108" width="2" height="2"></rect>
                                <rect id="Rectangle-32" x="12" y="108" width="2" height="2"></rect>
                                <rect id="Rectangle-32" x="0" y="112" width="2" height="2"></rect>
                                <rect id="Rectangle-32" x="8" y="112" width="2" height="2"></rect>
                                <rect id="Rectangle-32" x="16" y="112" width="2" height="2"></rect>
                                <rect id="Rectangle-32" x="4" y="112" width="2" height="2"></rect>
                                <rect id="Rectangle-32" x="12" y="112" width="2" height="2"></rect>
                                <rect id="Rectangle-32" x="0" y="116" width="2" height="2"></rect>
                                <rect id="Rectangle-32" x="8" y="116" width="2" height="2"></rect>
                                <rect id="Rectangle-32" x="16" y="116" width="2" height="2"></rect>
                                <rect id="Rectangle-32" x="4" y="116" width="2" height="2"></rect>
                                <rect id="Rectangle-32" x="12" y="116" width="2" height="2"></rect>
                                <rect id="Rectangle-32" x="0" y="120" width="2" height="2"></rect>
                                <rect id="Rectangle-32" x="8" y="120" width="2" height="2"></rect>
                                <rect id="Rectangle-32" x="16" y="120" width="2" height="2"></rect>
                                <rect id="Rectangle-32" x="4" y="120" width="2" height="2"></rect>
                                <rect id="Rectangle-32" x="12" y="120" width="2" height="2"></rect>
                                <rect id="Rectangle-32" x="0" y="124" width="2" height="2"></rect>
                                <rect id="Rectangle-32" x="8" y="124" width="2" height="2"></rect>
                                <rect id="Rectangle-32" x="16" y="124" width="2" height="2"></rect>
                                <rect id="Rectangle-32" x="4" y="124" width="2" height="2"></rect>
                                <rect id="Rectangle-32" x="12" y="124" width="2" height="2"></rect>
                            </g>
                        </g>
                        <g id="Group-12" transform="translate(305.000000, 54.000000)" fill="#2898BC">
                            <rect id="Rectangle-33" x="28" y="24" width="4" height="60"></rect>
                            <path d="M24.8062485,-4.86173627e-15 L42,0 C48.627417,-1.21743675e-15 54,5.372583 54,12 L54,12 C54,18.627417 48.627417,24 42,24 L6,24 C2.6862915,24 4.05812251e-16,21.3137085 0,18 L-2.66453526e-15,16 C-3.07034751e-15,12.6862915 2.6862915,10 6,10 L8.15500122,10 C10.585271,10 12.8837742,8.89528225 14.4019517,6.99756038 L16.9975604,3.75304952 C18.8952822,1.38089719 21.7684113,5.58041644e-16 24.8062485,0 Z" id="Rectangle-35"></path>
                        </g>
                        <g id="Group-18" transform="translate(0.000000, 24.000000)">
                            <rect id="Rectangle-33" fill="#2898BC" x="32" y="24" width="4" height="90"></rect>
                            <path d="M24.8062485,-4.86173627e-15 L42,0 C48.627417,-1.21743675e-15 54,5.372583 54,12 L54,12 C54,18.627417 48.627417,24 42,24 L6,24 C2.6862915,24 1.81939522e-12,21.3137085 1.8189894e-12,18 L1.81632487e-12,16 C1.81591906e-12,12.6862915 2.6862915,10 6,10 L8.15500122,10 C10.585271,10 12.8837742,8.89528225 14.4019517,6.99756038 L16.9975604,3.75304952 C18.8952822,1.38089719 21.7684113,5.58041644e-16 24.8062485,0 Z" id="Rectangle-35" fill="#BCF2EB"></path>
                            <path d="M20,24 L24,24 L24,29.5777949 C24,32.9213268 25.6710114,36.0436401 28.452998,37.8982978 L29.7658027,38.773501 C33.6605841,41.3700219 36,45.7412605 36,50.4222051 L36,54 L32,54 L32,50.4222051 C32,47.0786732 30.3289886,43.9563599 27.547002,42.1017022 L26.2341973,41.226499 C22.3394159,38.6299781 20,34.2587395 20,29.5777949 L20,24 Z" id="Line" fill="#2898BC" fill-rule="nonzero"></path>
                        </g>
                        <g id="Group-25" transform="translate(385.000000, 73.000000)">
                            <rect id="Rectangle-23" fill="#2898BC" x="12" y="21" width="2" height="42"></rect>
                            <rect id="Rectangle-2" stroke="#FFFFFF" stroke-width="2" fill="#FFBB03" transform="translate(13.000000, 12.927934) rotate(45.000000) translate(-13.000000, -12.927934) " x="5" y="4.92793427" width="16" height="16" rx="2"></rect>
                        </g>
                    </g>
                    <g id="Group-67" transform="translate(219.000000, 108.000000)">
                        <g id="Page-1">
                            <path d="M69.61955,16.3662 C69.55005,14.9787 68.53755,13.8207 67.17205,13.5667 L51.38355,10.6292 C49.16155,10.2157 47.07255,9.2707 45.29505,7.8742 L39.62305,3.4182 C36.80455,1.2037 33.32355,0.0002 29.73905,0.0002 L21.66205,0.0002 C18.14955,0.0002 14.89455,1.8427 13.08705,4.8547 L11.01955,8.3007 C10.38705,9.3547 9.24805,10.0002 8.01855,10.0002 L4.50005,10.0002 C2.01455,10.0002 5e-05,12.0147 5e-05,14.5002 L5e-05,22.0002 C5e-05,23.1047 0.89555,24.0002 2.00005,24.0002 L5.22655,24.0002 C6.15205,24.0002 6.96705,23.3677 7.16905,22.4647 C7.86855,19.3372 10.66155,17.0002 14.00005,17.0002 C16.96055,17.0002 19.49155,18.8377 20.51505,21.4347 C21.12155,22.9747 22.59005,23.9997 24.24505,24.0002 L47.75505,24.0002 C49.40955,24.0002 50.87805,22.9747 51.48505,21.4347 C52.50805,18.8377 55.03955,17.0002 58.00005,17.0002 C61.06005,17.0002 63.66155,18.9632 64.61305,21.6992 C65.10105,23.1022 66.47855,24.0002 67.96355,24.0002 L68.95005,24.0002 C68.96655,24.0002 68.98305,23.9997 69.00005,23.9987 C69.55155,23.9712 69.97655,23.5017 69.94855,22.9502 L69.61955,16.3662 Z" id="Fill-1" fill="url(#linearGradient-1)"></path>
                            <path d="M19.5,24.5 C19.5,27.5375 17.0375,30 14,30 C10.9625,30 8.5,27.5375 8.5,24.5 C8.5,21.4625 10.9625,19 14,19 C17.0375,19 19.5,21.4625 19.5,24.5" id="Fill-3" fill="#1A1A1A"></path>
                            <path d="M16.25,14 L14.75,14 C14.336,14 14,13.664 14,13.25 C14,12.836 14.336,12.5 14.75,12.5 L16.25,12.5 C16.664,12.5 17,12.836 17,13.25 C17,13.664 16.664,14 16.25,14" id="Fill-5" fill="#000000"></path>
                            <path d="M29.75,14 L28.25,14 C27.836,14 27.5,13.664 27.5,13.25 C27.5,12.836 27.836,12.5 28.25,12.5 L29.75,12.5 C30.164,12.5 30.5,12.836 30.5,13.25 C30.5,13.664 30.164,14 29.75,14" id="Fill-7" fill="#000000"></path>
                            <path d="M16.5,24.5 C16.5,25.8805 15.3805,27 14,27 C12.6195,27 11.5,25.8805 11.5,24.5 C11.5,23.1195 12.6195,22 14,22 C15.3805,22 16.5,23.1195 16.5,24.5" id="Fill-9" fill="#FFFFFF"></path>
                            <path d="M2,19 L0,19 L0,15 L1,15 C2.1045,15 3,15.8955 3,17 L3,18 C3,18.5525 2.5525,19 2,19" id="Fill-11" fill="#FF5F5F"></path>
                            <path d="M69,19 C67.6195,19 66.5,17.8805 66.5,16.5 L66.5,16 C66.5,15.4475 66.9475,15 67.5,15 L68,15 C69.1045,15 70,15.8955 70,17 L70,18 C70,18.5525 69.5525,19 69,19" id="Fill-13" fill="#FFDC5F"></path>
                            <path d="M42.2799,10 L29.4999,10 C28.1194,10 26.9999,8.8805 26.9999,7.5 L26.9999,4.5 C26.9999,3.3955 27.8954,2.5 28.9999,2.5 L29.0684,2.5 C32.2659,2.5 35.3744,3.557 37.9089,5.507 L42.5849,9.1035 C42.9634,9.395 42.7574,10 42.2799,10" id="Fill-15" fill="#FFFFFF"></path>
                            <path d="M15.64925,10 C14.48325,10 13.76325,8.728 14.36325,7.7285 L15.31525,6.1415 C16.67075,3.8825 19.11175,2.5 21.74625,2.5 L22.49975,2.5 C23.60475,2.5 24.49975,3.3955 24.49975,4.5 L24.49975,8 C24.49975,9.1045 23.60475,10 22.49975,10 L15.64925,10 Z" id="Fill-17" fill="#FFFFFF"></path>
                            <path d="M63.5,24.5 C63.5,27.5375 61.0375,30 58,30 C54.9625,30 52.5,27.5375 52.5,24.5 C52.5,21.4625 54.9625,19 58,19 C61.0375,19 63.5,21.4625 63.5,24.5" id="Fill-19" fill="#1A1A1A"></path>
                            <path d="M60.5,24.5 C60.5,25.8805 59.3805,27 58,27 C56.6195,27 55.5,25.8805 55.5,24.5 C55.5,23.1195 56.6195,22 58,22 C59.3805,22 60.5,23.1195 60.5,24.5" id="Fill-21" fill="#FFFFFF"></path>
                        </g>
                    </g>
                </g>
            </g>
        </g>
    </g>
</svg>