<svg xmlns="http://www.w3.org/2000/svg" width="113" height="113" viewBox="0 0 113 113">
    <g fill="none" fill-rule="evenodd">
        <path fill="#FFF" fill-rule="nonzero" d="M0 113l11.062-30.42C4.111 73.972 0 63.321 0 51.791 0 23.188 25.296 0 56.5 0S113 23.188 113 51.792c0 28.603-25.296 51.791-56.5 51.791-7.315 0-14.305-1.274-20.721-3.594L0 113z"/>
        <path fill="#FFBB03" d="M68.249 66.797l.932-.932 15.387-15.388a.5.5 0 0 1 .707 0l5.248 5.248a.5.5 0 0 1 0 .707L75.135 71.819l-.932.932-5.954-5.954z"/>
        <path fill="#404040" d="M68.249 66.797l5.954 5.954-6.455 1.076a.5.5 0 0 1-.575-.575l1.076-6.455z"/>
        <path fill="#2898BC" d="M86.466 48.58l3.703-3.704a1 1 0 0 1 1.414 0l4.54 4.54a1 1 0 0 1 0 1.415l-3.702 3.703a.5.5 0 0 1-.707 0l-5.248-5.248a.5.5 0 0 1 0-.707z"/>
        <g fill="#1A1A1A" transform="translate(28 51)">
            <circle cx="5" cy="5" r="5"/>
            <circle cx="19" cy="5" r="5"/>
            <circle cx="33" cy="5" r="5"/>
        </g>
    </g>
</svg>
