<?xml version="1.0" encoding="UTF-8"?>
<svg width="52px" height="59px" viewBox="0 0 52 59" version="1.1" xmlns="http://www.w3.org/2000/svg" xmlns:xlink="http://www.w3.org/1999/xlink">
    <!-- Generator: Sketch 50 (54983) - http://www.bohemiancoding.com/sketch -->
    <title>Illustration/ Credit/ Percent</title>
    <desc>Created with Sketch.</desc>
    <defs></defs>
    <g id="11.-Credit" stroke="none" stroke-width="1" fill="none" fill-rule="evenodd">
        <g id="11.1.1-Credit-Promo-1440" transform="translate(-694.000000, -596.000000)" fill="#404040">
            <g id="Group-44" transform="translate(574.000000, 544.000000)">
                <g id="Group-47" transform="translate(64.000000, 0.000000)">
                    <g id="Illustration/-Credit/-Percent" transform="translate(56.000000, 52.000000)">
                        <g id="%">
                            <path d="M0.55747775,12.0625 C0.55747775,8.7031082 1.57309259,5.90365703 3.60435275,3.6640625 C5.63561291,1.42446797 8.16162931,0.3046875 11.1824777,0.3046875 C14.229368,0.3046875 16.7553844,1.43097832 18.7606027,3.68359375 C20.7658211,5.93620918 21.7684152,8.79425352 21.7684152,12.2578125 L21.7684152,15.0703125 C21.7684152,18.3776207 20.7723315,21.1510305 18.780134,23.390625 C16.7879365,25.6302195 14.2814512,26.75 11.2606027,26.75 C8.21371252,26.75 5.66816505,25.6432402 3.623884,23.4296875 C1.57960295,21.2161348 0.55747775,18.3515801 0.55747775,14.8359375 L0.55747775,12.0625 Z M2.70591525,15.0703125 C2.70591525,17.7786594 3.48064709,20.0442617 5.030134,21.8671875 C6.57962091,23.6901133 8.65642306,24.6015625 11.2606027,24.6015625 C13.7606152,24.6015625 15.7788242,23.703134 17.3152902,21.90625 C18.8517563,20.109366 19.6199777,17.7656395 19.6199777,14.875 L19.6199777,12.0625 C19.6199777,9.24998594 18.8452459,6.94532148 17.295759,5.1484375 C15.7462721,3.35155352 13.708532,2.453125 11.1824777,2.453125 C8.70850705,2.453125 6.67727736,3.35155352 5.08872775,5.1484375 C3.50017814,6.94532148 2.70591525,9.34113086 2.70591525,12.3359375 L2.70591525,15.0703125 Z M30.0887277,44.0546875 C30.0887277,40.6952957 31.0978322,37.9023549 33.1160715,35.6757812 C35.1343108,33.4492076 37.6538168,32.3359375 40.6746652,32.3359375 C43.7215555,32.3359375 46.2540822,33.4492076 48.2723215,35.6757812 C50.2905608,37.9023549 51.2996652,40.7864406 51.2996652,44.328125 L51.2996652,47.1015625 C51.2996652,50.4609543 50.2905608,53.2538951 48.2723215,55.4804688 C46.2540822,57.7070424 43.7475969,58.8203125 40.7527902,58.8203125 C37.7319418,58.8203125 35.1994151,57.7135527 33.155134,55.5 C31.1108529,53.2864473 30.0887277,50.4218926 30.0887277,46.90625 L30.0887277,44.0546875 Z M32.2371652,47.1015625 C32.2371652,49.8880348 33.0118971,52.1796785 34.561384,53.9765625 C36.1108709,55.7734465 38.1746524,56.671875 40.7527902,56.671875 C43.3048863,56.671875 45.3426264,55.7669361 46.8660715,53.9570312 C48.3895166,52.1471264 49.1512277,49.7968895 49.1512277,46.90625 L49.1512277,44.0546875 C49.1512277,41.1119645 48.3895166,38.7812586 46.8660715,37.0625 C45.3426264,35.3437414 43.2788449,34.484375 40.6746652,34.484375 C38.0965274,34.484375 36.0457666,35.3632725 34.5223215,37.1210938 C32.9988764,38.878915 32.2371652,41.2421727 32.2371652,44.2109375 L32.2371652,47.1015625 Z M12.5887277,52.8828125 L10.8309152,51.671875 L38.6043527,7.21875 L40.3621652,8.4296875 L12.5887277,52.8828125 Z"></path>
                        </g>
                    </g>
                </g>
            </g>
        </g>
    </g>
</svg>