<?xml version="1.0" encoding="UTF-8"?>
<svg width="64px" height="64px" viewBox="0 0 64 64" version="1.1" xmlns="http://www.w3.org/2000/svg" xmlns:xlink="http://www.w3.org/1999/xlink">
    <!-- Generator: Sketch 50 (54983) - http://www.bohemiancoding.com/sketch -->
    <title>Illustration/ Credit/ Phone</title>
    <desc>Created with Sketch.</desc>
    <defs></defs>
    <g id="UI-Set" stroke="none" stroke-width="1" fill="none" fill-rule="evenodd">
        <g id="01.-Icons" transform="translate(-1198.000000, -1678.000000)" fill="#BCF2EB">
            <g id="Group-20" transform="translate(1148.000000, 1628.000000)">
                <g id="Illustration/-Credit/-Phone" transform="translate(50.000000, 50.000000)">
                    <g id="10-Phone-s">
                        <path d="M28.364,55.748 C26.2,54.5 22.776,51.648 17.584,46.46 C12.348,41.224 9.496,37.796 8.252,35.636 C-5.94,15.916 2.008,4.576 4.196,2.388 C6.76,-0.172 14.496,-0.6 14.556,0.756 C14.616,2.108 21.528,17.128 21.592,18.484 C21.648,19.84 17.032,24.456 15.68,25.808 C14.34,27.148 24.712,38.868 24.908,39.088 C25.132,39.284 36.856,49.66 38.192,48.32 C39.544,46.968 44.16,42.352 45.516,42.412 C46.868,42.472 61.892,49.384 63.248,49.44 C64.6,49.504 64.176,57.24 61.612,59.804 C59.424,61.992 48.084,69.94 28.364,55.748 Z"></path>
                    </g>
                </g>
            </g>
        </g>
    </g>
</svg>