<?xml version="1.0" encoding="UTF-8"?>
<svg width="28px" height="59px" viewBox="0 0 28 59" version="1.1" xmlns="http://www.w3.org/2000/svg" xmlns:xlink="http://www.w3.org/1999/xlink">
    <!-- Generator: Sketch 50 (54983) - http://www.bohemiancoding.com/sketch -->
    <title>Illustration/ Credit/ Question</title>
    <desc>Created with Sketch.</desc>
    <defs></defs>
    <g id="UI-Set" stroke="none" stroke-width="1" fill="none" fill-rule="evenodd">
        <g id="01.-Icons" transform="translate(-1012.000000, -1681.000000)" fill="#404040">
            <g id="Group-47" transform="translate(944.000000, 1628.000000)">
                <g id="Illustration/-Credit/-Question" transform="translate(68.000000, 53.000000)">
                    <g id="?">
                        <path d="M11.9168527,42.375 C11.9689363,39.4583188 12.4181506,37.0690197 13.264509,35.2070312 C14.1108674,33.3450428 15.7059035,31.3203234 18.0496652,29.1328125 C20.393427,26.9453016 22.0340356,25.1875066 22.9715402,23.859375 C23.9090449,22.5312434 24.5926319,21.1510488 25.0223215,19.71875 C25.4520111,18.2864512 25.6668527,16.5677184 25.6668527,14.5625 C25.6668527,10.7864395 24.6642586,7.81771914 22.6590402,5.65625 C20.6538219,3.49478086 17.8934328,2.4140625 14.3777902,2.4140625 C10.6277715,2.4140625 7.67858224,3.53384297 5.530134,5.7734375 C3.38168576,8.01303203 2.28143634,10.8906074 2.22935275,14.40625 L0.11997775,14.40625 C0.172061344,10.1874789 1.53923517,6.78907539 4.22154025,4.2109375 C6.90384533,1.63279961 10.2892281,0.34375 14.3777902,0.34375 C18.4663524,0.34375 21.7215281,1.63279961 24.1434152,4.2109375 C26.5653024,6.78907539 27.7762277,10.2656031 27.7762277,14.640625 C27.7762277,17.6354316 27.1902961,20.2981654 26.0184152,22.6289062 C24.8465344,24.9596471 22.5679113,27.661443 19.1824777,30.734375 C15.7449606,33.4166801 14.0262277,37.2968496 14.0262277,42.375 L11.9168527,42.375 Z M10.9793527,56.0859375 C10.9793527,55.4869762 11.187684,54.9726584 11.6043527,54.5429688 C12.0210215,54.1132791 12.5288289,53.8984375 13.1277902,53.8984375 C13.7267516,53.8984375 14.2410694,54.1132791 14.670759,54.5429688 C15.1004486,54.9726584 15.3152902,55.4869762 15.3152902,56.0859375 C15.3152902,56.6848988 15.1004486,57.1927063 14.670759,57.609375 C14.2410694,58.0260437 13.7267516,58.234375 13.1277902,58.234375 C12.5288289,58.234375 12.0210215,58.0260437 11.6043527,57.609375 C11.187684,57.1927063 10.9793527,56.6848988 10.9793527,56.0859375 Z"></path>
                    </g>
                </g>
            </g>
        </g>
    </g>
</svg>