<?xml version="1.0" encoding="UTF-8"?>
<svg width="100px" height="70px" viewBox="0 0 100 70" version="1.1" xmlns="http://www.w3.org/2000/svg" xmlns:xlink="http://www.w3.org/1999/xlink">
    <!-- Generator: Sketch 53.2 (72643) - https://sketchapp.com -->
    <title>Group 23</title>
    <desc>Created with Sketch.</desc>
    <defs>
        <linearGradient x1="50%" y1="0%" x2="50%" y2="98.4813457%" id="linearGradient-1">
            <stop stop-color="#F2F2F2" offset="0%"></stop>
            <stop stop-color="#C4C4C4" offset="100%"></stop>
        </linearGradient>
        <linearGradient x1="50%" y1="0%" x2="50%" y2="98.4813457%" id="linearGradient-2">
            <stop stop-color="#F2F2F2" offset="0%"></stop>
            <stop stop-color="#C4C4C4" offset="100%"></stop>
        </linearGradient>
        <path d="M6,27.5 L9.01192309,26.245032 C10.9075359,25.4551934 12.3607029,23.8728033 12.9865844,21.9169237 L17.7752823,6.95224273 C19.1006578,2.81044423 22.9508326,7.90426897e-15 27.2995238,7.10542736e-15 L72.7004762,5.32907052e-15 C77.0491674,4.53022891e-15 80.8993422,2.81044423 82.2247177,6.95224273 L86.8724749,21.4764842 C87.5877681,23.7117752 89.2485304,25.520221 91.414945,26.4228938 L94,27.5 C97.6333077,29.0138782 100,32.5639167 100,36.5 L100,52 C100,54.7614237 97.7614237,57 95,57 L5,57 C2.23857625,57 3.38176876e-16,54.7614237 0,52 L1.77635684e-15,36.5 C-2.20161858e-15,32.5639167 2.36669235,29.0138782 6,27.5 Z" id="path-3"></path>
        <path d="M4.45786502,-1.18916824e-18 L51.542135,-8.8817842e-16 C53.751274,-1.29399067e-15 55.542135,1.790861 55.542135,4 C55.542135,4.40863532 55.4795186,4.81485791 55.3564656,5.20452547 L53.2069536,12.0113137 C51.8931781,16.1716027 48.0339254,19 43.6711269,19 L12.3288731,19 C7.96607462,19 4.10682189,16.1716027 2.79304643,12.0113137 L0.643534359,5.20452547 C-0.0217066893,3.09792882 1.14674289,0.850910388 3.25333955,0.185669339 C3.64300711,0.0626164265 4.0492297,7.50650905e-17 4.45786502,0 Z" id="path-5"></path>
        <path d="M11.3188698,-5.32907052e-15 L54.6811302,-6.21724894e-15 C58.3856138,-6.89775152e-15 61.6055455,2.54329117 62.4635799,6.14703578 L66,21 L0,21 L3.53642005,6.14703578 C4.39445448,2.54329117 7.61438623,-3.76038951e-15 11.3188698,-4.4408921e-15 Z" id="path-7"></path>
        <filter x="-0.8%" y="-2.4%" width="101.5%" height="109.5%" filterUnits="objectBoundingBox" id="filter-9">
            <feOffset dx="0" dy="1" in="SourceAlpha" result="shadowOffsetOuter1"></feOffset>
            <feColorMatrix values="0 0 0 0 1   0 0 0 0 1   0 0 0 0 1  0 0 0 0.6 0" type="matrix" in="shadowOffsetOuter1"></feColorMatrix>
        </filter>
    </defs>
    <g id="UI-Set" stroke="none" stroke-width="1" fill="none" fill-rule="evenodd">
        <g id="00.-cars" transform="translate(-370.000000, -2244.000000)">
            <g id="Group-23" transform="translate(370.000000, 2244.000000)">
                <path d="M4,57 L16,57 L16,68 C16,69.1045695 15.1045695,70 14,70 L6,70 C4.8954305,70 4,69.1045695 4,68 L4,57 Z" id="Rectangle-20" fill="#1A1A1A"></path>
                <path d="M84,57 L96,57 L96,68 C96,69.1045695 95.1045695,70 94,70 L86,70 C84.8954305,70 84,69.1045695 84,68 L84,57 Z" id="Rectangle-20" fill="#1A1A1A"></path>
                <g id="Group-2">
                    <path d="M4.84247031,20 L13.5,20 C15.4329966,20 17,21.5670034 17,23.5 L17,23.5 C17,25.4329966 15.4329966,27 13.5,27 L7.04478515,27 C5.02013866,27 3.30612738,25.5057379 3.03006804,23.5 L2.86114869,22.2726988 C2.7105413,21.1784451 3.4755178,20.1692858 4.56977151,20.0186784 C4.66013879,20.0062407 4.75125112,20 4.84247031,20 Z" id="Rectangle-23" fill="url(#linearGradient-1)"></path>
                    <path d="M86.5,20 L94.9995409,20 C96.1041104,20 96.9995409,20.8954305 96.9995409,22 C96.9995409,22.0967252 96.9925241,22.193323 96.9785457,22.2890328 L96.8016845,23.5 C96.5081491,25.5098341 94.7845359,27 92.7533796,27 L86.5,27 C84.5670034,27 83,25.4329966 83,23.5 L83,23.5 C83,21.5670034 84.5670034,20 86.5,20 Z" id="Rectangle-23" fill="url(#linearGradient-1)"></path>
                    <mask id="mask-4" fill="white">
                        <use xlink:href="#path-3"></use>
                    </mask>
                    <use id="Rectangle-6" fill="url(#linearGradient-2)" xlink:href="#path-3"></use>
                    <g id="Group-22" mask="url(#mask-4)">
                        <g transform="translate(22.000000, 38.000000)">
                            <mask id="mask-6" fill="white">
                                <use xlink:href="#path-5"></use>
                            </mask>
                            <use id="Rectangle-21" stroke="none" fill-opacity="0" fill="#FFFFFF" fill-rule="evenodd" xlink:href="#path-5"></use>
                            <rect id="Rectangle-18" stroke="none" fill="#404040" fill-rule="evenodd" mask="url(#mask-6)" x="0" y="0" width="56" height="1"></rect>
                            <rect id="Rectangle-18" stroke="none" fill="#404040" fill-rule="evenodd" mask="url(#mask-6)" x="0" y="2" width="56" height="1"></rect>
                            <rect id="Rectangle-18" stroke="none" fill="#404040" fill-rule="evenodd" mask="url(#mask-6)" x="0" y="4" width="56" height="1"></rect>
                            <rect id="Rectangle-18" stroke="none" fill="#404040" fill-rule="evenodd" mask="url(#mask-6)" x="0" y="6" width="56" height="1"></rect>
                            <rect id="Rectangle-18" stroke="none" fill="#404040" fill-rule="evenodd" mask="url(#mask-6)" x="0" y="8" width="56" height="1"></rect>
                            <rect id="Rectangle-18" stroke="none" fill="#404040" fill-rule="evenodd" mask="url(#mask-6)" x="0" y="10" width="56" height="1"></rect>
                            <rect id="Rectangle-18" stroke="none" fill="#404040" fill-rule="evenodd" mask="url(#mask-6)" x="0" y="12" width="56" height="1"></rect>
                            <rect id="Rectangle-18" stroke="none" fill="#404040" fill-rule="evenodd" mask="url(#mask-6)" x="0" y="14" width="56" height="1"></rect>
                            <rect id="Rectangle-18" stroke="none" fill="#404040" fill-rule="evenodd" mask="url(#mask-6)" x="0" y="16" width="56" height="1"></rect>
                            <rect id="Rectangle-18" stroke="none" fill="#404040" fill-rule="evenodd" mask="url(#mask-6)" x="0" y="18" width="56" height="1"></rect>
                        </g>
                    </g>
                    <g id="Group-3" mask="url(#mask-4)">
                        <g transform="translate(17.000000, 3.000000)">
                            <mask id="mask-8" fill="white">
                                <use xlink:href="#path-7"></use>
                            </mask>
                            <g id="Rectangle-22" stroke="none" fill="none">
                                <use fill="black" fill-opacity="1" filter="url(#filter-9)" xlink:href="#path-7"></use>
                                <use fill="#BCF2EB" fill-rule="evenodd" xlink:href="#path-7"></use>
                            </g>
                            <rect id="Rectangle" stroke="none" fill-opacity="0.6" fill="#404040" fill-rule="nonzero" mask="url(#mask-8)" x="28" y="2" width="10" height="4" rx="2"></rect>
                            <circle id="Oval" stroke="#404040" stroke-width="2" fill-opacity="0" fill="#FFFFFF" fill-rule="evenodd" mask="url(#mask-8)" cx="54" cy="23" r="6"></circle>
                        </g>
                    </g>
                    <path d="M0,33.5 C1.29048968e-16,32.3379602 1.56185821,32 3.12371642,32 L4.68557463,32 C9.34949263,32 15.5340102,34.6213974 17.0774381,37.5279083 C17.8965692,39.0704575 18.6778925,41 17.0384735,41 C10.9330075,41 0,38 0,33.5 Z" id="Fill-13" fill="#FFEC7D" mask="url(#mask-4)"></path>
                    <path d="M82,33.5 C82,32.3379602 83.5618582,32 85.1237164,32 L86.6855746,32 C91.3494926,32 97.5340102,34.6213974 99.0774381,37.5279083 C99.8965692,39.0704575 100.677892,41 99.0384735,41 C92.9330075,41 82,38 82,33.5 Z" id="Fill-13" fill="#FFEC7D" mask="url(#mask-4)" transform="translate(91.000000, 36.500000) scale(-1, 1) translate(-91.000000, -36.500000) "></path>
                </g>
            </g>
        </g>
    </g>
</svg>