<?xml version="1.0" encoding="UTF-8"?>
<svg width="200px" height="70px" viewBox="0 0 200 70" version="1.1" xmlns="http://www.w3.org/2000/svg" xmlns:xlink="http://www.w3.org/1999/xlink">
    <!-- Generator: Sketch 53.2 (72643) - https://sketchapp.com -->
    <title>Group 4</title>
    <desc>Created with Sketch.</desc>
    <defs>
        <linearGradient x1="91.3766044%" y1="0%" x2="19.496024%" y2="102.655901%" id="linearGradient-1">
            <stop stop-color="#EBEBEB" offset="0%"></stop>
            <stop stop-color="#D4D4D4" offset="100%"></stop>
        </linearGradient>
        <linearGradient x1="50%" y1="0%" x2="50%" y2="98.4813457%" id="linearGradient-2">
            <stop stop-color="#F2F2F2" offset="0%"></stop>
            <stop stop-color="#C4C4C4" offset="100%"></stop>
        </linearGradient>
        <path d="M68,57.0069875 C58.5,57.0069875 58,37.0069875 40,37.0069875 C28.9998772,37.0069875 21,45.008899 21,55.0069875 C9.13476562,55.0069875 1.8179902e-12,51.0250388 0,42.0069875 L0,35.0069875 C0,28.4583005 5,24.0069875 12,24.0069875 C25.2462919,24.0069875 47.9130042,24.0047058 80.0001368,24.0001425 L80.0001368,24.0001479 C80.552369,24.0000693 81,23.5523747 81,23.0001425 L80.9999882,3.00142015 C80.9999882,1.34512027 82.342264,0.00220168461 83.9985637,0.00140871886 C84.4187561,0.00120754865 84.7525682,0.000737975701 85,-1.23704134e-13 C111.427645,-0.078821549 123.324627,20.1466004 145,24 C176.746986,29.6439086 200,27.4583005 200,50.0069875 C200,54.4228913 198,57.0069875 195,57.0069875 L183,57.0069875 C183,46.0069875 175,37.0069875 164,37.0069875 C145,37.0069875 145,57.0069875 138,57.0069875 L68,57.0069875 Z" id="path-3"></path>
        <path d="M86,3 L87.0876095,3 C94.456543,3 103.222634,6.23479674 110,10 C113,11.6666667 120.666667,16.3311711 133,23.9935132 L86,23.9935132 C84.8954305,23.9935132 84,23.0980827 84,21.9935132 L84,5 C84,3.8954305 84.8954305,3 86,3 Z" id="path-5"></path>
        <filter x="-1.0%" y="-2.4%" width="102.0%" height="109.5%" filterUnits="objectBoundingBox" id="filter-6">
            <feOffset dx="0" dy="1" in="SourceAlpha" result="shadowOffsetOuter1"></feOffset>
            <feColorMatrix values="0 0 0 0 1   0 0 0 0 1   0 0 0 0 1  0 0 0 0.6 0" type="matrix" in="shadowOffsetOuter1"></feColorMatrix>
        </filter>
        <linearGradient x1="50%" y1="0%" x2="50%" y2="98.4813457%" id="linearGradient-7">
            <stop stop-color="#F2F2F2" offset="0%"></stop>
            <stop stop-color="#C4C4C4" offset="100%"></stop>
        </linearGradient>
    </defs>
    <g id="UI-Set" stroke="none" stroke-width="1" fill="none" fill-rule="evenodd">
        <g id="00.-cars" transform="translate(-128.000000, -2244.000000)">
            <g id="Group-4" transform="translate(128.000000, 2244.000000)">
                <g id="Group" transform="translate(25.000000, 40.000000)">
                    <path d="M30,15 C30,23.2840909 23.2840909,30 15,30 C6.71590909,30 0,23.2840909 0,15 C0,6.71590909 6.71590909,0 15,0 C23.2840909,0 30,6.71590909 30,15" id="Fill-3" fill="#1A1A1A"></path>
                    <path d="M25,15 C25,20.5227273 20.5227273,25 15,25 C9.47727273,25 5,20.5227273 5,15 C5,9.47727273 9.47727273,5 15,5 C20.5227273,5 25,9.47727273 25,15" id="Fill-3" fill="url(#linearGradient-1)"></path>
                </g>
                <g id="Group" transform="translate(149.000000, 40.000000)">
                    <path d="M30,15 C30,23.2840909 23.2840909,30 15,30 C6.71590909,30 0,23.2840909 0,15 C0,6.71590909 6.71590909,0 15,0 C23.2840909,0 30,6.71590909 30,15" id="Fill-3" fill="#1A1A1A"></path>
                    <path d="M25,15 C25,20.5227273 20.5227273,25 15,25 C9.47727273,25 5,20.5227273 5,15 C5,9.47727273 9.47727273,5 15,5 C20.5227273,5 25,9.47727273 25,15" id="Fill-3" fill="url(#linearGradient-1)"></path>
                </g>
                <g id="Group-21">
                    <mask id="mask-4" fill="white">
                        <use xlink:href="#path-3"></use>
                    </mask>
                    <use id="Fill-1" fill="url(#linearGradient-2)" xlink:href="#path-3"></use>
                    <path d="M88.5,35 L83.5,35 C82.12,35 81,34.104 81,33 L81,33 C81,31.896 82.12,31 83.5,31 L88.5,31 C89.88,31 91,31.896 91,33 L91,33 C91,34.104 89.88,35 88.5,35" id="Fill-7" fill="#404040" mask="url(#mask-4)"></path>
                    <path d="M179,33.5 C179,32.3379602 180.561858,32 182.123716,32 L183.685575,32 C188.349493,32 194.53401,34.6213974 196.077438,37.5279083 C196.896569,39.0704575 197.677892,41 196.038474,41 C189.933007,41 179,38 179,33.5 Z" id="Fill-13" fill="#FFEC7D" mask="url(#mask-4)"></path>
                    <path d="M0,33 L0,27 L7,27 C8.65685425,27 10,28.3431458 10,30 L10,32 C10,32.5522847 9.55228475,33 9,33 L0,33 Z" id="Fill-11" fill="#FF5F5F" mask="url(#mask-4)"></path>
                    <g id="Combined-Shape" mask="url(#mask-4)">
                        <use fill="black" fill-opacity="1" filter="url(#filter-6)" xlink:href="#path-5"></use>
                        <use fill="#BCF2EB" fill-rule="evenodd" xlink:href="#path-5"></use>
                    </g>
                    <path d="M124.84247,20 L131,20 C132.104569,20 133,20.8954305 133,22 L133,25 C133,26.1045695 132.104569,27 131,27 L127.044785,27 C125.020139,27 123.306127,25.5057379 123.030068,23.5 L122.861149,22.2726988 C122.710541,21.1784451 123.475518,20.1692858 124.569772,20.0186784 C124.660139,20.0062407 124.751251,20 124.84247,20 Z" id="Rectangle-23" fill="url(#linearGradient-7)" mask="url(#mask-4)"></path>
                </g>
                <path d="M34,22 L81,22 L81,23 C81,23.5522847 80.5522847,24 80,24 L34,24 C33.4477153,24 33,23.5522847 33,23 L33,23 C33,22.4477153 33.4477153,22 34,22 Z" id="Rectangle-11" fill="#404040"></path>
                <path d="M47,13 L47,13 C49.2640982,13 51.2686509,14.4632228 51.9587004,16.6196022 C53.1065172,20.2065356 54.4536217,22 56,22 C58,22 57,22 53,22 L48.9915131,22 C47.7338562,22 47.1141092,21.8683349 46.5212362,21.6061976 C45.9283633,21.3440602 45.4389297,20.9514504 45.0544224,20.4295611 C44.669915,19.9076718 44.4069433,19.3312449 44.1341192,18.1035366 L43.8677218,16.9047482 C43.4832975,15.1748388 44.5740287,13.4608326 46.3039382,13.0764083 C46.5324765,13.025622 46.7658867,13 47,13 Z" id="Rectangle-25" fill="#404040"></path>
            </g>
        </g>
    </g>
</svg>