<?xml version="1.0" encoding="UTF-8"?>
<svg width="20px" height="20px" viewBox="0 0 20 20" version="1.1" xmlns="http://www.w3.org/2000/svg" xmlns:xlink="http://www.w3.org/1999/xlink">
    <!-- Generator: Sketch 52.1 (67048) - http://www.bohemiancoding.com/sketch -->
    <title>Group 32</title>
    <desc>Created with Sketch.</desc>
    <defs>
        <path d="M3,0 L3,0 C4.65685425,-3.04359188e-16 6,1.34314575 6,3 L6,7.86399906 C6,9.2764822 5.74595594,10.6774508 5.25,12 L5.20037905,12.1323225 C4.73723618,13.3673702 4.5,14.6756489 4.5,15.9946804 L4.5,21.0857864 C4.5,21.3510029 4.60535684,21.6053568 4.79289322,21.7928932 L5.20710678,22.2071068 C5.39464316,22.3946432 5.5,22.6489971 5.5,22.9142136 L5.5,23.25 C5.5,23.6642136 5.16421356,24 4.75,24 L1.25,24 C0.835786438,24 0.5,23.6642136 0.5,23.25 L0.5,22.9142136 C0.5,22.6489971 0.60535684,22.3946432 0.792893219,22.2071068 L1,22 C1.32014462,21.6798554 1.5,21.2456461 1.5,20.7928932 L1.5,15.9946804 C1.5,14.6756489 1.26276382,13.3673702 0.799620953,12.1323225 L0.75,12 C0.254044059,10.6774508 1.72979296e-16,9.2764822 0,7.86399906 L0,3 C-2.02906125e-16,1.34314575 1.34314575,3.04359188e-16 3,0 Z" id="path-1"></path>
    </defs>
    <g id="03.4-Model-Insurance" stroke="none" stroke-width="1" fill="none" fill-rule="evenodd">
        <g id="03.4.3-Model-Insurance-768" transform="translate(-70.000000, -1809.000000)">
            <g id="Group-23" transform="translate(64.000000, 1803.000000)">
                <g id="Group-32" transform="translate(16.000000, 16.000000) rotate(45.000000) translate(-16.000000, -16.000000) translate(13.000000, 4.000000)">
                    <mask id="mask-2" fill="white">
                        <use xlink:href="#path-1"></use>
                    </mask>
                    <use id="Rectangle-6" fill="#FFBB03" fill-rule="nonzero" xlink:href="#path-1"></use>
                    <rect id="Rectangle-7" fill="#404040" fill-rule="nonzero" mask="url(#mask-2)" x="0" y="15" width="6" height="7"></rect>
                </g>
            </g>
        </g>
    </g>
</svg>