<?xml version="1.0" encoding="UTF-8"?>
<svg width="18px" height="15px" viewBox="0 0 18 15" version="1.1" xmlns="http://www.w3.org/2000/svg" xmlns:xlink="http://www.w3.org/1999/xlink">
    <!-- Generator: Sketch 52.1 (67048) - http://www.bohemiancoding.com/sketch -->
    <title>Group 6</title>
    <desc>Created with Sketch.</desc>
    <g id="03.4-Model-Insurance" stroke="none" stroke-width="1" fill="none" fill-rule="evenodd">
        <g id="03.4.3-Model-Insurance-768" transform="translate(-71.000000, -1714.000000)" fill-rule="nonzero">
            <g id="Group-10" transform="translate(64.000000, 1707.000000)">
                <g id="Group-6" transform="translate(6.000000, 6.000000)">
                    <path d="M11.6959966,2.71359457 L18.0875013,12.9400021 C18.672922,13.8766752 18.3881757,15.1105759 17.4515026,15.6959966 C17.1336394,15.8946611 16.7663442,16 16.3915047,16 L3.60849528,16 C2.50392578,16 1.60849528,15.1045695 1.60849528,14 C1.60849528,13.6251606 1.71383417,13.2578653 1.91249868,12.9400021 L8.30400339,2.71359457 C8.88942406,1.77692151 10.1233248,1.49217518 11.0599979,2.07759584 C11.3175361,2.23855726 11.5350352,2.45605631 11.6959966,2.71359457 Z" id="Rectangle-2" fill="#FFFFFF"></path>
                    <path d="M10,3.77359245 L3.60849528,14 L16.3915047,14 L10,3.77359245 Z M11.6959966,2.71359457 L18.0875013,12.9400021 C18.672922,13.8766752 18.3881757,15.1105759 17.4515026,15.6959966 C17.1336394,15.8946611 16.7663442,16 16.3915047,16 L3.60849528,16 C2.50392578,16 1.60849528,15.1045695 1.60849528,14 C1.60849528,13.6251606 1.71383417,13.2578653 1.91249868,12.9400021 L8.30400339,2.71359457 C8.88942406,1.77692151 10.1233248,1.49217518 11.0599979,2.07759584 C11.3175361,2.23855726 11.5350352,2.45605631 11.6959966,2.71359457 Z" id="Rectangle-2" fill="#FF5F5F"></path>
                    <g id="Group-12" transform="translate(9.000000, 7.000000)" fill="#1A1A1A">
                        <path d="M1.17768154,3.50034807 C1.12134867,3.60844885 0.878605922,3.60836375 0.822253676,3.50022375 C0.274084559,2.44828683 0,1.5037678 0,1 C1.84460114e-17,0.44771525 0.44771525,0 1,0 C1.55228475,0 2,0.44771525 2,1 C2,1.50378765 1.72589385,2.44834811 1.17768154,3.50034807 Z M1,5.66666667 C0.539762709,5.66666667 0.166666667,5.29357062 0.166666667,4.83333333 C0.166666667,4.37309604 0.539762709,4 1,4 C1.46023729,4 1.83333333,4.37309604 1.83333333,4.83333333 C1.83333333,5.29357062 1.46023729,5.66666667 1,5.66666667 Z" id="Combined-Shape"></path>
                    </g>
                </g>
            </g>
        </g>
    </g>
</svg>