<?xml version="1.0" encoding="UTF-8"?>
<svg width="18px" height="24px" viewBox="0 0 18 24" version="1.1" xmlns="http://www.w3.org/2000/svg" xmlns:xlink="http://www.w3.org/1999/xlink">
    <!-- Generator: Sketch 52.1 (67048) - http://www.bohemiancoding.com/sketch -->
    <title>Icon/ Misc/ Fire</title>
    <desc>Created with Sketch.</desc>
    <defs>
        <radialGradient cx="50%" cy="87.6988206%" fx="50%" fy="87.6988206%" r="79.7386601%" gradientTransform="translate(0.500000,0.876988),scale(1.000000,0.774186),rotate(95.816226),scale(1.000000,0.477523),translate(-0.500000,-0.876988)" id="radialGradient-1">
            <stop stop-color="#FFDD82" offset="0%"></stop>
            <stop stop-color="#FFBA00" offset="58.2300726%"></stop>
            <stop stop-color="#FF5F5F" offset="100%"></stop>
        </radialGradient>
    </defs>
    <g id="Symbols" stroke="none" stroke-width="1" fill="none" fill-rule="evenodd">
        <g id="Icon/-Misc/-Fire" fill="url(#radialGradient-1)" fill-rule="nonzero">
            <g id="Combined-Shape">
                <path d="M8.37023926,23.2078857 C3.86523438,23.2078857 0.899588253,19.9615638 0.998504639,19.7337189 C1.0826416,19.539917 2.58853149,20.6263733 2.58853149,20.1681213 C2.58853149,19.4596252 0.148529053,17.9743958 0.148529053,15.01651 C0.148529053,12.4719238 1.7022522,10.2815247 2.13015747,10.2815247 C2.3097229,10.2815247 1.71182251,13.138855 3.78361816,13.138855 C4.81785889,13.138855 4.39593708,11.4121346 4.81785889,9.44165039 C4.99522494,8.61330494 5.30903656,8.03731768 5.59844971,7.39331055 C5.90691187,6.70691521 6.18763433,5.97700461 6.24510498,5.91326904 C6.33881196,5.809347 7.00671387,6.29534912 7.70556641,5.64428711 C8.86325168,4.56576931 7.70795335,1.01676849 8.02758789,0.843933105 C8.11465297,0.796854569 8.8583401,1.40925584 9.85266113,2.19696045 C11.7207677,3.67688103 14.3452667,6.0873155 14.2597046,8.09814453 C14.1322474,11.0935666 14.1256409,11.9245605 15.006958,11.9245605 C16.1872559,11.9245605 15.8082886,10.2225647 16.0439453,10.2225647 C16.2796021,10.2225647 17.4643555,13.3491211 17.4643555,14.9262085 C17.4643555,18.376709 14.7177429,19.6394958 14.7177429,20.1681213 C14.7177429,20.617218 15.6326172,20.2473755 15.708252,20.4420471 C15.7838867,20.6367188 12.526062,23.2078857 8.37023926,23.2078857 Z M1.19078064,9.96533203 C1.0506134,9.96533203 1.02304845,9.49380642 1.02706909,9.2069397 C1.03063716,8.95236312 1.08263362,8.68521972 1.16723633,8.42370605 C1.32117429,7.94787161 1.62986156,7.52747128 1.8503418,7.31005859 C2.51715088,6.65252686 2.56765747,5.96893311 2.76879883,5.96893311 C2.96994019,5.96893311 2.90505981,7.53320312 2.51715088,8.35647583 C2.12924194,9.17974854 1.33094788,9.96533203 1.19078064,9.96533203 Z"></path>
            </g>
        </g>
    </g>
</svg>