<?xml version="1.0" encoding="UTF-8"?>
<svg width="20px" height="20px" viewBox="0 0 20 20" version="1.1" xmlns="http://www.w3.org/2000/svg" xmlns:xlink="http://www.w3.org/1999/xlink">
    <!-- Generator: Sketch 52.1 (67048) - http://www.bohemiancoding.com/sketch -->
    <title>Group 16</title>
    <desc>Created with Sketch.</desc>
    <g id="03.4-Model-Insurance" stroke="none" stroke-width="1" fill="none" fill-rule="evenodd">
        <g id="03.4.3-Model-Insurance-768" transform="translate(-70.000000, -1857.000000)" fill-rule="nonzero">
            <g id="Group-17" transform="translate(64.000000, 1851.000000)">
                <g id="Group-16" transform="translate(6.000000, 6.000000)">
                    <g id="Group-15" transform="translate(0.000000, 7.000000)" fill="#2898BC">
                        <polygon id="Path-3" points="19.4160251 5.7226499 18.5839749 6.2773501 16.3990748 3 18.5839749 -0.277350098 19.4160251 0.277350098 17.6009252 3"></polygon>
                        <polygon id="Path-3" transform="translate(1.907550, 3.000000) scale(-1, 1) translate(-1.907550, -3.000000) " points="1.60092521 3 3.41602515 5.7226499 2.58397485 6.2773501 0.399074787 3 2.58397485 -0.277350098 3.41602515 0.277350098"></polygon>
                        <polygon id="Line-3" points="20 2.5 20 3.5 0 3.5 0 2.5"></polygon>
                    </g>
                    <g id="Group-15" transform="translate(10.000000, 10.000000) rotate(45.000000) translate(-10.000000, -10.000000) translate(0.000000, 7.000000)" fill="#2898BC">
                        <polygon id="Path-3" points="19.4160251 5.7226499 18.5839749 6.2773501 16.3990748 3 18.5839749 -0.277350098 19.4160251 0.277350098 17.6009252 3"></polygon>
                        <polygon id="Path-3" transform="translate(1.907550, 3.000000) scale(-1, 1) translate(-1.907550, -3.000000) " points="1.60092521 3 3.41602515 5.7226499 2.58397485 6.2773501 0.399074787 3 2.58397485 -0.277350098 3.41602515 0.277350098"></polygon>
                        <polygon id="Line-3" points="20 2.5 20 3.5 0 3.5 0 2.5"></polygon>
                    </g>
                    <g id="Group-15" transform="translate(10.000000, 10.000000) rotate(-45.000000) translate(-10.000000, -10.000000) translate(0.000000, 7.000000)" fill="#2898BC">
                        <polygon id="Path-3" points="19.4160251 5.7226499 18.5839749 6.2773501 16.3990748 3 18.5839749 -0.277350098 19.4160251 0.277350098 17.6009252 3"></polygon>
                        <polygon id="Path-3" transform="translate(1.907550, 3.000000) scale(-1, 1) translate(-1.907550, -3.000000) " points="1.60092521 3 3.41602515 5.7226499 2.58397485 6.2773501 0.399074787 3 2.58397485 -0.277350098 3.41602515 0.277350098"></polygon>
                        <polygon id="Line-3" points="20 2.5 20 3.5 0 3.5 0 2.5"></polygon>
                    </g>
                    <g id="Group-15" transform="translate(10.000000, 10.000000) rotate(90.000000) translate(-10.000000, -10.000000) translate(0.000000, 7.000000)" fill="#2898BC">
                        <polygon id="Path-3" points="19.4160251 5.7226499 18.5839749 6.2773501 16.3990748 3 18.5839749 -0.277350098 19.4160251 0.277350098 17.6009252 3"></polygon>
                        <polygon id="Path-3" transform="translate(1.907550, 3.000000) scale(-1, 1) translate(-1.907550, -3.000000) " points="1.60092521 3 3.41602515 5.7226499 2.58397485 6.2773501 0.399074787 3 2.58397485 -0.277350098 3.41602515 0.277350098"></polygon>
                        <polygon id="Line-3" points="20 2.5 20 3.5 0 3.5 0 2.5"></polygon>
                    </g>
                    <circle id="Oval-3" stroke="#2898BC" fill="#BCF2EB" cx="10" cy="10" r="2.5"></circle>
                </g>
            </g>
        </g>
    </g>
</svg>