<?xml version="1.0" encoding="UTF-8"?>
<svg width="17px" height="20px" viewBox="0 0 17 20" version="1.1" xmlns="http://www.w3.org/2000/svg" xmlns:xlink="http://www.w3.org/1999/xlink">
    <!-- Generator: Sketch 52.1 (67048) - http://www.bohemiancoding.com/sketch -->
    <title>Group 18</title>
    <desc>Created with Sketch.</desc>
    <g id="03.4-Model-Insurance" stroke="none" stroke-width="1" fill="none" fill-rule="evenodd">
        <g id="03.4.3-Model-Insurance-768" transform="translate(-71.000000, -1762.000000)">
            <g id="Group-14" transform="translate(64.000000, 1755.000000)">
                <g id="Group-18" transform="translate(7.000000, 7.000000)">
                    <rect id="Rectangle-33" fill="#2898BC" x="10.0740741" y="7.5" width="1.25925926" height="12.5"></rect>
                    <path d="M7.7913249,-1.52227635e-15 L13.25,4.4408921e-16 C15.3210678,6.36402249e-17 17,1.67893219 17,3.75 L17,3.75 C17,5.82106781 15.3210678,7.5 13.25,7.5 L1.875,7.5 C0.839466094,7.5 1.81935404e-12,6.66053391 1.81876736e-12,5.625 L1.81854531e-12,5.01388889 C1.81841756e-12,3.97068436 0.845684361,3.125 1.88888889,3.125 L2.58175489,3.125 C3.33805654,3.125 4.05370479,2.78262732 4.52828741,2.19376102 L5.35815925,1.16404872 C5.95138753,0.427965846 6.84594785,-1.11008976e-15 7.7913249,-4.4408921e-16 Z" id="Rectangle-35" fill="#136A5E" fill-rule="nonzero"></path>
                    <path d="M6.30092593,7.5 L7.55092593,7.5 L7.55092593,9.23484924 C7.55092593,10.2834696 8.07686355,11.2621885 8.95134186,11.8408874 L9.36812139,12.1166974 C10.592391,12.9268758 11.3287037,14.2970822 11.3287037,15.7651508 L11.3287037,16.875 L10.0787037,16.875 L10.0787037,15.7651508 C10.0787037,14.7165304 9.55276608,13.7378115 8.67828777,13.1591126 L8.26150823,12.8833026 C7.0372386,12.0731242 6.30092593,10.7029178 6.30092593,9.23484924 L6.30092593,7.5 Z" id="Line" fill="#2898BC" fill-rule="nonzero"></path>
                </g>
            </g>
        </g>
    </g>
</svg>