<?xml version="1.0" encoding="UTF-8"?>
<svg width="32px" height="32px" viewBox="0 0 32 32" version="1.1" xmlns="http://www.w3.org/2000/svg" xmlns:xlink="http://www.w3.org/1999/xlink">
    <!-- Generator: Sketch 50.2 (55047) - http://www.bohemiancoding.com/sketch -->
    <title>Group 28</title>
    <desc>Created with Sketch.</desc>
    <defs></defs>
    <g id="11.-Credit" stroke="none" stroke-width="1" fill="none" fill-rule="evenodd">
        <g id="11.2-Credit-Promo-1440" transform="translate(-630.000000, -3520.000000)">
            <g id="Group-46" transform="translate(0.000000, 3316.000000)">
                <g id="Group-28" transform="translate(630.000000, 204.000000)">
                    <rect id="Rectangle" fill="#BCF2EB" x="0" y="0" width="32" height="32" rx="16"></rect>
                    <path d="M13.7265625,16.1484375 C13.7265625,17.8411543 13.4375029,19.0989542 12.859375,19.921875 C12.2812471,20.7447958 11.3776103,21.15625 10.1484375,21.15625 C8.93488977,21.15625 8.03646125,20.7539103 7.453125,19.9492188 C6.86978875,19.1445272 6.56770844,17.9427163 6.546875,16.34375 L6.546875,14.4140625 C6.546875,12.7421791 6.83593461,11.5000041 7.4140625,10.6875 C7.99219039,9.87499594 8.89843133,9.46875 10.1328125,9.46875 C11.356777,9.46875 12.2578096,9.86067316 12.8359375,10.6445312 C13.4140654,11.4283893 13.7109374,12.6380127 13.7265625,14.2734375 L13.7265625,16.1484375 Z M12.28125,14.171875 C12.28125,12.9479105 12.1093767,12.0559924 11.765625,11.4960938 C11.4218733,10.9361951 10.8776079,10.65625 10.1328125,10.65625 C9.39322547,10.65625 8.85416836,10.934893 8.515625,11.4921875 C8.17708164,12.049482 8.00260422,12.9062442 7.9921875,14.0625 L7.9921875,16.375 C7.9921875,17.6041728 8.17057113,18.5117158 8.52734375,19.0976562 C8.88411637,19.6835967 9.42447555,19.9765625 10.1484375,19.9765625 C10.8619827,19.9765625 11.3919254,19.7005236 11.7382812,19.1484375 C12.0846371,18.5963514 12.2656249,17.7265684 12.28125,16.5390625 L12.28125,14.171875 Z M15.453125,11.8125 C15.453125,11.1302049 15.6705707,10.5677105 16.1054688,10.125 C16.5403668,9.68228945 17.0989549,9.4609375 17.78125,9.4609375 C18.4739618,9.4609375 19.0351541,9.68359152 19.4648438,10.1289062 C19.8945334,10.574221 20.109375,11.1510381 20.109375,11.859375 L20.109375,12.4140625 C20.109375,13.1015659 19.8919293,13.6627582 19.4570312,14.0976562 C19.0221332,14.5325543 18.4687534,14.75 17.796875,14.75 C17.1197883,14.75 16.559898,14.5325543 16.1171875,14.0976562 C15.674477,13.6627582 15.453125,13.083337 15.453125,12.359375 L15.453125,11.8125 Z M16.53125,12.4140625 C16.53125,12.8203145 16.6458322,13.1549466 16.875,13.4179688 C17.1041678,13.6809909 17.4114564,13.8125 17.796875,13.8125 C18.1666685,13.8125 18.4648426,13.6848971 18.6914062,13.4296875 C18.9179699,13.1744779 19.03125,12.825523 19.03125,12.3828125 L19.03125,11.8125 C19.03125,11.406248 18.919272,11.0703138 18.6953125,10.8046875 C18.471353,10.5390612 18.1666686,10.40625 17.78125,10.40625 C17.3958314,10.40625 17.091147,10.5390612 16.8671875,10.8046875 C16.643228,11.0703138 16.53125,11.4166645 16.53125,11.84375 L16.53125,12.4140625 Z M20.9921875,18.2109375 C20.9921875,17.5286424 21.2096332,16.9674501 21.6445312,16.5273438 C22.0794293,16.0872374 22.6380174,15.8671875 23.3203125,15.8671875 C24.0026076,15.8671875 24.5624978,16.0859353 25,16.5234375 C25.4375022,16.9609397 25.65625,17.541663 25.65625,18.265625 L25.65625,18.8203125 C25.65625,19.5026076 25.4388043,20.0637999 25.0039062,20.5039062 C24.5690082,20.9440126 24.0130242,21.1640625 23.3359375,21.1640625 C22.6588508,21.1640625 22.0989605,20.9466168 21.65625,20.5117188 C21.2135395,20.0768207 20.9921875,19.4973995 20.9921875,18.7734375 L20.9921875,18.2109375 Z M22.0703125,18.8203125 C22.0703125,19.2317729 22.1848947,19.5690091 22.4140625,19.8320312 C22.6432303,20.0950534 22.9505189,20.2265625 23.3359375,20.2265625 C23.7109394,20.2265625 24.0104155,20.0976575 24.234375,19.8398438 C24.4583345,19.58203 24.5703125,19.231773 24.5703125,18.7890625 L24.5703125,18.2109375 C24.5703125,17.7994771 24.4570324,17.463543 24.2304688,17.203125 C24.0039051,16.942707 23.7005227,16.8125 23.3203125,16.8125 C22.950519,16.8125 22.6497407,16.941405 22.4179688,17.1992188 C22.1861968,17.4570325 22.0703125,17.8046853 22.0703125,18.2421875 L22.0703125,18.8203125 Z M18.125,20.140625 L17.3046875,19.625 L22.859375,10.734375 L23.6796875,11.25 L18.125,20.140625 Z" id="99+" fill="#404040"></path>
                </g>
            </g>
        </g>
    </g>
</svg>