<?xml version="1.0" encoding="UTF-8"?>
<svg width="64px" height="13px" viewBox="0 0 64 13" version="1.1" xmlns="http://www.w3.org/2000/svg" xmlns:xlink="http://www.w3.org/1999/xlink">
    <!-- Generator: Sketch 50.2 (55047) - http://www.bohemiancoding.com/sketch -->
    <title>Group</title>
    <desc>Created with Sketch.</desc>
    <defs></defs>
    <g id="11.-Credit" stroke="none" stroke-width="1" fill="none" fill-rule="evenodd">
        <g id="11.2-Credit-Promo-1440" transform="translate(-242.000000, -3562.000000)" fill="#FFFFFF">
            <g id="Group-46" transform="translate(0.000000, 3316.000000)">
                <g id="Group-36" transform="translate(234.000000, 212.000000)">
                    <g id="Group" transform="translate(8.000000, 34.000000)">
                        <path d="M0.00499349805,6.09482111 L0.00499349805,5.61616873 C0.00740900838,5.55643409 0.0106531454,5.4969899 0.0146475943,5.43783615 L3.82493628,7.62948244 L11.8945124,2.98794278 C12.2023615,3.59007542 12.4107568,4.24022887 12.5139558,4.90994018 C12.5542367,5.17226528 12.5777061,5.4336749 12.584697,5.69275423 C12.5861118,5.7476827 12.5868609,5.80286086 12.5868609,5.85795579 C12.5868609,6.15348765 12.5663875,6.44444213 12.5271053,6.7289883 C12.5109597,6.844671 12.491485,6.95943823 12.4689311,7.07320676 C12.2949909,7.95663979 11.9335449,8.78514434 11.4197139,9.50645514 C10.931433,10.192645 10.3056645,10.7816281 9.57511573,11.2286294 C8.81893368,11.6908609 7.96571131,11.9876411 7.08735501,12.0998283 C6.87945904,12.1265436 6.67222887,12.1425228 6.46674642,12.1484317 L6.11628609,12.1484317 C5.73162029,12.1376125 5.35519376,12.092671 4.99075163,12.0159376 C4.73258778,11.9601769 4.47717035,11.8893524 4.23115735,11.8035475 C3.66697529,11.6071365 3.1303407,11.3300806 2.64497269,10.9844473 C1.9239948,10.4707828 1.31046034,9.80664759 0.857217165,9.02824447 C0.49910013,8.41662419 0.240520156,7.73476203 0.105279584,6.99888687 C0.0504688304,6.69994141 0.0168405037,6.39769891 0.00499349805,6.09482111 Z M8.73349257,0.0569258778 C8.98667646,0.16368433 9.23237348,0.286912441 9.46858778,0.425362809 L3.82493628,3.67163589 L1.20076983,2.16143563 C1.33684265,1.974013 1.48323537,1.7939974 1.63886606,1.62263719 L3.82493628,2.88008322 L8.7331505,0.0569258778 L8.73349257,0.0569258778 Z M3.82493628,4.46360468 L10.1044265,0.851308192 C10.2975917,0.998283485 10.4824343,1.15657737 10.6575397,1.32469181 L3.82493628,5.25440832 L0.519823147,3.35379974 C0.611037711,3.14357347 0.713903771,2.93825748 0.827672302,2.73918336 L3.82493628,4.46360468 Z M3.82493628,6.04562809 L11.1366658,1.84035371 C11.1575553,1.86548765 11.1781118,1.89062159 11.198502,1.9160052 C11.2363693,1.96269441 11.2737373,2.01013264 11.3102731,2.05815345 C11.3934148,2.16792718 11.4729779,2.28028088 11.5490455,2.39513134 L3.82493628,6.83842913 L0.106860858,4.69938101 C0.120509753,4.62622627 0.135490247,4.55357087 0.151635891,4.48116515 C0.187755527,4.32087386 0.229784135,4.16224707 0.277971391,4.00620026 L3.82493628,6.04562809 Z" id="Clip-2"></path>
                        <polyline id="Fill-4" points="15.9032926 10.30142 15.9032926 9.95770091 63.9511469 9.95770091 63.9511469 10.6030273 15.9032926 10.6030273 15.9032926 10.30142"></polyline>
                        <path d="M20.7147776,7.5629857 C20.6079168,7.6103407 20.4931495,7.65286866 20.3704759,7.69023667 C20.2478856,7.72810403 20.1080676,7.75806502 19.9511886,7.78020286 C19.7938934,7.80275683 19.6109649,7.81315995 19.4038179,7.81315995 C19.0012588,7.81315995 18.6725202,7.73725878 18.4176021,7.58703771 C18.163433,7.43581795 17.9629441,7.22792198 17.8192146,6.9643485 C17.6742367,6.70019246 17.5746164,6.38893108 17.5216853,6.03014824 C17.4682549,5.67203121 17.4413732,5.28178934 17.4413732,4.8603381 C17.4413732,4.53351365 17.4571027,4.20169571 17.488645,3.86488427 C17.5196879,3.52873862 17.595173,3.22654876 17.7146008,2.95923017 C17.8343615,2.69224447 18.0102991,2.47302991 18.243329,2.30375033 C18.476026,2.13313914 18.7937789,2.04974772 19.1958388,2.04974772 C19.5611131,2.04974772 19.8765358,2.14820286 20.1436879,2.34627828 C20.4113394,2.54427048 20.5767906,2.84454616 20.6398752,3.24693888 L21.0541691,3.24693888 L21.0541691,1.93547984 C20.9349077,1.87946944 20.7946736,1.83053316 20.634632,1.78942003 C20.4745904,1.74839012 20.3058934,1.7170143 20.130039,1.69512614 C19.9541847,1.6733212 19.7807438,1.65592718 19.6109649,1.64277763 C19.4410195,1.63095969 19.2871365,1.62438492 19.1489831,1.62438492 C18.5701534,1.62438492 18.0767126,1.70328218 17.6677451,1.8603277 C17.2590273,2.01762289 16.9239636,2.2453264 16.6626372,2.54427048 C16.4016437,2.84288166 16.2098101,3.20773992 16.0876359,3.63859558 C15.9648791,4.06953446 15.9032926,4.55873082 15.9032926,5.10543563 C15.9032926,5.62118075 15.9648791,6.08324577 16.0876359,6.49271261 C16.2098101,6.9016801 16.398814,7.24864499 16.6529831,7.53452276 C16.9083173,7.82098309 17.2303147,8.03936541 17.6209727,8.19041873 C18.0102991,8.34147204 18.476026,8.41629129 19.0169883,8.41629129 C19.2871365,8.41629129 19.5357295,8.39789857 19.7616021,8.35994798 C19.9881404,8.3226632 20.1945384,8.27381014 20.3800468,8.21355527 C20.5653888,8.15413264 20.7308401,8.08955007 20.8754018,8.02097269 C21.02013,7.95164629 21.1456333,7.88573212 21.2526606,7.82281404 L21.0446814,7.41725878 C20.9324109,7.46727698 20.8218049,7.51596359 20.7147776,7.5629857 Z M26.4367438,4.52535761 C26.2072094,4.36506632 25.9079324,4.24905072 25.5409103,4.17597919 C25.172723,4.1043225 24.7241404,4.06811964 24.196078,4.06811964 L23.648541,4.06811964 L23.648541,2.50207542 C23.648541,2.33196359 23.6830793,2.22493628 23.7529883,2.18115995 C23.8218986,2.13663459 23.9662939,2.1149961 24.1867568,2.1149961 L24.9793082,2.1149961 C25.2242393,2.1149961 25.4239792,2.12415085 25.5780286,2.14329259 C25.732078,2.16235111 25.8599116,2.20654356 25.9605306,2.27545384 C26.0608999,2.34469701 26.1421274,2.44847854 26.2058778,2.58663199 C26.2682133,2.72528479 26.3310481,2.91029389 26.3943823,3.14307412 L26.7435943,3.14307412 L26.7435943,1.70960728 L22.2432042,1.70960728 L22.2432042,1.70969051 L21.8760156,1.70969051 L21.8760156,1.92141482 C21.902065,1.9279896 21.9286138,1.93980754 21.9975241,1.95894928 C22.0670169,1.9780078 22.1205306,2.00655397 22.1579818,2.04408843 C22.1957659,2.08187256 22.2195683,2.13505332 22.2293056,2.20363069 C22.2383771,2.27162549 22.2428713,2.35976073 22.2432042,2.46853576 L22.2432042,2.60652276 C22.2434538,2.60943563 22.2434538,2.61218205 22.2434538,2.61517815 L22.2434538,3.78923277 L22.2436203,3.78898309 L22.2436203,6.19643173 L22.2434538,6.19576593 L22.2434538,7.16874902 C22.2434538,7.17374252 22.2434538,7.17923537 22.2432042,7.18472822 L22.2432042,7.51696229 C22.2428713,7.62548765 22.2383771,7.71345644 22.2293056,7.78153446 C22.2195683,7.85077763 22.1957659,7.90395839 22.1583147,7.94115995 C22.1205306,7.97911053 22.0668505,8.0076567 21.9975241,8.02621586 C21.9287802,8.04560728 21.902065,8.05784135 21.8757659,8.06383355 L21.8757659,8.27539142 L24.346632,8.27539142 C24.6861899,8.27539142 25.0211704,8.25691547 25.3510741,8.21838231 C25.6818101,8.18151365 25.9759272,8.08821847 26.2334252,7.94049415 C26.4920884,7.79293628 26.6989025,7.57255657 26.8565306,7.28060338 C27.0135761,6.98740182 27.0925566,6.58642393 27.0925566,6.07717035 C27.0925566,5.71231209 27.0406242,5.40213264 26.936593,5.14821326 C26.832645,4.89287906 26.6662783,4.68539922 26.4367438,4.52535761 Z M25.5028765,7.06779714 C25.4304707,7.29408583 25.3343459,7.46727698 25.2148349,7.58703771 C25.095407,7.70588296 24.9584187,7.78361508 24.8042861,7.81748765 C24.6505696,7.85244213 24.491277,7.86950325 24.3277399,7.86950325 C24.1707776,7.86950325 24.0483537,7.85901691 23.9599688,7.83721196 C23.8724993,7.81407542 23.8043381,7.77878804 23.7573992,7.72810403 C23.7104603,7.67816905 23.6800832,7.61208843 23.6671834,7.53077763 C23.6550325,7.44871782 23.648541,7.34418726 23.648541,7.21868401 L23.648541,4.47375813 L24.2151365,4.47375813 C24.7241404,4.47375813 25.0841717,4.60417165 25.2953966,4.86474902 C25.5057893,5.12582575 25.6113186,5.55235371 25.6113186,6.14325098 C25.6113186,6.53349285 25.5746996,6.84159168 25.5028765,7.06779714 Z M31.9831053,7.36041612 C31.9369155,7.51171912 31.8685878,7.62490507 31.781368,7.69997399 C31.6930663,7.77487646 31.5687282,7.82281404 31.4076047,7.84120676 C31.2483953,7.85976593 31.0260182,7.86950325 30.7430533,7.86950325 C30.478814,7.86950325 30.2729155,7.85976593 30.1248583,7.84120676 C29.9775501,7.82281404 29.8661118,7.78810923 29.7905436,7.73725878 C29.7148921,7.68749025 29.66787,7.61391938 29.6493108,7.51596359 C29.6296697,7.4183407 29.6210143,7.29408583 29.6210143,7.14353186 L29.6210143,5.07688947 L30.5070273,5.07688947 C30.582762,5.07688947 30.6723121,5.08080104 30.7763433,5.08662679 C30.8798752,5.09320156 30.9865696,5.10194018 31.0964265,5.11517295 C31.2067828,5.1273238 31.3121456,5.14821326 31.4131808,5.17650975 C31.5137165,5.20480624 31.5986892,5.24075943 31.667433,5.28528479 L31.667433,4.44471261 C31.5986892,4.48890507 31.5137165,4.52377633 31.4131808,4.54882705 C31.3121456,4.57437711 31.2067828,4.59426788 31.0964265,4.61024707 C30.9865696,4.62597659 30.8798752,4.63579714 30.7763433,4.63854356 C30.6723121,4.64228869 30.582762,4.64386996 30.5070273,4.64386996 L29.6210143,4.64386996 L29.6210143,2.46429129 C29.6210143,2.31931339 29.641238,2.22493628 29.6818518,2.18115995 C29.7225488,2.13663459 29.8093524,2.1149961 29.941264,2.1149961 L30.6490923,2.1149961 C30.8945228,2.1149961 31.0933472,2.12415085 31.2483953,2.14329259 C31.4019454,2.16235111 31.5293628,2.20654356 31.6298153,2.27545384 C31.7305176,2.34469701 31.8121612,2.44847854 31.8751625,2.58663199 C31.9384135,2.72528479 32.0010819,2.91029389 32.0639168,3.14307412 L32.4134616,3.14307412 L32.4134616,1.70960728 L28.2241664,1.70960728 L28.2241664,1.70969051 L27.8567282,1.70969051 L27.8567282,1.92141482 C27.8826112,1.9279896 27.9093264,1.93980754 27.9784863,1.95894928 C28.0474798,1.9780078 28.1009103,2.00655397 28.1391105,2.04408843 C28.1767282,2.08187256 28.2003641,2.13505332 28.2097685,2.20363069 C28.219173,2.27328999 28.2241664,2.364671 28.2241664,2.47785696 L28.2241664,7.50755787 C28.2241664,7.6209935 28.219173,7.71195839 28.2097685,7.78153446 C28.2003641,7.85077763 28.1767282,7.90395839 28.139277,7.94115995 C28.1009103,7.97911053 28.0474798,8.0076567 27.9784863,8.02621586 C27.9097425,8.04560728 27.8826112,8.05784135 27.8564785,8.06383355 L27.8564785,8.27539142 L32.5637659,8.27539142 L32.5637659,6.74746424 L32.1300806,6.74746424 C32.0794798,7.00471261 32.0308765,7.20944603 31.9831053,7.36041612 Z M37.6818518,2.00672042 C37.4584759,1.87822107 37.2019766,1.79574512 36.9130195,1.76137321 C36.6234798,1.72725098 36.3244525,1.70960728 36.0173524,1.70960728 L33.7905852,1.70960728 L33.7905852,1.70969051 L33.4230637,1.70969051 L33.4230637,1.92141482 C33.4486138,1.9279896 33.4754954,1.93980754 33.5445722,1.95894928 C33.6141482,1.9780078 33.6675787,2.00655397 33.7050299,2.04408843 C33.7430637,2.08187256 33.7666996,2.13505332 33.7763537,2.20363069 C33.7855917,2.27328999 33.7905852,2.364671 33.7905852,2.47785696 L33.7905852,7.50755787 C33.7905852,7.6209935 33.7855917,7.71195839 33.7763537,7.78153446 C33.7666996,7.85077763 33.7430637,7.90395839 33.7050299,7.94115995 C33.6675787,7.97911053 33.614065,8.0076567 33.5445722,8.02621586 C33.4754954,8.04560728 33.4486138,8.05784135 33.4230637,8.06383355 L33.4230637,8.27539142 L35.5728479,8.27539142 L35.5728479,8.06383355 C35.5467152,8.05784135 35.52,8.04560728 35.4510897,8.02621586 C35.3818466,8.0076567 35.3284993,7.97911053 35.2905488,7.94115995 C35.2527646,7.90395839 35.2294616,7.85077763 35.2193082,7.78153446 C35.209987,7.71195839 35.2058257,7.6209935 35.2058257,7.50755787 L35.2058257,5.67203121 L35.8563121,5.67203121 C36.1961196,5.67203121 36.5197815,5.64631469 36.8287958,5.59629649 C37.135896,5.54577893 37.4082081,5.44624187 37.6439012,5.29910013 C37.8797607,5.15095969 38.0670169,4.94189857 38.2055033,4.67158388 C38.344156,4.40126918 38.4134824,4.04281925 38.4134824,3.59648375 C38.4134824,3.16845774 38.3470689,2.8286502 38.2154902,2.57731079 C38.0829961,2.32588817 37.9049779,2.13580234 37.6818518,2.00672042 Z M36.7106164,4.81797659 C36.5496593,5.11658778 36.2682757,5.26589337 35.8660494,5.26589337 L35.2058257,5.26589337 L35.2058257,2.47302991 C35.2058257,2.41094408 35.2103199,2.35543303 35.2193082,2.30807802 C35.2294616,2.26138882 35.2513498,2.22352146 35.2850559,2.19489207 C35.3203433,2.1666788 35.3740234,2.14670481 35.4461795,2.13313914 C35.5186684,2.1209883 35.6177893,2.1149961 35.7431261,2.1149961 C35.9128218,2.1149961 36.0718648,2.13663459 36.2201717,2.18115995 C36.3671469,2.22493628 36.4954798,2.30250195 36.6062523,2.41202601 C36.7161925,2.52246554 36.8018309,2.66877503 36.8610039,2.85112094 C36.9209259,3.03288427 36.9503043,3.26283485 36.9503043,3.53947464 C36.9503043,4.0933368 36.8704915,4.51911573 36.7106164,4.81797659 Z M43.6252796,4.52535761 C43.396078,4.36506632 43.0972172,4.24905072 42.7289467,4.17597919 C42.3610091,4.1043225 41.9127594,4.06811964 41.3847802,4.06811964 L40.8378257,4.06811964 L40.8378257,2.50207542 C40.8378257,2.33196359 40.8717815,2.22493628 40.9410247,2.18115995 C41.0102679,2.13663459 41.1556619,2.1149961 41.3755423,2.1149961 L42.1676775,2.1149961 C42.4130247,2.1149961 42.6129311,2.12415085 42.7668973,2.14329259 C42.9213628,2.16235111 43.047948,2.20654356 43.1488166,2.27545384 C43.2494356,2.34469701 43.331329,2.44847854 43.3946632,2.58663199 C43.4570819,2.72528479 43.52,2.91029389 43.582502,3.14307412 L43.9320468,3.14307412 L43.9320468,1.70960728 L39.4319896,1.70960728 L39.4319896,1.70969051 L39.0649675,1.70969051 L39.0649675,1.92141482 C39.0907672,1.9279896 39.1174824,1.93980754 39.1863095,1.95894928 C39.2557191,1.9780078 39.3092328,2.00655397 39.3469337,2.04408843 C39.3848843,2.08187256 39.4083537,2.13505332 39.4179246,2.20363069 C39.4271625,2.27328999 39.4319896,2.364671 39.4319896,2.47785696 L39.4319896,3.78923277 L39.4323225,3.78898309 L39.4323225,6.19659818 L39.4319896,6.19576593 L39.4319896,7.50755787 C39.4319896,7.6209935 39.4271625,7.71195839 39.4179246,7.78153446 C39.4083537,7.85077763 39.3848843,7.90395839 39.3469337,7.94115995 C39.3092328,7.97911053 39.2557191,8.0076567 39.1863095,8.02621586 C39.1174824,8.04560728 39.0907672,8.05784135 39.0649675,8.06383355 L39.0649675,8.27539142 L41.5351678,8.27539142 C41.875225,8.27539142 42.2102887,8.25691547 42.5409415,8.21838231 C42.8705124,8.18151365 43.1642965,8.08821847 43.4228765,7.94049415 C43.6804577,7.79293628 43.8878544,7.57255657 44.045316,7.28060338 C44.2026112,6.98740182 44.2809259,6.58642393 44.2809259,6.07717035 C44.2809259,5.71231209 44.2289103,5.40213264 44.125212,5.14821326 C44.0213472,4.89287906 43.8549805,4.68539922 43.6252796,4.52535761 Z M42.6909961,7.06779714 C42.6192562,7.29408583 42.5227984,7.46727698 42.4036203,7.58703771 C42.2838596,7.70588296 42.1473706,7.78361508 41.9929883,7.81748765 C41.8390221,7.85244213 41.6802289,7.86950325 41.5168583,7.86950325 C41.3593966,7.86950325 41.2368895,7.85901691 41.1488375,7.83721196 C41.0610351,7.81407542 40.9933732,7.77878804 40.9462679,7.72810403 C40.8992458,7.67816905 40.8694512,7.61208843 40.8559688,7.53077763 C40.8438179,7.44871782 40.8378257,7.34418726 40.8378257,7.21868401 L40.8378257,4.47375813 L41.4029233,4.47375813 C41.9127594,4.47375813 42.2731235,4.60417165 42.4835995,4.86474902 C42.6937425,5.12582575 42.8001873,5.55235371 42.8001873,6.14325098 C42.8001873,6.53349285 42.7639844,6.84159168 42.6909961,7.06779714 Z M56.6116203,1.70960728 L55.2058674,1.70960728 L55.2058674,1.70969051 L54.8385956,1.70969051 L54.8385956,1.92141482 C54.8643121,1.9279896 54.891277,1.93980754 54.9598544,1.95894928 C55.0294304,1.9780078 55.0830273,2.00655397 55.1207282,2.04408843 C55.1584291,2.08187256 55.1822315,2.13505332 55.1917191,2.20363069 C55.2008739,2.27328999 55.2058674,2.364671 55.2058674,2.47785696 L55.2058674,4.57728999 L52.6680884,4.57728999 L52.6680884,3.78898309 L52.6680884,3.78923277 L52.6680884,2.47785696 C52.6680884,2.364671 52.6726658,2.27328999 52.6822367,2.20363069 C52.6917243,2.13488687 52.7151105,2.08187256 52.7528114,2.04408843 C52.790762,2.00655397 52.8441925,1.9780078 52.9136853,1.95861638 C52.9828453,1.94014044 53.0093108,1.92724057 53.035277,1.92141482 L53.035277,1.70960728 L51.2619194,1.70960728 L51.2619194,1.70969051 L50.8947308,1.70969051 L50.8947308,1.92141482 C50.920697,1.9279896 50.9476619,1.93980754 51.0169051,1.95894928 C51.0855657,1.9780078 51.139329,2.00655397 51.1771131,2.04408843 C51.2150637,2.08187256 51.2385332,2.13505332 51.2482705,2.20363069 C51.2572588,2.27120936 51.2619194,2.35842913 51.2619194,2.46637191 L51.2619194,2.61825748 C51.2619194,2.62042133 51.2622523,2.62225228 51.2622523,2.62416645 L51.2622523,7.15293628 C51.2622523,7.16059298 51.2622523,7.16908192 51.2619194,7.1769883 L51.2619194,7.51929259 C51.2619194,7.62681925 51.2570091,7.71412224 51.2486034,7.78153446 C51.2385332,7.85077763 51.2150637,7.90395839 51.1771964,7.94115995 C51.139329,7.97911053 51.0855657,8.0076567 51.0168218,8.02621586 C50.9476619,8.04560728 50.9210299,8.05784135 50.8947308,8.06383355 L50.8947308,8.27539142 L53.035277,8.27539142 L53.035277,8.06383355 C53.0093108,8.05784135 52.9828453,8.04560728 52.9136853,8.02621586 C52.8441925,8.0076567 52.790762,7.97911053 52.7528114,7.94115995 C52.7151105,7.90395839 52.6917243,7.85077763 52.6822367,7.78153446 C52.6726658,7.71195839 52.6680884,7.6209935 52.6680884,7.50755787 L52.6680884,6.19576593 L52.6680884,6.19659818 L52.6680884,5.01080884 L55.2058674,5.01080884 L55.2058674,7.50755787 C55.2058674,7.6209935 55.2008739,7.71195839 55.1917191,7.78153446 C55.1822315,7.85077763 55.1584291,7.90395839 55.1209779,7.94115995 C55.0827776,7.97911053 55.0293472,8.0076567 54.9601873,8.02621586 C54.891277,8.04560728 54.8643121,8.05784135 54.8385956,8.06383355 L54.8385956,8.27539142 L56.9788921,8.27539142 L56.9788921,8.06383355 C56.9528427,8.05784135 56.9262107,8.04560728 56.8573004,8.02621586 C56.7880572,8.0076567 56.7345436,7.97911053 56.6967594,7.94115995 C56.6584759,7.90395839 56.6352562,7.85077763 56.6257685,7.78153446 C56.6165306,7.71195839 56.6119532,7.6209935 56.6119532,7.50755787 L56.6119532,6.19576593 L56.6020494,6.22481144 L56.6020494,3.76101951 L56.6116203,3.78923277 L56.6116203,2.47785696 C56.6116203,2.364671 56.6165306,2.27328999 56.6257685,2.20363069 C56.6352562,2.13488687 56.6584759,2.08187256 56.6964265,2.04408843 C56.7345436,2.00655397 56.7881404,1.9780078 56.8573004,1.95861638 C56.9258778,1.94014044 56.9528427,1.92724057 56.9788921,1.92141482 L56.9788921,1.70960728 L56.6116203,1.70960728 Z M49.9510429,6.80347464 L48.4506632,2.50207542 C48.3811704,2.30707932 48.3362289,2.14820286 48.3138414,2.02536281 C48.2913706,1.90260598 48.2743095,1.7969935 48.2618257,1.70960728 L46.3854356,1.70960728 L46.3854356,1.92141482 C46.4113186,1.9279896 46.4380338,1.94014044 46.5073602,1.95861638 C46.5763537,1.9780078 46.6297841,2.00655397 46.6674018,2.04408843 C46.7054356,2.08187256 46.7289883,2.13488687 46.7388921,2.20363069 C46.7438856,2.24391157 46.7477139,2.2926814 46.7498778,2.34719376 C46.7445514,2.49857997 46.7182523,2.65304551 46.6678179,2.77571912 L45.6203485,5.36950845 C45.4261014,5.85446034 45.2584863,6.25984915 45.1206658,6.58642393 C44.9818466,6.91391417 44.8641664,7.18755787 44.7669597,7.40718856 C44.6695033,7.62756827 44.5844473,7.8040052 44.5122913,7.93591678 C44.4398023,8.0679948 44.3755527,8.18151365 44.3185436,8.27539142 L45.5072458,8.27539142 C45.5200624,8.11809623 45.5691651,7.84944603 45.6536385,7.46869181 C45.7386112,7.08852016 45.8906632,6.56470221 46.1112926,5.89782055 L48.1959948,5.89782055 L48.4790429,6.73781014 C48.6043797,7.11448635 48.7055813,7.43282185 48.7808166,7.69023667 C48.8566346,7.94815085 48.9001612,8.14314694 48.912645,8.27539142 L50.5829701,8.27539142 C50.5136437,8.14314694 50.4273394,7.96587776 50.3233914,7.74225228 C50.2199428,7.51929259 50.0948557,7.20644993 49.9510429,6.80347464 Z M46.2619298,5.46413524 L47.1678336,2.81283745 L48.0545956,5.46413524 L46.2619298,5.46413524 Z M63.2812692,7.57755007 C63.0608062,7.33811183 62.8816229,7.14020286 62.7429701,6.98224187 C62.5414824,6.75661899 62.3534772,6.54289727 62.1771235,6.34140962 C62.0012692,6.140671 61.8343199,5.94176333 61.6777737,5.74685046 C61.5193966,5.55235371 61.3705904,5.35519376 61.2289415,5.15795059 C61.087459,4.95937581 60.9473082,4.7466528 60.8093212,4.52036411 L60.9130195,4.38836931 C61.0697321,4.18754746 61.2556567,3.9563485 61.4697945,3.69527178 C61.6829337,3.43419506 61.9033966,3.17636411 62.129935,2.92169571 C62.3566398,2.66719376 62.5825956,2.43158388 62.8088843,2.21403381 C63.0360052,1.99698309 63.2397399,1.83211443 63.422502,1.7190117 L63.422502,1.70960728 L61.8851704,1.70960728 C61.8343199,1.84151886 61.7576697,2.00347464 61.6529727,2.19489207 C61.549857,2.38705852 61.4284317,2.59320676 61.2909441,2.81283745 C61.1521248,3.03288427 61.0076463,3.2616697 60.8563433,3.49727958 C60.7055397,3.73297269 60.5548192,3.95792978 60.4037659,4.17173472 C60.2525462,4.38570611 60.1123121,4.58353186 59.9840624,4.76637711 C59.8549805,4.94805722 59.7462887,5.09536541 59.6584863,5.20946684 C59.815948,5.42327178 59.9584291,5.61810143 60.087844,5.79378934 C60.2165098,5.97064239 60.3392666,6.1383407 60.4553654,6.29879844 C60.5716307,6.45950585 60.6851495,6.61655137 60.7949233,6.77076723 C60.9053628,6.92523277 61.0197139,7.08702211 61.1393082,7.25680104 C61.2649779,7.43282185 61.3769155,7.60576333 61.4746216,7.77487646 C61.5718283,7.94507152 61.6614616,8.11177113 61.7437711,8.27539142 L63.9605514,8.29436671 C63.7275215,8.05459558 63.501316,7.81623927 63.2812692,7.57755007 Z M59.6309389,7.94115995 C59.5926554,7.90395839 59.5695189,7.85077763 59.5596983,7.78153446 C59.5504603,7.71195839 59.5456333,7.6209935 59.5456333,7.50755787 L59.5456333,2.47785696 C59.5456333,2.364671 59.5504603,2.27328999 59.5596983,2.20363069 C59.5695189,2.13488687 59.5926554,2.08187256 59.6309389,2.04408843 C59.6684733,2.00655397 59.7220702,1.9780078 59.7915631,1.95861638 C59.8600572,1.94014044 59.8871886,1.92724057 59.9129883,1.92141482 L59.9129883,1.70960728 L58.1394642,1.70960728 L58.1394642,1.70969051 L57.7722757,1.70969051 L57.7722757,1.92141482 C57.7980754,1.9279896 57.8247906,1.93980754 57.8937009,1.95894928 C57.963277,1.9780078 58.0162913,2.00655397 58.0544083,2.04408843 C58.0921092,2.08187256 58.1159116,2.13505332 58.1254824,2.20363069 C58.1343875,2.27328999 58.1394642,2.364671 58.1394642,2.47785696 L58.1394642,7.50755787 C58.1394642,7.6209935 58.1343875,7.71195839 58.1254824,7.78153446 C58.1159116,7.85077763 58.0921092,7.90395839 58.0544083,7.94115995 C58.0162913,7.97911053 57.963277,8.0076567 57.8937009,8.02621586 C57.8247906,8.04560728 57.7980754,8.05784135 57.7722757,8.06383355 L57.7722757,8.27539142 L59.9129883,8.27539142 L59.9129883,8.06383355 C59.8871886,8.05784135 59.8603901,8.04560728 59.7915631,8.02621586 C59.7220702,8.0076567 59.6684733,7.97911053 59.6309389,7.94115995 Z" id="Fill-5"></path>
                    </g>
                </g>
            </g>
        </g>
    </g>
</svg>