<?xml version="1.0" encoding="UTF-8"?>
<svg width="48px" height="18px" viewBox="0 0 48 18" version="1.1" xmlns="http://www.w3.org/2000/svg" xmlns:xlink="http://www.w3.org/1999/xlink">
    <!-- Generator: Sketch 50.2 (55047) - http://www.bohemiancoding.com/sketch -->
    <title>Fill 1</title>
    <desc>Created with Sketch.</desc>
    <defs></defs>
    <g id="11.-Credit" stroke="none" stroke-width="1" fill="none" fill-rule="evenodd">
        <g id="11.2-Credit-Promo-1440" transform="translate(-930.000000, -3559.000000)" fill="#FFFFFF">
            <g id="Group-46" transform="translate(0.000000, 3316.000000)">
                <g id="Group-34" transform="translate(914.000000, 212.000000)">
                    <path d="M27.7427206,46.3810791 C29.2379364,46.3810791 30.8601076,46.8936086 32.6556654,48.4846092 C32.8355459,48.6440339 33.0750077,48.4459706 32.9181805,48.2480696 C31.153631,46.0201818 29.5215566,45.5958067 27.8938657,45.2371822 C25.9030044,44.7985206 24.8789196,43.6783263 24.1652422,42.4483855 C24.0231886,42.2035662 23.9595485,42.2467505 23.9467231,42.5612167 C23.9311378,42.945979 23.9576004,43.4550992 24.0438066,43.9559397 C23.9634449,43.9596737 23.8825961,43.9585373 23.8014226,43.9585373 C20.9532069,43.9585373 18.6443079,41.6496383 18.6443079,38.8014226 C18.6443079,35.9532069 20.9532069,33.6443079 23.8014226,33.6443079 C26.6496383,33.6443079 28.9586996,35.9532069 28.9586996,38.8014226 C28.9586996,39.0040316 28.9487964,39.2043678 28.9260679,39.40097 C28.5492605,39.333109 27.8081464,39.3254787 27.288149,39.3704488 C27.0925209,39.3873329 27.1199575,39.4784095 27.2678556,39.5051968 C28.9726614,39.813169 30.143995,40.8697233 30.4117052,42.786879 C30.4178744,42.8310374 30.4755076,42.8441875 30.4983985,42.8060359 C31.1998999,41.6355141 31.6028451,40.2654678 31.6028451,38.8014226 C31.6028451,34.4928956 28.1101119,31 23.8014226,31 C19.4928956,31 16,34.4928956 16,38.8014226 C16,43.1101119 19.4928956,46.6033322 23.8014226,46.6033322 C24.9445078,46.6033322 26.0785015,46.3810791 27.7427206,46.3810791 Z M28.3234358,43.5484487 C28.6705337,43.8419721 28.7762216,44.1908558 28.5926071,44.4369739 C28.4904909,44.5718842 28.3250593,44.6462391 28.1266712,44.6462391 C27.9318548,44.6462391 27.7334668,44.5741571 27.5957966,44.4540203 C27.280194,44.1781927 27.1874939,43.7310891 27.3935122,43.4770161 C27.4740363,43.3776597 27.604888,43.3229488 27.7617152,43.3229488 C27.9521482,43.3229488 28.1516727,43.4031482 28.3234358,43.5484487 Z M29.9249889,42.803276 C29.9759659,43.1451788 29.8678428,43.2867454 29.759395,43.2867454 C29.641044,43.2867454 29.4924965,43.148101 29.3171618,42.8747087 C29.1442622,42.6047257 29.0809469,42.2949676 29.1666661,42.1384651 C29.2233252,42.0348877 29.3418385,41.9899176 29.4913601,42.0464143 C29.7808248,42.1558362 29.8944677,42.5990435 29.9249889,42.803276 Z M40.739247,41.0166473 L39.8398447,39.9349293 C39.7456834,39.8214487 39.8263699,39.6495233 39.973781,39.6495233 L41.8553826,39.6495233 C41.9449982,39.3827872 41.9956505,39.0978682 41.9956505,38.8019096 C41.9956505,37.4467992 40.9869886,36.2783879 39.6026557,36.2783879 C38.2183229,36.2783879 37.209661,37.4467992 37.209661,38.8019096 C37.209661,40.15702 38.2183229,41.3088719 39.6026557,41.3088719 C40.0221604,41.3088719 40.4064357,41.2017229 40.739247,41.0166473 Z M44.8087992,42.8448369 C44.9065321,42.95296 44.8263327,43.1269959 44.679084,43.1269959 L42.6257191,43.1269959 C42.5422728,43.1269959 42.4628851,43.0898185 42.4094729,43.0255291 L42.061401,42.6069985 C41.352594,43.0666029 40.508552,43.3348001 39.6026557,43.3348001 C37.1031614,43.3348001 35.0697652,41.301404 35.0697652,38.8019096 C35.0697652,36.3024152 37.1031614,34.2688568 39.6026557,34.2688568 C42.1021501,34.2688568 44.1355462,36.3024152 44.1355462,38.8019096 C44.1355462,39.7029354 43.8702712,40.5425941 43.4152126,41.2489659 L44.8087992,42.8448369 Z M63.7770976,34.4774727 L62.1013519,34.4774727 C61.9782929,34.4774727 61.8784495,34.5773161 61.8784495,34.7005374 L61.8784495,42.9032818 C61.8784495,43.0263408 61.9782929,43.1261842 62.1013519,43.1261842 L63.7770976,43.1261842 C63.9001566,43.1261842 64,43.0263408 64,42.9032818 L64,34.7005374 C64,34.5773161 63.9001566,34.4774727 63.7770976,34.4774727 Z M60.9572926,34.4774727 L59.0823471,34.4774727 C58.9842895,34.4774727 58.8977586,34.5411127 58.8691855,34.6341375 L57.3854963,39.4816565 L55.7548831,34.6287801 C55.7245242,34.5385151 55.6394544,34.4774727 55.5435073,34.4774727 L54.2351529,34.4774727 C54.1392058,34.4774727 54.0539736,34.5385151 54.0236147,34.6287801 L52.3930015,39.4816565 L50.9093123,34.6341375 C50.8807392,34.5411127 50.7942083,34.4774727 50.6961507,34.4774727 L48.8212052,34.4774727 C48.7496102,34.4774727 48.6822362,34.5117279 48.6403507,34.5693611 C48.5984651,34.6269942 48.5871009,34.7011868 48.6098294,34.7685608 L51.3635592,42.9758509 C51.3939181,43.0661158 51.4791502,43.1269959 51.5750973,43.1269959 L53.0631699,43.1269959 C53.159117,43.1269959 53.2441868,43.0661158 53.274708,42.9760132 L54.8892489,38.1810947 L56.5037898,42.9760132 C56.534311,43.0661158 56.6193808,43.1269959 56.7153279,43.1269959 L58.2034005,43.1269959 C58.2993476,43.1269959 58.3845797,43.0661158 58.4149386,42.9758509 L61.1686684,34.7685608 C61.191397,34.7011868 61.1800327,34.6269942 61.1381471,34.5693611 C61.0962616,34.5117279 61.0288876,34.4774727 60.9572926,34.4774727 Z M47.9000484,34.7005374 L47.9000484,42.9032818 C47.9000484,43.0263408 47.800205,43.1261842 47.6771459,43.1261842 L46.0014002,43.1261842 C45.8783412,43.1261842 45.7784978,43.0263408 45.7784978,42.9032818 L45.7784978,34.7005374 C45.7784978,34.5773161 45.8783412,34.4774727 46.0014002,34.4774727 L47.6771459,34.4774727 C47.800205,34.4774727 47.9000484,34.5773161 47.9000484,34.7005374 Z" id="Fill-1"></path>
                </g>
            </g>
        </g>
    </g>
</svg>