<?xml version="1.0" encoding="UTF-8"?>
<svg width="40px" height="13px" viewBox="0 0 40 13" version="1.1" xmlns="http://www.w3.org/2000/svg" xmlns:xlink="http://www.w3.org/1999/xlink">
    <!-- Generator: Sketch 50.2 (55047) - http://www.bohemiancoding.com/sketch -->
    <title>Visa_Inc._logo</title>
    <desc>Created with Sketch.</desc>
    <defs></defs>
    <g id="11.-Credit" stroke="none" stroke-width="1" fill="none" fill-rule="evenodd">
        <g id="11.2-Credit-Promo-1440" transform="translate(-254.000000, -3672.000000)" fill="#FFFFFF" fill-rule="nonzero">
            <g id="Group-46" transform="translate(0.000000, 3316.000000)">
                <g id="Group-32" transform="translate(234.000000, 324.000000)">
                    <g id="Visa_Inc._logo" transform="translate(20.000000, 32.000000)">
                        <polygon id="polygon9" points="17.3167745 12.7466057 14.0795823 12.7466057 16.1043542 0.22693697 19.3413694 0.22693697"></polygon>
                        <path d="M29.0518839,0.533007148 C28.4133674,0.279689378 27.4006273,-4.59579221e-06 26.1483772,-4.59579221e-06 C22.9515459,-4.59579221e-06 20.7003635,1.70471247 20.6865558,4.14194452 C20.6600026,5.94012894 22.2983366,6.93888426 23.5236794,7.53845609 C24.7761065,8.15112751 25.2018433,8.55101908 25.2018433,9.09713042 C25.1890977,9.9358583 24.1898113,10.3224733 23.2577931,10.3224733 C21.9653591,10.3224733 21.272851,10.123147 20.2204582,9.65651837 L19.7941904,9.45648407 L19.3411924,12.2668774 C20.1004376,12.6127775 21.4992615,12.9197327 22.9515459,12.9331864 C26.3482345,12.9331864 28.5595871,11.2548455 28.5857863,8.65758603 C28.5987089,7.23238591 27.7336048,6.14034026 25.8685062,5.24797487 C24.7362767,4.67513329 24.0428835,4.28887237 24.0428835,3.70275417 C24.0561601,3.16991945 24.6293557,2.62416216 25.907451,2.62416216 C26.9598438,2.59743191 27.7330737,2.85039564 28.3188379,3.10353639 L28.6116314,3.23647953 L29.0518839,0.533007148 Z" id="path11"></path>
                        <path d="M33.3543915,8.31133197 C33.6209859,7.5920936 34.6468255,4.80843048 34.6468255,4.80843048 C34.6333719,4.83516072 34.9128888,4.0759155 35.0727393,3.60981788 L35.2989727,4.68858692 C35.2989727,4.68858692 35.9119982,7.68538394 36.0451184,8.31133197 C35.5391909,8.31133197 33.9937932,8.31133197 33.3543915,8.31133197 Z M37.3502979,0.22693697 L34.8463288,0.22693697 C34.074161,0.22693697 33.4875117,0.453170451 33.1543572,1.26569915 L28.3459222,12.7464287 L31.7426108,12.7464287 C31.7426108,12.7464287 32.3018217,11.201208 32.4220193,10.8684076 C32.7946495,10.8684076 36.0989329,10.8684076 36.5783071,10.8684076 C36.6712434,11.307952 36.9645681,12.7464287 36.9645681,12.7464287 L39.9618961,12.7464287 L37.3502979,0.22693697 Z" id="path13"></path>
                        <path d="M11.3757558,0.22693697 L8.20547774,8.76415297 L7.85904666,7.03270566 C7.27292847,5.03484098 5.43473718,2.86420331 3.38341201,1.78490321 L6.28727274,12.7333291 L9.71051456,12.7333291 L14.7988206,0.22693697 L11.3757558,0.22693697 Z" id="path15"></path>
                        <path d="M5.26161016,0.22693697 L0.0532835089,0.22693697 L3.66913099e-08,0.479900697 C4.06282054,1.5188399 6.75354738,4.02316309 7.85904666,7.03323672 L6.72681713,1.2793298 C6.54041349,0.479723676 5.96757191,0.253313174 5.26161016,0.22693697 Z" id="path17"></path>
                    </g>
                </g>
            </g>
        </g>
    </g>
</svg>