<?xml version="1.0" encoding="UTF-8"?>
<svg width="36px" height="29px" viewBox="0 0 36 29" version="1.1" xmlns="http://www.w3.org/2000/svg" xmlns:xlink="http://www.w3.org/1999/xlink">
    <!-- Generator: Sketch 50.2 (55047) - http://www.bohemiancoding.com/sketch -->
    <title>homepage_selected-clients_mastercard_logo.svg_a</title>
    <desc>Created with Sketch.</desc>
    <defs></defs>
    <g id="11.-Credit" stroke="none" stroke-width="1" fill="none" fill-rule="evenodd">
        <g id="11.2-Credit-Promo-1440" transform="translate(-596.000000, -3666.000000)" fill="#FFFFFF" fill-rule="nonzero">
            <g id="Group-46" transform="translate(0.000000, 3316.000000)">
                <g id="Group-22" transform="translate(574.000000, 324.000000)">
                    <g id="homepage_selected-clients_mastercard_logo.svg_a" transform="translate(22.000000, 26.000000)">
                        <path d="M6.57777778,28.2028889 L6.57777778,26.3304444 C6.60180105,26.013944 6.48840833,25.70242 6.26655346,25.4754176 C6.0446986,25.2484152 5.73585706,25.1279081 5.41888889,25.1446667 C5.00251146,25.1180235 4.60500391,25.3216395 4.38333333,25.6751111 C4.18128455,25.3322551 3.8069629,25.128398 3.40933333,25.1446667 C3.06321985,25.1277155 2.73433088,25.2966067 2.54644444,25.5877778 L2.54644444,25.2195556 L1.90488889,25.2195556 L1.90488889,28.2028889 L2.55222222,28.2028889 L2.55222222,26.5488889 C2.55222222,26.0308889 2.83577778,25.7562222 3.27355556,25.7562222 C3.69888889,25.7562222 3.91466667,26.0371111 3.91466667,26.5426667 L3.91466667,28.2028889 L4.562,28.2028889 L4.562,26.5488889 C4.562,26.0308889 4.858,25.7562222 5.28333333,25.7562222 C5.72088889,25.7562222 5.93044444,26.0371111 5.93044444,26.5426667 L5.93044444,28.2028889 L6.57777778,28.2028889 Z M16.1555556,25.2193333 L15.1075556,25.2193333 L15.1075556,24.3144444 L14.4602222,24.3144444 L14.4602222,25.2193333 L13.8622222,25.2193333 L13.8622222,25.8122222 L14.4602222,25.8122222 L14.4602222,27.1728889 C14.4602222,27.8655556 14.7253333,28.2775556 15.4824444,28.2775556 C15.7660718,28.2783236 16.0440423,28.1982317 16.2837778,28.0466667 L16.0988889,27.4911111 C15.9273584,27.5948129 15.7321056,27.6528073 15.5317778,27.6595556 C15.2113333,27.6595556 15.1064444,27.4595556 15.1064444,27.1602222 L15.1064444,25.812 L16.1555556,25.812 L16.1555556,25.2193333 Z M21.6222222,25.1444444 C21.3021638,25.1352172 21.0030936,25.3032092 20.8444444,25.5813333 L20.8444444,25.2193333 L20.2095556,25.2193333 L20.2095556,28.2026667 L20.8506667,28.2026667 L20.8506667,26.53 C20.8506667,26.0368889 21.0602222,25.7624444 21.4795556,25.7624444 C21.6165353,25.7606403 21.7525061,25.786097 21.8795556,25.8373333 L22.0768889,25.2255556 C21.9305973,25.1725341 21.7762689,25.1450963 21.6206667,25.1444444 L21.6222222,25.1444444 Z M13.3555556,25.4555556 C12.9934603,25.2376641 12.5758929,25.129586 12.1535556,25.1444444 C11.4077778,25.1444444 10.9268889,25.5064444 10.9268889,26.1 C10.9268889,26.5868889 11.2844444,26.8864444 11.944,26.98 L12.246,27.0244444 C12.5973333,27.0742222 12.7637778,27.168 12.7637778,27.3355556 C12.7637778,27.5664444 12.5295556,27.6975556 12.0917778,27.6975556 C11.7392272,27.7078935 11.3936161,27.5982006 11.1115556,27.3864444 L10.8095556,27.892 C11.1817834,28.1557344 11.6295357,28.2915728 12.0855556,28.2791111 C12.9362222,28.2791111 13.4293333,27.8733333 13.4293333,27.3053333 C13.4293333,26.7811111 13.0411111,26.5053333 12.4,26.4128889 L12.098,26.3684444 C11.8206667,26.3311111 11.5986667,26.2748889 11.5986667,26.0751111 C11.5986667,25.8566667 11.8082222,25.7255556 12.1595556,25.7255556 C12.4826011,25.7306486 12.7988972,25.8188105 13.078,25.9815556 L13.3555556,25.4555556 Z M30.5291111,25.1444444 C30.2090526,25.1352172 29.9099825,25.3032092 29.7513333,25.5813333 L29.7513333,25.2193333 L29.12,25.2193333 L29.12,28.2026667 L29.7611111,28.2026667 L29.7611111,26.53 C29.7611111,26.0368889 29.9706667,25.7624444 30.3897778,25.7624444 C30.526757,25.7606462 30.6627267,25.7861028 30.7897778,25.8373333 L30.9871111,25.2255556 C30.8408195,25.1725341 30.6864912,25.1450963 30.5308889,25.1444444 L30.5291111,25.1444444 Z M22.2715556,26.7111111 C22.2516396,27.1333472 22.4110421,27.5443446 22.7104474,27.8427342 C23.0098528,28.1411238 23.4213896,28.2991285 23.8435556,28.2777778 C24.2291512,28.2971703 24.6078386,28.1701739 24.9037778,27.9222222 L24.5955556,27.398 C24.3747243,27.5688059 24.1042697,27.6630399 23.8251111,27.6664444 C23.325367,27.6290701 22.9389688,27.2126953 22.9389688,26.7115556 C22.9389688,26.2104158 23.325367,25.794041 23.8251111,25.7566667 C24.1042697,25.7600712 24.3747243,25.8543052 24.5955556,26.0251111 L24.9037778,25.5008889 C24.6078276,25.2529567 24.2291482,25.1259629 23.8435556,25.1453333 C23.421411,25.1239174 23.0098703,25.2818699 22.7104565,25.5802255 C22.4110428,25.8785811 22.2516343,26.28956 22.2715556,26.7117778 L22.2715556,26.7111111 Z M28.2755556,26.7111111 L28.2755556,25.2195556 L27.6344444,25.2195556 L27.6344444,25.5815556 C27.4140899,25.2926746 27.0665715,25.1295757 26.7035556,25.1446667 C25.8775556,25.1446667 25.2302222,25.8 25.2302222,26.7111111 C25.2302222,27.6222222 25.8775556,28.2777778 26.7035556,28.2777778 C27.0665715,28.2928687 27.4140899,28.1297699 27.6344444,27.8408889 L27.6344444,28.2028889 L28.2755556,28.2028889 L28.2755556,26.7111111 Z M25.89,26.7111111 C25.924013,26.2277231 26.3373802,25.8596985 26.8214579,25.8818256 C27.3055356,25.9039527 27.6836045,26.3081537 27.6733767,26.7926289 C27.6631488,27.2771041 27.268358,27.6649891 26.7837778,27.6666667 C26.535291,27.6683297 26.2974187,27.5660583 26.1276725,27.3845792 C25.9579262,27.2031001 25.8717576,26.9589329 25.89,26.7111111 Z M18.1537778,25.1446667 C17.2906667,25.1446667 16.6871111,25.7813333 16.6871111,26.7111111 C16.6871111,27.6597778 17.3157778,28.2777778 18.1982222,28.2777778 C18.6388917,28.2930289 19.0695045,28.1439737 19.4064444,27.8595556 L19.092,27.3791111 C18.8493529,27.5759946 18.5475516,27.6855698 18.2351111,27.6902222 C17.7919825,27.725758 17.4011263,27.4019987 17.3535556,26.96 L19.542,26.96 C19.5482222,26.8788889 19.5542222,26.7977778 19.5542222,26.7104444 C19.548,25.7804444 18.9808889,25.144 18.1542222,25.144 L18.1537778,25.1446667 Z M18.1413333,25.7251111 C18.5544444,25.7251111 18.8193333,25.9873333 18.8871111,26.4491111 L17.3584444,26.4491111 C17.3790685,26.0350193 17.7268949,25.7133564 18.1413333,25.7251111 Z M34.224,26.7111111 L34.224,24.0222222 L33.5828889,24.0222222 L33.5828889,25.5824444 C33.3625343,25.2935635 33.015016,25.1304646 32.652,25.1455556 C31.826,25.1455556 31.1786667,25.8008889 31.1786667,26.712 C31.1786667,27.6231111 31.826,28.2786667 32.652,28.2786667 C33.015016,28.2937576 33.3625343,28.1306588 33.5828889,27.8417778 L33.5828889,28.2037778 L34.224,28.2037778 L34.224,26.7111111 Z M31.8384444,26.7111111 C31.8724574,26.2277231 32.2858246,25.8596985 32.7699023,25.8818256 C33.25398,25.9039527 33.632049,26.3081537 33.6218211,26.7926289 C33.6115933,27.2771041 33.2168025,27.6649891 32.7322222,27.6666667 C32.4837355,27.6683297 32.2458632,27.5660583 32.0761169,27.3845792 C31.9063707,27.2031001 31.820202,26.9589329 31.8384444,26.7111111 Z M10.1895556,26.7111111 L10.1895556,25.2195556 L9.54844444,25.2195556 L9.54844444,25.5815556 C9.3280899,25.2926746 8.98057155,25.1295757 8.61755556,25.1446667 C7.79155556,25.1446667 7.14422222,25.8 7.14422222,26.7111111 C7.14422222,27.6222222 7.79155556,28.2777778 8.61755556,28.2777778 C8.98057155,28.2928687 9.3280899,28.1297699 9.54844444,27.8408889 L9.54844444,28.2028889 L10.1895556,28.2028889 L10.1895556,26.7111111 Z M7.804,26.7111111 C7.83801297,26.2277231 8.25138018,25.8596985 8.73545788,25.8818256 C9.21953557,25.9039527 9.59760452,26.3081537 9.58737668,26.7926289 C9.57714883,27.2771041 9.18235802,27.6649891 8.69777778,27.6666667 C8.44929101,27.6683297 8.21141872,27.5660583 8.04167248,27.3845792 C7.87192624,27.2031001 7.7857576,26.9589329 7.804,26.7111111 Z M35.2928889,27.7704444 C35.3326684,27.7698414 35.3721487,27.7774047 35.4088889,27.7926667 C35.4803327,27.8226652 35.5372565,27.8793498 35.5675556,27.9506667 C35.5986862,28.0241732 35.5986862,28.1071602 35.5675556,28.1806667 C35.5524526,28.2157626 35.5308083,28.2476634 35.5037778,28.2746667 C35.4765006,28.3017304 35.4443901,28.3234389 35.4091111,28.3386667 C35.3725062,28.3545091 35.3329961,28.3625323 35.2931111,28.3622222 C35.2525763,28.3625704 35.2124055,28.3545514 35.1751111,28.3386667 C35.1395722,28.3236751 35.1072736,28.3019415 35.08,28.2746667 C35.0530866,28.2476134 35.0315237,28.2157213 35.0164444,28.1806667 C34.98539,28.1071447 34.98539,28.0241886 35.0164444,27.9506667 C35.0314271,27.9154279 35.0529982,27.8833728 35.08,27.8562222 C35.1072071,27.828978 35.13953,27.8073791 35.1751111,27.7926667 C35.2124017,27.7774242 35.2523853,27.7698658 35.2926667,27.7704444 L35.2928889,27.7704444 Z M35.2928889,28.298 C35.3234752,28.2982948 35.3537746,28.2920834 35.3817778,28.2797778 C35.4085984,28.2680028 35.4329517,28.2512645 35.4535556,28.2304444 C35.4743025,28.2093696 35.4907557,28.1844634 35.502,28.1571111 C35.525412,28.0993181 35.525412,28.0346819 35.502,27.9768889 C35.4795007,27.9219093 35.4363361,27.8779468 35.3817778,27.8544444 C35.3537152,27.8423746 35.323435,27.8363186 35.2928889,27.8366667 C35.2619942,27.8364336 35.2313745,27.8424819 35.2028889,27.8544444 C35.175599,27.8658616 35.1508298,27.8825506 35.13,27.9035556 C35.1092968,27.9246657 35.0928495,27.9495629 35.0815556,27.9768889 C35.0581435,28.0346819 35.0581435,28.0993181 35.0815556,28.1571111 C35.1041995,28.2124799 35.147813,28.2566526 35.2028889,28.28 C35.2312638,28.2920932 35.261823,28.2982202 35.2926667,28.298 L35.2928889,28.298 Z M35.3102222,27.928 C35.3391206,27.926056 35.3677746,27.9344003 35.3911111,27.9515556 C35.4099863,27.967415 35.4204157,27.9911481 35.4193333,28.0157778 C35.4201003,28.0367991 35.4120431,28.0571837 35.3971111,28.072 C35.379356,28.0880261 35.3567477,28.0976483 35.3328889,28.0993333 L35.4217778,28.2033333 L35.3522222,28.2033333 L35.2697778,28.1002222 L35.2431111,28.1002222 L35.2431111,28.2033333 L35.1848889,28.2033333 L35.1848889,27.9277778 L35.3102222,27.928 Z M35.2435556,27.9795556 L35.2435556,28.0528889 L35.3102222,28.0528889 C35.3230763,28.0535426 35.3358358,28.0503721 35.3468889,28.0437778 C35.3560843,28.0375357 35.3612516,28.0268624 35.3604444,28.0157778 C35.3611004,28.0049059 35.3559407,27.9945019 35.3468889,27.9884444 C35.335801,27.9819352 35.3230673,27.978771 35.3102222,27.9793333 L35.2435556,27.9795556 Z M34.8966667,18.2791111 L34.8966667,17.9173333 L35.0406667,17.9173333 L35.0406667,17.8444444 L34.6737778,17.8444444 L34.6737778,17.9182222 L34.8177778,17.9182222 L34.8177778,18.28 L34.8966667,18.2791111 Z M35.6088889,18.2791111 L35.6088889,17.8431111 L35.4964444,17.8431111 L35.3671111,18.1431111 L35.2377778,17.8431111 L35.1253333,17.8431111 L35.1253333,18.2791111 L35.2046667,18.2791111 L35.2046667,17.9502222 L35.326,18.2337778 L35.4084444,18.2337778 L35.5297778,17.9495556 L35.5297778,18.2793333 L35.6088889,18.2791111 Z M17.0177778,20.4497778 C17.1044444,20.5262222 17.1955556,20.6 17.286,20.6746667 C15.4720785,21.9008757 13.332163,22.5550419 11.1426667,22.5526667 C5.01377778,22.5526667 0.0455555556,17.522 0.0455555556,11.3166667 C0.0455555556,5.11133333 5.01377778,0.0806666667 11.1426667,0.0806666667 C13.3320641,0.0782702454 15.4718938,0.732356517 17.2857778,1.95844444 C17.1968889,2.03311111 17.1046667,2.10644444 17.0175556,2.18311111 C14.4015435,4.49790805 12.9036952,7.82333639 12.9036952,11.3164444 C12.9036952,14.8095525 14.4015435,18.1349808 17.0175556,20.4497778 L17.0177778,20.4497778 Z M24.8593333,0.0808888889 C22.6699339,0.0784788279 20.5301003,0.732566295 18.7162222,1.95866667 C18.8051111,2.03333333 18.8973333,2.10688889 18.9844444,2.18355556 C21.6004565,4.49835249 23.0983048,7.82378084 23.0983048,11.3168889 C23.0983048,14.8099969 21.6004565,18.1354253 18.9844444,20.4502222 C18.8977778,20.5266667 18.8066667,20.6004444 18.716,20.6753333 C20.5299078,21.9013715 22.6697218,22.555453 24.8591111,22.5531111 C30.9877778,22.5531111 35.9562222,17.5226667 35.9562222,11.3173333 C35.9562222,5.112 30.9871111,0.0811111111 24.8584444,0.0811111111 L24.8593333,0.0808888889 Z M18,2.48733333 C17.857037,2.60125926 17.717037,2.71859259 17.58,2.83933333 C15.1514978,4.98783382 13.7609727,8.07463101 13.7609727,11.3171111 C13.7609727,14.5595912 15.1514978,17.6463884 17.58,19.7948889 C17.7168889,19.9156296 17.8568889,20.032963 18,20.1468889 C18.142963,20.032963 18.282963,19.9156296 18.42,19.7948889 C20.8485022,17.6463884 22.2390273,14.5595912 22.2390273,11.3171111 C22.2390273,8.07463101 20.8485022,4.98783382 18.42,2.83933333 C18.2831111,2.71859259 18.1431111,2.60125926 18,2.48733333 Z" id="Shape"></path>
                    </g>
                </g>
            </g>
        </g>
    </g>
</svg>