<?xml version="1.0" encoding="UTF-8"?>
<svg width="33px" height="10px" viewBox="0 0 33 10" version="1.1" xmlns="http://www.w3.org/2000/svg" xmlns:xlink="http://www.w3.org/1999/xlink">
    <!-- Generator: Sketch 50.2 (55047) - http://www.bohemiancoding.com/sketch -->
    <title>mir-logo</title>
    <desc>Created with Sketch.</desc>
    <defs></defs>
    <g id="11.-Credit" stroke="none" stroke-width="1" fill="none" fill-rule="evenodd">
        <g id="11.2-Credit-Promo-1440" transform="translate(-937.000000, -3674.000000)" fill="#FFFFFF">
            <g id="Group-46" transform="translate(0.000000, 3316.000000)">
                <g id="Group-44" transform="translate(914.000000, 324.000000)">
                    <g id="mir-logo" transform="translate(23.666667, 34.000000)">
                        <g id="g5">
                            <path d="M8.62299135,-6.82437214e-15 L8.62299135,0.00395550062 C8.61903585,0.00395550062 7.37305315,-6.82437214e-15 7.0407911,1.19060569 C6.73621755,2.28232386 5.87787392,5.29641533 5.85414091,5.37948084 L5.61681088,5.37948084 C5.61681088,5.37948084 4.73868974,2.29814586 4.43016069,1.18665019 C4.09789864,-0.00395550062 2.84796044,-6.82437214e-15 2.84796044,-6.82437214e-15 L0,-8.65960287e-08 L0,9.05809642 L2.84796044,9.05809642 L2.84796044,3.67861557 L2.96662546,3.67861557 L3.08529048,3.67861557 L4.74660074,9.05809642 L6.72435105,9.05809642 L8.38566131,3.68257108 L8.62299135,3.68257108 L8.62299135,9.05809642 L11.4709518,9.05809642 L11.4709518,-8.65960287e-08 L8.62299135,-6.82437214e-15 Z" id="path7"></path>
                        </g>
                        <g id="g9" transform="translate(12.697157, 0.000000)">
                            <path d="M6.32880099,0 C6.32880099,0 5.49419036,0.0751545117 5.1025958,0.949320148 L3.08529048,5.37948084 L2.84796044,5.37948084 L2.84796044,0 L0,0 L0,9.05809642 L2.68974042,9.05809642 C2.68974042,9.05809642 3.56390606,8.9789864 3.95550062,8.10877627 L5.93325093,3.67861557 L6.17058096,3.67861557 L6.17058096,9.05809642 L9.01854141,9.05809642 L9.01854141,0 L6.32880099,0 Z" id="path11"></path>
                        </g>
                        <g id="g13" transform="translate(22.981459, 4.113721)">
                            <path d="M0,0 L0,4.94437577 L2.84796044,4.94437577 L2.84796044,2.05686032 L5.93325093,2.05686032 C7.27812114,2.05686032 8.41730532,1.19851669 8.84054388,0 L0,0 Z" id="path15"></path>
                        </g>
                        <g id="g17" transform="translate(22.546354, 0.000000)">
                            <path d="M6.368356,0 L0.0355995056,0 C0.352039555,1.72459827 1.64548826,3.10902349 3.31866502,3.55995056 C3.69839308,3.66279357 4.09789864,3.71817058 4.5092707,3.71817058 L9.39035847,3.71817058 C9.43386897,3.51248455 9.45364648,3.30284302 9.45364648,3.08529048 C9.45364648,1.38046972 8.07317676,0 6.368356,0 Z" id="path24"></path>
                        </g>
                    </g>
                </g>
            </g>
        </g>
    </g>
</svg>