<?xml version="1.0" encoding="UTF-8"?>
<svg width="64px" height="20px" viewBox="0 0 64 20" version="1.1" xmlns="http://www.w3.org/2000/svg" xmlns:xlink="http://www.w3.org/1999/xlink">
    <!-- Generator: Sketch 50.2 (55047) - http://www.bohemiancoding.com/sketch -->
    <title>logo-eleksnet</title>
    <desc>Created with Sketch.</desc>
    <defs></defs>
    <g id="11.-Credit" stroke="none" stroke-width="1" fill="none" fill-rule="evenodd">
        <g id="11.2-Credit-Promo-1440" transform="translate(-242.000000, -3991.000000)" fill="#FFFFFF" fill-rule="nonzero">
            <g id="Group-46" transform="translate(0.000000, 3316.000000)">
                <g id="Group-49" transform="translate(234.000000, 644.000000)">
                    <g id="logo-eleksnet" transform="translate(8.000000, 31.000000)">
                        <path d="M17.4473068,10.5142857 L6.68734694,10.5142857 L6.68734694,8.96 L17.4537888,8.96 C17.0786432,5.0116841 13.7505261,1.92 9.7044898,1.92 C5.40734694,1.92 1.92,5.40734694 1.92,9.7044898 C1.92,14.0016327 5.40734694,17.4889796 9.7044898,17.4889796 C13.7281917,17.4889796 17.0418785,14.4313338 17.4473068,10.5142857 Z M19.2130612,9.7044898 C19.2130612,14.9420408 14.9681633,19.1738776 9.74367347,19.1738776 C4.50612245,19.1738776 0.26122449,14.9289796 0.26122449,9.7044898 C0.26122449,4.46693878 4.50612245,0.235102041 9.73061224,0.235102041 C14.9681633,0.235102041 19.2130612,4.46693878 19.2130612,9.7044898 Z M12.0946939,5.25061224 C12.0946939,5.91673469 11.5591837,6.4522449 10.8930612,6.4522449 C10.2269388,6.4522449 9.69142857,5.91673469 9.69142857,5.25061224 C9.69142857,4.5844898 10.2269388,4.04897959 10.8930612,4.04897959 C11.5591837,4.04897959 12.0946939,4.5844898 12.0946939,5.25061224 Z" id="Combined-Shape"></path>
                        <path d="M23.8889796,9.26040816 L27.5983673,9.26040816 C27.4677551,7.70612245 26.5273469,6.5044898 24.8685714,6.5044898 C24.2155102,6.5044898 23.6538776,6.68734694 23.1444898,6.89632653 L22.8963265,6.11265306 C23.4710204,5.85142857 24.1502041,5.6555102 24.9208163,5.6555102 C27.4155102,5.6555102 28.7085714,7.47102041 28.7085714,9.78285714 C28.7085714,12.4212245 26.9844898,13.9102041 24.8555102,13.9102041 C24.0718367,13.9102041 23.3404082,13.7534694 22.7657143,13.5053061 L22.9877551,12.682449 C23.444898,12.8914286 24.1110204,13.0481633 24.724898,13.0481633 C26.475102,13.0481633 27.5330612,11.7681633 27.6114286,10.1093878 L23.8889796,10.1093878 L23.8889796,9.26040816 Z" id="Shape"></path>
                        <path d="M33.3844898,8.01959184 L33.3844898,13.7534694 L32.3395918,13.7534694 L32.3395918,8.82938776 L30.3673469,8.82938776 L30.3673469,10.3183673 C30.3673469,11.924898 30.2106122,13.0089796 29.4661224,13.4922449 C29.1787755,13.7142857 28.8653061,13.844898 28.3297959,13.844898 L28.2253061,13.0220408 C28.4212245,12.9828571 28.6563265,12.9044898 28.8,12.7869388 C29.3355102,12.395102 29.3877551,11.5853061 29.3877551,10.2922449 L29.3877551,8.01959184 L33.3844898,8.01959184 Z" id="Shape"></path>
                        <polygon id="Shape" points="63.9085714 8.01959184 63.9085714 8.84244898 62.1191837 8.84244898 62.1191837 13.7665306 61.0742857 13.7665306 61.0742857 8.84244898 59.284898 8.84244898 59.284898 8.01959184"></polygon>
                        <polygon id="Shape" points="50.1028571 8.01959184 50.1028571 10.3314286 52.8065306 10.3314286 52.8065306 8.01959184 53.8514286 8.01959184 53.8514286 13.7665306 52.8065306 13.7665306 52.8065306 11.1673469 50.1028571 11.1673469 50.1028571 13.7665306 49.0579592 13.7665306 49.0579592 8.01959184"></polygon>
                        <path d="M40.3983673,8.01959184 L40.3983673,10.5142857 L40.6334694,10.5142857 L42.7885714,8.01959184 L44.0555102,8.01959184 L41.5477551,10.6057143 C42.4881633,10.7102041 43.0367347,11.3240816 43.4938776,12.3559184 C43.6506122,12.7346939 43.8334694,13.2963265 44.0946939,13.7534694 L43.0106122,13.7534694 C42.8538776,13.5053061 42.6710204,13.0481633 42.475102,12.5779592 C42.0832653,11.6506122 41.5477551,11.2326531 40.5942857,11.2326531 L40.3983673,11.2326531 L40.3983673,13.7534694 L39.3534694,13.7534694 L39.3534694,8.01959184 L40.3983673,8.01959184 Z" id="Shape"></path>
                        <path d="M38.0081633,10.3314286 C38.0212245,9.66530612 37.7338776,8.63346939 36.5714286,8.63346939 C35.5004082,8.63346939 35.0563265,9.6 34.964898,10.3314286 L38.0081633,10.3314286 Z M34.964898,11.0889796 C34.9910204,12.4865306 35.8791837,13.0742857 36.9240816,13.0742857 C37.6685714,13.0742857 38.1387755,12.9436735 38.517551,12.7738776 L38.7134694,13.5183673 C38.3477551,13.6881633 37.7077551,13.8840816 36.7934694,13.8840816 C35.0432653,13.8840816 33.9722449,12.7085714 33.9722449,10.9844898 C33.9722449,9.26040816 35.0040816,7.88897959 36.6759184,7.88897959 C38.5436735,7.88897959 39.04,9.53469388 39.04,10.5926531 C39.04,10.8016327 39.0269388,10.9583673 39.0008163,11.0759184 L34.964898,11.0759184 L34.964898,11.0889796 Z" id="Shape"></path>
                        <path d="M48.3395918,13.5444898 C48.0653061,13.675102 47.4644898,13.8840816 46.6938776,13.8840816 C44.9567347,13.8840816 43.8334694,12.7085714 43.8334694,10.9583673 C43.8334694,9.19510204 45.0481633,7.90204082 46.9159184,7.90204082 C47.5297959,7.90204082 48.0783673,8.05877551 48.3657143,8.2155102 L48.1306122,9.0122449 C47.882449,8.88163265 47.4906122,8.73795918 46.9159184,8.73795918 C45.5967347,8.73795918 44.8914286,9.71755102 44.8914286,10.9061224 C44.8914286,12.2383673 45.7404082,13.0481633 46.8897959,13.0481633 C47.477551,13.0481633 47.8693878,12.9044898 48.1697959,12.7738776 L48.3395918,13.5444898 Z" id="Shape"></path>
                        <path d="M58.4881633,10.3314286 C58.5012245,9.66530612 58.2138776,8.63346939 57.0514286,8.63346939 C55.9804082,8.63346939 55.5363265,9.6 55.4579592,10.3314286 L58.4881633,10.3314286 Z M55.444898,11.0889796 C55.4710204,12.4865306 56.3591837,13.0742857 57.4040816,13.0742857 C58.1485714,13.0742857 58.6187755,12.9436735 58.997551,12.7738776 L59.1934694,13.5183673 C58.8277551,13.6881633 58.1877551,13.8840816 57.2734694,13.8840816 C55.5232653,13.8840816 54.4522449,12.7085714 54.4522449,10.9844898 C54.4522449,9.26040816 55.4840816,7.88897959 57.1559184,7.88897959 C59.0236735,7.88897959 59.52,9.53469388 59.52,10.5926531 C59.52,10.8016327 59.5069388,10.9583673 59.4808163,11.0759184 L55.444898,11.0759184 L55.444898,11.0889796 Z" id="Shape"></path>
                    </g>
                </g>
            </g>
        </g>
    </g>
</svg>