<?xml version="1.0" encoding="UTF-8"?>
<svg width="48px" height="24px" viewBox="0 0 48 24" version="1.1" xmlns="http://www.w3.org/2000/svg" xmlns:xlink="http://www.w3.org/1999/xlink">
    <!-- Generator: Sketch 50.2 (55047) - http://www.bohemiancoding.com/sketch -->
    <title>Group 42</title>
    <desc>Created with Sketch.</desc>
    <defs></defs>
    <g id="11.-Credit" stroke="none" stroke-width="1" fill="none" fill-rule="evenodd">
        <g id="11.2-Credit-Promo-1440" transform="translate(-590.000000, -3988.000000)" fill-rule="nonzero">
            <g id="Group-46" transform="translate(0.000000, 3316.000000)">
                <g id="Group-53" transform="translate(574.000000, 644.000000)">
                    <g id="Group-42" transform="translate(16.000000, 28.000000)">
                        <path d="M4.69476459,1.87161855 C5.03826524,1.52811789 5.36949802,1.18461723 5.72526656,0.85338445 C6.09330298,1.19688511 6.44907152,1.54038577 6.81710794,1.87161855 C6.44907152,2.20285132 6.09330298,2.55861986 5.72526656,2.88985264 C5.36949802,2.55861986 5.03826524,2.2151192 4.69476459,1.87161855 Z" id="Shape" fill="#FFFFFF"></path>
                        <path d="M3.63972685,3.49097879 C4.22858512,3.33149635 4.84197915,3.27015694 5.45537319,3.2333533 C5.45537319,5.18394633 5.45537319,7.13453936 5.45537319,9.0728645 C4.79290763,9.0728645 4.14270996,9.0728645 3.4802444,9.0728645 C3.25942255,9.0728645 3.07540434,8.90111417 2.98952917,8.70482808 C2.51108183,7.58845094 2.05717024,6.44753804 1.56645501,5.3311609 C1.44377621,5.41703606 1.30882952,5.51517911 1.18615071,5.58878639 C1.62779442,6.75423505 2.14304541,7.89514796 2.59695699,9.06059662 C2.25345633,9.06059662 1.90995567,9.0728645 1.56645501,9.04832874 C1.21068647,7.76020127 0.658631844,6.54568108 0.143380855,5.31889302 C1.13707919,4.44787349 2.3393315,3.79767581 3.63972685,3.49097879 Z M2.4620103,4.93858871 C2.90365401,5.99362645 3.30849407,7.06093207 3.76240565,8.12823769 C3.88508446,8.41039895 4.240853,8.32452378 4.4984785,8.32452378 C4.4984785,6.98732479 4.4984785,5.66239367 4.4984785,4.32519468 C3.7992093,4.46014137 3.11220798,4.65642746 2.4620103,4.93858871 Z" id="Combined-Shape" fill="#FFFFFF"></path>
                        <path d="M5.98289206,3.2333533 C6.82937582,3.28242482 7.68812747,3.40510363 8.4978076,3.69953277 C9.52830957,4.04303343 10.4729364,4.6318917 11.2948844,5.3311609 C10.8409728,6.60702049 10.2766503,7.84607643 9.73686354,9.08513238 C9.44243441,9.08513238 9.14800527,9.08513238 8.85357614,9.08513238 C9.24614832,8.11596981 9.65098838,7.15907512 10.0435606,6.18991254 C10.1294357,5.99362645 10.203043,5.80960824 10.2643824,5.61332215 C10.1294357,5.52744699 10.0067569,5.44157182 9.85954235,5.35569666 C9.40563077,6.4720738 8.92718342,7.57618306 8.46100395,8.6925602 C8.38739667,8.90111417 8.19111058,9.09740026 7.95802085,9.08513238 C7.29555529,9.08513238 6.64535761,9.08513238 5.98289206,9.08513238 C5.99515994,7.12227147 5.98289206,5.17167845 5.98289206,3.2333533 Z M6.93978675,4.32519468 C6.93978675,5.65012579 6.95205463,6.98732479 6.93978675,8.33679166 C7.11153708,8.33679166 7.29555529,8.34905954 7.46730562,8.32452378 C7.66359171,8.23864862 7.72493111,8.01782676 7.7985384,7.83380855 C8.14203906,6.97505691 8.4978076,6.11630526 8.84130825,5.25755361 C8.8781119,5.14714269 8.96398706,5.03673176 8.9394513,4.92632083 C8.3015215,4.64415958 7.62678807,4.44787349 6.93978675,4.32519468 Z" id="Combined-Shape" fill="#FFFFFF"></path>
                        <path d="M11.6261172,5.61332215 C12.36219,4.97539236 13.3804241,4.81590991 14.3250509,4.87724931 C14.9875165,4.9508566 15.7113214,5.08580328 16.2143045,5.57651851 C16.6314125,5.96909069 16.7295555,6.60702049 16.6191446,7.14680724 C16.5210016,7.62525458 16.2143045,8.04236253 15.7849287,8.26318438 C16.1775009,8.48400623 16.5700731,8.79070325 16.7295555,9.23234695 C16.889038,9.75986582 16.7786271,10.3487241 16.5087337,10.8271714 C16.165233,11.4405655 15.5273032,11.8331377 14.8525698,11.9926201 C14.1533006,12.1521026 13.4294956,12.0784953 12.7547622,11.8576734 C12.2763148,11.698191 11.8101354,11.4651012 11.4298311,11.1216006 C11.5770456,10.9130466 11.7119923,10.6799569 11.8592069,10.459135 C11.9328142,10.3364562 12.0432251,10.2260453 12.1904397,10.2260453 C12.4357973,10.1892416 12.6443513,10.3487241 12.8529052,10.4468671 C13.3681562,10.7290284 13.9938181,10.8639751 14.5826764,10.7290284 C14.8648377,10.667689 15.1101953,10.459135 15.1838026,10.1892416 C15.2574098,9.90708039 15.2819456,9.56357973 15.0979274,9.30595424 C14.9016413,9.02379298 14.5336049,8.92564993 14.21464,8.88884629 C13.8097999,8.86431053 13.4049599,8.88884629 13.0001198,8.87657841 C13.0123877,8.47173835 13.0001198,8.05463041 13.0001198,7.64979034 C13.4417635,7.63752246 13.8956751,7.67432611 14.3373188,7.6129867 C14.5949443,7.57618306 14.8525698,7.45350425 14.9752486,7.20814664 C15.0979274,6.90144962 15.0611238,6.48434168 14.7666946,6.28805559 C14.423194,6.06723374 13.9815503,6.06723374 13.5767102,6.12857314 C13.2209417,6.18991254 12.9019768,6.38619863 12.570744,6.52114532 C12.3989937,6.59475261 12.1659039,6.5334132 12.0677609,6.37393075 C11.9082784,6.12857314 11.7855996,5.85867977 11.6261172,5.61332215 Z" id="Shape" fill="#FEFAFA"></path>
                        <path d="M19.354882,6.86464598 C20.0909548,6.76650294 20.8883671,6.86464598 21.4894932,7.31855757 C21.9924763,7.68659399 22.3114412,8.28772014 22.3973164,8.90111417 C22.4954594,9.60038337 22.3973164,10.360992 22.0047442,10.9621181 C21.6735114,11.489637 21.1214568,11.8454055 20.5203307,11.9803522 C19.7842578,12.1398347 18.9868456,12.0539595 18.3366479,11.6613873 C17.7600575,11.3056188 17.3674853,10.6799569 17.2448065,10.0174913 C17.1343956,9.40409728 17.1834671,8.7538996 17.4533605,8.18957709 C17.8213969,7.46577213 18.5697376,6.97505691 19.354882,6.86464598 Z M19.453025,8.06689829 C19.2567389,8.12823769 19.0972565,8.28772014 19.0113813,8.48400623 C18.839631,8.85204265 18.839631,9.25688271 18.8273631,9.64945489 C18.8150952,10.0052234 18.8764346,10.3977956 19.1217923,10.6799569 C19.5266323,11.1216006 20.3485803,11.0847969 20.6552773,10.5572781 C20.8883671,10.1401701 20.8883671,9.64945489 20.8638313,9.18327543 C20.8270277,8.81523901 20.7411525,8.3735953 20.4099197,8.15277345 C20.1277585,7.96875524 19.7597221,7.96875524 19.453025,8.06689829 Z" id="Combined-Shape" fill="#FEFAFA"></path>
                        <path d="M30.1015455,6.86464598 C30.8621541,6.75423505 31.7086378,6.88918174 32.309764,7.39216485 C32.7882113,7.77246915 33.0703726,8.36132742 33.1439799,8.96245358 C33.229855,9.68625854 33.1194441,10.459135 32.6900683,11.0602612 C32.3588355,11.5387085 31.8435845,11.8699413 31.279262,11.9926201 C30.5431892,12.1521026 29.7212412,12.0662274 29.0833114,11.6368516 C28.5680604,11.2933509 28.2245597,10.7290284 28.089613,10.1279022 C27.9423985,9.41636516 28.0037379,8.6312208 28.3717743,7.993291 C28.7398107,7.36762909 29.4022763,6.96278903 30.1015455,6.86464598 Z M30.1996885,8.05463041 C30.0034024,8.12823769 29.84392,8.28772014 29.7580448,8.48400623 C29.5740266,8.83977477 29.5862945,9.25688271 29.5740266,9.64945489 C29.5617587,10.0052234 29.635366,10.3977956 29.8807236,10.6799569 C30.1874206,11.0111896 30.7394753,11.0602612 31.1197796,10.8394393 C31.5000839,10.5940817 31.585959,10.1033665 31.6104948,9.68625854 C31.6104948,9.22007907 31.6227627,8.70482808 31.3406014,8.3122559 C31.0829759,7.96875524 30.5799928,7.9319516 30.1996885,8.05463041 Z" id="Combined-Shape" fill="#FEFAFA"></path>
                        <path d="M38.4069007,7.03639631 C39.0816341,6.95052115 39.7686354,6.82784234 40.4556368,6.84011022 C40.9708877,6.8523781 41.461603,7.07319995 41.8296394,7.42896849 C42.2222116,7.82154067 42.4553013,8.36132742 42.4921049,8.91338205 C42.4921049,9.96841979 42.4921049,11.0111896 42.4921049,12.0662274 C42.1976758,12.0539595 41.9032467,12.0784953 41.6088175,12.0539595 C41.3389242,12.0294237 41.3266563,11.698191 41.2039775,11.5141728 C40.8604768,11.698191 40.5783156,11.9926201 40.1857434,12.0784953 C39.6582245,12.213442 39.0448305,12.1643704 38.578651,11.8576734 C38.1983467,11.6000479 38.0265964,11.1216006 38.0020606,10.6799569 C37.965257,10.152438 38.2228825,9.61265125 38.6522583,9.30595424 C38.9712232,9.09740026 39.3269917,8.97472146 39.6950282,8.86431053 C40.0876003,8.7538996 40.5047083,8.72936384 40.9218162,8.72936384 C40.9340841,8.43493471 40.7746017,8.12823769 40.4801725,8.05463041 C39.9894573,7.91968372 39.4742063,8.09143405 38.9834911,8.14050557 C38.787205,8.16504133 38.6031868,8.05463041 38.5050437,7.88288008 C38.3823649,7.62525458 38.4069007,7.31855757 38.4069007,7.03639631 Z M39.5355457,9.98068767 C39.192045,10.152438 39.1552414,10.765832 39.5600815,10.9130466 C40.0262609,11.0847969 40.5783156,10.8885108 40.9095483,10.5204744 C40.9340841,10.2751168 40.8727447,10.0174913 40.8604768,9.75986582 C40.4188331,9.7721337 39.9403858,9.75986582 39.5355457,9.98068767 Z" id="Combined-Shape" fill="#FEFAFA"></path>
                        <path d="M23.4400863,9.73533006 C23.6118366,8.82750689 23.5382293,7.89514796 23.5873008,6.97505691 C24.8754283,6.97505691 26.1758236,6.97505691 27.4639511,6.97505691 C27.4639511,8.68029232 27.4639511,10.3732599 27.4639511,12.0784953 C26.960968,12.0784953 26.4702528,12.0784953 25.9672697,12.0784953 C25.9672697,10.765832 25.9672697,9.4531688 25.9672697,8.14050557 C25.5992333,8.14050557 25.2434647,8.14050557 24.8754283,8.14050557 C24.8263568,8.90111417 24.8140889,9.67399066 24.6546064,10.4223314 C24.5441955,10.9007787 24.3724452,11.3914939 24.0166767,11.7472625 C23.6363723,12.1275668 23.0720498,12.2502456 22.5567988,12.2257098 C22.43412,12.2257098 22.2991734,12.1521026 22.2991734,12.0171559 C22.2869055,11.698191 22.2991734,11.3914939 22.2869055,11.0725291 C22.5199952,11.0479933 22.7530849,10.974386 22.9371032,10.8394393 C23.2315323,10.5204744 23.3787469,10.1279022 23.4400863,9.73533006 Z" id="Shape" fill="#FEFAFA"></path>
                        <path d="M33.1071762,6.97505691 C34.6897328,6.97505691 36.2845573,6.97505691 37.8671139,6.97505691 C37.8671139,7.33082545 37.8671139,7.69886187 37.8671139,8.05463041 C37.3395951,8.05463041 36.8243441,8.05463041 36.3090931,8.05463041 C36.3090931,9.36729364 36.3090931,10.6799569 36.3090931,11.9926201 C35.7815742,11.9926201 35.2663232,11.9926201 34.7388044,11.9926201 C34.7388044,10.6799569 34.7388044,9.36729364 34.7388044,8.05463041 C34.1990176,8.05463041 33.646963,8.05463041 33.1071762,8.05463041 C33.1071762,7.68659399 33.1071762,7.33082545 33.1071762,6.97505691 Z" id="Shape" fill="#FEFAFA"></path>
                        <path d="M43.6084821,7.42896849 C44.0746616,7.09773571 44.6389841,6.97505691 45.2033066,6.97505691 C45.8903079,6.97505691 46.5650413,6.97505691 47.2520427,6.97505691 C47.2520427,8.65575656 47.2520427,10.3241883 47.2520427,12.004888 C46.7735953,12.004888 46.295148,12.004888 45.8289685,12.004888 C45.8289685,11.3424224 45.8289685,10.6799569 45.8289685,10.0297592 C45.6449503,10.0420271 45.4363963,10.0665628 45.3137175,10.2260453 C44.9702168,10.6554211 44.8720738,11.2197436 44.5776447,11.6859231 C44.4304301,11.9190128 44.1482688,11.9926201 43.8906433,12.004888 C43.4980712,12.0171559 43.0932311,12.004888 42.7006589,12.004888 C43.0686953,11.3914939 43.4244639,10.7903678 43.8047682,10.1769738 C43.927447,9.95615191 44.1482688,9.80893734 44.3936265,9.75986582 C43.927447,9.66172277 43.4244639,9.42863304 43.2159099,8.96245358 C42.9582844,8.43493471 43.1791063,7.78473703 43.6084821,7.42896849 Z M44.9947526,7.98102312 C44.5899125,8.12823769 44.5040374,8.74163172 44.8352702,9.02379298 C45.0928957,9.29368635 45.4977357,9.18327543 45.8289685,9.20781119 C45.8289685,8.77843537 45.8289685,8.34905954 45.8289685,7.91968372 C45.5468072,7.9319516 45.264646,7.88288008 44.9947526,7.98102312 Z" id="Combined-Shape" fill="#FEFAFA"></path>
                        <path d="M1.7627411,9.53904397 C4.42487121,9.53904397 7.08700132,9.53904397 9.73686354,9.53904397 C9.73686354,9.85800887 9.73686354,10.1647059 9.73686354,10.4836708 C7.07473344,10.4836708 4.41260333,10.4836708 1.7627411,10.4836708 C1.7627411,10.1647059 1.7627411,9.84574098 1.7627411,9.53904397 Z" id="Shape" fill="#FFFFFF"></path>
                        <path d="M1.77500899,11.1093327 C2.57242123,11.1093327 3.35756559,11.1093327 4.15497784,11.1093327 C4.15497784,12.4465317 4.15497784,13.7837307 4.15497784,15.1209297 C4.42487121,15.1331976 4.70703247,15.1209297 4.97692584,15.0350545 C5.08733677,14.985983 5.17321193,14.8878399 5.24681922,14.8019648 C5.83567749,14.0168204 6.15464239,13.0599257 6.74350066,12.2747814 C6.97659039,11.9558165 7.25875165,11.6613873 7.61452019,11.4773691 C8.27698574,11.18294 9.01305858,11.1461363 9.72459566,11.1706721 C9.72459566,11.6491194 9.72459566,12.1275668 9.72459566,12.6060141 C9.73686354,12.7777645 9.65098838,12.9617827 9.50377381,13.0476578 C9.27068408,13.1826045 9.0007907,13.1948724 8.76770097,13.3052833 C8.559147,13.3911585 8.38739667,13.5506409 8.26471786,13.7346592 C7.87214568,14.262178 7.72493111,14.9369115 7.33235893,15.4644303 C7.19741224,15.6361807 7.01339403,15.7711274 6.81710794,15.8570025 C7.12380496,15.9306098 7.4182341,16.0778244 7.65132383,16.2986462 C7.90894932,16.5562717 8.10523541,16.8629687 8.28925362,17.1696657 C9.01305858,18.4577932 9.74913142,19.7336528 10.4729364,21.0217803 C9.76139931,21.0217803 9.03759435,21.0217803 8.32605727,21.0217803 C8.08069965,21.0340482 7.82307416,20.9604409 7.66359171,20.7641548 C7.50410926,20.6046723 7.44276986,20.3838505 7.33235893,20.1998323 C6.76803642,19.2184018 6.21598179,18.2247035 5.65165928,17.243273 C5.54124835,17.0469869 5.35723014,16.8875045 5.13640829,16.838433 C4.81744339,16.7770936 4.47394273,16.8138972 4.15497784,16.8016293 C4.15497784,18.1878998 4.15497784,19.5619025 4.15497784,20.948173 C3.43117288,20.948173 2.69510004,20.948173 1.97129508,20.948173 C1.90995567,20.9236372 1.7627411,20.9849766 1.77500899,20.8745657 C1.77500899,17.6481131 1.77500899,14.3848568 1.77500899,11.1093327 Z" id="Shape" fill="#FEFAFA"></path>
                        <path d="M13.0001198,13.5997125 C13.907943,13.5015694 14.8648377,13.6365161 15.649982,14.1272313 C16.3124476,14.5320714 16.8031628,15.1822691 17.0485204,15.9183419 C17.2816102,16.6053432 17.3184138,17.3414161 17.2448065,18.0529532 C17.2080029,18.4455253 17.0853241,18.8135618 16.9013059,19.1570624 C16.6068767,19.7827243 16.1284294,20.3225111 15.5395711,20.6782796 C14.729891,21.1444591 13.7361926,21.2671379 12.8161016,21.1199233 C11.9941536,20.9972445 11.2212771,20.6046723 10.6569546,19.9912783 C10.1907751,19.4514916 9.85954235,18.7767581 9.77366719,18.0529532 C9.66325626,17.1205942 9.76139931,16.1391638 10.2398467,15.3049479 C10.7796334,14.2989817 11.8837427,13.6978555 13.0001198,13.5997125 Z M13.0491913,15.2558764 C12.7547622,15.3417515 12.4971367,15.5380376 12.3376542,15.807931 C12.0677609,16.2741105 12.0432251,16.838433 12.0309572,17.3659518 C12.0186893,17.8812028 12.0309572,18.4209896 12.2885827,18.8749012 C12.4480652,19.1815982 12.7179585,19.40242 13.0491913,19.4882952 C13.5153708,19.5987061 14.0674254,19.5741704 14.4477297,19.2552055 C14.8403019,18.9117048 14.9629807,18.3719181 15.0120522,17.8812028 C15.0488559,17.3414161 15.036588,16.7893614 14.9016413,16.2618426 C14.8034983,15.9183419 14.6194801,15.5871091 14.312783,15.3908231 C13.9324787,15.1700012 13.4662993,15.1454654 13.0491913,15.2558764 Z" id="Combined-Shape" fill="#FEFAFA"></path>
                        <path d="M21.2564035,13.6855876 C21.8329939,13.5383731 22.4586558,13.5015694 23.0229783,13.7223913 C23.7345154,14.0168204 24.2252306,14.6547502 24.5196598,15.3417515 C24.7650174,15.8570025 24.8386247,16.4335929 24.8631604,16.9979154 C24.9122319,18.0284174 24.6546064,19.095723 24.0534803,19.9544747 C23.6363723,20.5433329 23.0107104,20.9849766 22.2991734,21.1199233 C21.7103151,21.2303343 21.0601174,21.1812627 20.5203307,20.9113694 C20.3240446,20.8254942 20.1522942,20.6905475 19.9805439,20.5801366 C19.9805439,21.5124955 19.9805439,22.4325866 19.9805439,23.3649455 C19.2567389,23.3894813 18.532934,23.414017 17.809129,23.4385528 C17.809129,20.1998323 17.809129,16.9611118 17.809129,13.7223913 C18.2630406,13.7223913 18.7046843,13.7223913 19.1585959,13.7223913 C19.3794178,13.7223913 19.6125075,13.8205343 19.6861148,14.0290883 C19.7474542,14.2131065 19.7842578,14.4093926 19.8333293,14.6056787 C20.2381694,14.164035 20.7166167,13.8328022 21.2564035,13.6855876 Z M19.9928118,15.9428777 C20.0050797,16.9733797 19.9805439,18.0161495 19.9928118,19.0466515 C20.2381694,19.3533485 20.6552773,19.5250988 21.0478495,19.5373667 C21.4649575,19.5619025 21.8943333,19.4146879 22.1396909,19.0711873 C22.544531,18.5068647 22.5813346,17.7707919 22.5690667,17.0960585 C22.544531,16.5562717 22.4954594,15.9428777 22.1028873,15.5257697 C21.8452618,15.2436085 21.4036181,15.2313406 21.0478495,15.29268 C20.6307416,15.3540194 20.2627052,15.6239128 19.9928118,15.9428777 Z" id="Combined-Shape" fill="#FEFAFA"></path>
                        <path d="M28.5925961,13.5997125 C29.5740266,13.4893015 30.6290643,13.648784 31.4510123,14.2253744 C32.1870852,14.7283575 32.6532646,15.5625734 32.8127471,16.421325 C32.9722295,17.2800767 32.9354259,18.2001677 32.6041931,19.0221157 C32.309764,19.8072601 31.6841021,20.4819935 30.9112256,20.8254942 C30.1260812,21.1812627 29.2427938,21.2426021 28.3963101,21.1199233 C27.5498263,20.9849766 26.7278783,20.5678687 26.1880915,19.8931353 C25.5746975,19.1570624 25.317072,18.1633641 25.3538756,17.2064694 C25.3784114,16.2741105 25.6851084,15.3172158 26.347574,14.6424823 C26.9487001,14.0290883 27.7706481,13.6978555 28.5925961,13.5997125 Z M28.6907392,15.2558764 C28.4453816,15.3172158 28.2245597,15.4644303 28.0528094,15.6729843 C27.7583803,16.0655565 27.684773,16.5685396 27.6602372,17.0469869 C27.6357014,17.6113095 27.6357014,18.2001677 27.8565233,18.7276866 C27.99147,19.0589194 28.2613634,19.3656164 28.6171319,19.4637594 C29.0710435,19.5987061 29.5862945,19.5741704 29.9788667,19.3165449 C30.3469031,19.0466515 30.5186534,18.5927399 30.5922607,18.1633641 C30.6781359,17.6481131 30.6781359,17.1205942 30.6045286,16.6053432 C30.5431892,16.1759674 30.3837067,15.7220558 30.0156703,15.4398946 C29.635366,15.1700012 29.1323829,15.1454654 28.6907392,15.2558764 Z" id="Combined-Shape" fill="#FEFAFA"></path>
                        <path d="M41.5474781,13.8328022 C42.5534444,13.6733198 43.5594106,13.5383731 44.5776447,13.5751767 C45.4609321,13.6119804 46.3319516,14.0536241 46.8226668,14.8019648 C47.2029711,15.3540194 47.3379178,16.0287528 47.3133821,16.6912184 C47.3133821,18.1633641 47.3133821,19.6477776 47.3133821,21.1199233 C46.9330778,21.1199233 46.5527735,21.1321912 46.184737,21.1199233 C45.9884509,21.1076554 45.7676291,21.0585839 45.6572182,20.8868336 C45.5468072,20.6905475 45.4854678,20.4574578 45.4118605,20.2489038 C44.5899125,21.1812627 43.1668384,21.5124955 42.0259255,21.0217803 C41.6333533,20.8622978 41.3021205,20.5310651 41.1303702,20.1384929 C40.8604768,19.512831 40.7991374,18.7644902 41.0199593,18.1142926 C41.2898526,17.4272912 41.9032467,16.9243081 42.590248,16.7034863 C43.0318917,16.5685396 43.4735354,16.421325 43.9397149,16.3722535 C44.332287,16.323182 44.7371271,16.3109141 45.1419672,16.3109141 C45.1787708,15.8815383 44.8966096,15.4276267 44.4549659,15.3417515 C43.9642506,15.2436085 43.4735354,15.3417515 42.9950881,15.4276267 C42.688391,15.4766982 42.3571583,15.5871091 42.0504612,15.4766982 C41.8173715,15.3908231 41.6701569,15.1577333 41.5965497,14.9246436 C41.5229424,14.5443393 41.5229424,14.1885707 41.5474781,13.8328022 Z M43.314053,18.0161495 C42.8724092,18.175632 42.6761232,18.7522224 42.8724092,19.1447945 C43.0196238,19.4146879 43.3508566,19.4882952 43.6330179,19.4882952 C43.9642506,19.4882952 44.3077513,19.4269558 44.6021804,19.2674733 C44.8107344,19.1570624 44.9456811,18.9485084 45.1419672,18.8380975 C45.1542351,18.4577932 45.1419672,18.0897568 45.1419672,17.7094525 C44.5285731,17.7830598 43.9029112,17.8198634 43.314053,18.0161495 Z" id="Combined-Shape" fill="#FEFAFA"></path>
                        <path d="M33.5242842,13.6978555 C34.2480891,13.6978555 34.9718941,13.6978555 35.6956991,13.6978555 C35.6956991,14.5811429 35.6956991,15.4644303 35.6956991,16.3477177 C36.4685755,16.3599856 37.2291841,16.3477177 38.0020606,16.3599856 C38.0143285,15.4766982 38.0020606,14.5934108 38.0020606,13.7101234 C38.7258656,13.7101234 39.4496705,13.7101234 40.1857434,13.7101234 C40.1857434,16.1514317 40.1857434,18.6050078 40.1857434,21.046316 C39.4619384,21.046316 38.7381335,21.046316 38.0020606,21.046316 C38.0020606,20.0280819 38.0020606,19.0098478 38.0020606,17.9916138 C37.2291841,17.9916138 36.4685755,17.9916138 35.6956991,17.9916138 C35.6956991,19.0098478 35.6956991,20.0280819 35.6956991,21.046316 C34.9718941,21.0585839 34.2480891,21.046316 33.5120163,21.046316 C33.5242842,18.5927399 33.5242842,16.1391638 33.5242842,13.6978555 Z" id="Shape" fill="#FEFAFA"></path>
                    </g>
                </g>
            </g>
        </g>
    </g>
</svg>