<?xml version="1.0" encoding="UTF-8"?>
<svg width="52px" height="20px" viewBox="0 0 52 20" version="1.1" xmlns="http://www.w3.org/2000/svg" xmlns:xlink="http://www.w3.org/1999/xlink">
    <!-- Generator: Sketch 50.2 (55047) - http://www.bohemiancoding.com/sketch -->
    <title>Combined Shape</title>
    <desc>Created with Sketch.</desc>
    <defs></defs>
    <g id="11.-Credit" stroke="none" stroke-width="1" fill="none" fill-rule="evenodd">
        <g id="11.2-Credit-Promo-1440" transform="translate(-588.000000, -4102.000000)" fill="#FFFFFF">
            <path d="M611,4115 L611,4118 L607,4114.5 L611,4111 L611,4114 L619,4114 L619,4115 L611,4115 Z M616,4107 L608,4107 L608,4106 L616,4106 L616,4103 L620,4106.5 L616,4110 L616,4107 Z M596.5,4102 L605,4109 L588,4109 L596.5,4102 Z M589,4119 L604,4119 L604,4120 L589,4120 L589,4119 Z M589,4121 L604,4121 L604,4122 L589,4122 L589,4121 Z M591,4110 L592,4110 L592,4118 L591,4118 L591,4110 Z M593,4110 L594,4110 L594,4118 L593,4118 L593,4110 Z M595,4110 L596,4110 L596,4118 L595,4118 L595,4110 Z M597,4110 L598,4110 L598,4118 L597,4118 L597,4110 Z M599,4110 L600,4110 L600,4118 L599,4118 L599,4110 Z M601,4110 L602,4110 L602,4118 L601,4118 L601,4110 Z M631.5,4102 L640,4109 L623,4109 L631.5,4102 Z M624,4119 L639,4119 L639,4120 L624,4120 L624,4119 Z M624,4121 L639,4121 L639,4122 L624,4122 L624,4121 Z M626,4110 L627,4110 L627,4118 L626,4118 L626,4110 Z M628,4110 L629,4110 L629,4118 L628,4118 L628,4110 Z M630,4110 L631,4110 L631,4118 L630,4118 L630,4110 Z M632,4110 L633,4110 L633,4118 L632,4118 L632,4110 Z M634,4110 L635,4110 L635,4118 L634,4118 L634,4110 Z M636,4110 L637,4110 L637,4118 L636,4118 L636,4110 Z" id="Combined-Shape"></path>
        </g>
    </g>
</svg>