<?xml version="1.0" encoding="UTF-8"?>
<svg width="33px" height="35px" viewBox="0 0 33 35" version="1.1" xmlns="http://www.w3.org/2000/svg" xmlns:xlink="http://www.w3.org/1999/xlink">
    <!-- Generator: Sketch 53 (72520) - https://sketchapp.com -->
    <title>Combined Shape 2</title>
    <desc>Created with Sketch.</desc>
    <g id="11.-Credit-" stroke="none" stroke-width="1" fill="none" fill-rule="evenodd">
        <g id="11.92" transform="translate(-257.000000, -3792.000000)" fill="#FFFFFF">
            <g id="Combined-Shape-2" transform="translate(257.000000, 3792.000000)">
                <path d="M16.5,0 L33,14 L0,14 L16.5,0 Z M3,30 L30,30 L30,31 L3,31 L3,30 Z M1,34 L32,34 L32,35 L1,35 L1,34 Z M8,16 L9,16 L9,28 L8,28 L8,16 Z M4,16 L5,16 L5,28 L4,28 L4,16 Z M12,16 L13,16 L13,28 L12,28 L12,16 Z M16,16 L17,16 L17,28 L16,28 L16,16 Z M24,16 L25,16 L25,28 L24,28 L24,16 Z M28,16 L29,16 L29,28 L28,28 L28,16 Z M20,16 L21,16 L21,28 L20,28 L20,16 Z" id="Combined-Shape"></path>
            </g>
        </g>
    </g>
</svg>