<?xml version="1.0" encoding="UTF-8"?>
<svg width="20px" height="34px" viewBox="0 0 20 34" version="1.1" xmlns="http://www.w3.org/2000/svg" xmlns:xlink="http://www.w3.org/1999/xlink">
    <!-- Generator: Sketch 53 (72520) - https://sketchapp.com -->
    <title>Combined Shape</title>
    <desc>Created with Sketch.</desc>
    <g id="11.-Credit-" stroke="none" stroke-width="1" fill="none" fill-rule="evenodd">
        <g id="11.92" transform="translate(-604.000000, -3907.000000)" fill="#FFFFFF" fill-rule="nonzero">
            <g id="Group-29" transform="translate(574.000000, 3884.000000)">
                <path d="M32,24 C31.4477153,24 31,24.4477153 31,25 L31,55 C31,55.5522847 31.4477153,56 32,56 L48,56 C48.5522847,56 49,55.5522847 49,55 L49,25 C49,24.4477153 48.5522847,24 48,24 L32,24 Z M32,23 L48,23 C49.1045695,23 50,23.8954305 50,25 L50,55 C50,56.1045695 49.1045695,57 48,57 L32,57 C30.8954305,57 30,56.1045695 30,55 L30,25 C30,23.8954305 30.8954305,23 32,23 Z M34,26 L38,26 C38.5522847,26 39,26.4477153 39,27 L39,31 C39,31.5522847 38.5522847,32 38,32 L34,32 C33.4477153,32 33,31.5522847 33,31 L33,27 C33,26.4477153 33.4477153,26 34,26 Z" id="Combined-Shape"></path>
            </g>
        </g>
    </g>
</svg>