<?xml version="1.0" encoding="UTF-8"?>
<svg width="32px" height="31px" viewBox="0 0 32 31" version="1.1" xmlns="http://www.w3.org/2000/svg" xmlns:xlink="http://www.w3.org/1999/xlink">
    <!-- Generator: Sketch 50.2 (55047) - http://www.bohemiancoding.com/sketch -->
    <title>Group 43</title>
    <desc>Created with Sketch.</desc>
    <defs></defs>
    <g id="11.-Credit" stroke="none" stroke-width="1" fill="none" fill-rule="evenodd">
        <g id="11.2-Credit-Promo-1440" transform="translate(-938.000000, -4098.000000)" fill="#FFFFFF">
            <g id="Group-43" transform="translate(938.000000, 4098.000000)">
                <path d="M3.55555556,1 C2.13344158,1 1,2.07894919 1,3.38461538 L1,18.6153846 C1,19.9210508 2.13344158,21 3.55555556,21 L28.4444444,21 C29.8665584,21 31,19.9210508 31,18.6153846 L31,3.38461538 C31,2.07894919 29.8665584,1 28.4444444,1 L3.55555556,1 Z M3.55555556,0 L28.4444444,0 C30.4081236,0 32,1.51534392 32,3.38461538 L32,18.6153846 C32,20.4846561 30.4081236,22 28.4444444,22 L3.55555556,22 C1.59187645,22 0,20.4846561 0,18.6153846 L0,3.38461538 C0,1.51534392 1.59187645,0 3.55555556,0 Z" id="Rectangle-12" fill-rule="nonzero"></path>
                <circle id="Oval-2" cx="25" cy="15" r="3"></circle>
                <rect id="Rectangle-12" x="0" y="5" width="32" height="4"></rect>
                <rect id="Rectangle-12" x="2" y="14" width="18" height="2"></rect>
                <path d="M17.5,27 L21,27 L17,31 L13,27 L16.5,27 L16.5,18 L17.5,18 L17.5,27 Z" id="Combined-Shape"></path>
            </g>
        </g>
    </g>
</svg>