<?xml version="1.0" encoding="UTF-8"?>
<svg width="40px" height="30px" viewBox="0 0 40 30" version="1.1" xmlns="http://www.w3.org/2000/svg" xmlns:xlink="http://www.w3.org/1999/xlink">
    <!-- Generator: Sketch 53 (72520) - https://sketchapp.com -->
    <title>Group 43</title>
    <desc>Created with Sketch.</desc>
    <g id="11.-Credit-" stroke="none" stroke-width="1" fill="none" fill-rule="evenodd">
        <g id="11.92" transform="translate(-254.000000, -4021.000000)">
            <g id="Group-43" transform="translate(254.000000, 4021.000000)">
                <path d="M3.55555556,1 C2.13344158,1 1,2.07894919 1,3.38461538 L1,18.6153846 C1,19.9210508 2.13344158,21 3.55555556,21 L28.4444444,21 C29.8665584,21 31,19.9210508 31,18.6153846 L31,3.38461538 C31,2.07894919 29.8665584,1 28.4444444,1 L3.55555556,1 Z M3.55555556,0 L28.4444444,0 C30.4081236,0 32,1.51534392 32,3.38461538 L32,18.6153846 C32,20.4846561 30.4081236,22 28.4444444,22 L3.55555556,22 C1.59187645,22 0,20.4846561 0,18.6153846 L0,3.38461538 C0,1.51534392 1.59187645,0 3.55555556,0 Z" id="Rectangle-12" fill="#FFFFFF" fill-rule="nonzero"></path>
                <path d="M11.5555556,9 C10.1334416,9 9,10.0789492 9,11.3846154 L9,26.6153846 C9,27.9210508 10.1334416,29 11.5555556,29 L36.4444444,29 C37.8665584,29 39,27.9210508 39,26.6153846 L39,11.3846154 C39,10.0789492 37.8665584,9 36.4444444,9 L11.5555556,9 Z M11.5555556,8 L36.4444444,8 C38.4081236,8 40,9.51534392 40,11.3846154 L40,26.6153846 C40,28.4846561 38.4081236,30 36.4444444,30 L11.5555556,30 C9.59187645,30 8,28.4846561 8,26.6153846 L8,11.3846154 C8,9.51534392 9.59187645,8 11.5555556,8 Z" id="Rectangle-12" fill="#FFFFFF" fill-rule="nonzero"></path>
                <path d="M11.5555556,9 C10.1334416,9 9,10.0789492 9,11.3846154 L9,26.6153846 C9,27.9210508 10.1334416,29 11.5555556,29 L36.4444444,29 C37.8665584,29 39,27.9210508 39,26.6153846 L39,11.3846154 C39,10.0789492 37.8665584,9 36.4444444,9 L11.5555556,9 Z" id="Path" fill="#2898BC" fill-rule="nonzero"></path>
                <circle id="Oval-2" fill="#FFFFFF" cx="33" cy="23" r="3"></circle>
                <polygon id="Rectangle-12" fill="#FFFFFF" points="8 13 40 13 40 17 8 17"></polygon>
                <rect id="Rectangle-12" fill="#FFFFFF" x="10" y="22" width="18" height="2"></rect>
            </g>
        </g>
    </g>
</svg>