<?xml version="1.0" encoding="UTF-8"?>
<svg width="200px" height="80px" viewBox="0 0 200 80" version="1.1" xmlns="http://www.w3.org/2000/svg" xmlns:xlink="http://www.w3.org/1999/xlink">
    <!-- Generator: Sketch 53.2 (72643) - https://sketchapp.com -->
    <title>Group 26</title>
    <desc>Created with Sketch.</desc>
    <defs>
        <linearGradient x1="91.3766044%" y1="0%" x2="19.496024%" y2="102.655901%" id="linearGradient-1">
            <stop stop-color="#EBEBEB" offset="0%"></stop>
            <stop stop-color="#D4D4D4" offset="100%"></stop>
        </linearGradient>
        <linearGradient x1="50%" y1="0%" x2="50%" y2="98.4813457%" id="linearGradient-2">
            <stop stop-color="#F2F2F2" offset="0%"></stop>
            <stop stop-color="#C4C4C4" offset="100%"></stop>
        </linearGradient>
        <path d="M62,67.0069875 C52.5,67.0069875 52,47.0069875 34,47.0069875 C22.9998772,47.0069875 15,55.008899 15,65.0069875 C3.13476562,65.0069875 1.81907267e-12,53.0250388 -1.31838984e-16,44.0069875 L-1.8189894e-12,32.1591797 C-3.63784697e-12,22.3172312 22.3095703,0.00698750983 49.6757812,0.00698750983 L83,0.00698750983 C107,0.00698750983 122.5,24.0069875 145,28.0069875 C176.746986,33.6508961 200,28.9928877 200,60.0069875 C200,64.4228913 198.056885,67.0069875 195,67.0069875 L183.065308,67.0069875 C183.065308,56.0069875 175,47.0069875 164,47.0069875 C145,47.0069875 145,67.0069875 138,67.0069875 L62,67.0069875 Z" id="path-3"></path>
        <linearGradient x1="84.0282645%" y1="43.1322487%" x2="1.72505803%" y2="57.8544687%" id="linearGradient-5">
            <stop stop-color="#5E5E5E" offset="0%"></stop>
            <stop stop-color="#1A1A1A" offset="100%"></stop>
        </linearGradient>
        <linearGradient x1="84.0282645%" y1="43.0946442%" x2="1.72505803%" y2="57.897476%" id="linearGradient-6">
            <stop stop-color="#5E5E5E" offset="0%"></stop>
            <stop stop-color="#1A1A1A" offset="100%"></stop>
        </linearGradient>
        <linearGradient x1="50%" y1="0%" x2="50%" y2="98.4813457%" id="linearGradient-7">
            <stop stop-color="#F2F2F2" offset="0%"></stop>
            <stop stop-color="#C4C4C4" offset="100%"></stop>
        </linearGradient>
    </defs>
    <g id="UI-Set" stroke="none" stroke-width="1" fill="none" fill-rule="evenodd">
        <g id="00.-cars" transform="translate(-128.000000, -804.000000)">
            <g id="Group-26" transform="translate(128.000000, 804.000000)">
                <g id="Group" transform="translate(19.000000, 50.000000)">
                    <path d="M30,15 C30,23.2840909 23.2840909,30 15,30 C6.71590909,30 0,23.2840909 0,15 C0,6.71590909 6.71590909,0 15,0 C23.2840909,0 30,6.71590909 30,15" id="Fill-3" fill="#1A1A1A"></path>
                    <path d="M25,15 C25,20.5227273 20.5227273,25 15,25 C9.47727273,25 5,20.5227273 5,15 C5,9.47727273 9.47727273,5 15,5 C20.5227273,5 25,9.47727273 25,15" id="Fill-3" fill="url(#linearGradient-1)"></path>
                </g>
                <g id="Group" transform="translate(149.000000, 50.000000)">
                    <path d="M30,15 C30,23.2840909 23.2840909,30 15,30 C6.71590909,30 0,23.2840909 0,15 C0,6.71590909 6.71590909,0 15,0 C23.2840909,0 30,6.71590909 30,15" id="Fill-3" fill="#1A1A1A"></path>
                    <path d="M25,15 C25,20.5227273 20.5227273,25 15,25 C9.47727273,25 5,20.5227273 5,15 C5,9.47727273 9.47727273,5 15,5 C20.5227273,5 25,9.47727273 25,15" id="Fill-3" fill="url(#linearGradient-1)"></path>
                </g>
                <g id="Group-21">
                    <mask id="mask-4" fill="white">
                        <use xlink:href="#path-3"></use>
                    </mask>
                    <use id="Fill-1" fill="url(#linearGradient-2)" xlink:href="#path-3"></use>
                    <path d="M39.5,35 L34.5,35 C33.12,35 32,34.104 32,33 L32,33 C32,31.896 33.12,31 34.5,31 L39.5,31 C40.88,31 42,31.896 42,33 L42,33 C42,34.104 40.88,35 39.5,35" id="Fill-5" fill="#404040" mask="url(#mask-4)"></path>
                    <path d="M80.5,35 L75.5,35 C74.12,35 73,34.104 73,33 L73,33 C73,31.896 74.12,31 75.5,31 L80.5,31 C81.88,31 83,31.896 83,33 L83,33 C83,34.104 81.88,35 80.5,35" id="Fill-7" fill="#404040" mask="url(#mask-4)"></path>
                    <path d="M180,40.5 C180,39.3379602 181.561858,39 183.123716,39 L184.685575,39 C189.349493,39 195.53401,41.6213974 197.077438,44.5279083 C197.896569,46.0704575 198.677892,48 197.038474,48 C190.933007,48 180,45 180,40.5 Z" id="Fill-13" fill="#FFEC7D" mask="url(#mask-4)"></path>
                    <path d="M0,34 L0,28 L7,28 C8.65685425,28 10,29.3431458 10,31 L10,33 C10,33.5522847 9.55228475,34 9,34 L0,34 Z" id="Fill-11" fill="#FF5F5F" mask="url(#mask-4)"></path>
                    <path d="M75,3 L81.637207,3 C89.5185547,3 94.6376953,4.45248689 102.803955,8.73251619 C106.535593,10.6883098 114.256866,15.7753088 125.967773,23.9935132 L75,23.9935132 C73.8954305,23.9935132 73,23.0980827 73,21.9935132 L73,5 C73,3.8954305 73.8954305,3 75,3 Z" id="Combined-Shape" fill="url(#linearGradient-5)" mask="url(#mask-4)"></path>
                    <g id="Group-34" mask="url(#mask-4)" fill="url(#linearGradient-6)">
                        <g transform="translate(17.000000, 3.000000)" id="Combined-Shape">
                            <path d="M1.62792979,12.4781704 C3.57464222,10.5169051 5.52215195,8.96127469 7.47045898,7.8112793 C16.5794615,2.43465702 23.3549805,0.0069857665 32.8549805,0.0069857665 L51.0000863,0.0069857665 C52.1046558,0.0069857665 53.0000863,0.902416267 53.0000863,2.00698577 L53.000088,19.0005489 C53.000088,20.1051184 52.1046575,21.0005489 51.000088,21.0005489 C51.0000874,21.0005489 51.0000869,21.0005489 51.0000863,21.0005489 L5.17659467,21.0004993 C2.41517565,21.0004969 0.176605154,18.7619226 0.176607525,16.0005036 C0.176608658,14.6808757 0.69829325,13.4147565 1.62792979,12.4781704 Z"></path>
                        </g>
                    </g>
                    <path d="M117.84247,21 L124,21 C125.104569,21 126,21.8954305 126,23 L126,26 C126,27.1045695 125.104569,28 124,28 L120.044785,28 C118.020139,28 116.306127,26.5057379 116.030068,24.5 L115.861149,23.2726988 C115.710541,22.1784451 116.475518,21.1692858 117.569772,21.0186784 C117.660139,21.0062407 117.751251,21 117.84247,21 Z" id="Rectangle-23" fill="url(#linearGradient-7)" mask="url(#mask-4)"></path>
                </g>
            </g>
        </g>
    </g>
</svg>